<svg width="72" height="73" viewBox="0 0 72 73" fill="none" xmlns="http://www.w3.org/2000/svg">
<g clip-path="url(#clip0_344_1914)">
<path d="M72 25.5098C72 5.30976 67.2 0.509766 47 0.509766H25C4.79998 0.509766 -1.52588e-05 5.30976 -1.52588e-05 25.5098V47.5098C-1.52588e-05 67.7098 4.79998 72.5098 25 72.5098H47C67.2 72.5098 72 67.7098 72 47.5098V25.5098Z" fill="white"/>
<path fill-rule="evenodd" clip-rule="evenodd" d="M33.2345 53.5394C31.3962 53.5394 29.5578 53.5092 27.7223 53.5092C27.1425 53.5009 26.5681 53.4734 25.9938 53.3992C24.7545 53.2424 23.54 52.9124 22.3913 52.4257C20.6629 51.6942 19.0884 50.6052 17.7941 49.244C16.4202 47.8002 15.3622 46.0595 14.722 44.1675C14.2796 42.8612 14.0378 41.4917 14.0048 40.114C13.9691 38.761 14.1339 37.4053 14.4912 36.1045C15.1232 33.8165 16.3542 31.7073 18.0304 30.0325C18.4701 29.5925 18.94 29.1828 19.4319 28.8088C19.7616 28.5585 20.0969 28.2945 20.4706 28.1213C20.7399 27.9948 21.0201 27.9233 21.3114 27.8793C21.4598 27.8683 21.6027 27.8628 21.7511 27.8628C22.1935 27.893 22.6167 28.003 23.0041 28.2258C23.2569 28.3715 23.4878 28.5585 23.6829 28.7758C24.3423 29.5128 24.5567 30.577 24.2324 31.5148C24.0703 31.9768 23.7873 32.392 23.4136 32.7083C23.1772 32.909 22.9079 33.0713 22.6606 33.2638C22.4985 33.393 22.3391 33.525 22.1853 33.6653C21.6054 34.2043 21.0971 34.812 20.6849 35.4885C19.6132 37.254 19.2478 39.399 19.6627 41.423C19.7973 42.083 20.0144 42.7237 20.3057 43.3315C20.6822 44.1097 21.1795 44.8247 21.7731 45.449C22.4573 46.1695 23.2734 46.7635 24.1692 47.1952C25.2217 47.704 26.3593 47.9625 27.5244 48.0065C29.4287 48.0312 31.3302 48.023 33.2345 48.0175V42.1655C33.2345 40.8372 34.1908 39.7592 35.3724 39.7592C35.8917 39.7592 36.3671 39.9682 36.7381 40.3147L45.1741 47.4372C45.71 47.8745 46.0589 48.584 46.0589 49.3842C46.0589 50.1845 45.71 50.894 45.1741 51.3312L36.7381 58.4537C36.3671 58.8002 35.8917 59.0092 35.3724 59.0092C34.1908 59.0092 33.2345 57.9312 33.2345 56.6029V53.5394V53.5394ZM38.7304 26.0015V31.8534C38.7304 33.1817 37.7741 34.2597 36.5925 34.2597C36.0732 34.2597 35.5978 34.0507 35.2268 33.7042L26.7908 26.5817C26.255 26.1445 25.906 25.435 25.906 24.6347C25.906 23.8345 26.255 23.125 26.7908 22.6877L35.2268 15.5653C35.5978 15.2188 36.0732 15.0098 36.5925 15.0098C37.7741 15.0098 38.7304 16.0878 38.7304 17.416V20.4712C40.6786 20.463 42.6296 20.4905 44.5779 20.5152C45.1605 20.5372 45.7375 20.5785 46.3146 20.6692C47.7655 20.8892 49.1751 21.3457 50.4804 22.0167C51.9532 22.7702 53.2832 23.7905 54.3934 25.0142C55.4348 26.161 56.2812 27.481 56.8857 28.9082C57.3693 30.0577 57.6991 31.2732 57.8557 32.5134C58.0563 34.1029 57.9821 35.7254 57.6304 37.2902C57.0011 40.0897 55.476 42.6527 53.3327 44.5529C53.0222 44.8279 52.7007 45.0891 52.3654 45.3339C52.1291 45.5099 51.8873 45.6941 51.6235 45.8316C51.236 46.0406 50.7991 46.1534 50.3622 46.1561C49.2163 46.1699 48.1557 45.4439 47.7545 44.3714C47.6528 44.0964 47.5951 43.8049 47.5841 43.5134C47.5704 43.1724 47.6198 42.8287 47.7325 42.5042C47.8946 42.0422 48.1776 41.6269 48.5514 41.3107C48.7877 41.1099 49.057 40.9477 49.3043 40.7552C49.4664 40.6259 49.6258 40.4939 49.7797 40.3537C50.3595 39.8147 50.8678 39.2069 51.28 38.5304C52.3517 36.7649 52.7172 34.6199 52.3022 32.5959C52.1676 31.9359 51.9505 31.2952 51.6592 30.6875C51.2828 29.9092 50.7854 29.1942 50.1919 28.57C49.5076 27.8495 48.6915 27.2555 47.7957 26.8237C46.7432 26.315 45.6056 26.0565 44.4405 26.0125C42.5362 25.9877 40.6347 25.996 38.7304 26.0015V26.0015Z" fill="#FCC201"/>
</g>
<defs>
<clipPath id="clip0_344_1914">
<rect width="72" height="72" fill="white" transform="translate(-1.52588e-05 0.509766)"/>
</clipPath>
</defs>
</svg>
