<svg width="73" height="73" viewBox="0 0 73 73" fill="none" xmlns="http://www.w3.org/2000/svg">
<g clip-path="url(#clip0_344_1926)">
<path d="M72.6666 25.5098C72.6666 5.30976 67.8666 0.509766 47.6666 0.509766H25.6666C5.46663 0.509766 0.666626 5.30976 0.666626 25.5098V47.5098C0.666626 67.7098 5.46663 72.5098 25.6666 72.5098H47.6666C67.8666 72.5098 72.6666 67.7098 72.6666 47.5098V25.5098Z" fill="white"/>
<path d="M30.0771 35.0704C29.3048 34.2981 27.846 34.2981 27.0737 35.0704C26.6447 35.4994 26.4731 36.0143 26.4731 36.615C26.4731 37.2157 26.7305 37.7305 27.0737 38.1596L32.6515 43.7374C33.0806 44.1664 33.5954 44.338 34.1961 44.338C34.7968 44.338 35.3117 44.0806 35.7407 43.7374L46.0381 33.4399C46.4672 33.0109 46.6388 32.496 46.6388 31.8953C46.6388 31.2946 46.3814 30.7798 46.0381 30.3507C45.2658 29.5784 43.807 29.5784 43.0347 30.3507L34.1103 39.1893L30.0771 35.0704Z" fill="#FF8000"/>
<path d="M51.2727 19.3664L39.6023 15.5049C38.4009 15.0758 37.886 14.99 37.2853 14.9042C36.6847 14.8184 35.9982 14.8184 35.3975 14.9042C34.7968 14.99 34.2819 15.1616 33.0806 15.5049L21.4102 19.3664C19.8656 19.8813 18.75 21.3401 18.75 23.0563V39.0173C18.75 43.3079 20.123 47.1694 22.7832 50.4303C25.3575 53.6053 29.219 56.2655 34.1961 58.4108C34.8826 58.6682 35.6549 58.8398 36.3414 58.8398C37.1137 58.8398 37.8002 58.6682 38.4867 58.4108C43.4638 56.2655 47.3253 53.6053 49.8997 50.4303C52.5598 47.1694 53.9328 43.3079 53.9328 39.0173V22.9705C53.9328 21.3401 52.9031 19.8813 51.2727 19.3664ZM49.6422 23.3138V38.9315C49.6422 42.2782 48.6125 45.11 46.553 47.6843C44.4077 50.3445 41.1469 52.5756 36.7705 54.4634C36.4272 54.6351 36.084 54.6351 35.7407 54.4634C31.3643 52.5756 28.1035 50.3445 25.9582 47.6843C23.8987 45.11 22.869 42.2782 22.869 38.9315V23.3138L34.4536 19.538C35.4833 19.1948 35.7407 19.109 35.9982 19.109C36.2556 19.109 36.4272 19.109 36.6847 19.109C36.9421 19.109 37.1995 19.1948 38.2293 19.538L49.6422 23.3138Z" fill="#FF8000"/>
</g>
<defs>
<clipPath id="clip0_344_1926">
<rect width="72" height="72" fill="white" transform="translate(0.666626 0.509766)"/>
</clipPath>
</defs>
</svg>
