<svg width="36" height="25" viewBox="0 0 36 25" fill="none" xmlns="http://www.w3.org/2000/svg">
<path d="M16.96 24.5C23.6 24.5 28.96 19.14 28.96 12.5C28.96 5.86 23.6 0.5 16.96 0.5C10.32 0.5 4.95998 5.86 4.95998 12.5C4.87998 19.14 10.32 24.5 16.96 24.5Z" fill="#FED42B"/>
<path d="M11.04 7.06125L0.47998 20.9013L3.27998 24.1012L11.12 13.7013L10.32 19.3813L14.72 20.9013L20.08 12.3413C19.84 13.9413 19.44 17.6212 22.96 18.7412C28.48 20.4212 33.28 10.5013 35.52 5.46125L32.32 3.78125C29.84 8.98125 26 14.7412 24.48 14.3412C22.96 13.9412 24.32 9.06125 25.2 5.94125V5.86125L20.32 4.18125L14.48 13.7013L15.28 8.50125L11.04 7.06125Z" fill="black"/>
</svg>
