<svg width="24" height="25" viewBox="0 0 24 25" fill="none" xmlns="http://www.w3.org/2000/svg">
<path d="M24 12.5098C24 14.2698 23.6 15.8698 22.96 17.3898C21.12 21.6298 16.88 24.5098 12 24.5098C7.83998 24.5098 4.15998 22.4298 1.99998 19.2298C1.11998 17.9498 0.479977 16.4298 0.159977 14.8298C0.0799771 14.0298 -2.28882e-05 13.3098 -2.28882e-05 12.5098C-2.28882e-05 5.86977 5.35998 0.509766 12 0.509766C17.84 0.509766 22.64 4.66977 23.76 10.1898C23.92 10.9098 24 11.7098 24 12.5098Z" fill="#FED42B"/>
<path d="M24 12.5095C24 14.2695 23.6 15.8695 22.96 17.3895C21.44 18.6695 19.76 19.3095 18 18.7495C14.48 17.6295 14.88 13.9495 15.12 12.3495L9.75999 20.9095L5.35999 19.3895L6.15999 13.7095L1.99999 19.2295C1.11999 17.9495 0.479989 16.4295 0.159989 14.8295L6.07999 7.14953L10.32 8.58953L9.51999 13.7895L15.36 4.26953L20.24 5.94953V6.02953C19.36 9.14953 18 14.0295 19.52 14.4295C20.4 14.6695 22.08 12.8295 23.76 10.2695C23.92 10.9095 24 11.7095 24 12.5095Z" fill="black"/>
</svg>
