<?xml version="1.0" encoding="utf-8"?><svg viewBox="0 0 125 125" xmlns="http://www.w3.org/2000/svg" xmlns:xlink="http://www.w3.org/1999/xlink"><style>:root>svg{display:none}:root>svg:target{display:block}</style><svg fill="none" viewBox="0 0 73 73" id="brow" xmlns="http://www.w3.org/2000/svg"><path d="M72.833 25.51c0-20.2-4.8-25-25-25h-22c-20.2 0-25 4.8-25 25v22c0 20.2 4.8 25 25 25h22c20.2 0 25-4.8 25-25v-22z" fill="#fff"/><path d="M58.833 35.91c-4.2 1.1-6.4.6-7.3-1.4 3 1 6.1 1.1 7.3-2.2-1.9 1.3-4.4 2-5.3-.7 1.8-2.6 2.7-5.4 3-8.3-1.5 7.3-13.7 18.8-29.4 13.1-10.7-3.9-12.2 0-12.2 0 1.8-1.3 3.4-1 5.2-.2-.2.4-.4 1.2-.3 2.9.5-1.6.7-2 1.3-2.4.2.1.3.2.5.2-.4 1.3-1.1 4.3 0 6.2.3-2 1.1-4.2 2.3-5 .1 0 .2.1.3.1-.2 1.7-.3 5.7 1 8 0-1.6 0-5.2 1.1-7 .2.1.5.2.7.3-.3 1.5-.9 5.5.7 7.2 0-1.2 0-4.9 1.5-6.6.1 0 .2 0 .3.1-.2 2.1-.2 6.3 2.1 8.7-.6-2.3-.8-5.8-.1-8.3.3 2.5 1.3 7.1 5 9.3-1.4-2.4-2.3-4.3-2.2-9.2.7 2.7 2.6 8.2 6.3 8.4-2-2.4-3.2-3.8-3.7-7.5 2.4 4.8 4.9 7.3 8.7 8.3-3.2-2.7-5.6-4.9-5.8-8.8 1.8 2.8 4.6 7 8.9 7.3-3-2-5.7-4.8-6.1-7.3 1.7 2 4.4 6.3 9.4 6.2-2.9-1.9-5.3-3.1-7.1-7.5 2.5 2.7 3 5.8 9.7 4.8-2.3-.7-5.6-2.4-7.1-5.7 2.6 2.3 6.7 4 9.6 1.2-5.1-.5-4.9 0-7.3-3.1 2.9 1.2 5.7 2.7 9-1.1z" fill="#735CE6"/></svg><svg fill="none" viewBox="0 0 125 125" id="cost_no" xmlns="http://www.w3.org/2000/svg"><g clip-path="url(#bclip0_341_1372)"><path d="M62.5 124.01c34.242 0 62-27.759 62-62 0-34.242-27.758-62-62-62-34.242 0-62 27.758-62 62 0 34.241 27.758 62 62 62z" fill="#FF9500"/><path d="M62.5 124.01c34.242 0 62-27.759 62-62 0-34.242-27.758-62-62-62-34.242 0-62 27.758-62 62 0 34.241 27.758 62 62 62z" fill="url(#bpaint0_linear_341_1372)"/><g filter="url(#bfilter0_d_341_1372)"><path d="M62.5 24.811c20.545 0 37.2 16.656 37.2 37.2 0 20.545-16.655 37.2-37.2 37.2s-37.2-16.654-37.2-37.2c0-20.544 16.655-37.2 37.2-37.2zm0 41.076c-4.28 0-7.75 5.204-7.75 11.624 0 6.42 3.47 11.626 7.75 11.626 4.28 0 7.75-5.205 7.75-11.626 0-6.42-3.47-11.624-7.75-11.624zM50.487 48.061a5.813 5.813 0 100 11.625 5.813 5.813 0 000-11.625zm24.026 0a5.813 5.813 0 100 11.625 5.813 5.813 0 000-11.625zm-24.52-10.32c-2.166-2.167-7.292-2.098-11.544 2.155-4.252 4.251-4.321 9.377-2.155 11.544.378.448 1.287.242 2.03-.462.066-.062.13-.127.19-.195 1.88-1.88.47-3.6 3.846-6.977 3.382-3.382 5.096-1.965 6.977-3.845.761-.68 1.102-1.624.761-2.106a.61.61 0 00-.105-.114zm36.561 2.155c-4.252-4.253-9.378-4.322-11.544-2.155a.61.61 0 00-.106.114c-.34.482.001 1.425.762 2.106 1.88 1.88 3.595.463 6.977 3.845 3.377 3.377 1.966 5.098 3.846 6.977.06.068.124.133.19.195.743.704 1.653.91 2.03.462 2.166-2.167 2.097-7.293-2.155-11.544z" fill="#fff"/></g><path d="M62.5 24.811c20.545 0 37.2 16.656 37.2 37.2 0 20.545-16.655 37.2-37.2 37.2s-37.2-16.654-37.2-37.2c0-20.544 16.655-37.2 37.2-37.2zm0 41.076c-4.28 0-7.75 5.204-7.75 11.624 0 6.42 3.47 11.626 7.75 11.626 4.28 0 7.75-5.205 7.75-11.626 0-6.42-3.47-11.624-7.75-11.624zM50.487 48.061a5.813 5.813 0 100 11.625 5.813 5.813 0 000-11.625zm24.026 0a5.813 5.813 0 100 11.625 5.813 5.813 0 000-11.625zm-24.52-10.32c-2.166-2.167-7.292-2.098-11.544 2.155-4.252 4.251-4.321 9.377-2.155 11.544.378.448 1.287.242 2.03-.462.066-.062.13-.127.19-.195 1.88-1.88.47-3.6 3.846-6.977 3.382-3.382 5.096-1.965 6.977-3.845.761-.68 1.102-1.624.761-2.106a.61.61 0 00-.105-.114zm36.561 2.155c-4.252-4.253-9.378-4.322-11.544-2.155a.61.61 0 00-.106.114c-.34.482.001 1.425.762 2.106 1.88 1.88 3.595.463 6.977 3.845 3.377 3.377 1.966 5.098 3.846 6.977.06.068.124.133.19.195.743.704 1.653.91 2.03.462 2.166-2.167 2.097-7.293-2.155-11.544z" fill="url(#bpaint1_linear_341_1372)"/></g><defs><linearGradient id="bpaint0_linear_341_1372" x1="62.5" y1=".01" x2="62.5" y2="124.01" gradientUnits="userSpaceOnUse"><stop stop-color="#fff" stop-opacity=".2"/><stop offset="1" stop-color="#fff" stop-opacity="0"/></linearGradient><linearGradient id="bpaint1_linear_341_1372" x1="62.5" y1="24.811" x2="62.5" y2="99.212" gradientUnits="userSpaceOnUse"><stop stop-color="#fff"/><stop offset="1" stop-color="#fff" stop-opacity=".95"/></linearGradient><clipPath id="bclip0_341_1372"><path fill="#fff" transform="translate(.5 .01)" d="M0 0h124v124H0z"/></clipPath><filter id="bfilter0_d_341_1372" x="24.3" y="24.811" width="76.4" height="76.4" filterUnits="userSpaceOnUse" color-interpolation-filters="sRGB"><feFlood flood-opacity="0" result="BackgroundImageFix"/><feColorMatrix in="SourceAlpha" values="0 0 0 0 0 0 0 0 0 0 0 0 0 0 0 0 0 0 127 0" result="hardAlpha"/><feOffset dy="1"/><feGaussianBlur stdDeviation=".5"/><feColorMatrix values="0 0 0 0 0 0 0 0 0 0 0 0 0 0 0 0 0 0 0.05 0"/><feBlend in2="BackgroundImageFix" result="effect1_dropShadow_341_1372"/><feBlend in="SourceGraphic" in2="effect1_dropShadow_341_1372" result="shape"/></filter></defs></svg><svg fill="none" viewBox="0 0 125 125" id="cost_ok" xmlns="http://www.w3.org/2000/svg"><g clip-path="url(#cclip0_341_1386)"><g clip-path="url(#cclip1_341_1386)"><path d="M62.5 124.51c34.242 0 62-27.759 62-62 0-34.242-27.758-62-62-62-34.242 0-62 27.758-62 62 0 34.241 27.758 62 62 62z" fill="#00C732"/><path d="M62.5 124.51c34.242 0 62-27.759 62-62 0-34.242-27.758-62-62-62-34.242 0-62 27.758-62 62 0 34.241 27.758 62 62 62z" fill="url(#cpaint0_linear_341_1386)"/><g filter="url(#cfilter0_d_341_1386)"><path d="M38.043 53.212a6.365 6.365 0 016.343 5.836l2.04 24.47a6.365 6.365 0 01-6.344 6.894h-2.217a6.365 6.365 0 01-6.365-6.366V59.411a6.2 6.2 0 016.2-6.2h.343zm21.357-21.7c0-2.48 4.03-4.03 6.2-3.1 4.65 2.79 6.2 7.13 6.2 12.4v9.3h15.5c3.41 0 6.2 2.79 6.2 6.2l-6.2 27.9c0 3.41-2.79 6.2-6.2 6.2H59.057a6.365 6.365 0 01-6.343-5.837L50.1 53.21l9.3-12.4v-9.3z" fill="#000"/></g><path d="M38.043 53.212a6.365 6.365 0 016.343 5.836l2.04 24.47a6.365 6.365 0 01-6.344 6.894h-2.217a6.365 6.365 0 01-6.365-6.366V59.411a6.2 6.2 0 016.2-6.2h.343zm21.357-21.7c0-2.48 4.03-4.03 6.2-3.1 4.65 2.79 6.2 7.13 6.2 12.4v9.3h15.5c3.41 0 6.2 2.79 6.2 6.2l-6.2 27.9c0 3.41-2.79 6.2-6.2 6.2H59.057a6.365 6.365 0 01-6.343-5.837L50.1 53.21l9.3-12.4v-9.3z" fill="url(#cpaint1_linear_341_1386)"/></g></g><defs><linearGradient id="cpaint0_linear_341_1386" x1="62.5" y1=".51" x2="62.5" y2="124.51" gradientUnits="userSpaceOnUse"><stop stop-color="#fff" stop-opacity=".2"/><stop offset="1" stop-color="#fff" stop-opacity="0"/></linearGradient><linearGradient id="cpaint1_linear_341_1386" x1="62.5" y1="28.139" x2="62.5" y2="90.412" gradientUnits="userSpaceOnUse"><stop stop-color="#fff"/><stop offset="1" stop-color="#fff" stop-opacity=".95"/></linearGradient><clipPath id="cclip0_341_1386"><path fill="#fff" transform="translate(.5 .01)" d="M0 0h124v124H0z"/></clipPath><clipPath id="cclip1_341_1386"><path fill="#fff" transform="translate(.5 .51)" d="M0 0h124v124H0z"/></clipPath><filter id="cfilter0_d_341_1386" x="30.5" y="28.139" width="64" height="64.272" filterUnits="userSpaceOnUse" color-interpolation-filters="sRGB"><feFlood flood-opacity="0" result="BackgroundImageFix"/><feColorMatrix in="SourceAlpha" values="0 0 0 0 0 0 0 0 0 0 0 0 0 0 0 0 0 0 127 0" result="hardAlpha"/><feOffset dy="1"/><feGaussianBlur stdDeviation=".5"/><feColorMatrix values="0 0 0 0 0 0 0 0 0 0 0 0 0 0 0 0 0 0 0.05 0"/><feBlend in2="BackgroundImageFix" result="effect1_dropShadow_341_1386"/><feBlend in="SourceGraphic" in2="effect1_dropShadow_341_1386" result="shape"/></filter></defs></svg><svg fill="none" viewBox="0 0 73 73" id="delivery" xmlns="http://www.w3.org/2000/svg"><g clip-path="url(#dclip0_343_1876)"><path d="M72.333 25.51c0-20.2-4.8-25-25-25h-22c-20.2 0-25 4.8-25 25v22c0 20.2 4.8 25 25 25h22c20.2 0 25-4.8 25-25v-22z" fill="#fff"/><g clip-path="url(#dclip1_343_1876)"><path fill-rule="evenodd" clip-rule="evenodd" d="M44.583 26.01a2.758 2.758 0 012.722 2.42s.165 1.43.33 2.722a3.282 3.282 0 002.228 2.695c.165.055 3.025.083 3.025.083a2.754 2.754 0 012.365 2.722v5.858a2.758 2.758 0 012.75 2.75 2.758 2.758 0 01-2.75 2.75h-2.75c0 3.025-2.475 5.5-5.5 5.5s-5.5-2.475-5.5-5.5h-11c0 3.025-2.475 5.5-5.5 5.5s-5.5-2.475-5.5-5.5h-2.75a2.758 2.758 0 01-2.75-2.75 2.758 2.758 0 012.75-2.75h16.505c1.455 0 2.852-.58 3.883-1.609a5.503 5.503 0 001.612-3.891v-8.25a2.758 2.758 0 012.75-2.75h3.08zm2.42 24.75a2.758 2.758 0 01-2.75-2.75 2.758 2.758 0 012.75-2.75 2.758 2.758 0 012.75 2.75 2.758 2.758 0 01-2.75 2.75zm-22 0a2.758 2.758 0 01-2.75-2.75 2.758 2.758 0 012.75-2.75 2.758 2.758 0 012.75 2.75 2.758 2.758 0 01-2.75 2.75zM32.4 20.51c.957 0 1.873.38 2.547 1.053A3.61 3.61 0 0136 24.11v12.047c0 .957-.38 1.873-1.053 2.55A3.6 3.6 0 0132.4 39.76H17.603A3.6 3.6 0 0114 36.157V24.11a3.601 3.601 0 013.602-3.6H32.4zm11.963 13.75c.247 0 .522-.11.687-.303a.942.942 0 00.248-.742c-.11-1.045-.275-2.64-.358-3.6a.956.956 0 00-.962-.855h-1.513c-.55 0-.962.44-.962.962v3.575c0 .275.11.495.275.688.192.165.412.275.687.275h1.898z" fill="#E81F76"/></g></g><defs><clipPath id="dclip0_343_1876"><path fill="#fff" transform="translate(.333 .51)" d="M0 0h72v72H0z"/></clipPath><clipPath id="dclip1_343_1876"><path fill="#fff" transform="translate(14 15.01)" d="M0 0h44v44H0z"/></clipPath></defs></svg><svg fill="none" viewBox="0 0 73 73" id="euro" xmlns="http://www.w3.org/2000/svg"><path d="M72.167 25.51c0-20.2-4.8-25-25-25h-22c-20.2 0-25 4.8-25 25v22c0 20.2 4.8 25 25 25h22c20.2 0 25-4.8 25-25v-22z" fill="#fff"/><path d="M36.167 58.51c12.15 0 22-9.85 22-22s-9.85-22-22-22-22 9.85-22 22 9.85 22 22 22z" fill="#3372FF"/><path d="M36.167 23.11l.7 2.2h2.3l-1.8 1.4.7 2.2-1.9-1.4-1.9 1.4.7-2.2-1.8-1.4h2.3l.7-2.2zM26.667 27.01l2.1 1.1 1.6-1.7-.3 2.3 2 1.1-2.3.3-.3 2.3-1.1-2-2.3.3 1.7-1.6-1.1-2.1zM22.767 36.51l2.2-.7v-2.3l1.4 1.8 2.2-.7-1.4 1.9 1.4 1.9-2.2-.7-1.4 1.8v-2.3l-2.2-.7zM26.667 46.01l1.1-2.1-1.7-1.6 2.3.3 1.1-2 .3 2.3 2.3.3-2 1.1.3 2.3-1.6-1.7-2.1 1.1zM36.167 49.91l-.7-2.2h-2.3l1.8-1.4-.7-2.2 1.9 1.4 1.9-1.4-.7 2.2 1.8 1.4h-2.3l-.7 2.2zM45.667 46.01l-2.1-1.1-1.6 1.7.3-2.3-2-1.1 2.3-.3.3-2.3 1.1 2 2.3-.3-1.7 1.6 1.1 2.1zM49.567 36.51l-2.2.7v2.3l-1.4-1.8-2.2.7 1.4-1.9-1.4-1.9 2.2.7 1.4-1.8v2.3l2.2.7zM45.667 27.01l-1.1 2.1 1.7 1.6-2.3-.3-1.1 2-.3-2.3-2.3-.3 2-1.1-.3-2.3 1.6 1.7 2.1-1.1z" fill="#FFDA44"/></svg><svg fill="none" viewBox="0 0 73 73" id="green-fire" xmlns="http://www.w3.org/2000/svg"><path d="M72.5 25.51c0-20.2-4.8-25-25-25h-22c-20.2 0-25 4.8-25 25v22c0 20.2 4.8 25 25 25h22c20.2 0 25-4.8 25-25v-22z" fill="#fff"/><path d="M53.1 39.81c-.1 3.5-.9 7-2.5 10.1-2.1 3.7-5.2 6-9.1 7.3-2.4.8-4.8 1.2-7.3 1.2-.2 0-.3.1-.6.1h-2.3c-.6-.1-1.2-.1-1.9-.2s-1.2-.1-1.9-.2c-.2 0-.3-.1-.3-.4.3-2.1.5-4.3.8-6.4.8-4.3 2.3-8.2 5-11.7 1.8-2.4 3.9-4.4 6.5-5.9.1 0 .1-.1.1-.1 0-.1-.1-.1-.1-.1-1 .4-2.1.8-3.1 1.2-3.6 1.7-6.4 4.3-8.5 7.8-2.1 3.6-3.3 7.3-4 11.2-.1.9-.3 1.8-.5 2.8-.2-.4-.5-.8-.6-1.1-1.2-2.2-2.2-4.5-2.7-7-1.2-6.1.6-11 5.4-14.9 2-1.6 4.3-2.6 6.7-3.6 3.2-1.3 6.1-2.9 8.6-5.3 1.7-1.7 3-3.6 3.4-6 .3-1.3.3-2.6-.1-4.1.2.2.3.3.4.5 3.4 4.9 6.1 10.2 7.5 16 .9 2.9 1.2 5.9 1.1 8.8zM27.5 20.01c0 1.2-.9 2.1-2.1 2.1-1.2 0-2.1-.9-2.1-2.1 0-1.2 1-2.1 2.1-2.1s2 .9 2.1 2.1z" fill="#17CF7B"/><path d="M39.7 21.01c0 1.1-.8 1.9-1.9 1.9-1.1 0-1.9-.8-1.9-1.9 0-1 .9-1.9 1.9-1.9 1 0 1.9.8 1.9 1.9zM23.5 29.41c0 .6-.6 1.2-1.2 1.2-.7 0-1.2-.5-1.2-1.2 0-.6.6-1.2 1.2-1.2.6.1 1.2.6 1.2 1.2zM26.9 28.21c0 .5-.3.8-.8.8s-.8-.3-.8-.8c0-.4.4-.8.8-.8.5 0 .8.4.8.8zM32.6 25.01c0 .3-.3.6-.7.6-.3 0-.6-.3-.6-.6s.3-.6.7-.6c.4-.1.6.2.6.6z" fill="#17CF7B"/></svg><svg fill="none" viewBox="0 0 72 73" id="revers" xmlns="http://www.w3.org/2000/svg"><g clip-path="url(#gclip0_344_1914)"><path d="M72 25.51c0-20.2-4.8-25-25-25H25c-20.2 0-25 4.8-25 25v22c0 20.2 4.8 25 25 25h22c20.2 0 25-4.8 25-25v-22z" fill="#fff"/><path fill-rule="evenodd" clip-rule="evenodd" d="M33.234 53.54c-1.838 0-3.676-.03-5.512-.03a15.136 15.136 0 01-1.728-.11 13.633 13.633 0 01-3.603-.974 13.766 13.766 0 01-4.597-3.182 13.812 13.812 0 01-3.072-5.077 13.67 13.67 0 01-.717-4.053 13.79 13.79 0 01.486-4.01 13.824 13.824 0 014.94-7.295c.33-.25.666-.515 1.04-.688.269-.126.55-.198.84-.242.149-.01.292-.016.44-.016.442.03.866.14 1.253.363.253.146.484.332.679.55a2.78 2.78 0 01.55 2.739 2.766 2.766 0 01-.82 1.193c-.236.201-.505.363-.752.556a9.33 9.33 0 00-.476.401 8.61 8.61 0 00-1.5 1.824 8.294 8.294 0 00-1.022 5.934c.134.66.351 1.3.643 1.908a8.364 8.364 0 001.467 2.118c.684.72 1.5 1.315 2.396 1.746a8.395 8.395 0 003.355.812c1.905.024 3.806.016 5.71.01v-5.852c0-1.328.957-2.406 2.138-2.406.52 0 .995.21 1.366.556l8.436 7.122c.536.438.885 1.147.885 1.947s-.349 1.51-.885 1.947l-8.436 7.123a1.993 1.993 0 01-1.366.555c-1.181 0-2.138-1.078-2.138-2.406v-3.064zm5.496-27.538v5.851c0 1.329-.956 2.407-2.137 2.407-.52 0-.995-.21-1.366-.556l-8.436-7.122c-.536-.438-.885-1.147-.885-1.947s.349-1.51.885-1.947l8.436-7.123a1.993 1.993 0 011.366-.555c1.181 0 2.137 1.078 2.137 2.406v3.055c1.949-.008 3.9.02 5.848.044.582.022 1.16.063 1.737.154 1.45.22 2.86.677 4.165 1.348a13.822 13.822 0 016.405 6.892c.484 1.149.814 2.364.97 3.604.201 1.59.127 3.212-.225 4.777a13.811 13.811 0 01-5.265 8.044c-.236.176-.478.36-.742.498a2.705 2.705 0 01-1.26.324 2.774 2.774 0 01-2.608-1.785 2.784 2.784 0 01-.023-1.867c.163-.462.446-.877.82-1.193.236-.201.505-.363.752-.556a9.48 9.48 0 00.476-.401 8.613 8.613 0 001.5-1.824 8.293 8.293 0 001.022-5.934 8.214 8.214 0 00-.643-1.908 8.36 8.36 0 00-1.467-2.118 8.255 8.255 0 00-2.396-1.746 8.396 8.396 0 00-3.355-.812c-1.905-.024-3.806-.016-5.71-.01z" fill="#FCC201"/></g><defs><clipPath id="gclip0_344_1914"><path fill="#fff" transform="translate(0 .51)" d="M0 0h72v72H0z"/></clipPath></defs></svg><svg fill="none" viewBox="0 0 73 73" id="security" xmlns="http://www.w3.org/2000/svg"><g clip-path="url(#hclip0_344_1926)"><path d="M72.667 25.51c0-20.2-4.8-25-25-25h-22c-20.2 0-25 4.8-25 25v22c0 20.2 4.8 25 25 25h22c20.2 0 25-4.8 25-25v-22z" fill="#fff"/><path d="M30.077 35.07c-.772-.772-2.231-.772-3.003 0-.43.43-.6.944-.6 1.545 0 .6.256 1.115.6 1.545l5.577 5.577c.43.43.944.601 1.545.601.6 0 1.116-.257 1.545-.6L46.038 33.44c.43-.43.6-.944.6-1.545 0-.6-.257-1.115-.6-1.544-.772-.773-2.231-.773-3.003 0l-8.925 8.838-4.033-4.119z" fill="#FF8000"/><path d="M51.273 19.366l-11.67-3.861c-1.202-.43-1.717-.515-2.318-.6a6.955 6.955 0 00-1.887 0c-.601.085-1.116.257-2.317.6l-11.67 3.861a3.893 3.893 0 00-2.661 3.69v15.961c0 4.29 1.373 8.152 4.033 11.413 2.575 3.175 6.436 5.836 11.413 7.98.687.258 1.459.43 2.145.43.773 0 1.46-.172 2.146-.43 4.977-2.144 8.838-4.805 11.413-7.98 2.66-3.26 4.033-7.122 4.033-11.413V22.97c0-1.63-1.03-3.089-2.66-3.604zm-1.63 3.948V38.93c0 3.347-1.03 6.179-3.09 8.753-2.145 2.66-5.406 4.892-9.782 6.78a1.094 1.094 0 01-1.03 0c-4.377-1.888-7.637-4.12-9.783-6.78-2.06-2.574-3.089-5.406-3.089-8.752V23.313l11.585-3.776c1.03-.343 1.287-.429 1.544-.429h.687c.257 0 .514.086 1.544.429l11.413 3.776z" fill="#FF8000"/></g><defs><clipPath id="hclip0_344_1926"><path fill="#fff" transform="translate(.667 .51)" d="M0 0h72v72H0z"/></clipPath></defs></svg><svg fill="none" viewBox="0 0 113 113" id="serum10" xmlns="http://www.w3.org/2000/svg"><path d="M20.578 68.16c.71 0 1.597.178 2.483.178h2.661c1.774 0 3.548-.177 5.5-.355 3.547-.532 7.272-1.064 10.82-2.128 7.095-1.774 14.013-4.612 20.576-8.16 1.596-.887 3.193-1.951 4.79-2.838l2.483-1.42 2.306-1.596c1.596-1.064 3.015-2.128 4.612-3.37l4.257-3.725 2.129-1.774 1.95-1.951 4.08-4.08c2.484-2.66 4.79-5.676 7.273-8.514-2.306 3.015-4.434 6.208-6.74 9.224l-3.725 4.257-1.952 2.128-1.95 2.13-4.08 4.079c-1.42 1.242-2.839 2.483-4.435 3.725l-2.129 1.774-2.306 1.596c-1.596 1.065-3.015 2.306-4.79 3.37-6.562 4.258-13.48 7.628-20.93 10.111-3.725 1.242-7.45 2.306-11.353 3.016-1.951.355-3.902.71-5.854.887-1.064.177-1.95.177-3.015.355-1.064 0-1.951.177-3.193.177a3.558 3.558 0 01-3.548-3.548 3.558 3.558 0 013.548-3.547h.532z" fill="#ABB2BA"/><path d="M79.292 63.016v-.177s0-.178-.177-.178h-.71-.177s-5.144 3.193-12.062 5.322c-.355.177-.71.532-.532 1.064.177.355.532.71 1.064.532 3.725-1.242 6.918-2.483 9.224-3.725-3.725 4.08-12.95 11.53-33.703 16.142-.355.177-.71.532-.71.887s.355.71.71.71h.177C60.49 79.69 70.068 73.48 74.858 69.223c-.71 1.065-1.42 2.129-2.13 3.016-.354.355-.176.887.178 1.064.178.177.355.177.532.177.178 0 .532-.177.71-.354 2.838-3.548 5.144-9.224 5.321-9.579-.177-.177-.177-.355-.177-.532 0 .177 0 .177 0 0zM28.206 48.293c-1.774-2.306-3.37-3.902-3.726-6.74 0-.355-.354-.532-.532-.532-.177 0-.354 0-.354.177l-.178.177c-3.547 3.903-8.692 12.417-4.434 16.497.532.532 1.419 1.064 2.483 1.419 3.725 1.42 8.16-.532 8.87-4.612.354-2.306-.71-4.79-2.13-6.386zm-5.677 9.224c-4.966-1.242-2.306-6.208-2.306-6.208.887 3.902 3.193 2.66 4.258 3.37.886.887.886 3.37-1.952 2.838z" fill="#E81F76"/></svg><svg fill="none" viewBox="0 0 113 113" id="serum25" xmlns="http://www.w3.org/2000/svg"><path d="M20.245 68.244c.71 0 1.596.177 2.483.177h2.66c1.775 0 3.549-.177 5.5-.355 3.547-.532 7.272-1.064 10.82-2.128 7.096-1.774 14.014-4.612 20.577-8.16 1.596-.887 3.193-1.951 4.79-2.838l2.482-1.42 2.306-1.596c1.597-1.064 3.016-2.128 4.612-3.37l4.258-3.725 2.128-1.774 1.951-1.951 4.08-4.08c2.484-2.66 4.79-5.676 7.273-8.514-2.306 3.015-4.435 6.208-6.74 9.224l-3.726 4.257-1.95 2.129-1.952 2.128-4.08 4.08c-1.419 1.242-2.838 2.483-4.434 3.725l-2.13 1.774-2.305 1.596c-1.597 1.065-3.016 2.306-4.79 3.37-6.563 4.258-13.48 7.628-20.93 10.111-3.726 1.242-7.45 2.306-11.353 3.016-1.951.355-3.903.71-5.854.887-1.064.177-1.951.177-3.015.355-1.065 0-1.952.177-3.193.177a3.558 3.558 0 01-3.548-3.548 3.558 3.558 0 013.548-3.547h.532z" fill="#000"/><path d="M35.5 73.21c-1.065.355-2.306.533-3.37.887.354 2.484.177 4.435 0 5.5-.71-.888-1.597-2.484-2.484-4.967a51.174 51.174 0 01-1.064-3.725l-.532-2.661c-.533-3.193-.533-5.5-.355-6.74.71 1.064 1.951 3.192 2.838 6.562h.177c1.065-.177 2.129-.354 3.37-.532a36.953 36.953 0 00-2.483-6.386c-1.596-2.838-3.193-4.08-4.966-3.725-1.774.355-2.661 2.306-2.838 5.5v.709c0 1.419.177 3.015.354 4.612.178 1.064.355 2.128.71 3.193.355 1.241.532 2.306.887 3.37.532 1.774 1.241 3.548 1.95 4.79 1.775 2.66 3.194 3.902 4.613 3.902h.71c1.773-.355 2.66-2.306 2.66-5.5.178-1.418 0-3.015-.177-4.788zM43.483 70.906c-.178 0-.178 0-.355.177-.532.178-1.242.355-1.952.532.178 1.242 0 2.13 0 2.484-.354-.355-.71-1.065-1.064-2.129-.177-.355-.177-.532-.355-.887-.177-.71-.532-1.419-.71-2.306-.177-.532-.177-1.064-.354-1.597v-.532c-.178-1.774-.178-3.015-.178-3.548a12.825 12.825 0 011.597 3.193c.532-.177 1.064-.177 1.42-.354.177 0 .531-.178.709-.178-.355-1.064-.71-2.128-1.242-3.015-.887-1.774-1.951-2.484-3.016-2.306-1.064.177-1.596 1.419-1.774 3.37v.532c0 .887 0 1.774.178 2.661v.177c.177.71.177 1.242.355 1.952l.532 2.129c.177.354.355.886.532 1.241.177.71.532 1.242.887 1.774.887 1.597 1.774 2.306 2.66 2.306h.355c1.065-.177 1.597-1.419 1.775-3.37.177-.71.177-1.42 0-2.306z" fill="#E81F76"/><path d="M31.952 74.099c-.887.177-1.596.354-2.306.354a51.124 51.124 0 01-1.064-3.725l-.532-2.661c.887 0 1.774-.177 2.66-.177.178.71.355 1.419.533 2.306.355 1.419.532 2.66.71 3.903z" fill="#000"/></svg><svg fill="none" viewBox="0 0 113 113" id="serum60" xmlns="http://www.w3.org/2000/svg"><g clip-path="url(#kclip0_328_589)"><path d="M20.897 79.274c1.788.325 3.902.65 5.853.65 2.114.163 4.065.163 6.18 0 4.064-.162 8.292-.812 12.194-1.625 8.13-1.952 15.773-5.366 22.602-10.244 6.83-4.878 12.683-11.057 17.398-18.212 4.878-6.992 8.618-14.796 11.708-22.764-2.44 8.293-5.854 16.26-10.244 23.74-4.39 7.48-10.082 14.309-16.91 19.837-6.83 5.529-14.798 9.756-23.253 12.358-4.227 1.3-8.618 2.114-13.17 2.602-2.277.162-4.39.325-6.667.325s-4.39 0-6.992-.325c-1.789-.163-3.09-1.951-2.764-3.578.162-1.788 1.95-3.089 3.577-2.764.325-.162.325-.162.488 0z" fill="#000"/><path d="M20.734 67.404c2.602.488 5.691.65 8.618.65a79.45 79.45 0 008.78-.487c5.854-.65 11.545-1.952 17.074-4.065 5.528-2.114 10.731-5.204 15.121-9.106 4.553-3.903 8.293-8.78 11.22-13.984-2.439 5.529-5.854 10.732-10.081 15.122-4.228 4.39-9.431 8.13-14.96 10.894-5.528 2.765-11.544 4.716-17.723 5.854-3.09.65-6.179.976-9.268 1.3-3.09.163-6.18.326-9.594.163-1.789-.162-3.09-1.626-3.09-3.414.163-1.789 1.627-3.09 3.415-3.09.163.163.325.163.488.163z" fill="#000"/><path d="M20.571 56.673c4.066.487 8.456.65 12.846.65 4.39-.163 8.618-.488 12.846-1.463 4.227-.813 8.455-2.114 12.357-4.065 1.951-.976 3.74-2.114 5.529-3.415 1.788-1.3 3.414-2.927 4.715-4.553-1.3 1.789-2.602 3.577-4.228 5.203-1.625 1.626-3.414 2.927-5.203 4.228-3.74 2.44-7.967 4.39-12.195 5.854-4.39 1.463-8.78 2.439-13.333 3.09-4.553.65-9.106.975-13.821.975a3.262 3.262 0 01-3.252-3.252 3.262 3.262 0 013.252-3.252h.487z" fill="#000"/><path fill-rule="evenodd" clip-rule="evenodd" d="M41.091 40.846c.14.053.32.201.36.297l2.709 4.472c.34.53 1.12.425 1.32-.22l1.594-5.16c.06-.138.22-.318.32-.36l4.819-2.815c.56-.348.479-1.1-.182-1.27l-5.245-1.271c-.14-.054-.32-.202-.36-.298l-2.708-4.472c-.341-.53-1.121-.425-1.32.22l-1.595 5.16c-.06.138-.22.318-.32.36l-4.818 2.815c-.56.348-.48 1.1.181 1.27l5.245 1.272zM63.097 31.75c-.014.078-.074.185-.12.215l-2.054 1.822c-.242.226-.114.62.238.661l2.817.336a.44.44 0 01.216.131l1.91 2.224c.232.256.613.143.639-.214l.16-2.83c.015-.077.075-.185.12-.214l2.055-1.822c.241-.226.114-.62-.239-.661l-2.817-.336a.441.441 0 01-.215-.131l-1.91-2.224c-.233-.256-.614-.143-.64.214l-.16 2.83z" fill="#E81F76"/></g><defs><clipPath id="kclip0_328_589"><path fill="#fff" transform="translate(16.832 27.08)" d="M0 0h80v58.862H0z"/></clipPath></defs></svg></svg>