<?xml version="1.0" encoding="utf-8"?><svg viewBox="0 0 291 201" xmlns="http://www.w3.org/2000/svg" xmlns:xlink="http://www.w3.org/1999/xlink"><style>:root>svg{display:none}:root>svg:target{display:block}</style><svg fill="none" viewBox="0 0 73 72" id="crown" xmlns="http://www.w3.org/2000/svg"><g clip-path="url(#aclip0_1834_4005)"><path d="M72.833 25c0-20.2-4.8-25-25-25h-22c-20.2 0-25 4.8-25 25v22c0 20.2 4.8 25 25 25h22c20.2 0 25-4.8 25-25V25z" fill="#fff"/><path d="M22.35 28.448a18.999 18.999 0 0111.275-6.783 4.583 4.583 0 116.75 0 18.999 18.999 0 0111.275 6.783 18.42 18.42 0 00-5.599 6.818 10.992 10.992 0 00-18.104 0 18.399 18.399 0 00-5.597-6.818zm31.209 25.885H20.44a1.834 1.834 0 00.059 3.666h33a1.833 1.833 0 00.059-3.666zm1.014-3.667S59 34.628 59 33.25a2.656 2.656 0 00-2.75-2.75c-3.667 0-8.25 7.067-8.25 11a1.833 1.833 0 01-3.667 0 7.333 7.333 0 00-14.666 0 1.833 1.833 0 01-3.667 0c0-3.933-4.583-11-8.25-11A2.656 2.656 0 0015 33.25c0 1.378 4.427 17.416 4.427 17.416h35.145z" fill="#FCC201"/></g><defs><clipPath id="aclip0_1834_4005"><path fill="#fff" transform="translate(.833)" d="M0 0h72v72H0z"/></clipPath></defs></svg><svg fill="none" viewBox="0 0 88 94" id="hearts" xmlns="http://www.w3.org/2000/svg"><g clip-path="url(#bclip0_1844_3486)" fill="#fff"><path d="M22.7 27.3c0 1.8-1.6 3.3-3.3 3.3-1.9 0-3.3-1.4-3.3-3.3 0-1.8 1.6-3.3 3.3-3.3 1.7 0 3.3 1.4 3.3 3.3zM32.4 23.8c0 1.4-1 2.1-2.3 2.1-1.3 0-2.3-1-2.3-2.3 0-1.2 1.2-2.3 2.3-2.3 1.3.2 2.3 1.4 2.3 2.5zM48.5 14.7c0 1-1 1.8-1.9 1.6-1 0-1.6-1-1.6-1.8 0-1 1-1.8 1.9-1.8.9.2 1.6 1 1.6 2zM47.2 36.8c-6.1.1-11.7 3.5-14.7 8.8-3-5.3-8.6-8.7-14.7-8.8C7.9 37.3.1 45.7.5 55.6.5 67.8 13.3 81 24 90c4.9 4.1 12.1 4.1 17.1 0 10.6-9 23.4-22.2 23.4-34.4.4-9.9-7.4-18.3-17.3-18.8zM81.3 19.102c-2.2 0-4.2 1.2-5.3 3.2-1.1-1.9-3.1-3.1-5.3-3.2-3.6.2-6.4 3.2-6.2 6.8 0 4.4 4.6 9.1 8.4 12.3 1.8 1.5 4.4 1.5 6.1 0 3.8-3.2 8.4-8 8.4-12.3.2-3.6-2.6-6.7-6.1-6.8zM30.7 0c-1.1 0-2.2.6-2.7 1.6-.5-1-1.6-1.6-2.7-1.6-1.8.1-3.3 1.6-3.2 3.5 0 2.2 2.4 4.7 4.3 6.4.9.8 2.2.8 3.2 0 2-1.7 4.3-4.1 4.3-6.4C34 1.6 32.6.1 30.7 0zM65.7 1.2c-.9 0-1.7.5-2.1 1.3-.4-.8-1.2-1.2-2.1-1.3-1.4.1-2.5 1.3-2.5 2.7 0 1.7 1.8 3.6 3.4 4.9.7.6 1.7.6 2.4 0 1.5-1.3 3.4-3.2 3.4-4.9.1-1.5-1.1-2.7-2.5-2.7z"/></g><defs><clipPath id="bclip0_1844_3486"><path fill="#fff" transform="translate(.5)" d="M0 0h87v93.1H0z"/></clipPath></defs></svg><svg fill="none" viewBox="0 0 291 201" id="percent" xmlns="http://www.w3.org/2000/svg"><g clip-path="url(#cclip0_1833_3802)"><path d="M290.3 67c0 7.5-6.1 13.3-13.3 13.3-7.5 0-13.3-6.1-13.3-13.3 0-7.2 6.1-13.3 13.3-13.3 7.3-.2 13.3 5.9 13.3 13.3z" fill="#E81F76"/><path d="M200.2 27.002c.4 1 .8 2 1.2 3.1-.2-.6-.7-1.1-1.4-1.4-1.8-.8-4.4-.1-5.9 1.5-.9 1-1.2 2.2-.8 3.1l-1.2-3.1c-.4-.9-.1-2.1.8-3.1 1.5-1.6 4.1-2.3 5.9-1.5.7.3 1.2.8 1.4 1.4z" fill="url(#cpaint0_linear_1833_3802)"/><path d="M281.4 48c-.4-1-.8-2-1.2-3.1.5 1.2.1 2.6-1 3.9l-22.3 24.7c-1.9 2.1-5.3 2.9-7.5 1.9L189 48c-1.7-.8-3.3-2.5-4-4.3.4 1 .8 2 1.2 3.1.7 1.8 2.2 3.5 4 4.3l60.4 27.4c2.3 1 5.7.2 7.5-1.9l22.3-24.7c1.2-1.3 1.5-2.7 1-3.9z" fill="url(#cpaint1_linear_1833_3802)"/><path d="M280.4 45.499c-.3-.8-.9-1.5-1.8-1.9l-60.4-27.4c-2.3-1-6.5-1.2-9.4-.3l-19.8 5.8c-2.9.9-5.2 3.4-5.1 5.6l.5 8.7.4 6.5c0 .2 0 .5.1.7v.2c.1.5.3 1 .6 1.5.8 1.5 2.1 2.9 3.6 3.5l1 .5 59.4 27c1.7.8 4.1.5 5.9-.6.6-.4 1.2-.8 1.6-1.3l6.7-7.4 11.5-12.8 4.1-4.5c1.1-1.3 1.4-2.7 1.1-3.8zm-87.1-13.7c-.3-.2-.6-.5-.8-.8-.2-.3-.3-.6-.3-.9-.1-.8.2-1.7.9-2.5 1.5-1.6 4.1-2.3 5.9-1.5.7.3 1.2.9 1.4 1.5.1.4.2.9 0 1.4-.1.5-.4 1.1-.9 1.6-1.5 1.6-4.1 2.3-5.9 1.5-.1-.2-.2-.3-.3-.3z" fill="#fff"/><path d="M280.4 45.6v-.1-.3c0-.1 0-.1-.1-.2-.3-.7-.9-1.4-1.7-1.8l-60.4-27.4c-2.3-1-6.5-1.2-9.4-.3L189 21.3c-2.9.9-5.2 3.4-5 5.6l.5 9.1.3 6.1c0 .4.1.7.2 1.1 0 .1 0 .1.1.2 0 .1.1.3.1.4.1.2.1.3.2.5.1.1.1.3.2.4 0 0 .1.1.1.2.1.1.1.2.2.3.1.1.2.3.3.4.1.1.2.3.3.4.3.4.7.7 1 1.1.1.1.3.2.4.3.1.1.3.2.4.3.1.1.2.1.3.2h.1c.1.1.3.2.5.2l1.3.6 59.1 26.8c.7.3 1.4.4 2.2.4h.8c.2 0 .3 0 .5-.1.3-.1.6-.1.9-.2l.9-.3c.1-.1.3-.1.4-.2h.1c.2-.1.3-.2.4-.3.2-.1.3-.2.5-.4.1-.1.3-.2.4-.3.1-.2.3-.3.4-.5l6.8-7.6 11-12.1 4.5-5c.3-.3.5-.7.7-1 .1-.3.3-.5.3-.8.1-.2.1-.4.1-.6v-.4c-.1-.2-.1-.4-.1-.5zm-80.1-18.1c.1.4 0 .8-.1 1.3-.2.4-.4.9-.8 1.3-1.5 1.6-4.1 2.3-5.9 1.5 0 0-.1 0-.1-.1-.6-.3-.9-.7-1.2-1.1 0-.1-.1-.2-.1-.3 0-.1-.1-.2-.1-.3v-.4c0-.2 0-.4.1-.6 0-.2.1-.4.2-.6l.3-.6c.1-.2.3-.4.4-.5 1.5-1.6 4.1-2.3 5.9-1.5.1 0 .1.1.2.1s.1.1.2.1c.1.1.3.2.4.3l.1.1c.1.1.2.2.3.4.1.1.1.2.2.3 0 .1 0 .1.1.1-.1.2-.1.3-.1.5z" fill="url(#cpaint2_linear_1833_3802)"/><path d="M251.6 36.7c-.5-1-1.3-1.7-2.5-2.3-1.2-.6-2.5-.7-3.9-.6-1.5.1-2.9.5-4.3 1.2s-2.6 1.5-3.6 2.6-1.6 2.2-1.9 3.4c-.3 1.2-.2 2.3.3 3.3s1.3 1.7 2.4 2.3c1.2.5 2.5.7 3.9.6 1.5-.1 2.9-.5 4.3-1.2s2.6-1.6 3.6-2.6c1-1.1 1.6-2.2 1.9-3.4.4-1.3.3-2.3-.2-3.3zm-5.6 4.8c-.6.6-1.3 1-2.1 1.2-.8.2-1.6.2-2.2-.1-.6-.3-1-.8-1-1.4 0-.6.2-1.2.7-1.8.5-.6 1.2-1 2-1.2.8-.2 1.5-.2 2.2.1.6.3 1 .8 1.1 1.4.1.6-.2 1.2-.7 1.8zm-7.2 13.3L225.6 30c-.1-.1-.1-.2-.2-.3h-.4c-.1.1-.3.2-.4.3l-3.2 3.6c-.3.3-.3.6-.2.8l12.1 22.7 1.1 2.1c0 .1.1.2.2.2.2.1.5 0 .8-.3l.1-.1 3.1-3.4c.2-.3.3-.6.2-.8zm-14.3-10.3c-.5-1-1.3-1.7-2.5-2.3-1.2-.5-2.5-.7-3.9-.6-1 .1-2 .3-3 .7-.4.1-.8.3-1.2.5-1.4.7-2.6 1.5-3.6 2.6s-1.6 2.2-1.9 3.4c-.3 1.2-.2 2.3.3 3.3s1.3 1.7 2.4 2.3c1.2.5 2.5.7 3.9.6 1.5-.1 2.9-.5 4.3-1.2s2.6-1.6 3.6-2.7c.5-.5.8-1 1.1-1.5.4-.6.6-1.2.8-1.9.3-1.1.2-2.2-.3-3.2zm-5.6 4.9c-.6.6-1.2 1-2.1 1.3-.8.2-1.6.2-2.2-.1-.7-.3-1-.8-1.1-1.4 0-.6.2-1.2.7-1.8.5-.6 1.2-1 2-1.2.8-.2 1.6-.2 2.2.1.6.3 1 .8 1.1 1.4.2.5-.1 1.1-.6 1.7z" fill="url(#cpaint3_linear_1833_3802)"/><g opacity=".5" fill="#E81F76"><path opacity=".3" d="M149.3 201h-17.1v-.2h-35v-.1h-1.8c.8-6.2 3.7-11.7 8-15.9 1.6-1.6 3.4-3 5.4-4.1 4-2.3 8.7-3.7 13.7-3.7 5.6 0 10.9 1.7 15.2 4.6 1.7 1.1 3.3 2.5 4.7 4 3.6 4.2 6.3 9.5 6.9 15.4zM230.7 200.798h-33.9v.2H167v-1.3c0-.9 0-1.7.1-2.5.5-7 3.3-13.3 7.6-18.3l.2-.2c4.3-4.9 10.1-8.5 16.8-10 2.3-.5 4.7-.8 7.2-.8 1.6 0 3.2.1 4.7.3 15.1 2.2 26.7 15.1 27.1 30.7V200.798z"/><path opacity=".3" d="M115 199.698v1.1H97.2v-.1H51.3v-1c0-.7 0-1.4.1-2.1 0-.8.1-1.5.2-2.2.1-.8.2-1.6.4-2.4 1.2-5.6 3.8-10.6 7.5-14.6 1.3-1.5 2.8-2.9 4.4-4.1 2.2-1.6 4.5-3 7.1-4 1.4-.6 2.9-1.1 4.4-1.5 2.5-.6 5.1-.9 7.7-.9 10.5 0 19.8 5.1 25.6 12.9 2.7 3.6 4.6 7.9 5.6 12.4.4 2.1.7 4.3.7 6.5z"/></g><path d="M24.4 82.9c0 4.6-3.9 8.4-8.4 8.4s-8.4-3.9-8.4-8.4c0-4.6 3.9-8.4 8.4-8.4 4.6.3 8.4 3.9 8.4 8.4z" fill="#E81F76"/><path d="M37.7 21.2c2.3 0 4.1-1.9 4.1-4.1 0-2.2-2-4.1-4.1-4.1-2.2 0-4.1 1.9-4.1 4.1 0 2.2 1.8 4.1 4.1 4.1zM279 146.699c0 3.3-2.9 6.2-6.2 6.2-3.3 0-6.2-2.9-6.2-6.2 0-3.3 2.9-6.2 6.2-6.2 3.3-.1 6.2 2.8 6.2 6.2z" fill="#E81F76" fill-opacity=".2"/><path d="M241.4 23.3c5.6 0 10.1-4.5 10.1-10.1C251.5 7.5 247 3 241.4 3s-10.1 4.5-10.1 10.1c0 5.7 4.4 10.2 10.1 10.2z" fill="#E81F76"/><path d="M269.3 5.202c0 2.6-2.2 5.1-5.1 5.1-2.9 0-5.1-2.2-5.1-5.1 0-2.6 2.2-5.1 5.1-5.1 2.9 0 5.1 2.1 5.1 5.1zM170.6 16.198c0 1.9-1.4 3.3-3.3 3.3s-3.3-1.4-3.3-3.3 1.4-3.3 3.3-3.3c1.8 0 3.3 1.7 3.3 3.3z" fill="#E81F76" fill-opacity=".2"/><path d="M15.7 137.998c0 4.1-3.3 7.5-7.5 7.5s-7.4-3.3-7.4-7.5c0-4.1 3.3-7.5 7.5-7.5 4.2-.1 7.4 3.4 7.4 7.5z" fill="#E81F76"/><path d="M42.5 113.299c0 2.6-2.2 4.6-4.6 4.6-2.6 0-4.6-2.2-4.6-4.6 0-2.6 2.2-4.6 4.6-4.6 2.7.1 4.6 2 4.6 4.6z" fill="#E81F76" fill-opacity=".2"/><path d="M23.6 5.4c0 1.9-1.4 3.3-3.3 3.3S17 7.3 17 5.4 18.4 2 20.3 2s3.3 1.6 3.3 3.4zM93.1 28.4c3.2 0 5.8-2.6 5.8-5.8 0-3.2-2.6-5.8-5.8-5.8-3.2 0-5.8 2.6-5.8 5.8 0 3.2 2.6 5.8 5.8 5.8z" fill="#E81F76"/><path d="M214.1 118.602c-2.1-3-4.7-5-7.9-5.9-2.9-.8-5.4-.6-7.6.8l-14.2 8.5c2.2-1.3 4.8-1.6 7.6-.8 3.2.9 5.8 2.9 7.9 5.9 2.2 3.1 3.1 6.4 2.9 9.8-.2 3.4-1.5 6-3.9 7.8l-.9.6 14.2-8.5.9-.6c2.4-1.8 3.7-4.4 3.9-7.8.2-3.4-.7-6.7-2.9-9.8z" fill="url(#cpaint4_linear_1833_3802)"/><path d="M224.3 157c-3.8 2.3-7.6 4.5-11.4 6.8-.9.6-1.9 1.1-2.8 1.7-3.9 2.3-8.2 3.5-13 3.6-5.6.1-11.2-1.4-16.7-4.5-5.5-3-10.1-7.3-14-12.9-3.8-5.6-6.2-11.5-7.2-17.8-1-6.3-.5-12.2 1.4-17.7s5.1-9.9 9.6-13.2c.7-.5 1.4-1 2.2-1.5l14.2-8.5c-.7.4-1.5.9-2.2 1.5-4.5 3.3-7.6 7.7-9.6 13.2-1.9 5.5-2.4 11.4-1.4 17.7 1 6.3 3.4 12.2 7.2 17.8 3.8 5.5 8.5 9.8 14 12.9 5.5 3.1 11 4.5 16.7 4.5 4.7 0 9-1.2 13-3.6z" fill="url(#cpaint5_linear_1833_3802)"/><path d="M237.3 124.701c-.9-5.2-2.7-10.1-5.4-14.7-.6-1-1.2-2-1.9-3-3.8-5.5-8.5-9.8-13.9-12.8-2.5-1.4-5-2.4-7.5-3.1-3-.9-6-1.3-9.1-1.3-4.7 0-9 1.2-12.9 3.5 0 0-.1 0-.1.1 0 0-.1 0-.1.1 0 0-.1.1-.2.1 0 0-.1.1-.2.1-.2.1-.4.3-.6.4-.4.2-.7.5-1.1.8-4.5 3.3-7.7 7.7-9.6 13.2-1.9 5.5-2.4 11.4-1.4 17.7 1 6.3 3.4 12.2 7.2 17.8 3.8 5.5 8.5 9.8 14 12.9 5.5 3.1 11 4.5 16.7 4.5.6 0 1.2 0 1.8-.1h.6c.2 0 .4 0 .5-.1.8-.1 1.5-.2 2.2-.3.3-.1.6-.1.9-.2.3-.1.5-.1.8-.2.2 0 .3-.1.5-.1.4-.1.8-.3 1.2-.4.4-.1.9-.3 1.3-.5.7-.3 1.4-.6 2.1-1l.6-.3h.1c.9-.5 1.8-1.1 2.7-1.8 4.4-3.3 7.6-7.7 9.5-13.2 1.9-5.9 2.3-11.8 1.3-18.1zm-20.3 3.7c-.2 3.4-1.5 6-3.9 7.8l-.9.6c-2.3 1.4-4.9 1.7-7.7.8-.6-.2-1.2-.4-1.7-.6-2.5-1.1-4.6-2.9-6.3-5.4-2.2-3.1-3.1-6.4-2.8-9.8.3-3.4 1.7-6 4.1-7.8.2-.1.4-.3.6-.4.2-.1.4-.3.6-.4.1 0 .1-.1.2-.1.2-.1.3-.2.5-.2.2-.1.4-.1.5-.2.1 0 .3-.1.4-.1.1 0 .1 0 .2-.1.2 0 .3-.1.5-.1s.4-.1.5-.1c.9-.1 1.8-.1 2.8 0 .5.1 1 .2 1.6.3 3.2.9 5.8 2.9 7.9 5.9 2.2 3.2 3.1 6.5 2.9 9.9z" fill="#E81F76"/><path d="M106.7 111.299l-14.2 8.5.9-.6c2.4-1.8 3.7-4.4 3.9-7.8.2-3.4-.8-6.7-3-9.8-2.1-3-4.7-5-7.9-5.9-2.9-.8-5.4-.6-7.6.8L93 88c2.2-1.3 4.8-1.6 7.6-.8 3.2.9 5.8 2.9 7.9 5.9 2.2 3.1 3.1 6.4 2.9 9.8-.2 3.4-1.5 6-3.9 7.8-.3.2-.6.4-.8.6z" fill="url(#cpaint6_linear_1833_3802)"/><path d="M175 191.401l-7.9 5.8-5.2 3.8h-5c-.2-.3-.3-.7-.3-1l-3.8-20.8-25.6-140.8c-.4-1.6.1-2.8 1.4-3.8l14.5-10.7c.6-.4 1.2-.6 1.7-.6s1 .3 1.3.8c.3.5.6 1.1.7 2l15.7 85.9 8.3 45.1 3.9 21.5.1.3 1.6 8.7c.3 1.6-.1 2.8-1.4 3.8z" fill="#E81F76"/><path d="M156.6 200.001c0 .3.1.6.3 1H141v-.2l-.4-2.2-1.7-9.5-1.4-7.4-10.6-58-9.1-49.9-4.9-27.1c-.4-1.6.1-2.8 1.4-3.7l14.5-10.7 14.2-8.5-14.5 10.8c-1.3.9-1.7 2.2-1.4 3.8l25.7 140.9 3.8 20.7z" fill="url(#cpaint7_linear_1833_3802)"/><path d="M118.7 131.5l-14.2 8.5c-3.9 2.3-8.2 3.5-13 3.6-5.7.1-11.2-1.4-16.7-4.5s-10.1-7.4-13.9-12.9c-3.8-5.6-6.2-11.5-7.2-17.8-1-6.3-.5-12.2 1.4-17.7s5.1-9.9 9.5-13.2c.7-.5 1.4-1 2.2-1.5 3.8-2.3 7.6-4.5 11.4-6.8.9-.6 1.9-1.1 2.8-1.7-.7.4-1.5.9-2.2 1.5-4.5 3.3-7.6 7.7-9.5 13.2-1.9 5.5-2.4 11.4-1.4 17.7 1 6.3 3.4 12.2 7.2 17.8 3.8 5.5 8.5 9.8 13.9 12.9 5.5 3.1 11 4.5 16.7 4.5 4.7 0 9.1-1.2 13-3.6z" fill="url(#cpaint8_linear_1833_3802)"/><path d="M131.7 99.2c-1.1-6.3-3.5-12.2-7.3-17.8-1.9-2.8-4.1-5.3-6.5-7.5-2.3-2.1-4.8-3.9-7.4-5.3-5.4-3-10.9-4.5-16.5-4.4-4.7 0-9 1.2-12.9 3.6-.2.1-.3.2-.4.3-.2.1-.4.3-.6.4-.4.2-.7.5-1.1.8-4.5 3.3-7.6 7.7-9.5 13.2-1.9 5.5-2.4 11.4-1.4 17.7 1 6.3 3.4 12.2 7.2 17.8.4.6.8 1.2 1.3 1.7.3.4.6.8 1 1.2.1.1.2.3.3.4.3.4.7.8 1 1.2.4.5.8.9 1.3 1.4.4.5.9.9 1.3 1.3.4.3.7.7 1.1 1 0 0 .1 0 .1.1l.5.5c.8.7 1.7 1.3 2.5 1.9 1.2.8 2.3 1.6 3.6 2.3.2.1.5.3.7.4.7.4 1.4.7 2.1 1.1.3.1.5.3.8.4.3.1.5.2.8.3.3.1.5.2.8.3.9.3 1.8.6 2.8.9.3.1.7.2 1 .3.3.1.7.2 1 .2.3.1.7.1 1 .2.4.1.8.1 1.2.2.3 0 .6.1.9.1.7.1 1.4.1 2.1.1h2.8c.5 0 1-.1 1.5-.1.2 0 .4 0 .6-.1.3 0 .5-.1.8-.1.3-.1.6-.1.8-.2.3-.1.7-.2 1-.2h.2c.3-.1.6-.2.9-.2.3-.1.6-.2 1-.3l.9-.3.6-.3c.4-.2.8-.3 1.2-.5.3-.2.6-.3.9-.5.2-.1.4-.2.5-.3.1-.1.2-.1.3-.2.1-.1.2-.1.3-.2h.1c.8-.5 1.5-.9 2.2-1.5 2.4-1.8 4.5-3.9 6.1-6.3 1.4-2.1 2.6-4.4 3.4-6.9 1.7-5.9 2.2-11.8 1.1-18.1zm-20.2 3.7c-.2 3.4-1.5 6-3.9 7.8-.2.2-.5.3-.7.5-2.3 1.5-5 1.8-7.9.9-.6-.2-1.2-.4-1.7-.6-2.4-1.1-4.5-2.9-6.3-5.5-2.2-3.1-3.1-6.4-2.8-9.8.3-3.4 1.6-6 4-7.8.1-.1.2-.1.3-.2.1-.1.2-.1.3-.2.1 0 .2-.1.3-.2.1-.1.3-.2.5-.3.2-.1.3-.2.5-.3.1 0 .2-.1.4-.1.1-.1.3-.1.5-.2s.3-.1.5-.1h.1c.2 0 .4-.1.6-.1.2 0 .4-.1.5-.1h.3c1.2-.1 2.4 0 3.8.4 3.2.9 5.8 2.9 7.9 5.9 2 3.3 2.9 6.6 2.8 10z" fill="#E81F76"/><path d="M143.5 201.801H97.2v-.1c1.5-1.2 2.9-2.3 4.6-3.2 2.8-1.6 5.8-2.9 9.1-3.6h.1c1.1-.3 2.2-.5 3.3-.7h.1c1.9-.3 3.9-.4 5.9-.4 5.2 0 10 1 14.3 2.8 2 .8 3.8 1.8 5.5 2.9.2.1.3.2.5.3 1 .5 2 1.3 2.9 2zM233.1 200.799h-46.3v-.1c1.5-1.2 2.9-2.3 4.6-3.2 1-.6 2.1-1.2 3.3-1.7 1.8-.8 3.8-1.5 5.9-2 1.1-.3 2.3-.6 3.5-.7 1.9-.3 3.9-.4 5.9-.4 7.5 0 14.3 2.2 19.8 5.7l.9.6c.8.5 1.7 1.2 2.4 1.8z" fill="#fff"/><path d="M196.8 200.999h-64.6v-.2c.3-1 .7-1.9 1.1-2.9.3-.7.7-1.6 1.2-2.3 0 0 0-.1.1-.1 1.2-2.4 2.6-4.5 4.3-6.4.6-.7 1.1-1.3 1.8-1.9l1.9-1.9.4-.4c.4-.3.9-.7 1.3-1 2.6-2 5.5-3.5 8.6-4.7 1.4-.5 2.8-.9 4.2-1.3h.1c5.7-1.4 11.7-1.1 17.6.7.1 0 .2 0 .2.1.9.3 1.8.6 2.8 1 3 1.3 5.8 2.9 8.3 4.9h.1c3.6 3.2 6.5 7 8.6 11.2.8 1.6 1.5 3.3 2.1 5-.1.1-.1.2-.1.2zM114.1 201.702H49.4c.1-.4.3-.8.4-1.2.5-1.4 1.1-2.8 1.8-4.1 1.3-2.5 2.9-4.8 4.7-6.9 2.4-2.7 5.2-5 8.3-6.8 2.8-1.6 5.8-2.9 9-3.6 2.8-.7 5.6-1 8.5-1 2.2 0 4.2.3 6.4.7 1.7.3 3.3.7 4.8 1.3 2.5.9 4.6 2 6.8 3.3 1.1.7 2.2 1.5 3.2 2.4 2 1.7 3.9 3.6 5.4 5.7.7 1 1.6 2.2 2.2 3.2 0 0 0 .1.1.1 1.3 2.2 2.3 4.5 3.1 6.9z" fill="#fff"/><path d="M83.7 134.6c-.9-.5-2.2-.1-3.2 1-1.1 1.4-1.4 3.2-.5 4.2.1.1.3.2.4.3.7.4 1.4.8 2.1 1.3-.1-.1-.3-.2-.4-.3-.9-1-.6-2.9.5-4.2 1-1.2 2.3-1.6 3.2-1-.7-.5-1.4-.9-2.1-1.3z" fill="url(#cpaint9_linear_1833_3802)"/><path d="M90.5 129.8c-.7-.4-1.4-.8-2.1-1.3.9.5 1.4 1.6 1.3 3l-1 14.1c-.1 2.1-1.4 5.1-2.9 6.9l-38.1 45.7c-1.2 1.5-2.9 2-4.1 1.3.7.4 1.4.8 2 1.2 0 0 .1 0 .1.1 1.1.7 2.8.2 4.1-1.3l38.1-45.7c1.4-1.7 2.7-4.8 2.9-6.9l1-14.1c.1-1.3-.4-2.5-1.3-3z" fill="url(#cpaint10_linear_1833_3802)"/><path d="M89.7 130.799c0-.1 0-.2-.1-.4 0-.1 0-.2-.1-.3v-.1c0-.1 0-.1-.1-.2 0-.1-.1-.1-.1-.2-.1-.1-.1-.2-.2-.3-.1-.1-.2-.2-.2-.3-.1-.1-.2-.2-.3-.2-.1-.1-.1-.1-.2-.1 0 0-.1 0-.1-.1-.5-.3-1-.4-1.6-.3l-1.3.2-10.7 1.4c-1.8.2-4.4 1.8-5.8 3.5l-.9 1-37.2 44.6c-1.4 1.7-1.7 4.1-.6 5.3l13 14.7c.2.2.3.3.5.4 0 0 .1 0 .1.1 0 0 .1 0 .2.1.1 0 .1 0 .2.1H44.5c1 .1 2.3-.4 3.3-1.6l4.3-5.1 19-22.7 14.9-17.8c1.4-1.7 2.7-4.8 2.9-6.9l.1-2.1.9-12v-.5c-.2 0-.2-.2-.2-.2zm-9.2 4.8c.7-.8 1.6-1.3 2.3-1.3H83.6c.1 0 .2.1.3.1l.3.3c.2.2.3.5.4.8.3 1 0 2.4-.9 3.5-.6.7-1.2 1.1-1.9 1.2-.5.1-1 0-1.4-.2h-.1l-.2-.2c-1-1-.8-2.9.4-4.2z" fill="url(#cpaint11_linear_1833_3802)"/><path d="M64.6 170.299c-.1-1-.5-1.8-1-2.4-.6-.7-1.3-1-2.1-1.2-.8-.1-1.7 0-2.6.4-.9.4-1.7 1-2.4 1.9-.7.9-1.3 1.8-1.6 2.9-.3 1.1-.4 2.1-.3 3 .1 1 .5 1.8 1 2.4.6.6 1.3 1 2.1 1.1.6.1 1.2 0 1.8-.1.3-.1.5-.2.8-.3.9-.4 1.7-1.1 2.4-1.9.5-.6.9-1.2 1.2-1.8.2-.3.3-.7.4-1 .3-1 .4-2.1.3-3zm-5.2 4.5c-.5.1-.9 0-1.2-.4-.3-.4-.5-.8-.4-1.4.1-.6.3-1.1.7-1.6.4-.5.9-.8 1.4-.9.5-.1.9.1 1.2.4.3.3.4.8.4 1.4-.1.6-.3 1.1-.7 1.6-.5.5-.9.8-1.4.9zm13.5-16.7l-1.9-2.1c-.2-.2-.4-.2-.6-.1l-22.7 11.1c-.1 0-.2.1-.2.2-.1.2-.1.4 0 .6l1.9 2.1c.2.2.3.2.6.1l22.8-11.1c.1 0 .2-.1.3-.2.1-.1.1-.2.1-.3-.2-.1-.2-.2-.3-.3zm-6.8-7c-.1-1-.5-1.8-1-2.4-.6-.6-1.3-1-2.1-1.1-.8-.1-1.7 0-2.6.4-.9.4-1.7 1-2.4 1.9-.7.9-1.3 1.8-1.6 2.9-.3 1.1-.4 2.1-.3 3 .1 1 .5 1.8 1.1 2.4.6.6 1.3 1 2.1 1.2.8.1 1.7 0 2.6-.4.9-.4 1.7-1.1 2.4-1.9.7-.9 1.2-1.8 1.6-2.9.2-1.1.3-2.1.2-3.1zm-3.2 2.1c-.1.6-.3 1.1-.7 1.6-.4.5-.9.8-1.4.9-.5.1-.9 0-1.2-.4-.3-.4-.4-.8-.4-1.4.1-.6.3-1.1.7-1.6.4-.5.9-.8 1.4-.8.5-.1.9.1 1.2.4.3.3.4.7.4 1.3z" fill="url(#cpaint12_linear_1833_3802)"/></g><defs><linearGradient id="cpaint0_linear_1833_3802" x1="203.436" y1="54.993" x2="196.464" y2="29.005" gradientUnits="userSpaceOnUse"><stop stop-color="#FF9ECA"/><stop offset="1" stop-color="#D93680"/></linearGradient><linearGradient id="cpaint1_linear_1833_3802" x1="304.487" y1="39.801" x2="198.073" y2="66.768" gradientUnits="userSpaceOnUse"><stop stop-color="#FF9ECA"/><stop offset="1" stop-color="#D93680"/></linearGradient><linearGradient id="cpaint2_linear_1833_3802" x1="274.339" y1="42.69" x2="188.454" y2="48.211" gradientUnits="userSpaceOnUse"><stop stop-color="#FF9ECA"/><stop offset="1" stop-color="#FF57A3"/></linearGradient><linearGradient id="cpaint3_linear_1833_3802" x1="194.081" y1="55.039" x2="247.306" y2="39.559" gradientUnits="userSpaceOnUse"><stop stop-color="#FF9ECA"/><stop offset="1" stop-color="#fff"/></linearGradient><linearGradient id="cpaint4_linear_1833_3802" x1="211.611" y1="144.624" x2="196.66" y2="114.963" gradientUnits="userSpaceOnUse"><stop stop-color="#DEF1FF"/><stop offset="1" stop-color="#E81F76" stop-opacity=".5"/></linearGradient><linearGradient id="cpaint5_linear_1833_3802" x1="179.828" y1="110.831" x2="198.637" y2="167.017" gradientUnits="userSpaceOnUse"><stop stop-color="#DEF1FF"/><stop offset="1" stop-color="#E81F76" stop-opacity=".5"/></linearGradient><linearGradient id="cpaint6_linear_1833_3802" x1="96.92" y1="123.15" x2="94.509" y2="90.838" gradientUnits="userSpaceOnUse"><stop stop-color="#DEF1FF"/><stop offset="1" stop-color="#E81F76" stop-opacity=".5"/></linearGradient><linearGradient id="cpaint7_linear_1833_3802" x1="141.471" y1="30.274" x2="130.511" y2="185.095" gradientUnits="userSpaceOnUse"><stop stop-color="#DEF1FF"/><stop offset="1" stop-color="#E81F76" stop-opacity=".5"/></linearGradient><linearGradient id="cpaint8_linear_1833_3802" x1="68.72" y1="80.622" x2="91.388" y2="133.915" gradientUnits="userSpaceOnUse"><stop stop-color="#DEF1FF"/><stop offset="1" stop-color="#E81F76" stop-opacity=".5"/></linearGradient><linearGradient id="cpaint9_linear_1833_3802" x1="101.369" y1="120.568" x2="81.802" y2="138.178" gradientUnits="userSpaceOnUse"><stop stop-color="#95E279"/><stop offset="1" stop-color="#2DA14D"/></linearGradient><linearGradient id="cpaint10_linear_1833_3802" x1="96.286" y1="121.232" x2="69.675" y2="169.757" gradientUnits="userSpaceOnUse"><stop stop-color="#95E279"/><stop offset="1" stop-color="#2DA14D"/></linearGradient><linearGradient id="cpaint11_linear_1833_3802" x1="79.839" y1="147.616" x2="7.251" y2="208.66" gradientUnits="userSpaceOnUse"><stop stop-color="#95E279"/><stop offset="1" stop-color="#2DA14D"/></linearGradient><linearGradient id="cpaint12_linear_1833_3802" x1="47.358" y1="163.055" x2="73.06" y2="163.055" gradientUnits="userSpaceOnUse"><stop stop-color="#CFFF9E"/><stop offset="1" stop-color="#fff"/></linearGradient><clipPath id="cclip0_1833_3802"><path fill="#fff" transform="translate(.5)" d="M0 0h290v201H0z"/></clipPath></defs></svg><svg fill="none" viewBox="0 0 73 72" id="piggy" xmlns="http://www.w3.org/2000/svg"><g clip-path="url(#dclip0_1834_3988)"><path d="M72.5 25c0-20.2-4.8-25-25-25h-22C5.3 0 .5 4.8.5 25v22c0 20.2 4.8 25 25 25h22c20.2 0 25-4.8 25-25V25z" fill="#fff"/><path d="M56.123 34.192a14.782 14.782 0 00-2.628-4.27v-6.817c0-1.134-.51-2.188-1.402-2.893a3.615 3.615 0 00-3.085-.686c-3.35.798-5.861 2.696-7.207 5.406H31.96c-4.736 0-8.988 2.125-11.78 5.449-2.202-.321-1.936-3.617.281-3.614 2.399-.009 2.4-3.66 0-3.67-5.845-.018-7.577 8.086-2.327 10.477-3.228 6.643-.42 15.198 5.997 18.74v.145c.004 6.15 8.699 7.557 10.697 1.835h4.3c1.998 5.725 10.693 4.31 10.697-1.835v-.169a14.72 14.72 0 006.298-7.256C57.629 44.713 59 43.478 59 41.448v-3.67c0-2.03-1.373-3.265-2.877-3.586zm-8.134 3.586c-2.4-.011-2.4-3.66 0-3.67 2.4.01 2.4 3.659 0 3.67zM26.064 22.202c-1.032-10.26 14.203-11.253 14.585-.94h-8.687c-2.057 0-4.038.34-5.898.94z" fill="#336CFF"/></g><defs><clipPath id="dclip0_1834_3988"><path fill="#fff" transform="translate(.5)" d="M0 0h72v72H0z"/></clipPath></defs></svg><svg fill="none" viewBox="0 0 73 72" id="rocket" xmlns="http://www.w3.org/2000/svg"><g clip-path="url(#eclip0_1834_3975)"><path d="M72.167 25c0-20.2-4.8-25-25-25h-22c-20.2 0-25 4.8-25 25v22c0 20.2 4.8 25 25 25h22c20.2 0 25-4.8 25-25V25z" fill="#fff"/><path d="M47 29.583a4.583 4.583 0 11-9.165 0 4.583 4.583 0 019.165 0zm-2.458 16.89a20.24 20.24 0 01-1.518 4.075A13.995 13.995 0 0130.5 58h-1.833v-8.904a5.892 5.892 0 00-5.762-5.763H14V41.5a13.995 13.995 0 017.453-12.523 20.24 20.24 0 014.073-1.518C32.26 18.363 40.072 14.326 51.506 14h.077A6.397 6.397 0 0158 20.51c-.33 11.598-4.242 19.157-13.458 25.964zM52.5 20.432a.917.917 0 00-.89-.931c-10.01.297-16.204 3.604-22.069 11.79a52.138 52.138 0 00-4.044 6.851 11.525 11.525 0 018.362 8.362 52.021 52.021 0 006.85-4.044C48.91 36.58 52.219 30.406 52.5 20.43zM16.99 48.335c-1.419 1.415-2.293 5.688-2.603 7.465L14 58l2.2-.389c1.762-.311 6.01-1.19 7.429-2.612a4.73 4.73 0 000-6.664 4.79 4.79 0 00-6.639 0z" fill="#F018C1"/></g><defs><clipPath id="eclip0_1834_3975"><path fill="#fff" transform="translate(.167)" d="M0 0h72v72H0z"/></clipPath></defs></svg><svg fill="none" viewBox="0 0 100 6" id="weAreKnown_Indicator" xmlns="http://www.w3.org/2000/svg"><rect opacity=".9" y=".102" width="100" height="5" rx="2.5" fill="#000"/></svg><svg fill="none" viewBox="0 0 164 32" id="weAreKnown_top" xmlns="http://www.w3.org/2000/svg"><path d="M4.768 0h154.415v15c0 9.389-7.611 17-17 17H21.768c-9.389 0-17-7.611-17-17V0z" fill="#232020"/><path fill-rule="evenodd" clip-rule="evenodd" d="M5 0H0a4.8 4.8 0 014.795 5H5V0zM159 0h5a4.799 4.799 0 00-4.795 5H159V0z" fill="#232020"/></svg></svg>