<?xml version="1.0" encoding="utf-8"?><svg viewBox="0 0 73 73" xmlns="http://www.w3.org/2000/svg" xmlns:xlink="http://www.w3.org/1999/xlink"><style>:root>svg{display:none}:root>svg:target{display:block}</style><svg fill="none" viewBox="0 0 73 73" id="delivery" xmlns="http://www.w3.org/2000/svg"><g clip-path="url(#aclip0_343_1876)"><path d="M72.333 25.51c0-20.2-4.8-25-25-25h-22c-20.2 0-25 4.8-25 25v22c0 20.2 4.8 25 25 25h22c20.2 0 25-4.8 25-25v-22z" fill="#fff"/><g clip-path="url(#aclip1_343_1876)"><path fill-rule="evenodd" clip-rule="evenodd" d="M44.583 26.01a2.758 2.758 0 012.722 2.42s.165 1.43.33 2.722a3.282 3.282 0 002.228 2.695c.165.055 3.025.083 3.025.083a2.754 2.754 0 012.365 2.722v5.858a2.758 2.758 0 012.75 2.75 2.758 2.758 0 01-2.75 2.75h-2.75c0 3.025-2.475 5.5-5.5 5.5s-5.5-2.475-5.5-5.5h-11c0 3.025-2.475 5.5-5.5 5.5s-5.5-2.475-5.5-5.5h-2.75a2.758 2.758 0 01-2.75-2.75 2.758 2.758 0 012.75-2.75h16.505c1.455 0 2.852-.58 3.883-1.609a5.503 5.503 0 001.612-3.891v-8.25a2.758 2.758 0 012.75-2.75h3.08zm2.42 24.75a2.758 2.758 0 01-2.75-2.75 2.758 2.758 0 012.75-2.75 2.758 2.758 0 012.75 2.75 2.758 2.758 0 01-2.75 2.75zm-22 0a2.758 2.758 0 01-2.75-2.75 2.758 2.758 0 012.75-2.75 2.758 2.758 0 012.75 2.75 2.758 2.758 0 01-2.75 2.75zM32.4 20.51c.957 0 1.873.38 2.547 1.053A3.61 3.61 0 0136 24.11v12.047c0 .957-.38 1.873-1.053 2.55A3.6 3.6 0 0132.4 39.76H17.603A3.6 3.6 0 0114 36.157V24.11a3.601 3.601 0 013.602-3.6H32.4zm11.963 13.75c.247 0 .522-.11.687-.303a.942.942 0 00.248-.742c-.11-1.045-.275-2.64-.358-3.6a.956.956 0 00-.962-.855h-1.513c-.55 0-.962.44-.962.962v3.575c0 .275.11.495.275.688.192.165.412.275.687.275h1.898z" fill="#E81F76"/></g></g><defs><clipPath id="aclip0_343_1876"><path fill="#fff" transform="translate(.333 .51)" d="M0 0h72v72H0z"/></clipPath><clipPath id="aclip1_343_1876"><path fill="#fff" transform="translate(14 15.01)" d="M0 0h44v44H0z"/></clipPath></defs></svg><svg fill="none" viewBox="0 0 72 73" id="revers" xmlns="http://www.w3.org/2000/svg"><g clip-path="url(#bclip0_344_1914)"><path d="M72 25.51c0-20.2-4.8-25-25-25H25c-20.2 0-25 4.8-25 25v22c0 20.2 4.8 25 25 25h22c20.2 0 25-4.8 25-25v-22z" fill="#fff"/><path fill-rule="evenodd" clip-rule="evenodd" d="M33.234 53.54c-1.838 0-3.676-.03-5.512-.03a15.136 15.136 0 01-1.728-.11 13.633 13.633 0 01-3.603-.974 13.766 13.766 0 01-4.597-3.182 13.812 13.812 0 01-3.072-5.077 13.67 13.67 0 01-.717-4.053 13.79 13.79 0 01.486-4.01 13.824 13.824 0 014.94-7.295c.33-.25.666-.515 1.04-.688.269-.126.55-.198.84-.242.149-.01.292-.016.44-.016.442.03.866.14 1.253.363.253.146.484.332.679.55a2.78 2.78 0 01.55 2.739 2.766 2.766 0 01-.82 1.193c-.236.201-.505.363-.752.556a9.33 9.33 0 00-.476.401 8.61 8.61 0 00-1.5 1.824 8.294 8.294 0 00-1.022 5.934c.134.66.351 1.3.643 1.908a8.364 8.364 0 001.467 2.118c.684.72 1.5 1.315 2.396 1.746a8.395 8.395 0 003.355.812c1.905.024 3.806.016 5.71.01v-5.852c0-1.328.957-2.406 2.138-2.406.52 0 .995.21 1.366.556l8.436 7.122c.536.438.885 1.147.885 1.947s-.349 1.51-.885 1.947l-8.436 7.123a1.993 1.993 0 01-1.366.555c-1.181 0-2.138-1.078-2.138-2.406v-3.064zm5.496-27.538v5.851c0 1.329-.956 2.407-2.137 2.407-.52 0-.995-.21-1.366-.556l-8.436-7.122c-.536-.438-.885-1.147-.885-1.947s.349-1.51.885-1.947l8.436-7.123a1.993 1.993 0 011.366-.555c1.181 0 2.137 1.078 2.137 2.406v3.055c1.949-.008 3.9.02 5.848.044.582.022 1.16.063 1.737.154 1.45.22 2.86.677 4.165 1.348a13.822 13.822 0 016.405 6.892c.484 1.149.814 2.364.97 3.604.201 1.59.127 3.212-.225 4.777a13.811 13.811 0 01-5.265 8.044c-.236.176-.478.36-.742.498a2.705 2.705 0 01-1.26.324 2.774 2.774 0 01-2.608-1.785 2.784 2.784 0 01-.023-1.867c.163-.462.446-.877.82-1.193.236-.201.505-.363.752-.556a9.48 9.48 0 00.476-.401 8.613 8.613 0 001.5-1.824 8.293 8.293 0 001.022-5.934 8.214 8.214 0 00-.643-1.908 8.36 8.36 0 00-1.467-2.118 8.255 8.255 0 00-2.396-1.746 8.396 8.396 0 00-3.355-.812c-1.905-.024-3.806-.016-5.71-.01z" fill="#FCC201"/></g><defs><clipPath id="bclip0_344_1914"><path fill="#fff" transform="translate(0 .51)" d="M0 0h72v72H0z"/></clipPath></defs></svg><svg fill="none" viewBox="0 0 73 73" id="security" xmlns="http://www.w3.org/2000/svg"><g clip-path="url(#cclip0_344_1926)"><path d="M72.667 25.51c0-20.2-4.8-25-25-25h-22c-20.2 0-25 4.8-25 25v22c0 20.2 4.8 25 25 25h22c20.2 0 25-4.8 25-25v-22z" fill="#fff"/><path d="M30.077 35.07c-.772-.772-2.231-.772-3.003 0-.43.43-.6.944-.6 1.545 0 .6.256 1.115.6 1.545l5.577 5.577c.43.43.944.601 1.545.601.6 0 1.116-.257 1.545-.6L46.038 33.44c.43-.43.6-.944.6-1.545 0-.6-.257-1.115-.6-1.544-.772-.773-2.231-.773-3.003 0l-8.925 8.838-4.033-4.119z" fill="#FF8000"/><path d="M51.273 19.366l-11.67-3.861c-1.202-.43-1.717-.515-2.318-.6a6.955 6.955 0 00-1.887 0c-.601.085-1.116.257-2.317.6l-11.67 3.861a3.893 3.893 0 00-2.661 3.69v15.961c0 4.29 1.373 8.152 4.033 11.413 2.575 3.175 6.436 5.836 11.413 7.98.687.258 1.459.43 2.145.43.773 0 1.46-.172 2.146-.43 4.977-2.144 8.838-4.805 11.413-7.98 2.66-3.26 4.033-7.122 4.033-11.413V22.97c0-1.63-1.03-3.089-2.66-3.604zm-1.63 3.948V38.93c0 3.347-1.03 6.179-3.09 8.753-2.145 2.66-5.406 4.892-9.782 6.78a1.094 1.094 0 01-1.03 0c-4.377-1.888-7.637-4.12-9.783-6.78-2.06-2.574-3.089-5.406-3.089-8.752V23.313l11.585-3.776c1.03-.343 1.287-.429 1.544-.429h.687c.257 0 .514.086 1.544.429l11.413 3.776z" fill="#FF8000"/></g><defs><clipPath id="cclip0_344_1926"><path fill="#fff" transform="translate(.667 .51)" d="M0 0h72v72H0z"/></clipPath></defs></svg></svg>