<svg width="81" height="33" viewBox="0 0 81 33" fill="none" xmlns="http://www.w3.org/2000/svg">
<g clip-path="url(#clip0_180_491)">
<path d="M47.4927 15.338C46.523 14.2398 45.5416 15.0225 45.4364 15.0225C44.9691 15.2562 41.4759 17.476 40.88 17.7213C41.0319 16.039 41.3123 5.02181 41.3357 3.32776C41.3474 2.27628 40.3543 1.77391 39.5598 1.77391C39.1276 1.77391 38.7654 1.91411 38.6252 2.18282C38.5668 2.29965 38.6252 2.72024 38.6252 3.23429C38.6135 4.08716 38.6369 5.22042 38.6252 6.04992C38.5668 10.6647 38.3799 18.2003 38.228 20.1047C38.2513 20.128 38.2046 21.6351 39.6533 21.4365C39.7818 21.4249 39.9103 21.4015 40.0272 21.3431C41.1254 20.8641 47.5861 16.4362 47.6329 16.4128C47.995 16.1324 48.0067 15.9221 47.4927 15.338ZM56.512 6.59902C56.2783 5.55923 55.589 2.2646 55.0049 1.77391C54.7712 1.58698 54.5376 1.55193 54.2338 1.55193C53.8366 1.55193 53.5679 1.69213 53.4393 1.98421C52.8902 3.28103 52.271 5.15032 51.57 7.59208C50.7522 10.396 50.1447 12.3237 49.7709 13.3518C49.7241 13.492 48.2988 13.7491 48.3222 14.193C48.3455 14.4617 49.2334 14.9875 49.1633 15.63C49.1049 16.2726 48.696 17.1021 48.182 18.6443C47.738 19.9645 47.3174 20.8524 47.3875 21.6468C47.4342 22.0441 47.5978 22.488 48.2988 22.7217C48.8479 22.8852 49.5021 22.71 49.7124 22.2193C50.0512 21.4365 50.3667 20.5019 50.7289 18.9948C51.1027 17.3591 51.4532 16.0506 51.6752 15.4081C52.1425 15.0108 54.9815 14.6837 55.7175 14.6603C56.068 15.7936 56.3251 16.9853 56.7573 18.5975C57.1429 20.0229 57.5868 21.1561 58.4864 21.0159C58.6149 21.0393 59.3977 20.9926 59.6664 20.6187C59.9351 20.2332 60.0636 19.5322 59.7949 18.656C58.7084 15.1627 57.692 11.4709 56.512 6.59902ZM52.5164 12.8261C52.9837 11.1087 53.5328 9.40296 54.1637 7.68555C54.3506 8.51505 54.5843 9.30949 54.7712 10.139C54.9932 11.1437 55.11 11.8447 55.2853 12.721C53.8599 12.721 52.8552 12.7677 52.5164 12.8261ZM65.0991 2.58004C65.3561 2.38143 65.7299 2.36975 66.2089 2.50994C67.459 2.86044 67.6693 1.80896 67.6693 1.40005C67.6693 1.17807 67.5642 0.944411 67.3539 0.722432C66.9099 0.243426 66.244 0.00976562 65.3561 0.00976562C64.8888 0.00976562 64.4214 0.126596 63.9307 0.348574C62.8793 0.839264 62.0615 1.65708 61.5007 2.80202C60.9983 3.79508 60.7413 4.91666 60.7413 6.17843C60.7413 7.70891 61.4189 9.74177 62.7858 12.3004C64.141 14.8473 64.9238 17.0203 65.0523 18.3522C65.2159 19.9528 64.4214 21.3664 63.5335 21.2963C62.4587 21.2262 62.4236 22.1375 62.4587 22.3829C62.5872 23.2007 64.106 24.0652 65.7533 22.8852C66.5127 22.3361 66.8282 21.8454 67.0151 21.4949C67.5876 20.4435 68.3469 17.8031 66.1622 13.1415C64.6434 10.1624 64.0359 8.58515 63.9541 8.36317C62.7975 5.52418 64.2345 3.22261 65.0991 2.58004ZM79.0487 2.10104C78.9085 2.10104 78.7682 2.11272 78.6164 2.13609C78.1841 2.20618 77.8219 2.4048 77.7402 3.12915C77.3429 6.57566 77.0392 9.18098 76.7354 11.6461C76.7237 11.7746 73.5576 11.5293 73.3123 11.3424C73.3123 10.8283 73.5226 8.29307 73.5459 7.66218C73.6043 6.51724 73.7562 5.66438 73.394 5.13864C72.7515 4.19231 71.3378 4.23904 70.8354 4.6129C70.6952 4.71805 70.8939 5.48913 70.5784 8.66693C70.4149 10.2909 69.4452 19.1466 69.4452 19.3102C69.4452 20.0579 69.6905 20.5486 70.1695 20.794C70.8471 21.1445 71.735 21.051 72.0388 20.5019C72.4711 19.6958 72.7632 15.3847 73.0085 13.6322C73.3356 13.5855 75.9176 13.8192 76.2798 13.8308C76.2798 14.2865 75.8124 18.9247 75.8709 19.9995C75.941 21.2613 76.011 22.1025 76.899 22.5114C77.0976 22.6048 78.9669 23.1072 78.8734 22.1025C78.815 21.4599 78.7566 20.9458 78.7215 20.0346C78.5696 16.5413 80.3922 5.20874 80.4272 3.36281C80.509 2.55668 79.8898 2.10104 79.0487 2.10104ZM11.1933 5.10359C14.5931 4.56617 16.9765 4.13389 18.3434 3.80677C18.8691 3.67825 19.4416 3.45627 19.4182 2.50994C19.3832 1.92579 18.8691 1.5052 17.6891 1.5052C17.2802 1.5052 16.7778 1.55193 16.1937 1.66876C14.9436 1.91411 5.72565 2.90717 3.8914 3.0941C1.80013 3.28103 0.725289 3.23429 0.53836 4.16894C0.53836 4.19231 -0.0574779 6.31863 3.44745 5.82794C3.8914 5.76952 7.31455 5.45408 8.22583 5.41903C8.30761 5.41903 7.50147 16.0506 7.59494 20.0229C7.60662 20.6771 7.59494 20.8173 7.62999 21.3664C7.7585 23.3526 10.5858 23.189 10.5741 21.1328C10.5624 19.871 10.5391 19.2635 10.5624 17.9667C10.6325 14.38 10.7727 10.2558 11.1933 5.10359ZM21.7665 8.5501C20.4814 8.14119 19.6869 7.80238 19.3948 7.55704C19.1028 7.31169 18.7873 7.18318 18.4485 7.18318C17.8527 7.18318 16.3456 8.11782 15.0254 9.9287C12.3967 13.3285 13.8921 17.289 15.1773 18.6209C16.3806 20.1047 18.1331 20.4435 19.2663 20.35C23.4606 19.9995 25.8205 14.0178 23.9279 10.2208C23.4956 9.43801 22.7829 8.87722 21.7665 8.5501ZM18.6705 18.0952C16.6026 17.955 14.8384 13.3051 16.5909 11.7863C17.2802 11.1905 17.9578 11.541 18.4252 11.8915C18.7055 12.1018 18.9042 12.312 18.9743 12.312H18.9859C19.2196 12.2303 19.7337 10.4895 20.9721 10.6764C23.7643 11.1204 21.159 18.2587 18.6705 18.0952ZM28.8581 3.30439C28.2623 3.22261 27.9469 3.18756 27.7132 3.18756C27.5496 3.18756 27.4211 3.19925 27.2692 3.22261C27.0122 3.22261 27.1641 21.6001 27.2926 23.0955C27.351 24.6727 29.4774 24.6143 29.8629 23.411C30.0031 22.9787 29.9447 22.5698 29.9447 21.752C29.9447 21.3781 29.8045 17.3241 29.8863 17.2774C30.9494 16.5764 36.3587 13.492 35.7628 8.73702C35.2488 4.683 31.592 3.74835 28.8581 3.30439ZM30.0265 13.8425C29.8746 12.2069 29.8395 9.62494 29.8045 5.85131C31.8724 6.14338 33.0757 7.70891 33.1575 8.70198C33.3561 11.2606 31.9308 12.8845 30.0265 13.8425Z" fill="#E81F76"/>
<path d="M20.1776 32.0096C21.1006 32.0096 21.6614 31.5306 22.0119 30.9932L21.3226 30.6427C21.1006 31.0165 20.6683 31.2969 20.1776 31.2969C19.278 31.2969 18.6004 30.6076 18.6004 29.6613C18.6004 28.715 19.2663 28.0257 20.1776 28.0257C20.6683 28.0257 21.1123 28.3061 21.3226 28.6799L22.0119 28.3294C21.6731 27.792 21.1006 27.313 20.1776 27.313C18.8341 27.313 17.7826 28.2593 17.7826 29.6496C17.7826 31.0399 18.8341 32.0096 20.1776 32.0096Z" fill="black"/>
<path d="M26.0192 32.0097C27.3861 32.0097 28.3558 31.0166 28.3558 29.673C28.3558 28.3295 27.3861 27.3364 26.0192 27.3364C24.6523 27.3364 23.6826 28.3295 23.6826 29.673C23.6826 31.0166 24.6523 32.0097 26.0192 32.0097ZM26.0192 31.3087C25.0962 31.3087 24.5004 30.6077 24.5004 29.673C24.5004 28.7384 25.0845 28.0374 26.0192 28.0374C26.9421 28.0374 27.538 28.7384 27.538 29.673C27.538 30.596 26.9421 31.3087 26.0192 31.3087Z" fill="black"/>
<path d="M31.9191 32.0097C33.1575 32.0097 33.6832 31.3671 33.6832 30.6194C33.6832 28.937 31.0312 29.4511 31.0312 28.6099C31.0312 28.2711 31.3349 28.0491 31.8023 28.0491C32.2813 28.0491 32.772 28.2127 33.1225 28.5632L33.5781 27.979C33.1575 27.5701 32.5734 27.3481 31.8607 27.3481C30.8559 27.3481 30.2017 27.9206 30.2017 28.6683C30.2017 30.339 32.8654 29.7432 32.8654 30.6895C32.8654 30.9933 32.6084 31.3087 31.9425 31.3087C31.2999 31.3087 30.8092 31.0166 30.4938 30.6895L30.0498 31.297C30.4704 31.7176 31.0779 32.0097 31.9191 32.0097Z" fill="black"/>
<path d="M40.4127 31.9276V27.4062H39.2795L38.0294 30.3854L36.791 27.4062H35.6577V31.9276H36.4639V28.5746L37.8658 31.9276H38.2046L39.6066 28.5746V31.9276H40.4127Z" fill="black"/>
<path d="M45.7402 31.9276V31.2266H43.4153V29.9765H45.6935V29.2755H43.4153V28.1072H45.7402V27.4062H42.6091V31.9276H45.7402Z" fill="black"/>
<path d="M49.6891 31.9276V28.1072H51.0677V27.4062H47.5043V28.1072H48.8829V31.9276H49.6891Z" fill="black"/>
<path d="M53.7898 27.4062H52.9837V31.9276H53.7898V27.4062Z" fill="black"/>
<path d="M58.1709 32.0096C59.0939 32.0096 59.6547 31.5306 60.0052 30.9932L59.3159 30.6427C59.0939 31.0165 58.6616 31.2969 58.1709 31.2969C57.2713 31.2969 56.5937 30.6076 56.5937 29.6613C56.5937 28.715 57.2596 28.0257 58.1709 28.0257C58.6616 28.0257 59.1056 28.3061 59.3159 28.6799L60.0052 28.3294C59.6664 27.792 59.0939 27.313 58.1709 27.313C56.8274 27.313 55.7759 28.2593 55.7759 29.6496C55.7759 31.0399 56.8274 32.0096 58.1709 32.0096Z" fill="black"/>
<path d="M63.4518 32.0097C64.6902 32.0097 65.216 31.3671 65.216 30.6194C65.216 28.937 62.5639 29.4511 62.5639 28.6099C62.5639 28.2711 62.8677 28.0491 63.335 28.0491C63.814 28.0491 64.3047 28.2127 64.6552 28.5632L65.1108 27.979C64.6902 27.5701 64.1061 27.3481 63.3934 27.3481C62.3887 27.3481 61.7344 27.9206 61.7344 28.6683C61.7344 30.339 64.3981 29.7432 64.3981 30.6895C64.3981 30.9933 64.1411 31.3087 63.4752 31.3087C62.8326 31.3087 62.3419 31.0166 62.0265 30.6895L61.5825 31.297C61.9914 31.7176 62.6106 32.0097 63.4518 32.0097Z" fill="black"/>
</g>
<defs>
<clipPath id="clip0_180_491">
<rect width="79.9345" height="32" fill="white" transform="translate(0.5 0.00976562)"/>
</clipPath>
</defs>
</svg>
