<svg width="73" height="72" viewBox="0 0 73 72" fill="none" xmlns="http://www.w3.org/2000/svg">
<g clip-path="url(#clip0_1834_4005)">
<path d="M72.8333 25C72.8333 4.8 68.0332 0 47.8333 0H25.8333C5.63325 0 0.833252 4.8 0.833252 25V47C0.833252 67.2 5.63325 72 25.8333 72H47.8333C68.0332 72 72.8333 67.2 72.8333 47V25Z" fill="white"/>
<path d="M22.3498 28.448C25.1802 24.916 29.1785 22.5105 33.6248 21.6646C33.0227 21.0093 32.6244 20.1928 32.4786 19.3148C32.3328 18.4369 32.4457 17.5354 32.8036 16.7206C33.1615 15.9058 33.7489 15.2127 34.4941 14.7262C35.2393 14.2396 36.11 13.9805 37 13.9805C37.89 13.9805 38.7607 14.2396 39.5059 14.7262C40.2511 15.2127 40.8385 15.9058 41.1964 16.7206C41.5543 17.5354 41.6672 18.4369 41.5214 19.3148C41.3756 20.1928 40.9773 21.0093 40.3752 21.6646C44.8215 22.5105 48.8198 24.916 51.6502 28.448C49.2591 30.2336 47.3377 32.5735 46.0512 35.2661C45.0408 33.799 43.689 32.5994 42.1121 31.7707C40.5352 30.9419 38.7805 30.5089 36.9991 30.5089C35.2177 30.5089 33.463 30.9419 31.8861 31.7707C30.3092 32.5994 28.9573 33.799 27.947 35.2661C26.6618 32.5732 24.7408 30.2332 22.3498 28.448ZM53.5587 54.3328H20.4413C19.9551 54.3406 19.4919 54.5412 19.1536 54.8905C18.8152 55.2398 18.6296 55.7092 18.6373 56.1955C18.6451 56.6817 18.8457 57.1449 19.195 57.4832C19.5444 57.8216 20.0138 58.0073 20.5 57.9995H53.5C53.9862 58.0073 54.4556 57.8216 54.805 57.4832C55.1543 57.1449 55.3549 56.6817 55.3627 56.1955C55.3704 55.7092 55.1848 55.2398 54.8464 54.8905C54.5081 54.5412 54.0449 54.3406 53.5587 54.3328ZM54.5725 50.6661C54.5725 50.6661 59 34.6281 59 33.2495C59.0131 32.8848 58.9509 32.5214 58.8173 32.1818C58.6837 31.8423 58.4817 31.5339 58.2236 31.2758C57.9656 31.0178 57.6572 30.8157 57.3177 30.6822C56.9781 30.5486 56.6147 30.4864 56.25 30.4995C52.5833 30.4995 48 37.567 48 41.4995C48 41.9857 47.8068 42.452 47.463 42.7958C47.1192 43.1397 46.6529 43.3328 46.1667 43.3328C45.6804 43.3328 45.2141 43.1397 44.8703 42.7958C44.5265 42.452 44.3333 41.9857 44.3333 41.4995C44.3333 39.5546 43.5607 37.6893 42.1854 36.314C40.8102 34.9388 38.9449 34.1661 37 34.1661C35.0551 34.1661 33.1898 34.9388 31.8145 36.314C30.4393 37.6893 29.6667 39.5546 29.6667 41.4995C29.6667 41.9857 29.4735 42.452 29.1297 42.7958C28.7859 43.1397 28.3196 43.3328 27.8333 43.3328C27.3471 43.3328 26.8808 43.1397 26.537 42.7958C26.1932 42.452 26 41.9857 26 41.4995C26 37.567 21.4167 30.4995 17.75 30.4995C17.3853 30.4864 17.0219 30.5486 16.6823 30.6822C16.3428 30.8157 16.0344 31.0178 15.7764 31.2758C15.5183 31.5339 15.3163 31.8423 15.1827 32.1818C15.0491 32.5214 14.9869 32.8848 15 33.2495C15 34.6281 19.4275 50.6661 19.4275 50.6661H54.5725Z" fill="#FCC201"/>
</g>
<defs>
<clipPath id="clip0_1834_4005">
<rect width="72" height="72" fill="white" transform="translate(0.833252)"/>
</clipPath>
</defs>
</svg>
