<svg width="88" height="94" viewBox="0 0 88 94" fill="none" xmlns="http://www.w3.org/2000/svg">
<g clip-path="url(#clip0_1844_3486)">
<path d="M22.7001 27.3C22.7001 29.1 21.1001 30.6 19.4001 30.6C17.5001 30.6 16.1001 29.2 16.1001 27.3C16.1001 25.5 17.7001 24 19.4001 24C21.1001 24 22.7001 25.4 22.7001 27.3Z" fill="white"/>
<path d="M32.4 23.8008C32.4 25.2008 31.4 25.9008 30.1 25.9008C28.8001 25.9008 27.8 24.9008 27.8 23.6008C27.8 22.4008 29 21.3008 30.1 21.3008C31.4 21.5008 32.4 22.7008 32.4 23.8008Z" fill="white"/>
<path d="M48.5 14.6992C48.5 15.6992 47.5 16.4992 46.6 16.2992C45.6 16.2992 45 15.2992 45 14.4992C45 13.4992 46 12.6992 46.9 12.6992C47.8 12.8992 48.5 13.6992 48.5 14.6992Z" fill="white"/>
<path d="M47.2001 36.8008C41.1001 36.9008 35.5001 40.3008 32.5001 45.6008C29.5001 40.3008 23.9001 36.9008 17.8001 36.8008C7.90008 37.3008 0.100075 45.7008 0.500075 55.6008C0.500075 67.8008 13.3001 81.0008 24.0001 90.0008C28.9001 94.1008 36.1001 94.1008 41.1001 90.0008C51.7001 81.0008 64.5001 67.8008 64.5001 55.6008C64.9001 45.7008 57.1001 37.3008 47.2001 36.8008Z" fill="white"/>
<path d="M81.3001 19.1016C79.1001 19.1016 77.1001 20.3016 76.0001 22.3016C74.9001 20.4016 72.9001 19.2016 70.7001 19.1016C67.1001 19.3016 64.3001 22.3016 64.5001 25.9016C64.5001 30.3016 69.1001 35.0016 72.9001 38.2016C74.7001 39.7016 77.3001 39.7016 79.0001 38.2016C82.8001 35.0016 87.4001 30.2016 87.4001 25.9016C87.6001 22.3016 84.8001 19.2016 81.3001 19.1016Z" fill="white"/>
<path d="M30.7002 0C29.6002 0 28.5002 0.6 28.0002 1.6C27.5002 0.6 26.4002 0 25.3002 0C23.5002 0.1 22.0002 1.6 22.1002 3.5C22.1002 5.7 24.5002 8.2 26.4002 9.9C27.3002 10.7 28.6002 10.7 29.6002 9.9C31.6002 8.2 33.9002 5.8 33.9002 3.5C34.0002 1.6 32.6002 0.1 30.7002 0Z" fill="white"/>
<path d="M65.7 1.19922C64.8 1.19922 64 1.69922 63.6 2.49922C63.2 1.69922 62.4 1.29922 61.5 1.19922C60.1 1.29922 59 2.49922 59 3.89922C59 5.59922 60.8 7.49922 62.4 8.79922C63.1 9.39922 64.1 9.39922 64.8 8.79922C66.3 7.49922 68.2 5.59922 68.2 3.89922C68.3 2.39922 67.1 1.19922 65.7 1.19922Z" fill="white"/>
</g>
<defs>
<clipPath id="clip0_1844_3486">
<rect width="87" height="93.1" fill="white" transform="translate(0.5)"/>
</clipPath>
</defs>
</svg>
