<svg width="291" height="201" viewBox="0 0 291 201" fill="none" xmlns="http://www.w3.org/2000/svg">
<g clip-path="url(#clip0_1833_3802)">
<path d="M290.3 67.0001C290.3 74.5001 284.2 80.3001 277 80.3001C269.5 80.3001 263.7 74.2001 263.7 67.0001C263.7 59.8001 269.8 53.7001 277 53.7001C284.3 53.5001 290.3 59.6001 290.3 67.0001Z" fill="#E81F76"/>
<path d="M200.2 27.0019C200.6 28.0019 201 29.0019 201.4 30.1019C201.2 29.5019 200.7 29.0019 200 28.7019C198.2 27.9019 195.6 28.6019 194.1 30.2019C193.2 31.2019 192.9 32.4019 193.3 33.3019L192.1 30.2019C191.7 29.3019 192 28.1019 192.9 27.1019C194.4 25.5019 197 24.8019 198.8 25.6019C199.5 25.9019 200 26.4019 200.2 27.0019Z" fill="url(#paint0_linear_1833_3802)"/>
<path d="M281.4 47.9992C281 46.9992 280.6 45.9992 280.2 44.8992C280.7 46.0992 280.3 47.4992 279.2 48.7992L256.9 73.4992C255 75.5992 251.6 76.3992 249.4 75.3992L189 47.9992C187.3 47.1992 185.7 45.4992 185 43.6992C185.4 44.6992 185.8 45.6992 186.2 46.7992C186.9 48.5992 188.4 50.2992 190.2 51.0992L250.6 78.4992C252.9 79.4992 256.3 78.6992 258.1 76.5992L280.4 51.8992C281.6 50.5992 281.9 49.1992 281.4 47.9992Z" fill="url(#paint1_linear_1833_3802)"/>
<path d="M280.4 45.499C280.1 44.699 279.5 43.999 278.6 43.599L218.2 16.199C215.9 15.199 211.7 14.999 208.8 15.899L189 21.699C186.1 22.599 183.8 25.099 183.9 27.299L184.4 35.999L184.8 42.499C184.8 42.699 184.8 42.999 184.9 43.199C184.9 43.299 184.9 43.299 184.9 43.399C185 43.899 185.2 44.399 185.5 44.899C186.3 46.399 187.6 47.799 189.1 48.399L190.1 48.899L249.5 75.899C251.2 76.699 253.6 76.399 255.4 75.299C256 74.899 256.6 74.499 257 73.999L263.7 66.599L275.2 53.799L279.3 49.299C280.4 47.999 280.7 46.599 280.4 45.499ZM193.3 31.799C193 31.599 192.7 31.299 192.5 30.999C192.3 30.699 192.2 30.399 192.2 30.099C192.1 29.299 192.4 28.399 193.1 27.599C194.6 25.999 197.2 25.299 199 26.099C199.7 26.399 200.2 26.999 200.4 27.599C200.5 27.999 200.6 28.499 200.4 28.999C200.3 29.499 200 30.099 199.5 30.599C198 32.199 195.4 32.899 193.6 32.099C193.5 31.899 193.4 31.799 193.3 31.799Z" fill="white"/>
<path d="M280.4 45.6005V45.5005C280.4 45.4005 280.4 45.3005 280.4 45.2005C280.4 45.1005 280.4 45.1005 280.3 45.0005C280 44.3005 279.4 43.6005 278.6 43.2005L218.2 15.8005C215.9 14.8005 211.7 14.6005 208.8 15.5005L189 21.3005C186.1 22.2005 183.8 24.7005 184 26.9005L184.5 36.0005L184.8 42.1005C184.8 42.5005 184.9 42.8005 185 43.2005C185 43.3005 185 43.3005 185.1 43.4005C185.1 43.5005 185.2 43.7005 185.2 43.8005C185.3 44.0005 185.3 44.1005 185.4 44.3005C185.5 44.4005 185.5 44.6005 185.6 44.7005C185.6 44.7005 185.7 44.8005 185.7 44.9005C185.8 45.0005 185.8 45.1005 185.9 45.2005C186 45.3005 186.1 45.5005 186.2 45.6005C186.3 45.7005 186.4 45.9005 186.5 46.0005C186.8 46.4005 187.2 46.7005 187.5 47.1005C187.6 47.2005 187.8 47.3005 187.9 47.4005C188 47.5005 188.2 47.6005 188.3 47.7005C188.4 47.8005 188.5 47.8005 188.6 47.9005C188.6 47.9005 188.6 47.9005 188.7 47.9005C188.8 48.0005 189 48.1005 189.2 48.1005L190.5 48.7005L249.6 75.5005C250.3 75.8005 251 75.9005 251.8 75.9005C252 75.9005 252.1 75.9005 252.2 75.9005C252.3 75.9005 252.5 75.9005 252.6 75.9005C252.8 75.9005 252.9 75.9005 253.1 75.8005C253.4 75.7005 253.7 75.7005 254 75.6005C254.3 75.5005 254.6 75.4005 254.9 75.3005C255 75.2005 255.2 75.2005 255.3 75.1005C255.3 75.1005 255.3 75.1005 255.4 75.1005C255.6 75.0005 255.7 74.9005 255.8 74.8005C256 74.7005 256.1 74.6005 256.3 74.4005C256.4 74.3005 256.6 74.2005 256.7 74.1005C256.8 73.9005 257 73.8005 257.1 73.6005L263.9 66.0005L274.9 53.9005L279.4 48.9005C279.7 48.6005 279.9 48.2005 280.1 47.9005C280.2 47.6005 280.4 47.4005 280.4 47.1005C280.5 46.9005 280.5 46.7005 280.5 46.5005C280.5 46.4005 280.5 46.2005 280.5 46.1005C280.4 45.9005 280.4 45.7005 280.4 45.6005ZM200.3 27.5005C200.4 27.9005 200.3 28.3005 200.2 28.8005C200 29.2005 199.8 29.7005 199.4 30.1005C197.9 31.7005 195.3 32.4005 193.5 31.6005C193.5 31.6005 193.4 31.6005 193.4 31.5005C192.8 31.2005 192.5 30.8005 192.2 30.4005C192.2 30.3005 192.1 30.2005 192.1 30.1005C192.1 30.0005 192 29.9005 192 29.8005C192 29.8005 192 29.7005 192 29.6005V29.5005V29.4005C192 29.2005 192 29.0005 192.1 28.8005C192.1 28.6005 192.2 28.4005 192.3 28.2005C192.4 28.0005 192.5 27.8005 192.6 27.6005C192.7 27.4005 192.9 27.2005 193 27.1005C194.5 25.5005 197.1 24.8005 198.9 25.6005C199 25.6005 199 25.7005 199.1 25.7005C199.2 25.7005 199.2 25.8005 199.3 25.8005C199.4 25.9005 199.6 26.0005 199.7 26.1005L199.8 26.2005C199.9 26.3005 200 26.4005 200.1 26.6005C200.2 26.7005 200.2 26.8005 200.3 26.9005C200.3 27.0005 200.3 27.0005 200.4 27.0005C200.3 27.2005 200.3 27.3005 200.3 27.5005Z" fill="url(#paint2_linear_1833_3802)"/>
<path d="M251.6 36.6992C251.1 35.6992 250.3 34.9992 249.1 34.3992C247.9 33.7992 246.6 33.6992 245.2 33.7992C243.7 33.8992 242.3 34.2992 240.9 34.9992C239.5 35.6992 238.3 36.4992 237.3 37.5992C236.3 38.6992 235.7 39.7992 235.4 40.9992C235.1 42.1992 235.2 43.2992 235.7 44.2992C236.2 45.2992 237 45.9992 238.1 46.5992C239.3 47.0992 240.6 47.2992 242 47.1992C243.5 47.0992 244.9 46.6992 246.3 45.9992C247.7 45.2992 248.9 44.3992 249.9 43.3992C250.9 42.2992 251.5 41.1992 251.8 39.9992C252.2 38.6992 252.1 37.6992 251.6 36.6992ZM246 41.4992C245.4 42.0992 244.7 42.4992 243.9 42.6992C243.1 42.8992 242.3 42.8992 241.7 42.5992C241.1 42.2992 240.7 41.7992 240.7 41.1992C240.7 40.5992 240.9 39.9992 241.4 39.3992C241.9 38.7992 242.6 38.3992 243.4 38.1992C244.2 37.9992 244.9 37.9992 245.6 38.2992C246.2 38.5992 246.6 39.0992 246.7 39.6992C246.8 40.2992 246.5 40.8992 246 41.4992ZM238.8 54.7992L225.6 29.9992C225.5 29.8992 225.5 29.7992 225.4 29.6992C225.3 29.6992 225.2 29.6992 225 29.6992C224.9 29.7992 224.7 29.8992 224.6 29.9992L221.4 33.5992C221.1 33.8992 221.1 34.1992 221.2 34.3992L233.3 57.0992L234.4 59.1992C234.4 59.2992 234.5 59.3992 234.6 59.3992C234.8 59.4992 235.1 59.3992 235.4 59.0992L235.5 58.9992L238.6 55.5992C238.8 55.2992 238.9 54.9992 238.8 54.7992ZM224.5 44.4992C224 43.4992 223.2 42.7992 222 42.1992C220.8 41.6992 219.5 41.4992 218.1 41.5992C217.1 41.6992 216.1 41.8992 215.1 42.2992C214.7 42.3992 214.3 42.5992 213.9 42.7992C212.5 43.4992 211.3 44.2992 210.3 45.3992C209.3 46.4992 208.7 47.5992 208.4 48.7992C208.1 49.9992 208.2 51.0992 208.7 52.0992C209.2 53.0992 210 53.7992 211.1 54.3992C212.3 54.8992 213.6 55.0992 215 54.9992C216.5 54.8992 217.9 54.4992 219.3 53.7992C220.7 53.0992 221.9 52.1992 222.9 51.0992C223.4 50.5992 223.7 50.0992 224 49.5992C224.4 48.9992 224.6 48.3992 224.8 47.6992C225.1 46.5992 225 45.4992 224.5 44.4992ZM218.9 49.3992C218.3 49.9992 217.7 50.3992 216.8 50.6992C216 50.8992 215.2 50.8992 214.6 50.5992C213.9 50.2992 213.6 49.7992 213.5 49.1992C213.5 48.5992 213.7 47.9992 214.2 47.3992C214.7 46.7992 215.4 46.3992 216.2 46.1992C217 45.9992 217.8 45.9992 218.4 46.2992C219 46.5992 219.4 47.0992 219.5 47.6992C219.7 48.1992 219.4 48.7992 218.9 49.3992Z" fill="url(#paint3_linear_1833_3802)"/>
<g opacity="0.5">
<path opacity="0.3" d="M149.3 201H132.2C132.2 201 132.2 200.9 132.2 200.8H97.2001V200.7H95.4001C96.2001 194.5 99.1001 189 103.4 184.8C105 183.2 106.8 181.8 108.8 180.7C112.8 178.4 117.5 177 122.5 177C128.1 177 133.4 178.7 137.7 181.6C139.4 182.7 141 184.1 142.4 185.6C146 189.8 148.7 195.1 149.3 201Z" fill="#E81F76"/>
<path opacity="0.3" d="M230.7 200.798H196.8C196.8 200.898 196.8 200.898 196.8 200.998H167C167 200.598 167 200.098 167 199.698C167 198.798 167 197.998 167.1 197.198C167.6 190.198 170.4 183.898 174.7 178.898C174.8 178.798 174.8 178.798 174.9 178.698C179.2 173.798 185 170.198 191.7 168.698C194 168.198 196.4 167.898 198.9 167.898C200.5 167.898 202.1 167.998 203.6 168.198C218.7 170.398 230.3 183.298 230.7 198.898C230.7 199.198 230.7 199.398 230.7 199.698C230.7 200.098 230.7 200.498 230.7 200.798Z" fill="#E81F76"/>
<path opacity="0.3" d="M115 199.698C115 200.098 115 200.498 115 200.798H97.2V200.698H51.3C51.3 200.398 51.3 199.998 51.3 199.698C51.3 198.998 51.3001 198.298 51.4001 197.598C51.4001 196.798 51.5 196.098 51.6 195.398C51.7 194.598 51.8 193.798 52 192.998C53.2 187.398 55.8 182.398 59.5 178.398C60.8 176.898 62.3001 175.498 63.9001 174.298C66.1001 172.698 68.4 171.298 71 170.298C72.4 169.698 73.9001 169.198 75.4001 168.798C77.9001 168.198 80.5 167.898 83.1 167.898C93.6 167.898 102.9 172.998 108.7 180.798C111.4 184.398 113.3 188.698 114.3 193.198C114.7 195.298 115 197.498 115 199.698Z" fill="#E81F76"/>
</g>
<path d="M24.4001 82.9C24.4001 87.5 20.5001 91.3 16.0001 91.3C11.5001 91.3 7.6001 87.4 7.6001 82.9C7.6001 78.3 11.5001 74.5 16.0001 74.5C20.6001 74.8 24.4001 78.4 24.4001 82.9Z" fill="#E81F76"/>
<path d="M37.7001 21.2C40.0001 21.2 41.8001 19.3 41.8001 17.1C41.8001 14.9 39.8001 13 37.7001 13C35.5001 13 33.6001 14.9 33.6001 17.1C33.6001 19.3 35.4001 21.2 37.7001 21.2Z" fill="#E81F76" fill-opacity="0.2"/>
<path d="M279 146.699C279 149.999 276.1 152.899 272.8 152.899C269.5 152.899 266.6 149.999 266.6 146.699C266.6 143.399 269.5 140.499 272.8 140.499C276.1 140.399 279 143.299 279 146.699Z" fill="#E81F76" fill-opacity="0.2"/>
<path d="M241.4 23.3C247 23.3 251.5 18.8 251.5 13.2C251.5 7.5 247 3 241.4 3C235.8 3 231.3 7.5 231.3 13.1C231.3 18.8 235.7 23.3 241.4 23.3Z" fill="#E81F76"/>
<path d="M269.3 5.20156C269.3 7.80156 267.1 10.3016 264.2 10.3016C261.3 10.3016 259.1 8.10156 259.1 5.20156C259.1 2.60156 261.3 0.101562 264.2 0.101562C267.1 0.101562 269.3 2.20156 269.3 5.20156Z" fill="#E81F76" fill-opacity="0.2"/>
<path d="M170.6 16.1984C170.6 18.0984 169.2 19.4984 167.3 19.4984C165.4 19.4984 164 18.0984 164 16.1984C164 14.2984 165.4 12.8984 167.3 12.8984C169.1 12.8984 170.6 14.5984 170.6 16.1984Z" fill="#E81F76" fill-opacity="0.2"/>
<path d="M15.7 137.998C15.7 142.098 12.4 145.498 8.20005 145.498C4.00005 145.498 0.800049 142.198 0.800049 137.998C0.800049 133.898 4.10005 130.498 8.30005 130.498C12.5 130.398 15.7 133.898 15.7 137.998Z" fill="#E81F76"/>
<path d="M42.5 113.299C42.5 115.899 40.3001 117.899 37.9001 117.899C35.3001 117.899 33.3 115.699 33.3 113.299C33.3 110.699 35.5001 108.699 37.9001 108.699C40.6001 108.799 42.5 110.699 42.5 113.299Z" fill="#E81F76" fill-opacity="0.2"/>
<path d="M23.6 5.4C23.6 7.3 22.2 8.7 20.3 8.7C18.4 8.7 17 7.3 17 5.4C17 3.5 18.4 2 20.3 2C22.2 2 23.6 3.6 23.6 5.4Z" fill="#E81F76"/>
<path d="M93.1 28.4008C96.3 28.4008 98.9 25.8008 98.9 22.6008C98.9 19.4008 96.3 16.8008 93.1 16.8008C89.9 16.8008 87.3 19.4008 87.3 22.6008C87.3 25.8008 89.9 28.4008 93.1 28.4008Z" fill="#E81F76"/>
<path d="M214.1 118.602C212 115.602 209.4 113.602 206.2 112.702C203.3 111.902 200.8 112.102 198.6 113.502L184.4 122.002C186.6 120.702 189.2 120.402 192 121.202C195.2 122.102 197.8 124.102 199.9 127.102C202.1 130.202 203 133.502 202.8 136.902C202.6 140.302 201.3 142.902 198.9 144.702C198.6 144.902 198.3 145.102 198 145.302L212.2 136.802C212.5 136.602 212.8 136.402 213.1 136.202C215.5 134.402 216.8 131.802 217 128.402C217.2 125.002 216.3 121.702 214.1 118.602Z" fill="url(#paint4_linear_1833_3802)"/>
<path d="M224.3 157C220.5 159.3 216.7 161.5 212.9 163.8C212 164.4 211 164.9 210.1 165.5C206.2 167.8 201.9 169 197.1 169.1C191.5 169.2 185.9 167.7 180.4 164.6C174.9 161.6 170.3 157.3 166.4 151.7C162.6 146.1 160.2 140.2 159.2 133.9C158.2 127.6 158.7 121.7 160.6 116.2C162.5 110.7 165.7 106.3 170.2 103C170.9 102.5 171.6 102 172.4 101.5L186.6 93C185.9 93.4 185.1 93.9 184.4 94.5C179.9 97.8 176.8 102.2 174.8 107.7C172.9 113.2 172.4 119.1 173.4 125.4C174.4 131.7 176.8 137.6 180.6 143.2C184.4 148.7 189.1 153 194.6 156.1C200.1 159.2 205.6 160.6 211.3 160.6C216 160.6 220.3 159.4 224.3 157Z" fill="url(#paint5_linear_1833_3802)"/>
<path d="M237.3 124.701C236.4 119.501 234.6 114.601 231.9 110.001C231.3 109.001 230.7 108.001 230 107.001C226.2 101.501 221.5 97.2008 216.1 94.2008C213.6 92.8008 211.1 91.8008 208.6 91.1008C205.6 90.2008 202.6 89.8008 199.5 89.8008C194.8 89.8008 190.5 91.0008 186.6 93.3008C186.6 93.3008 186.5 93.3008 186.5 93.4008C186.5 93.4008 186.4 93.4008 186.4 93.5008C186.4 93.5008 186.3 93.6008 186.2 93.6008C186.2 93.6008 186.1 93.7008 186 93.7008C185.8 93.8008 185.6 94.0008 185.4 94.1008C185 94.3008 184.7 94.6008 184.3 94.9008C179.8 98.2008 176.6 102.601 174.7 108.101C172.8 113.601 172.3 119.501 173.3 125.801C174.3 132.101 176.7 138.001 180.5 143.601C184.3 149.101 189 153.401 194.5 156.501C200 159.601 205.5 161.001 211.2 161.001C211.8 161.001 212.4 161.001 213 160.901C213.2 160.901 213.4 160.901 213.6 160.901C213.8 160.901 214 160.901 214.1 160.801C214.9 160.701 215.6 160.601 216.3 160.501C216.6 160.401 216.9 160.401 217.2 160.301C217.5 160.201 217.7 160.201 218 160.101C218.2 160.101 218.3 160.001 218.5 160.001C218.9 159.901 219.3 159.701 219.7 159.601C220.1 159.501 220.6 159.301 221 159.101C221.7 158.801 222.4 158.501 223.1 158.101C223.3 158.001 223.5 157.901 223.7 157.801C223.7 157.801 223.7 157.801 223.8 157.801C224.7 157.301 225.6 156.701 226.5 156.001C230.9 152.701 234.1 148.301 236 142.801C237.9 136.901 238.3 131.001 237.3 124.701ZM217 128.401C216.8 131.801 215.5 134.401 213.1 136.201C212.8 136.401 212.5 136.601 212.2 136.801C209.9 138.201 207.3 138.501 204.5 137.601C203.9 137.401 203.3 137.201 202.8 137.001C200.3 135.901 198.2 134.101 196.5 131.601C194.3 128.501 193.4 125.201 193.7 121.801C194 118.401 195.4 115.801 197.8 114.001C198 113.901 198.2 113.701 198.4 113.601C198.6 113.501 198.8 113.301 199 113.201C199.1 113.201 199.1 113.101 199.2 113.101C199.4 113.001 199.5 112.901 199.7 112.901C199.9 112.801 200.1 112.801 200.2 112.701C200.3 112.701 200.5 112.601 200.6 112.601C200.7 112.601 200.7 112.601 200.8 112.501C201 112.501 201.1 112.401 201.3 112.401C201.5 112.401 201.7 112.301 201.8 112.301C202.7 112.201 203.6 112.201 204.6 112.301C205.1 112.401 205.6 112.501 206.2 112.601C209.4 113.501 212 115.501 214.1 118.501C216.3 121.701 217.2 125.001 217 128.401Z" fill="#E81F76"/>
<path d="M106.7 111.299L92.5 119.799C92.8 119.599 93.1 119.399 93.4 119.199C95.8 117.399 97.1 114.799 97.3 111.399C97.5 107.999 96.5 104.699 94.3 101.599C92.2 98.5991 89.6 96.5991 86.4 95.6991C83.5 94.8991 81 95.0991 78.8 96.4991L93 87.9991C95.2 86.6991 97.8 86.3991 100.6 87.1991C103.8 88.0991 106.4 90.0991 108.5 93.0991C110.7 96.1991 111.6 99.4991 111.4 102.899C111.2 106.299 109.9 108.899 107.5 110.699C107.2 110.899 106.9 111.099 106.7 111.299Z" fill="url(#paint6_linear_1833_3802)"/>
<path d="M175 191.401L167.1 197.201L161.9 201.001H156.9C156.7 200.701 156.6 200.301 156.6 200.001L152.8 179.201L127.2 38.4008C126.8 36.8008 127.3 35.6008 128.6 34.6008L143.1 23.9008C143.7 23.5008 144.3 23.3008 144.8 23.3008C145.3 23.3008 145.8 23.6008 146.1 24.1008C146.4 24.6008 146.7 25.2008 146.8 26.1008L162.5 112.001L170.8 157.101L174.7 178.601L174.8 178.901L176.4 187.601C176.7 189.201 176.3 190.401 175 191.401Z" fill="#E81F76"/>
<path d="M156.6 200.001C156.6 200.301 156.7 200.601 156.9 201.001H141V200.801L140.6 198.601L138.9 189.101L137.5 181.701L126.9 123.701L117.8 73.8008L112.9 46.7008C112.5 45.1008 113 43.9008 114.3 43.0008L128.8 32.3008L143 23.8008L128.5 34.6008C127.2 35.5008 126.8 36.8008 127.1 38.4008L152.8 179.301L156.6 200.001Z" fill="url(#paint7_linear_1833_3802)"/>
<path d="M118.7 131.5L104.5 140C100.6 142.3 96.3001 143.5 91.5001 143.6C85.8001 143.7 80.3001 142.2 74.8001 139.1C69.3001 136 64.7001 131.7 60.9001 126.2C57.1001 120.6 54.7001 114.7 53.7001 108.4C52.7001 102.1 53.2001 96.2 55.1001 90.7C57.0001 85.2 60.2001 80.8 64.6001 77.5C65.3001 77 66.0001 76.5 66.8001 76C70.6001 73.7 74.4001 71.5 78.2001 69.2C79.1001 68.6 80.1001 68.1 81.0001 67.5C80.3001 67.9 79.5001 68.4 78.8001 69C74.3001 72.3 71.2001 76.7 69.3001 82.2C67.4001 87.7 66.9001 93.6 67.9001 99.9C68.9001 106.2 71.3001 112.1 75.1001 117.7C78.9001 123.2 83.6001 127.5 89.0001 130.6C94.5001 133.7 100 135.1 105.7 135.1C110.4 135.1 114.8 133.9 118.7 131.5Z" fill="url(#paint8_linear_1833_3802)"/>
<path d="M131.7 99.2C130.6 92.9 128.2 87 124.4 81.4C122.5 78.6 120.3 76.1 117.9 73.9C115.6 71.8 113.1 70 110.5 68.6C105.1 65.6 99.6 64.1 94 64.2C89.3 64.2 85 65.4 81.1 67.8C80.9 67.9 80.8 68 80.7 68.1C80.5 68.2 80.3 68.4 80.1 68.5C79.7 68.7 79.4 69 79 69.3C74.5 72.6 71.4 77 69.5 82.5C67.6 88 67.1 93.9 68.1 100.2C69.1 106.5 71.5 112.4 75.3 118C75.7 118.6 76.1 119.2 76.6 119.7C76.9 120.1 77.2 120.5 77.6 120.9C77.7 121 77.8 121.2 77.9 121.3C78.2 121.7 78.6 122.1 78.9 122.5C79.3 123 79.7 123.4 80.2 123.9C80.6 124.4 81.1 124.8 81.5 125.2C81.9 125.5 82.2 125.9 82.6 126.2C82.6 126.2 82.7 126.2 82.7 126.3C82.9 126.5 83 126.6 83.2 126.8C84 127.5 84.9 128.1 85.7 128.7C86.9 129.5 88 130.3 89.3 131C89.5 131.1 89.8 131.3 90 131.4C90.7 131.8 91.4 132.1 92.1 132.5C92.4 132.6 92.6 132.8 92.9 132.9C93.2 133 93.4 133.1 93.7 133.2C94 133.3 94.2 133.4 94.5 133.5C95.4 133.8 96.3 134.1 97.3 134.4C97.6 134.5 98 134.6 98.3 134.7C98.6 134.8 99 134.9 99.3 134.9C99.6 135 100 135 100.3 135.1C100.7 135.2 101.1 135.2 101.5 135.3C101.8 135.3 102.1 135.4 102.4 135.4C103.1 135.5 103.8 135.5 104.5 135.5C104.8 135.5 105.2 135.5 105.5 135.5H106C106.4 135.5 106.8 135.5 107.3 135.5C107.8 135.5 108.3 135.4 108.8 135.4C109 135.4 109.2 135.4 109.4 135.3C109.7 135.3 109.9 135.2 110.2 135.2C110.5 135.1 110.8 135.1 111 135C111.3 134.9 111.7 134.8 112 134.8C112.1 134.8 112.1 134.8 112.2 134.8C112.5 134.7 112.8 134.6 113.1 134.6C113.4 134.5 113.7 134.4 114.1 134.3C114.4 134.2 114.7 134.1 115 134C115.2 133.9 115.4 133.8 115.6 133.7C116 133.5 116.4 133.4 116.8 133.2C117.1 133 117.4 132.9 117.7 132.7C117.9 132.6 118.1 132.5 118.2 132.4C118.3 132.3 118.4 132.3 118.5 132.2C118.6 132.1 118.7 132.1 118.8 132C118.8 132 118.8 132 118.9 132C119.7 131.5 120.4 131.1 121.1 130.5C123.5 128.7 125.6 126.6 127.2 124.2C128.6 122.1 129.8 119.8 130.6 117.3C132.3 111.4 132.8 105.5 131.7 99.2ZM111.5 102.9C111.3 106.3 110 108.9 107.6 110.7C107.4 110.9 107.1 111 106.9 111.2C104.6 112.7 101.9 113 99 112.1C98.4 111.9 97.8 111.7 97.3 111.5C94.9 110.4 92.8 108.6 91 106C88.8 102.9 87.9 99.6 88.2 96.2C88.5 92.8 89.8 90.2 92.2 88.4C92.3 88.3 92.4 88.3 92.5 88.2C92.6 88.1 92.7 88.1 92.8 88C92.9 88 93 87.9 93.1 87.8C93.2 87.7 93.4 87.6 93.6 87.5C93.8 87.4 93.9 87.3 94.1 87.2C94.2 87.2 94.3 87.1 94.5 87.1C94.6 87 94.8 87 95 86.9C95.2 86.8 95.3 86.8 95.5 86.8C95.5 86.8 95.5 86.8 95.6 86.8C95.8 86.8 96 86.7 96.2 86.7C96.4 86.7 96.6 86.6 96.7 86.6C96.8 86.6 96.9 86.6 97 86.6C98.2 86.5 99.4 86.6 100.8 87C104 87.9 106.6 89.9 108.7 92.9C110.7 96.2 111.6 99.5 111.5 102.9Z" fill="#E81F76"/>
<path d="M143.5 201.801H97.2V201.701C98.7 200.501 100.1 199.401 101.8 198.501C104.6 196.901 107.6 195.601 110.9 194.901C110.9 194.901 110.9 194.901 111 194.901C112.1 194.601 113.2 194.401 114.3 194.201H114.4C116.3 193.901 118.3 193.801 120.3 193.801C125.5 193.801 130.3 194.801 134.6 196.601C136.6 197.401 138.4 198.401 140.1 199.501C140.3 199.601 140.4 199.701 140.6 199.801C141.6 200.301 142.6 201.101 143.5 201.801Z" fill="white"/>
<path d="M233.1 200.799H186.8V200.699C188.3 199.499 189.7 198.399 191.4 197.499C192.4 196.899 193.5 196.299 194.7 195.799C196.5 194.999 198.5 194.299 200.6 193.799C201.7 193.499 202.9 193.199 204.1 193.099C206 192.799 208 192.699 210 192.699C217.5 192.699 224.3 194.899 229.8 198.399C230.1 198.599 230.4 198.799 230.7 198.999C231.5 199.499 232.4 200.199 233.1 200.799Z" fill="white"/>
<path d="M196.8 200.999H132.2C132.2 200.999 132.2 200.899 132.2 200.799C132.5 199.799 132.9 198.899 133.3 197.899C133.6 197.199 134 196.299 134.5 195.599C134.5 195.599 134.5 195.499 134.6 195.499C135.8 193.099 137.2 190.999 138.9 189.099C139.5 188.399 140 187.799 140.7 187.199L142.6 185.299C142.7 185.199 142.9 184.999 143 184.899C143.4 184.599 143.9 184.199 144.3 183.899C146.9 181.899 149.8 180.399 152.9 179.199C154.3 178.699 155.7 178.299 157.1 177.899H157.2C162.9 176.499 168.9 176.799 174.8 178.599C174.9 178.599 175 178.599 175 178.699C175.9 178.999 176.8 179.299 177.8 179.699C180.8 180.999 183.6 182.599 186.1 184.599C186.1 184.599 186.1 184.599 186.2 184.599C189.8 187.799 192.7 191.599 194.8 195.799C195.6 197.399 196.3 199.099 196.9 200.799C196.8 200.899 196.8 200.999 196.8 200.999Z" fill="white"/>
<path d="M114.1 201.702H49.3999C49.4999 201.302 49.6999 200.902 49.7999 200.502C50.2999 199.102 50.8999 197.702 51.5999 196.402C52.8999 193.902 54.4999 191.602 56.2999 189.502C58.6999 186.802 61.4999 184.502 64.5999 182.702C67.3999 181.102 70.3999 179.802 73.5999 179.102C76.3999 178.402 79.1999 178.102 82.0999 178.102C84.2999 178.102 86.2999 178.402 88.4999 178.802C90.1999 179.102 91.7999 179.502 93.2999 180.102C95.7999 181.002 97.8999 182.102 100.1 183.402C101.2 184.102 102.3 184.902 103.3 185.802C105.3 187.502 107.2 189.402 108.7 191.502C109.4 192.502 110.3 193.702 110.9 194.702C110.9 194.702 110.9 194.802 111 194.802C112.3 197.002 113.3 199.302 114.1 201.702Z" fill="white"/>
<path d="M83.6998 134.6C82.7998 134.1 81.4998 134.5 80.4998 135.6C79.3998 137 79.0998 138.8 79.9998 139.8C80.0998 139.9 80.2998 140 80.3998 140.1C81.0998 140.5 81.7998 140.9 82.4998 141.4C82.3998 141.3 82.1998 141.2 82.0998 141.1C81.1998 140.1 81.4998 138.2 82.5998 136.9C83.5998 135.7 84.8998 135.3 85.7998 135.9C85.0998 135.4 84.3998 135 83.6998 134.6Z" fill="url(#paint9_linear_1833_3802)"/>
<path d="M90.4999 129.8C89.7999 129.4 89.0999 129 88.3999 128.5C89.2999 129 89.7999 130.1 89.6999 131.5L88.6999 145.6C88.5999 147.7 87.2999 150.7 85.7999 152.5L47.6999 198.2C46.4999 199.7 44.7999 200.2 43.5999 199.5C44.2999 199.9 44.9999 200.3 45.5999 200.7C45.5999 200.7 45.6999 200.7 45.6999 200.8C46.7999 201.5 48.4999 201 49.7999 199.5L87.8999 153.8C89.2999 152.1 90.5999 149 90.7999 146.9L91.7999 132.8C91.8999 131.5 91.3999 130.3 90.4999 129.8Z" fill="url(#paint10_linear_1833_3802)"/>
<path d="M89.6999 130.799C89.6999 130.699 89.6999 130.599 89.5999 130.399C89.5999 130.299 89.5999 130.199 89.4999 130.099V129.999C89.4999 129.899 89.4999 129.899 89.3999 129.799C89.3999 129.699 89.2999 129.699 89.2999 129.599C89.1999 129.499 89.1999 129.399 89.0999 129.299C88.9999 129.199 88.8999 129.099 88.8999 128.999C88.7999 128.899 88.6999 128.799 88.5999 128.799C88.4999 128.699 88.4999 128.699 88.3999 128.699C88.3999 128.699 88.2999 128.699 88.2999 128.599C87.7999 128.299 87.2999 128.199 86.6999 128.299L85.3999 128.499L74.6999 129.899C72.8999 130.099 70.2999 131.699 68.8999 133.399L67.9999 134.399L30.7999 178.999C29.3999 180.699 29.0999 183.099 30.1999 184.299L43.1999 198.999C43.3999 199.199 43.4999 199.299 43.6999 199.399C43.6999 199.399 43.7999 199.399 43.7999 199.499C43.7999 199.499 43.8999 199.499 43.9999 199.599C44.0999 199.599 44.0999 199.599 44.1999 199.699H44.2999C44.3999 199.699 44.4999 199.699 44.4999 199.699C45.4999 199.799 46.7999 199.299 47.7999 198.099L52.0999 192.999L71.0999 170.299L85.9999 152.499C87.3999 150.799 88.6999 147.699 88.8999 145.599L88.9999 143.499L89.8999 131.499C89.8999 131.299 89.8999 131.199 89.8999 130.999C89.6999 130.999 89.6999 130.799 89.6999 130.799ZM80.4999 135.599C81.1999 134.799 82.0999 134.299 82.7999 134.299C82.8999 134.299 82.9999 134.299 83.0999 134.299C83.1999 134.299 83.1999 134.299 83.1999 134.299H83.2999C83.2999 134.299 83.3999 134.299 83.4999 134.299H83.5999C83.6999 134.299 83.7999 134.399 83.8999 134.399C83.9999 134.499 84.0999 134.599 84.1999 134.699C84.3999 134.899 84.4999 135.199 84.5999 135.499C84.8999 136.499 84.5999 137.899 83.6999 138.999C83.0999 139.699 82.4999 140.099 81.7999 140.199C81.2999 140.299 80.7999 140.199 80.3999 139.999H80.2999C80.1999 139.899 80.0999 139.799 80.0999 139.799C79.0999 138.799 79.2999 136.899 80.4999 135.599Z" fill="url(#paint11_linear_1833_3802)"/>
<path d="M64.5998 170.299C64.4998 169.299 64.0998 168.499 63.5998 167.899C62.9998 167.199 62.2998 166.899 61.4998 166.699C60.6998 166.599 59.7998 166.699 58.8998 167.099C57.9998 167.499 57.1998 168.099 56.4998 168.999C55.7998 169.899 55.1998 170.799 54.8998 171.899C54.5998 172.999 54.4998 173.999 54.5998 174.899C54.6998 175.899 55.0998 176.699 55.5998 177.299C56.1998 177.899 56.8998 178.299 57.6998 178.399C58.2998 178.499 58.8998 178.399 59.4998 178.299C59.7998 178.199 59.9998 178.099 60.2998 177.999C61.1998 177.599 61.9998 176.899 62.6998 176.099C63.1998 175.499 63.5998 174.899 63.8998 174.299C64.0998 173.999 64.1998 173.599 64.2998 173.299C64.5998 172.299 64.6998 171.199 64.5998 170.299ZM59.3998 174.799C58.8998 174.899 58.4998 174.799 58.1998 174.399C57.8998 173.999 57.6998 173.599 57.7998 172.999C57.8998 172.399 58.0998 171.899 58.4998 171.399C58.8998 170.899 59.3998 170.599 59.8998 170.499C60.3998 170.399 60.7998 170.599 61.0998 170.899C61.3998 171.199 61.4998 171.699 61.4998 172.299C61.3998 172.899 61.1998 173.399 60.7998 173.899C60.2998 174.399 59.8998 174.699 59.3998 174.799ZM72.8998 158.099L70.9998 155.999C70.7998 155.799 70.5998 155.799 70.3998 155.899L47.6998 166.999C47.5998 166.999 47.4998 167.099 47.4998 167.199C47.3998 167.399 47.3998 167.599 47.4998 167.799L49.3998 169.899C49.5998 170.099 49.6998 170.099 49.9998 169.999L72.7998 158.899C72.8998 158.899 72.9998 158.799 73.0998 158.699C73.1998 158.599 73.1998 158.499 73.1998 158.399C72.9998 158.299 72.9998 158.199 72.8998 158.099ZM66.0998 151.099C65.9998 150.099 65.5998 149.299 65.0998 148.699C64.4998 148.099 63.7998 147.699 62.9998 147.599C62.1998 147.499 61.2998 147.599 60.3998 147.999C59.4998 148.399 58.6998 148.999 57.9998 149.899C57.2998 150.799 56.6998 151.699 56.3998 152.799C56.0998 153.899 55.9998 154.899 56.0998 155.799C56.1998 156.799 56.5998 157.599 57.1998 158.199C57.7998 158.799 58.4998 159.199 59.2998 159.399C60.0998 159.499 60.9998 159.399 61.8998 158.999C62.7998 158.599 63.5998 157.899 64.2998 157.099C64.9998 156.199 65.4998 155.299 65.8998 154.199C66.0998 153.099 66.1998 152.099 66.0998 151.099ZM62.8998 153.199C62.7998 153.799 62.5998 154.299 62.1998 154.799C61.7998 155.299 61.2998 155.599 60.7998 155.699C60.2998 155.799 59.8998 155.699 59.5998 155.299C59.2998 154.899 59.1998 154.499 59.1998 153.899C59.2998 153.299 59.4998 152.799 59.8998 152.299C60.2998 151.799 60.7998 151.499 61.2998 151.499C61.7998 151.399 62.1998 151.599 62.4998 151.899C62.7998 152.199 62.8998 152.599 62.8998 153.199Z" fill="url(#paint12_linear_1833_3802)"/>
</g>
<defs>
<linearGradient id="paint0_linear_1833_3802" x1="203.436" y1="54.993" x2="196.464" y2="29.0048" gradientUnits="userSpaceOnUse">
<stop stop-color="#FF9ECA"/>
<stop offset="1" stop-color="#D93680"/>
</linearGradient>
<linearGradient id="paint1_linear_1833_3802" x1="304.487" y1="39.8015" x2="198.073" y2="66.7679" gradientUnits="userSpaceOnUse">
<stop stop-color="#FF9ECA"/>
<stop offset="1" stop-color="#D93680"/>
</linearGradient>
<linearGradient id="paint2_linear_1833_3802" x1="274.339" y1="42.6903" x2="188.454" y2="48.2105" gradientUnits="userSpaceOnUse">
<stop stop-color="#FF9ECA"/>
<stop offset="1" stop-color="#FF57A3"/>
</linearGradient>
<linearGradient id="paint3_linear_1833_3802" x1="194.081" y1="55.0394" x2="247.306" y2="39.5587" gradientUnits="userSpaceOnUse">
<stop stop-color="#FF9ECA"/>
<stop offset="1" stop-color="white"/>
</linearGradient>
<linearGradient id="paint4_linear_1833_3802" x1="211.611" y1="144.624" x2="196.66" y2="114.963" gradientUnits="userSpaceOnUse">
<stop stop-color="#DEF1FF"/>
<stop offset="1" stop-color="#E81F76" stop-opacity="0.5"/>
</linearGradient>
<linearGradient id="paint5_linear_1833_3802" x1="179.828" y1="110.831" x2="198.637" y2="167.017" gradientUnits="userSpaceOnUse">
<stop stop-color="#DEF1FF"/>
<stop offset="1" stop-color="#E81F76" stop-opacity="0.5"/>
</linearGradient>
<linearGradient id="paint6_linear_1833_3802" x1="96.9202" y1="123.15" x2="94.5088" y2="90.8378" gradientUnits="userSpaceOnUse">
<stop stop-color="#DEF1FF"/>
<stop offset="1" stop-color="#E81F76" stop-opacity="0.5"/>
</linearGradient>
<linearGradient id="paint7_linear_1833_3802" x1="141.471" y1="30.274" x2="130.511" y2="185.095" gradientUnits="userSpaceOnUse">
<stop stop-color="#DEF1FF"/>
<stop offset="1" stop-color="#E81F76" stop-opacity="0.5"/>
</linearGradient>
<linearGradient id="paint8_linear_1833_3802" x1="68.7204" y1="80.6221" x2="91.3879" y2="133.915" gradientUnits="userSpaceOnUse">
<stop stop-color="#DEF1FF"/>
<stop offset="1" stop-color="#E81F76" stop-opacity="0.5"/>
</linearGradient>
<linearGradient id="paint9_linear_1833_3802" x1="101.369" y1="120.568" x2="81.8018" y2="138.178" gradientUnits="userSpaceOnUse">
<stop stop-color="#95E279"/>
<stop offset="1" stop-color="#2DA14D"/>
</linearGradient>
<linearGradient id="paint10_linear_1833_3802" x1="96.286" y1="121.232" x2="69.6755" y2="169.757" gradientUnits="userSpaceOnUse">
<stop stop-color="#95E279"/>
<stop offset="1" stop-color="#2DA14D"/>
</linearGradient>
<linearGradient id="paint11_linear_1833_3802" x1="79.8391" y1="147.616" x2="7.25119" y2="208.66" gradientUnits="userSpaceOnUse">
<stop stop-color="#95E279"/>
<stop offset="1" stop-color="#2DA14D"/>
</linearGradient>
<linearGradient id="paint12_linear_1833_3802" x1="47.3585" y1="163.055" x2="73.0598" y2="163.055" gradientUnits="userSpaceOnUse">
<stop stop-color="#CFFF9E"/>
<stop offset="1" stop-color="white"/>
</linearGradient>
<clipPath id="clip0_1833_3802">
<rect width="290" height="201" fill="white" transform="translate(0.5)"/>
</clipPath>
</defs>
</svg>
