<svg width="73" height="72" viewBox="0 0 73 72" fill="none" xmlns="http://www.w3.org/2000/svg">
<g clip-path="url(#clip0_1834_3988)">
<path d="M72.5 25C72.5 4.8 67.7 0 47.5 0H25.5C5.3 0 0.5 4.8 0.5 25V47C0.5 67.2 5.3 72 25.5 72H47.5C67.7 72 72.5 67.2 72.5 47V25Z" fill="white"/>
<path d="M56.1226 34.1922C55.5023 32.6398 54.6105 31.19 53.4947 29.922V23.1046C53.4947 21.9705 52.9846 20.9172 52.0927 20.2125C51.2155 19.5207 50.0943 19.2711 49.0079 19.5262C45.6589 20.3244 43.1466 22.2219 41.8015 24.9324H31.9599C27.2235 24.9324 22.9716 27.0574 20.1804 30.3808C17.9783 30.0596 18.2444 26.7638 20.4612 26.7675C22.8596 26.7583 22.8615 23.1064 20.4612 23.0973C14.6164 23.0789 12.8841 31.1827 18.1343 33.5738C14.9063 40.2169 17.714 48.7721 24.1314 52.3138V52.4588C24.135 58.6082 32.8297 60.0157 34.8281 54.2939H39.1278C41.1262 60.0194 49.8209 58.6045 49.8245 52.4588V52.29C52.6873 50.6329 54.9096 48.0692 56.1226 45.034C57.6292 44.7128 59 43.4778 59 41.4482V37.778C59 35.7484 57.6273 34.5134 56.1226 34.1922ZM47.9894 37.778C45.5891 37.767 45.5891 34.1188 47.9894 34.1078C50.3897 34.1188 50.3897 37.767 47.9894 37.778ZM26.0637 22.2017C25.0324 11.9417 40.2674 10.9489 40.6491 21.2622H31.9617C29.9046 21.2622 27.9245 21.6017 26.0637 22.2017Z" fill="#336CFF"/>
</g>
<defs>
<clipPath id="clip0_1834_3988">
<rect width="72" height="72" fill="white" transform="translate(0.5)"/>
</clipPath>
</defs>
</svg>
