<svg width="73" height="72" viewBox="0 0 73 72" fill="none" xmlns="http://www.w3.org/2000/svg">
<g clip-path="url(#clip0_1834_3975)">
<path d="M72.1667 25C72.1667 4.8 67.3667 0 47.1667 0H25.1667C4.96675 0 0.166748 4.8 0.166748 25V47C0.166748 67.2 4.96675 72 25.1667 72H47.1667C67.3667 72 72.1667 67.2 72.1667 47V25Z" fill="white"/>
<path d="M47.0001 29.5834C47.0001 30.4899 46.7313 31.376 46.2276 32.1297C45.724 32.8835 45.0082 33.4709 44.1707 33.8178C43.3332 34.1647 42.4117 34.2555 41.5226 34.0786C40.6335 33.9018 39.8168 33.4653 39.1758 32.8243C38.5349 32.1833 38.0983 31.3666 37.9215 30.4775C37.7446 29.5885 37.8354 28.6669 38.1823 27.8294C38.5292 26.9919 39.1167 26.2761 39.8704 25.7725C40.6241 25.2688 41.5103 25 42.4167 25C43.6323 25 44.7981 25.4829 45.6577 26.3425C46.5172 27.202 47.0001 28.3678 47.0001 29.5834ZM44.5416 46.4739C44.1833 47.8823 43.6744 49.2481 43.0236 50.5475C41.8219 52.8201 40.0175 54.7178 37.8083 56.0324C35.5992 57.347 33.0706 58.0278 30.5001 58H28.6667V49.0955C28.6336 47.5777 28.0158 46.1313 26.9423 45.0578C25.8688 43.9843 24.4224 43.3665 22.9046 43.3334H14.0001V41.5C13.9723 38.9295 14.6531 36.4009 15.9677 34.1918C17.2824 31.9826 19.18 30.1782 21.4526 28.9765C22.752 28.3257 24.1178 27.8168 25.5262 27.4585C32.2601 18.3634 40.0719 14.3264 51.5064 14H51.5834C52.4348 13.9972 53.2781 14.1644 54.064 14.4917C54.8499 14.8191 55.5626 15.3 56.1602 15.9063C56.7578 16.5127 57.2284 17.2322 57.5443 18.0228C57.8603 18.8133 58.0152 19.659 58.0001 20.5102C57.6701 32.1079 53.7577 39.6667 44.5416 46.4739ZM52.5001 20.4314C52.504 20.1904 52.413 19.9576 52.2466 19.7833C52.0801 19.609 51.8518 19.5072 51.6109 19.5C41.5991 19.797 35.4061 23.1044 29.5413 31.2902C28.0206 33.4676 26.6686 35.758 25.4969 38.1414C27.516 38.6499 29.3596 39.6959 30.8319 41.1682C32.3042 42.6405 33.3502 44.4841 33.8587 46.5032C36.2424 45.3319 38.5328 43.9799 40.7099 42.4589C48.9104 36.5812 52.2177 30.4065 52.5001 20.4314ZM16.9903 48.3347C15.5713 49.75 14.6968 54.0235 14.3869 55.8L14.0001 58L16.2001 57.6114C17.9619 57.2997 22.2097 56.4215 23.6287 54.9989C24.5082 54.1129 25.0016 52.9151 25.0016 51.6668C25.0016 50.4184 24.5082 49.2207 23.6287 48.3347C22.7365 47.4773 21.547 46.9984 20.3095 46.9984C19.072 46.9984 17.8825 47.4773 16.9903 48.3347Z" fill="#F018C1"/>
</g>
<defs>
<clipPath id="clip0_1834_3975">
<rect width="72" height="72" fill="white" transform="translate(0.166748)"/>
</clipPath>
</defs>
</svg>
