<svg width="164" height="32" viewBox="0 0 164 32" fill="none" xmlns="http://www.w3.org/2000/svg">
<path d="M4.76807 0H159.183V15C159.183 24.3888 151.572 32 142.183 32H21.768C12.3792 32 4.76807 24.3888 4.76807 15V0Z" fill="#232020"/>
<path fill-rule="evenodd" clip-rule="evenodd" d="M5 0H0V1.61431e-05C3.65528e-05 1.61431e-05 7.31056e-05 1.61419e-05 0.000109659 1.61419e-05C2.6507 1.61419e-05 4.79943 2.14875 4.79943 4.79934C4.79943 4.86656 4.79805 4.93345 4.79532 5H5V0Z" fill="#232020"/>
<path fill-rule="evenodd" clip-rule="evenodd" d="M159 0H164V1.61431e-05C164 1.61431e-05 164 1.61419e-05 164 1.61419e-05C161.349 1.61419e-05 159.201 2.14875 159.201 4.79934C159.201 4.86656 159.202 4.93345 159.205 5H159V0Z" fill="#232020"/>
</svg>
