<svg width="73" height="73" viewBox="0 0 73 73" fill="none" xmlns="http://www.w3.org/2000/svg">
<path d="M72.833 25.5098C72.833 5.30976 68.033 0.509766 47.833 0.509766H25.833C5.63301 0.509766 0.833008 5.30976 0.833008 25.5098V47.5098C0.833008 67.7098 5.63301 72.5098 25.833 72.5098H47.833C68.033 72.5098 72.833 67.7098 72.833 47.5098V25.5098Z" fill="white"/>
<path fill-rule="evenodd" clip-rule="evenodd" d="M37 15C49.1413 15 59 24.8588 59 37C59 49.1413 49.1413 59 37 59C24.8588 59 15 49.1413 15 37C15 24.8588 24.8588 15 37 15ZM37 20.5C46.1052 20.5 53.5 27.8947 53.5 37C53.5 46.1052 46.1052 53.5 37 53.5C27.8947 53.5 20.5 46.1052 20.5 37C20.5 27.8947 27.8947 20.5 37 20.5ZM44.1775 30.389C44.5653 30.4192 44.9393 30.5127 45.2858 30.6942C45.5168 30.8152 45.7285 30.9665 45.9128 31.1425C46.6388 31.8355 46.933 32.8997 46.6663 33.865C46.5508 34.2857 46.3335 34.657 46.0503 34.9842C42.093 38.9387 40.8885 40.146 37.0798 43.9547C36.8542 44.15 36.6122 44.3177 36.3372 44.4387C35.636 44.7467 34.8193 44.7467 34.1152 44.4387C33.843 44.3177 33.5982 44.15 33.3727 43.9547C31.4367 42.104 29.9655 40.6327 28.1147 38.6967C27.8315 38.3667 27.6142 37.9982 27.4987 37.5775C27.43 37.3272 27.397 37.0715 27.3997 36.813C27.4107 35.7625 28.0432 34.789 28.9947 34.349C29.3055 34.206 29.6437 34.1207 29.9875 34.0987C30.3312 34.0795 30.6777 34.1235 31.005 34.2307C31.4202 34.3682 31.7805 34.5992 32.094 34.899L35.2262 38.034C38.276 34.987 39.1065 34.1537 42.1645 31.0985C42.2635 31.0133 42.2607 31.016 42.3625 30.9362C42.5028 30.8345 42.6458 30.741 42.8025 30.6667C43.1133 30.5127 43.446 30.4302 43.7898 30.3917C43.919 30.3862 44.0455 30.3835 44.1775 30.389Z" fill="#735CE6"/>
</svg>
