<svg width="143" height="48" viewBox="0 0 143 48" fill="none" xmlns="http://www.w3.org/2000/svg">
<path d="M13.9127 35.2445L10.25 21.7421H12.6526L15.4668 32.1127L18.4829 21.7412L20.7225 21.7421L23.7491 32.1678L26.576 21.7447L28.9785 21.7412L25.3142 35.2421L22.5294 35.2393L19.6036 25.1559L16.6751 35.2419L13.9127 35.2445Z" fill="#CB11AB"/>
<path d="M30.6355 21.749H32.9225V35.2357H30.6355V21.749Z" fill="#CB11AB"/>
<path d="M37.8123 33.1201H43.3801V35.2357H35.5725V21.749H37.8123V33.1201Z" fill="#CB11AB"/>
<path d="M50.415 21.7646C52.2919 21.7646 53.8535 22.4179 55.0838 23.709C56.3298 25.0001 56.9608 26.6024 56.9608 28.5001C56.9608 30.3824 56.3298 31.9846 55.0838 33.2912C53.8535 34.5824 52.2919 35.2357 50.415 35.2357H45.0364V21.749H50.415V21.7646ZM50.415 33.1357C51.7083 33.1357 52.7651 32.7001 53.5538 31.829C54.374 30.9579 54.7841 29.8379 54.7841 28.5157C54.7841 27.1624 54.374 26.0735 53.5538 25.2024C52.7494 24.3312 51.6926 23.8957 50.415 23.8957H47.2919V33.1357H50.415Z" fill="#CB11AB"/>
<path d="M69.027 31.3829C69.027 32.4879 68.633 33.4062 67.8285 34.1377C67.024 34.8692 66.0775 35.2427 64.9105 35.2427H59.0586V21.749H64.4845C65.6045 21.749 66.5505 22.1226 67.3235 22.8229C68.1125 23.5388 68.491 24.426 68.491 25.4843C68.491 26.6671 68.0175 27.5698 67.103 28.2391C68.3015 28.8616 69.027 29.9822 69.027 31.3829ZM61.314 23.8346V27.3831H64.5C65.494 27.3831 66.251 26.6049 66.251 25.6088C66.251 24.6127 65.494 23.8346 64.5 23.8346H61.314ZM64.926 33.1572C65.967 33.1572 66.7875 32.3323 66.7875 31.274C66.7875 30.2156 65.967 29.3908 64.926 29.3908H61.314V33.1727H64.926V33.1572Z" fill="#CB11AB"/>
<path d="M73.396 33.126H79.453V35.2427H71.1565V21.749H79.3585V23.8657H73.396V27.3675H78.8695V29.4686H73.396V33.126Z" fill="#CB11AB"/>
<path d="M89.2639 35.2427L86.3614 30.3246H83.7114V35.2427H81.4719V21.749H86.9449C88.1754 21.749 89.2164 22.1692 90.0524 23.0252C90.9039 23.8501 91.3459 24.8773 91.3459 26.0913C91.3459 27.8033 90.2574 29.3752 88.6329 29.9977L91.7399 35.2427H89.2639ZM83.7114 23.8345V28.348H86.9294C88.1279 28.348 89.0744 27.3519 89.0744 26.0913C89.0744 24.8462 88.1124 23.8345 86.9294 23.8345H83.7114Z" fill="#CB11AB"/>
<path d="M101.235 35.2428L98.349 30.3222H95.699V35.2428H93.4595V21.7422H98.9325C100.163 21.7422 101.204 22.1626 102.04 23.0191C102.891 23.8444 103.333 24.8721 103.333 26.0867C103.333 27.7996 102.245 29.3723 100.62 29.9952L103.727 35.2428H101.235ZM95.699 23.8288V28.3446H98.917C100.115 28.3446 101.062 27.348 101.062 26.0867C101.062 24.841 100.1 23.8288 98.917 23.8288H95.699Z" fill="#CB11AB"/>
<path d="M105.368 21.7432H107.608V35.2423H105.368V21.7432Z" fill="#CB11AB"/>
<path d="M112.498 33.126H118.555V35.2426H110.258V21.749H118.46V23.8657H112.498V27.3675H117.971V29.4686H112.498V33.126Z" fill="#CB11AB"/>
<path d="M120.116 32.1711L122.056 31.0511C122.608 32.5756 123.728 33.3222 125.447 33.3222C127.15 33.3222 127.986 32.6067 127.986 31.5489C127.986 30.9889 127.75 30.5844 127.308 30.3044C126.866 30.0089 126.046 29.6822 124.879 29.34C123.57 28.9511 122.923 28.7022 122.008 28.1111C121.125 27.4889 120.683 26.6022 120.683 25.3889C120.683 24.1911 121.109 23.2578 121.977 22.5578C122.829 21.8422 123.87 21.5 125.084 21.5C127.277 21.5 128.964 22.62 129.848 24.4711L127.955 25.5444C127.387 24.3 126.425 23.6622 125.084 23.6622C123.775 23.6622 122.939 24.3156 122.939 25.3422C122.939 26.3378 123.601 26.8044 125.699 27.4422C126.22 27.6133 126.598 27.7378 126.835 27.8311C127.087 27.9089 127.418 28.0489 127.844 28.22C128.286 28.3911 128.633 28.5933 128.838 28.7645C129.564 29.3245 130.336 30.2422 130.242 31.5333C130.242 32.7466 129.8 33.7266 128.901 34.4422C128.018 35.1578 126.851 35.5 125.4 35.5C122.75 35.4845 120.825 34.24 120.116 32.1711Z" fill="#CB11AB"/>
<path fill-rule="evenodd" clip-rule="evenodd" d="M41.93 6.25335H40.01V4.01334H43.7433V3.16001H39.05V10.7333H41.93C42.6767 10.7333 43.3167 10.52 43.7433 10.0933C44.17 9.66668 44.3833 9.13334 44.3833 8.49334C44.3833 7.85334 44.17 7.32001 43.7433 6.89335C43.3167 6.46668 42.6767 6.25335 41.93 6.25335ZM42.9967 9.56001C42.6767 9.77334 42.3567 9.98668 41.8233 9.98668H40.01V7.10668H41.93C42.4633 7.10668 42.7833 7.21334 43.1033 7.53334C43.4233 7.85334 43.53 8.06668 43.53 8.49334C43.4233 8.92001 43.3167 9.24001 42.9967 9.56001ZM47.05 7.21334H50.25V6.36001H47.05V4.01334H50.7833V3.16001H45.9833V10.7333H50.7833V9.88001H46.9433L47.05 7.21334ZM53.5567 4.54668C53.8767 4.12001 54.41 3.80001 55.05 3.80001C55.5833 3.80001 56.01 3.90668 56.2233 4.22668C56.5433 4.54668 56.65 4.97334 56.7567 5.50668H57.7167C57.61 4.76001 57.3967 4.12001 56.8633 3.58668C56.5433 3.26668 55.9033 3.05334 55.05 3.05334C54.41 3.05334 53.8767 3.16001 53.45 3.48001C53.0233 3.80001 52.5967 4.22668 52.3833 4.76001C52.17 5.29334 51.9567 5.93334 51.9567 6.57334V7.32001C51.9567 8.38668 52.2767 9.24001 52.81 9.88001C53.3433 10.52 54.09 10.84 54.9433 10.84C55.7967 10.84 56.4367 10.6267 56.97 10.2C57.5033 9.77334 57.7167 9.13335 57.8233 8.38668H56.8633C56.7567 9.02668 56.5433 9.45334 56.2233 9.66668C55.9033 9.88001 55.4767 10.0933 54.9433 10.0933C54.3033 10.0933 53.8767 9.88001 53.45 9.34668C53.13 8.81334 52.9167 8.17335 52.9167 7.42668V6.57334C53.0233 5.72001 53.2367 5.08001 53.5567 4.54668ZM58.6767 4.01334H61.13V10.7333H62.09V4.01334H64.5433V3.16001H58.6767V4.01334ZM66.9967 4.54668C67.3167 4.12001 67.85 3.80001 68.49 3.80001C69.0233 3.80001 69.45 3.90668 69.6633 4.22668C69.9833 4.54668 70.09 4.97334 70.1967 5.50668H71.1567C71.05 4.76001 70.8367 4.12001 70.3033 3.58668C69.9833 3.26668 69.3433 3.05334 68.49 3.05334C67.85 3.05334 67.3167 3.16001 66.89 3.48001C66.4633 3.80001 66.0367 4.22668 65.8233 4.76001C65.61 5.29334 65.3967 5.93334 65.3967 6.57334V7.32001C65.3967 8.38668 65.7167 9.24001 66.25 9.88001C66.7833 10.52 67.53 10.84 68.3833 10.84C69.2367 10.84 69.8767 10.6267 70.41 10.2C70.9433 9.77334 71.1567 9.13335 71.2633 8.38668H70.3033C70.1967 9.02668 69.9833 9.45334 69.6633 9.66668C69.3433 9.88001 68.9167 10.0933 68.3833 10.0933C67.7433 10.0933 67.3167 9.88001 66.89 9.34668C66.57 8.81334 66.25 8.17335 66.25 7.42668V6.57334C66.4633 5.72001 66.6767 5.08001 66.9967 4.54668ZM73.93 7.21334H77.2367V6.36001H73.93V4.01334H77.6633V3.16001H72.8633V10.7333H77.6633V9.88001H73.8233L73.93 7.21334ZM80.01 6.78668C80.01 7.64001 79.9033 8.28001 79.7967 8.70668C79.69 9.13335 79.5833 9.45334 79.37 9.56001C79.1567 9.77334 78.9433 9.88001 78.6233 9.88001H78.41V10.7333H78.73C79.2633 10.7333 79.5833 10.6267 79.9033 10.4133C80.2233 10.2 80.4367 9.77334 80.5433 9.34668C80.65 8.81334 80.7567 8.06668 80.8633 7.10668L80.97 4.12001H83.6367V10.7333H84.5967V3.16001H79.9033L80.01 6.78668ZM87.9033 6.78668C87.9033 7.64001 87.7967 8.28001 87.69 8.70668C87.5833 9.13335 87.4767 9.45334 87.2633 9.56001C87.05 9.77334 86.8367 9.88001 86.5167 9.88001H86.3033V10.7333H86.6233C87.1567 10.7333 87.4767 10.6267 87.7967 10.4133C88.1167 10.2 88.33 9.77334 88.4367 9.34668C88.5433 8.81334 88.65 8.06668 88.7567 7.10668L88.8633 4.12001H91.7433V10.7333H92.7033V3.16001H88.01L87.9033 6.78668ZM95.7967 7.21334H99.1033V6.36001H95.7967V4.01334H99.53V3.16001H94.73V10.7333H99.53V9.88001H95.69L95.7967 7.21334ZM105.717 3.80001C105.29 3.37334 104.543 3.16001 103.797 3.16001H101.023V10.7333H101.983V7.74668H103.797C104.65 7.74668 105.29 7.53334 105.823 7.10668C106.25 6.68001 106.463 6.14668 106.463 5.40001C106.463 4.76001 106.143 4.22668 105.717 3.80001ZM104.97 6.57334C104.65 6.78668 104.223 7.00001 103.69 7.00001H101.877V4.01334H103.69C104.223 4.01334 104.543 4.12001 104.863 4.44001C105.183 4.76001 105.29 5.08001 105.29 5.50668C105.503 5.93334 105.397 6.36001 104.97 6.57334Z" fill="#CB11AB"/>
</svg>
