<svg width="143" height="48" viewBox="0 0 143 48" fill="none" xmlns="http://www.w3.org/2000/svg">
<path fill-rule="evenodd" clip-rule="evenodd" d="M41.03 4.16001H39.8566L38.0433 7.04001L36.23 4.16001H34.95L37.4033 7.89335L34.95 11.7333H36.1233L38.0433 8.74668L39.8566 11.7333H41.03L38.5766 7.89335L41.03 4.16001ZM43.4833 10.0267V4.16001H42.4166V11.7333H43.4833L47.2166 5.86668V11.7333H48.1766V4.16001H47.2166L43.4833 10.0267ZM49.4566 5.01334H51.91V11.7333H52.87V5.01334H55.3233V4.16001H49.4566V5.01334ZM59.27 11.7333H60.23V5.01334H63.9633V11.7333H64.9233V4.16001H59.1633V11.7333H59.27ZM69.83 4.16001H67.0566V11.7333H68.0166V8.74668H69.83C70.6833 8.74668 71.3233 8.53334 71.8566 8.10668C72.2833 7.68001 72.4966 7.14668 72.4966 6.40001C72.4966 5.65334 72.2833 5.12001 71.75 4.69334C71.3233 4.37334 70.6833 4.16001 69.83 4.16001ZM71.11 7.57334C70.79 7.78668 70.3633 8.00001 69.83 8.00001H68.0166V5.01334H69.83C70.3633 5.01334 70.6833 5.12001 71.0033 5.44001C71.3233 5.76001 71.43 6.08001 71.43 6.50668C71.5366 6.93334 71.3233 7.36001 71.11 7.57334ZM78.3633 4.48001C77.9366 4.16001 77.4033 4.05334 76.7633 4.05334C76.1233 4.05334 75.59 4.16001 75.1633 4.48001C74.7366 4.80001 74.31 5.22668 74.0966 5.76001C73.8833 6.29334 73.67 6.93334 73.67 7.68001V8.21334C73.67 8.96001 73.7766 9.60001 74.0966 10.1333C74.31 10.6667 74.7366 11.0933 75.1633 11.4133C75.59 11.7333 76.1233 11.84 76.7633 11.84C77.4033 11.84 77.9366 11.7333 78.3633 11.4133C78.79 11.0933 79.2166 10.6667 79.43 10.1333C79.75 9.60001 79.8566 8.96001 79.8566 8.21334V7.68001C79.8566 6.93334 79.75 6.29334 79.43 5.76001C79.11 5.22668 78.79 4.80001 78.3633 4.48001ZM78.79 8.21334C78.79 9.06668 78.5766 9.81335 78.2566 10.24C77.9366 10.6667 77.4033 10.9867 76.7633 10.9867C76.1233 10.9867 75.59 10.7733 75.27 10.24C74.95 9.70668 74.7366 9.06668 74.7366 8.21334V7.68001C74.7366 6.82668 74.95 6.18668 75.27 5.65335C75.59 5.12001 76.1233 4.90668 76.7633 4.90668C77.4033 4.90668 77.9366 5.12001 78.2566 5.65335C78.5766 6.18668 78.79 6.82668 78.79 7.68001V8.21334ZM87.2166 4.16001H82.63L82.4166 7.36001C82.4166 8.10668 82.2033 8.74668 82.0966 9.38668C81.99 10.0267 81.67 10.4533 81.35 10.88H80.71V13.5467H81.67V11.7333H87.2166V13.5467H88.1766V10.88H87.2166V4.16001ZM86.15 10.88H82.4166C82.63 10.4533 82.95 10.0267 83.0566 9.38668C83.27 8.74668 83.3766 8.00001 83.3766 7.14668L83.4833 4.90668H86.15V10.88ZM91.8033 4.16001L88.9233 11.7333H89.99L90.7366 9.70668H93.9366L94.6833 11.7333H95.75L92.87 4.16001H91.8033ZM90.95 8.96001L92.23 5.33334L93.6166 8.96001H90.95ZM103.003 7.68001L105.35 4.16001H104.177L102.15 7.46668H101.297V4.16001H100.337V7.46668H99.4833L97.4566 4.16001H96.2833L98.63 7.78668L96.07 11.7333H97.35L99.4833 8.32001H100.337V11.7333H101.297V8.32001H102.15L104.283 11.7333H105.563L103.003 7.68001Z" fill="#005AFF"/>
<path d="M42.31 21.9733C40.71 21.0133 38.5766 20.5866 36.87 20.8C33.03 21.3333 30.0433 24.1066 29.4033 27.9466C29.2966 28.8 29.2966 30.5066 29.51 31.36C30.8966 36.5866 36.55 39.2533 41.4566 37.0133C42.4166 36.5866 43.0566 36.16 43.8033 35.4133C46.6833 32.5333 47.11 28.2666 44.9767 24.7466C44.55 23.8933 43.1633 22.5066 42.31 21.9733ZM41.2433 32.4266C39.43 34.3466 36.55 34.4533 34.63 32.5333C33.67 31.5733 33.35 30.6133 33.35 29.3333C33.35 27.4133 34.4167 25.8133 36.23 25.0666C37.0833 24.64 38.3633 24.64 39.3233 24.96C40.07 25.28 40.71 25.6 41.2433 26.24C42.8433 27.9466 42.8433 30.6133 41.2433 32.4266ZM78.3633 20.8C77.19 20.6933 76.7633 20.6933 75.6966 20.8C73.2433 21.0133 70.79 21.8666 68.87 23.1466C68.0166 23.68 66.63 25.0666 66.2033 25.92C64.71 28.48 64.9233 31.2533 66.8433 33.6C68.55 35.7333 71.6433 37.3333 75.1633 37.76C76.1233 37.8666 78.3633 37.8666 79.43 37.76C84.4433 37.0133 88.1766 34.24 88.9233 30.72C89.03 29.9733 89.03 28.8 88.9233 28.16C88.07 24.2133 83.6966 21.2266 78.3633 20.8ZM84.7633 30.4C83.91 32.2133 81.1367 33.6 78.0433 33.8133C74.31 34.1333 70.47 32.64 69.2966 30.4C68.9766 29.76 68.9766 28.9066 69.2966 28.2666C70.15 26.56 72.71 25.1733 75.59 24.8533C76.4433 24.7466 78.2566 24.8533 79.11 24.96C80.71 25.28 82.31 25.92 83.3766 26.7733C84.9767 27.84 85.4033 29.2266 84.7633 30.4ZM62.5766 33.6C62.3633 33.6 60.9766 33.4933 58.7366 33.4933C56.39 33.4933 55.2166 33.4933 55.2166 33.3866C55.2166 33.3866 57.1366 30.72 59.59 27.6266C64.1766 21.5466 64.1766 21.6533 63.75 21.3333C63.5366 21.2266 63.2166 21.2266 57.1366 21.2266C53.6166 21.2266 50.63 21.2266 50.4166 21.3333C49.99 21.44 49.67 21.6533 49.4566 21.9733C48.6033 22.9333 48.9233 24.4266 50.2033 25.0666C50.4166 25.1733 50.95 25.1733 53.51 25.28H56.6033L52.23 30.9333C49.03 35.2 47.8566 36.8 47.8566 36.9066C47.8566 37.12 48.07 37.3333 48.2833 37.44C48.39 37.44 51.59 37.44 55.5366 37.44H62.5766L62.8966 37.2266C63.6433 36.8 63.9633 36.2666 63.9633 35.4133C63.9633 34.6666 63.43 33.8133 62.5766 33.6ZM107.483 22.72C107.377 22.1866 107.057 21.76 106.523 21.44C106.203 21.2266 106.097 21.2266 105.563 21.2266C104.71 21.2266 104.177 21.5466 103.75 22.2933C103.643 22.5066 103.643 22.8266 103.537 26.24C103.537 28.3733 103.43 29.8666 103.43 29.8666C103.43 29.8666 100.977 27.9466 98.0966 25.7066C95.2166 23.4666 92.7633 21.44 92.6566 21.44C92.3366 21.2266 92.23 21.2266 91.91 21.5466L91.6966 21.76V28.8C91.6966 36.8 91.6967 36.3733 92.3367 37.0133C92.6567 37.3333 93.2966 37.6533 93.7233 37.6533C94.15 37.6533 94.79 37.44 95.11 37.0133C95.75 36.3733 95.75 36.3733 95.75 32.4266C95.75 30.4 95.75 29.0133 95.8566 29.0133C95.8566 29.0133 98.31 30.9333 101.19 33.1733C104.07 35.52 106.523 37.44 106.63 37.5466C106.95 37.76 107.27 37.5466 107.377 37.2266C107.59 36.8 107.59 23.2533 107.483 22.72Z" fill="#0059FF"/>
</svg>
