<svg width="143" height="48" viewBox="0 0 143 48" fill="none" xmlns="http://www.w3.org/2000/svg">
<path d="M72.6733 37.44H75.02L78.4333 25.1734V37.44H81.1V21.2267H77.3667L74.06 33.1734L70.7533 21.2267H67.02V37.44H69.26V25.1734L72.6733 37.44ZM92.1933 29.44C92.1933 26.56 90.7 25.4934 87.82 25.4934C86.0067 25.4934 84.5133 26.0267 83.66 26.56V28.8C84.4067 28.2667 86.0067 27.6267 87.3933 27.6267C88.78 27.6267 89.3133 28.0534 89.3133 29.3334V29.9734H88.8867C84.62 29.9734 82.7 31.4667 82.7 33.7067C82.7 36.0534 84.1933 37.44 86.3267 37.44C87.9267 37.44 88.6733 37.0134 89.2067 36.3734H89.42C89.42 36.6934 89.6333 37.12 89.6333 37.3334H92.3C92.1933 36.3734 92.0867 35.4134 92.0867 34.4534C92.1933 34.56 92.1933 29.44 92.1933 29.44ZM89.3133 34.6667C88.9933 35.0934 88.3533 35.6267 87.2867 35.6267C86.1133 35.6267 85.58 34.88 85.58 33.92C85.58 32.5334 86.54 32.1067 88.9933 32.1067H89.42L89.3133 34.6667ZM96.8867 25.7067H94.3267V40.8534H97.1V36.0534C97.8467 37.12 98.8067 37.6534 100.087 37.6534C102.86 37.6534 104.673 35.52 104.673 31.5734C104.673 27.6267 102.86 25.4934 100.3 25.4934C99.02 25.4934 97.9533 26.0267 97.2067 27.2C97.1 27.2 96.8867 25.7067 96.8867 25.7067ZM99.34 35.52C97.8467 35.52 97.1 34.3467 97.1 31.68C97.1 28.9067 97.9533 27.7334 99.4467 27.7334C100.94 27.7334 101.687 28.9067 101.687 31.5734C101.793 34.24 100.94 35.52 99.34 35.52ZM113.313 37.44H116.407L112.033 31.1467L115.98 25.7067H113.207L109.26 31.1467V25.7067H106.487V37.44H109.26V31.68L113.313 37.44ZM125.793 36.5867V34.3467C124.94 34.88 123.553 35.4134 122.167 35.4134C120.14 35.4134 119.393 34.4534 119.18 32.4267H125.9V30.9334C125.9 26.7734 124.087 25.3867 121.313 25.3867C117.9 25.3867 116.3 27.9467 116.3 31.5734C116.3 35.7334 118.327 37.6534 121.847 37.6534C123.767 37.6534 125.047 37.2267 125.793 36.5867ZM121.313 27.6267C122.7 27.6267 123.127 28.8 123.127 30.1867V30.4H119.287C119.287 28.6934 120.033 27.6267 121.313 27.6267ZM135.927 27.9467V25.7067H126.54V27.9467H129.847V37.44H132.62V27.9467H135.927Z" fill="black"/>
<path d="M22.7533 42.7733C29.6458 42.7733 35.2333 37.1859 35.2333 30.2934C35.2333 23.4008 29.6458 17.8134 22.7533 17.8134C15.8608 17.8134 10.2733 23.4008 10.2733 30.2934C10.2733 37.1859 15.8608 42.7733 22.7533 42.7733Z" fill="#FC3F1D"/>
<path d="M24.5666 24.7467H23.2866C21.1533 24.7467 20.0866 25.8134 20.0866 27.52C20.0866 29.3334 20.8333 30.2934 22.4333 31.36L23.7133 32.32L20.0866 37.8667H17.1L20.5133 32.7467C18.4866 31.36 17.42 29.9734 17.42 27.6267C17.42 24.7467 19.4466 22.72 23.2866 22.72H27.1266V37.76H24.6733L24.5666 24.7467Z" fill="white"/>
<path d="M61.96 30.48C61.96 32.3104 61.544 33.9744 60.8784 35.5552C58.9648 39.9648 54.5552 42.96 49.48 42.96C45.1536 42.96 41.3264 40.7968 39.08 37.4688C38.1648 36.1376 37.4992 34.5568 37.1664 32.8928C37.0832 32.0608 37 31.312 37 30.48C37 23.5744 42.5744 18 49.48 18C55.5536 18 60.5456 22.3264 61.7104 28.0672C61.8768 28.816 61.96 29.648 61.96 30.48Z" fill="#FED42B"/>
<path d="M61.96 30.48C61.96 32.3104 61.544 33.9744 60.8784 35.5552C59.2976 36.8864 57.5504 37.552 55.72 36.9696C52.0592 35.8048 52.4752 31.9776 52.7248 30.3136L47.1504 39.216L42.5744 37.6352L43.4064 31.728L39.08 37.4688C38.1648 36.1376 37.4992 34.5568 37.1664 32.8928L43.3232 24.9056L47.7328 26.4032L46.9008 31.8112L52.9744 21.9104L58.0496 23.6576V23.7408C57.1344 26.9856 55.72 32.0608 57.3008 32.4768C58.216 32.7264 59.9632 30.8128 61.7104 28.1504C61.8768 28.816 61.96 29.648 61.96 30.48Z" fill="black"/>
<path fill-rule="evenodd" clip-rule="evenodd" d="M39.18 7.25335H37.26V5.01334H40.9933V4.16001H36.3V11.7333H39.18C39.9267 11.7333 40.5667 11.52 40.9933 11.0933C41.42 10.6667 41.6333 10.1333 41.6333 9.49334C41.6333 8.85334 41.42 8.32001 40.9933 7.89335C40.5667 7.46668 39.9267 7.25335 39.18 7.25335ZM40.2467 10.56C39.9267 10.7733 39.6067 10.9867 39.0733 10.9867H37.26V8.10668H39.18C39.7133 8.10668 40.0333 8.21334 40.3533 8.53334C40.6733 8.85334 40.78 9.06668 40.78 9.49334C40.6733 9.92001 40.5667 10.24 40.2467 10.56ZM44.3 8.21334H47.5V7.36001H44.3V5.01334H48.0333V4.16001H43.2333V11.7333H48.0333V10.88H44.1933L44.3 8.21334ZM50.8067 5.54668C51.1267 5.12001 51.66 4.80001 52.3 4.80001C52.8333 4.80001 53.26 4.90668 53.4733 5.22668C53.7933 5.54668 53.9 5.97334 54.0067 6.50668H54.9667C54.86 5.76001 54.6467 5.12001 54.1133 4.58668C53.7933 4.26668 53.1533 4.05334 52.3 4.05334C51.66 4.05334 51.1267 4.16001 50.7 4.48001C50.2733 4.80001 49.8467 5.22668 49.6333 5.76001C49.42 6.29334 49.2067 6.93334 49.2067 7.57334V8.32001C49.2067 9.38668 49.5267 10.24 50.06 10.88C50.5933 11.52 51.34 11.84 52.1933 11.84C53.0467 11.84 53.6867 11.6267 54.22 11.2C54.7533 10.7733 54.9667 10.1333 55.0733 9.38668H54.1133C54.0067 10.0267 53.7933 10.4533 53.4733 10.6667C53.1533 10.88 52.7267 11.0933 52.1933 11.0933C51.5533 11.0933 51.1267 10.88 50.7 10.3467C50.38 9.81334 50.1667 9.17335 50.1667 8.42668V7.57334C50.2733 6.72001 50.4867 6.08001 50.8067 5.54668ZM55.9267 5.01334H58.38V11.7333H59.34V5.01334H61.7933V4.16001H55.9267V5.01334ZM64.2467 5.54668C64.5667 5.12001 65.1 4.80001 65.74 4.80001C66.2733 4.80001 66.7 4.90668 66.9133 5.22668C67.2333 5.54668 67.34 5.97334 67.4467 6.50668H68.4067C68.3 5.76001 68.0867 5.12001 67.5533 4.58668C67.2333 4.26668 66.5933 4.05334 65.74 4.05334C65.1 4.05334 64.5667 4.16001 64.14 4.48001C63.7133 4.80001 63.2867 5.22668 63.0733 5.76001C62.86 6.29334 62.6467 6.93334 62.6467 7.57334V8.32001C62.6467 9.38668 62.9667 10.24 63.5 10.88C64.0333 11.52 64.78 11.84 65.6333 11.84C66.4867 11.84 67.1267 11.6267 67.66 11.2C68.1933 10.7733 68.4067 10.1333 68.5133 9.38668H67.5533C67.4467 10.0267 67.2333 10.4533 66.9133 10.6667C66.5933 10.88 66.1667 11.0933 65.6333 11.0933C64.9933 11.0933 64.5667 10.88 64.14 10.3467C63.82 9.81334 63.5 9.17335 63.5 8.42668V7.57334C63.7133 6.72001 63.9267 6.08001 64.2467 5.54668ZM71.18 8.21334H74.4867V7.36001H71.18V5.01334H74.9133V4.16001H70.1133V11.7333H74.9133V10.88H71.0733L71.18 8.21334ZM77.26 7.78668C77.26 8.64001 77.1533 9.28001 77.0467 9.70668C76.94 10.1333 76.8333 10.4533 76.62 10.56C76.4067 10.7733 76.1933 10.88 75.8733 10.88H75.66V11.7333H75.98C76.5133 11.7333 76.8333 11.6267 77.1533 11.4133C77.4733 11.2 77.6867 10.7733 77.7933 10.3467C77.9 9.81334 78.0067 9.06668 78.1133 8.10668L78.22 5.12001H80.8867V11.7333H81.8467V4.16001H77.1533L77.26 7.78668ZM85.1533 7.78668C85.1533 8.64001 85.0467 9.28001 84.94 9.70668C84.8333 10.1333 84.7267 10.4533 84.5133 10.56C84.3 10.7733 84.0867 10.88 83.7667 10.88H83.5533V11.7333H83.8733C84.4067 11.7333 84.7267 11.6267 85.0467 11.4133C85.3667 11.2 85.58 10.7733 85.6867 10.3467C85.7933 9.81334 85.9 9.06668 86.0067 8.10668L86.1133 5.12001H88.9933V11.7333H89.9533V4.16001H85.26L85.1533 7.78668ZM93.0467 8.21334H96.3533V7.36001H93.0467V5.01334H96.78V4.16001H91.98V11.7333H96.78V10.88H92.94L93.0467 8.21334ZM102.967 4.80001C102.54 4.37334 101.793 4.16001 101.047 4.16001H98.2733V11.7333H99.2333V8.74668H101.047C101.9 8.74668 102.54 8.53334 103.073 8.10668C103.5 7.68001 103.713 7.14668 103.713 6.40001C103.713 5.76001 103.393 5.22668 102.967 4.80001ZM102.22 7.57334C101.9 7.78668 101.473 8.00001 100.94 8.00001H99.1267V5.01334H100.94C101.473 5.01334 101.793 5.12001 102.113 5.44001C102.433 5.76001 102.54 6.08001 102.54 6.50668C102.753 6.93334 102.647 7.36001 102.22 7.57334Z" fill="#FC3F1D"/>
</svg>
