<svg width="143" height="48" viewBox="0 0 143 48" fill="none" xmlns="http://www.w3.org/2000/svg">
<path fill-rule="evenodd" clip-rule="evenodd" d="M40.78 6.72001C41.1 6.61334 41.42 6.4 41.6333 6.08C41.8466 5.76 41.9533 5.54667 41.9533 5.12001C41.9533 4.48001 41.74 3.94667 41.3133 3.62667C40.8866 3.30667 40.2466 3.09334 39.5 3.09334H37.0466V10.6667H39.7133C40.5666 10.6667 41.1 10.4533 41.6333 10.1333C41.8466 9.70667 42.1666 9.17334 42.1666 8.42667C42.1666 8 42.06 7.57334 41.8466 7.25334C41.5266 7.04001 41.2066 6.82667 40.78 6.72001ZM38.0066 3.94667H39.5C40.0333 3.94667 40.3533 4.05334 40.5666 4.26667C40.78 4.48 40.8866 4.80001 40.8866 5.22667C40.8866 5.65334 40.78 5.86667 40.46 6.08C40.2466 6.29334 39.82 6.40001 39.3933 6.40001H37.9V3.94667H38.0066ZM40.6733 9.49334C40.3533 9.70667 40.0333 9.81334 39.6066 9.81334H38.0066V7.14667H39.7133C40.5666 7.14667 41.1 7.57334 41.1 8.53334C41.1 8.96001 40.9933 9.28 40.6733 9.49334ZM44.8333 7.14667H48.14V6.29334H44.8333V3.94667H48.5666V3.09334H43.7666V10.6667H48.5666V9.81334H44.7266V7.14667H44.8333ZM54.1133 7.04C53.7933 6.82667 53.26 6.61334 52.62 6.50667C51.98 6.29334 51.5533 6.18667 51.2333 5.86667C51.02 5.65334 50.8066 5.44001 50.8066 5.12001C50.8066 4.69334 50.9133 4.48 51.2333 4.26667C51.5533 4.05334 51.8733 3.94667 52.4066 3.94667C52.94 3.94667 53.3666 4.05334 53.6866 4.37334C54.0066 4.58667 54.1133 5.01334 54.1133 5.44H55.0733C55.0733 5.01334 54.9666 4.58667 54.7533 4.26667C54.54 3.94667 54.22 3.62667 53.7933 3.41334C53.3666 3.2 52.94 3.09334 52.4066 3.09334C51.66 3.09334 51.02 3.30667 50.5933 3.62667C50.1666 3.94667 49.8466 4.48001 49.8466 5.12001C49.8466 5.65334 50.06 6.08 50.38 6.40001C50.8066 6.72001 51.4466 7.04 52.3 7.36C52.94 7.57334 53.4733 7.78667 53.6866 8.00001C53.9 8.21334 54.1133 8.53334 54.1133 8.85334C54.1133 9.17334 54.0066 9.49334 53.6866 9.70667C53.3666 9.92001 53.0466 10.0267 52.5133 10.0267C51.98 10.0267 51.4466 9.92001 51.1266 9.60001C50.8066 9.38667 50.5933 8.96001 50.5933 8.53334H49.6333C49.6333 8.96001 49.74 9.38667 49.9533 9.70667C50.1666 10.0267 50.5933 10.3467 51.02 10.56C51.4466 10.7733 51.98 10.88 52.5133 10.88C53.3666 10.88 54.0066 10.6667 54.4333 10.3467C54.86 10.0267 55.18 9.49334 55.18 8.85334C55.18 8.42667 55.0733 8.10667 54.9666 7.89334C54.7533 7.46667 54.4333 7.25334 54.1133 7.04ZM56.0333 3.94667H58.4866V10.6667H59.4466V3.94667H61.9V3.09334H56.0333V3.94667ZM67.02 4.48C67.34 4.05334 67.8733 3.73334 68.5133 3.73334C69.0466 3.73334 69.4733 3.84 69.6866 4.16C70.0066 4.48001 70.1133 4.90667 70.22 5.44H71.18C71.0733 4.69334 70.86 4.05334 70.3266 3.52C69.7933 3.09334 69.1533 2.88 68.4066 2.88C67.7666 2.88 67.2333 2.98667 66.8066 3.30667C66.38 3.62667 65.9533 4.05334 65.74 4.58667C65.5266 5.12001 65.3133 5.76 65.3133 6.40001V7.14667C65.3133 8.21334 65.6333 9.06667 66.1666 9.70667C66.7 10.3467 67.4466 10.6667 68.3 10.6667C69.1533 10.6667 69.7933 10.4533 70.3266 10.0267C70.86 9.60001 71.0733 8.96001 71.18 8.21334H70.22C70.1133 8.85334 69.9 9.28 69.58 9.49334C69.26 9.70667 68.8333 9.92001 68.3 9.92001C67.66 9.92001 67.2333 9.70667 66.8066 9.17334C66.4866 8.64001 66.2733 8.00001 66.2733 7.25334V6.50667C66.4866 5.65334 66.7 5.01334 67.02 4.48ZM77.6866 6.29334H73.8466V3.09334H72.8866V10.6667H73.8466V7.14667H77.6866V10.6667H78.6466V3.09334H77.6866V6.29334ZM85.1533 3.41334C84.7266 3.09334 84.1933 2.98667 83.5533 2.98667C82.9133 2.98667 82.38 3.09334 81.9533 3.41334C81.5266 3.73334 81.1 4.16 80.8866 4.69334C80.6733 5.22667 80.46 5.86667 80.46 6.61334V7.14667C80.46 7.89334 80.5666 8.53334 80.8866 9.06667C81.1 9.60001 81.5266 10.0267 81.9533 10.3467C82.38 10.6667 82.9133 10.7733 83.5533 10.7733C84.1933 10.7733 84.7266 10.6667 85.1533 10.3467C85.58 10.0267 86.0066 9.60001 86.22 9.06667C86.4333 8.53334 86.6466 7.89334 86.6466 7.14667V6.61334C86.6466 5.86667 86.54 5.22667 86.22 4.69334C85.9 4.16 85.58 3.73334 85.1533 3.41334ZM85.58 7.14667C85.58 8 85.3666 8.74667 85.0466 9.17334C84.7266 9.60001 84.1933 9.92001 83.5533 9.92001C82.9133 9.92001 82.38 9.70667 82.06 9.17334C81.74 8.64001 81.5266 8 81.5266 7.14667V6.61334C81.5266 5.76 81.74 5.12001 82.06 4.58667C82.38 4.05334 82.9133 3.84 83.5533 3.84C84.1933 3.84 84.7266 4.05334 85.0466 4.58667C85.3666 5.12001 85.58 5.76 85.58 6.61334V7.14667ZM88.3533 10.6667H89.3133V3.09334H88.3533V10.6667ZM92.7266 4.48C93.0466 4.05334 93.58 3.73334 94.22 3.73334C94.7533 3.73334 95.18 3.84 95.3933 4.16C95.7133 4.48001 95.82 4.90667 95.9266 5.44H96.8866C96.78 4.69334 96.5666 4.05334 96.0333 3.52C95.5 3.09334 94.86 2.88 94.1133 2.88C93.4733 2.88 92.94 2.98667 92.5133 3.30667C92.0866 3.62667 91.66 4.05334 91.4466 4.58667C91.2333 5.12001 91.02 5.76 91.02 6.40001V7.14667C91.02 8.21334 91.34 9.06667 91.8733 9.70667C92.4066 10.3467 93.1533 10.6667 94.0066 10.6667C94.86 10.6667 95.5 10.4533 96.0333 10.0267C96.5666 9.60001 96.78 8.96001 96.8866 8.21334H95.9266C95.82 8.85334 95.6066 9.28 95.2866 9.49334C94.9666 9.70667 94.54 9.92001 94.0066 9.92001C93.3666 9.92001 92.94 9.70667 92.5133 9.17334C92.1933 8.64001 91.98 8.00001 91.98 7.25334V6.50667C92.0866 5.65334 92.3 5.01334 92.7266 4.48ZM99.5533 9.81334V7.14667H102.86V6.29334H99.5533V3.94667H103.287V3.09334H98.4866V10.6667H103.287V9.81334H99.5533Z" fill="#F47D0A"/>
<path d="M84.4067 33.28C82.9133 32.4267 81.2067 32.2133 79.6067 32.2133L83.98 26.1333C84.4067 25.6 84.62 25.28 84.62 24.96V23.4667C84.62 23.1467 84.4067 23.04 84.0867 23.04H75.66C75.4467 23.04 75.2333 23.2533 75.2333 23.4667V25.28C75.2333 25.6 75.4467 25.7067 75.7667 25.7067H80.14L75.02 32.8533C74.7 33.28 74.7 33.8133 74.7 34.1333V36.0533C74.7 36.3733 75.02 36.5867 75.34 36.48C78.22 34.9867 81.6333 35.0933 84.3 36.48C84.62 36.6933 84.94 36.3733 84.94 36.0533V34.1333C84.8333 33.92 84.7267 33.6 84.4067 33.28ZM55.0733 22.72C53.58 22.72 52.1933 23.4667 51.5533 25.0667C50.8067 23.4667 49.8467 22.72 48.2467 22.72C46.6467 22.72 45.4733 23.4667 44.8333 25.0667V23.4667C44.8333 23.2533 44.62 23.04 44.4067 23.04H42.06C41.74 23.04 41.5267 23.2533 41.5267 23.4667V36.3733C41.5267 36.5867 41.74 36.8 41.9533 36.8H44.5133C44.8333 36.8 45.0467 36.5867 45.0467 36.3733V29.5467C45.0467 28.0533 44.94 26.0267 46.86 26.0267C48.6733 26.0267 48.46 28.16 48.46 29.5467V36.3733C48.46 36.5867 48.6733 36.8 48.8867 36.8H51.4467C51.7667 36.8 51.98 36.5867 51.98 36.3733V29.5467C51.98 28.8 51.98 27.7333 52.1933 27.0933C52.4067 26.4533 53.1533 26.0267 53.6867 26.0267C54.4333 26.0267 54.9667 26.24 55.18 27.0933C55.2867 27.6267 55.2867 29.0133 55.2867 29.5467V36.3733C55.2867 36.5867 55.5 36.8 55.7133 36.8H58.1667C58.4867 36.8 58.7 36.5867 58.7 36.3733V28.16C58.7 26.7733 58.9133 25.1733 58.06 24.1067C57.3133 23.2533 56.14 22.72 55.0733 22.72ZM91.8733 22.72C88.14 22.72 86.1133 25.8133 86.1133 29.8667C86.1133 33.92 88.14 37.12 91.8733 37.12C95.5 37.12 97.74 34.0267 97.74 30.08C97.74 25.92 95.7133 22.72 91.8733 22.72ZM91.8733 34.4533C89.8467 34.4533 89.8467 31.04 89.8467 29.5467C89.8467 27.9467 89.9533 25.3867 91.8733 25.3867C92.7267 25.3867 93.26 25.7067 93.58 26.6667C93.9 27.7333 94.0067 29.0133 94.0067 30.08C94.0067 31.7867 93.9 34.4533 91.8733 34.4533ZM109.58 24.32C108.833 23.2533 107.767 22.8267 106.593 22.8267C104.78 22.8267 103.82 23.68 103.073 25.3867V23.36C103.073 23.1467 102.86 23.04 102.647 23.04H100.3C100.087 23.04 99.8733 23.2533 99.7667 23.4667V36.3733C99.7667 36.5867 99.98 36.8 100.193 36.8H102.753C103.073 36.8 103.287 36.5867 103.287 36.3733V29.44C103.287 28.5867 103.287 27.7333 103.713 26.9867C104.033 26.3467 104.567 25.92 105.207 25.92C107.02 25.92 106.807 27.9467 106.807 29.44V36.48C106.807 36.6933 107.02 36.9067 107.233 36.9067H109.793C110.007 36.9067 110.22 36.6933 110.327 36.48V28.3733C110.22 26.9867 110.22 25.3867 109.58 24.32ZM72.14 32.2133V28.2667C72.14 26.56 72.2467 25.0667 70.9667 23.8933C70.0067 22.9333 68.3 22.6133 67.1267 22.6133C64.6733 22.6133 62.0067 23.4667 61.3667 26.4533C61.26 26.7733 61.58 26.9867 61.7933 26.9867L64.2467 27.2C64.46 27.2 64.6733 26.9867 64.6733 26.7733C64.8867 25.7067 65.74 25.28 66.7 25.28C67.2333 25.28 67.8733 25.4933 68.1933 25.92C68.5133 26.4533 68.5133 27.2 68.5133 27.7333V28.0533C67.02 28.2667 65.1 28.3733 63.7133 28.9067C62.1133 29.5467 60.94 30.9333 60.94 33.0667C60.94 35.7333 62.6467 37.0133 64.78 37.0133C66.5933 37.0133 67.5533 36.5867 69.0467 35.2C69.4733 35.84 69.6867 36.16 70.54 36.9067C70.7533 37.0133 70.9667 37.0133 71.18 36.8C71.7133 36.3733 72.6733 35.52 73.1 35.0933C73.3133 34.88 73.3133 34.6667 73.1 34.4533C72.5667 33.92 72.14 33.28 72.14 32.2133ZM68.5133 30.72C68.5133 31.68 68.5133 32.5333 67.98 33.3867C67.5533 34.1333 66.9133 34.56 66.1667 34.56C65.2067 34.56 64.5667 33.8133 64.5667 32.7467C64.5667 30.6133 66.4867 30.1867 68.4067 30.1867V30.72H68.5133ZM38.4333 32.2133V28.2667C38.4333 26.56 38.54 25.0667 37.26 23.8933C36.3 23.04 34.7 22.72 33.42 22.72C30.9667 22.72 28.3 23.5733 27.66 26.56C27.5533 26.88 27.8733 27.0933 28.0867 27.0933L30.54 27.3067C30.7533 27.3067 30.9667 27.0933 30.9667 26.88C31.18 25.8133 32.0333 25.3867 32.9933 25.3867C33.5267 25.3867 34.1667 25.6 34.4867 26.0267C34.8067 26.56 34.8067 27.3067 34.8067 27.84V28.16C33.3133 28.3733 31.3933 28.48 30.0067 29.0133C28.4067 29.5467 27.2333 30.9333 27.2333 33.0667C27.2333 35.7333 28.94 37.0133 31.0733 37.0133C32.8867 37.0133 33.8467 36.5867 35.34 35.2C35.7667 35.84 35.98 36.16 36.8333 36.9067C37.0467 37.0133 37.26 37.0133 37.4733 36.8C38.0067 36.3733 38.9667 35.52 39.3933 35.0933C39.6067 34.88 39.6067 34.6667 39.3933 34.4533C38.86 33.92 38.4333 33.28 38.4333 32.2133ZM34.8067 30.72C34.8067 31.68 34.8067 32.5333 34.2733 33.3867C33.8467 34.1333 33.2067 34.56 32.46 34.56C31.5 34.56 30.86 33.8133 30.86 32.7467C30.86 30.6133 32.78 30.1867 34.7 30.1867L34.8067 30.72Z" fill="black"/>
<path d="M78.0067 40.7467C72.6733 42.9867 66.7 44.0533 61.3667 44.0533C53.4733 44.0533 45.7933 41.92 39.6067 38.4C39.0733 38.08 38.6467 38.6133 39.0733 39.04C44.8333 44.16 52.4067 47.1467 60.8333 47.1467C66.8067 47.1467 73.8467 45.3333 78.6467 41.8133C79.5 41.28 78.86 40.32 78.0067 40.7467ZM82.8067 38.08C82.2733 37.44 77.7933 36.9067 75.02 38.8267C74.5933 39.1467 74.7 39.5733 75.1267 39.4667C76.7267 39.2533 80.14 38.8267 80.78 39.68C81.42 40.4267 80.14 43.6267 79.5 45.12C79.2867 45.5467 79.7133 45.76 80.14 45.44C82.7 43.2 83.34 38.6133 82.8067 38.08Z" fill="#FF9900"/>
</svg>
