<svg width="73" height="73" viewBox="0 0 73 73" fill="none" xmlns="http://www.w3.org/2000/svg">
<path d="M72.8333 25.5098C72.8333 5.30976 68.0333 0.509766 47.8333 0.509766H25.8333C5.63331 0.509766 0.833313 5.30976 0.833313 25.5098V47.5098C0.833313 67.7098 5.63331 72.5098 25.8333 72.5098H47.8333C68.0333 72.5098 72.8333 67.7098 72.8333 47.5098V25.5098Z" fill="white"/>
<path d="M58.8333 35.9096C54.6333 37.0096 52.4333 36.5096 51.5333 34.5096C54.5333 35.5096 57.6333 35.6096 58.8333 32.3096C56.9333 33.6096 54.4333 34.3096 53.5333 31.6096C55.3333 29.0096 56.2333 26.2096 56.5333 23.3096C55.0333 30.6096 42.8333 42.1096 27.1333 36.4096C16.4333 32.5096 14.9333 36.4096 14.9333 36.4096C16.7333 35.1096 18.3333 35.4096 20.1333 36.2096C19.9333 36.6096 19.7333 37.4096 19.8333 39.1096C20.3333 37.5096 20.5333 37.1096 21.1333 36.7096C21.3333 36.8096 21.4333 36.9096 21.6333 36.9096C21.2333 38.2096 20.5333 41.2096 21.6333 43.1096C21.9333 41.1096 22.7333 38.9096 23.9333 38.1096C24.0333 38.1096 24.1333 38.2096 24.2333 38.2096C24.0333 39.9096 23.9333 43.9096 25.2333 46.2096C25.2333 44.6096 25.2333 41.0096 26.3333 39.2096C26.5333 39.3096 26.8333 39.4096 27.0333 39.5096C26.7333 41.0096 26.1333 45.0096 27.7333 46.7096C27.7333 45.5096 27.7333 41.8096 29.2333 40.1096C29.3333 40.1096 29.4333 40.1096 29.5333 40.2096C29.3333 42.3096 29.3333 46.5096 31.6333 48.9096C31.0333 46.6096 30.8333 43.1096 31.5333 40.6096C31.8333 43.1096 32.8333 47.7096 36.5333 49.9096C35.1333 47.5096 34.2333 45.6096 34.3333 40.7096C35.0333 43.4096 36.9333 48.9096 40.6333 49.1096C38.6333 46.7096 37.4333 45.3096 36.9333 41.6096C39.3333 46.4096 41.8333 48.9096 45.6333 49.9096C42.4333 47.2096 40.0333 45.0096 39.8333 41.1096C41.6333 43.9096 44.4333 48.1096 48.7333 48.4096C45.7333 46.4096 43.0333 43.6096 42.6333 41.1096C44.3333 43.1096 47.0333 47.4096 52.0333 47.3096C49.1333 45.4096 46.7333 44.2096 44.9333 39.8096C47.4333 42.5096 47.9333 45.6096 54.6333 44.6096C52.3333 43.9096 49.0333 42.2096 47.5333 38.9096C50.1333 41.2096 54.2333 42.9096 57.1333 40.1096C52.0333 39.6096 52.2333 40.1096 49.8333 37.0096C52.7333 38.2096 55.5333 39.7096 58.8333 35.9096Z" fill="#735CE6"/>
</svg>
