<svg width="65" height="22" viewBox="0 0 65 22" fill="none" xmlns="http://www.w3.org/2000/svg">
<path d="M63.1087 8.08878C53.6787 7.16124 42.8575 6.07911 34.2005 0.977666C33.4275 0.513897 32.5 0.823076 32.0362 1.59602C31.5725 2.36897 31.8816 3.29651 32.6546 3.76027C37.1377 6.38829 42.0845 8.08878 47.186 9.1709C32.1908 9.1709 17.1956 8.39795 2.20048 6.54288C1.42753 6.54288 0.654582 7.16124 0.499993 7.93419C0.345403 8.70713 0.963761 9.48008 1.8913 9.63467C15.4952 11.1806 29.2536 11.9535 43.0121 11.9535C46.2584 11.9535 49.5048 11.9535 52.9058 11.7989C50.2778 12.881 47.8043 13.8086 45.1763 14.8907C43.0121 15.8182 40.5386 16.9004 38.529 18.91C37.9106 19.5284 37.9106 20.4559 38.6836 21.0743C38.9927 21.3835 39.3019 21.5381 39.7657 21.5381C40.2295 21.5381 40.5386 21.3835 40.8478 21.0743C42.2391 19.5284 44.4034 18.6009 46.413 17.8279C52.1328 15.5091 57.8526 13.1902 63.5725 11.026C64.1908 10.7168 64.6546 10.0984 64.5 9.32549C64.3454 8.55254 63.8816 8.08878 63.1087 8.08878Z" fill="#ABB2BA"/>
</svg>
