<svg width="125" height="125" viewBox="0 0 125 125" fill="none" xmlns="http://www.w3.org/2000/svg">
<path d="M62.5 124.01C96.7417 124.01 124.5 96.2514 124.5 62.0098C124.5 27.7681 96.7417 0.00976562 62.5 0.00976562C28.2583 0.00976562 0.5 27.7681 0.5 62.0098C0.5 96.2514 28.2583 124.01 62.5 124.01Z" fill="#FF9500"/>
<path d="M62.5 24.8115C83.0449 24.8115 99.7 41.4666 99.7 62.0115C99.7 82.5565 83.0449 99.2115 62.5 99.2115C41.955 99.2115 25.3 82.5565 25.3 62.0115C25.3 41.4666 41.955 24.8115 62.5 24.8115ZM62.5 65.8865C58.2198 65.8865 54.75 71.0912 54.75 77.5115C54.75 83.9318 58.2198 89.1365 62.5 89.1365C66.7802 89.1365 70.25 83.9318 70.25 77.5115C70.25 71.0912 66.7802 65.8865 62.5 65.8865ZM50.4875 48.0615C47.2773 48.0615 44.675 50.6639 44.675 53.874C44.675 57.0842 47.2773 59.6865 50.4875 59.6865C53.6976 59.6865 56.3 57.0842 56.3 53.874C56.3 50.6639 53.6976 48.0615 50.4875 48.0615ZM74.5125 48.0615C71.3023 48.0615 68.7 50.6639 68.7 53.874C68.7 57.0842 71.3023 59.6865 74.5125 59.6865C77.7226 59.6865 80.325 57.0842 80.325 53.874C80.325 50.6639 77.7226 48.0615 74.5125 48.0615ZM49.9934 37.7416C47.8269 35.5752 42.7011 35.6444 38.449 39.8965C34.1972 44.1483 34.1277 49.2744 36.2942 51.4408C36.6715 51.8893 37.5805 51.6826 38.3244 50.9793C38.3904 50.9169 38.4539 50.8517 38.5143 50.7841C40.3935 48.9048 38.9833 47.1836 42.3597 43.8072C45.7418 40.4251 47.4564 41.8419 49.3366 39.9617C50.0981 39.2811 50.4392 38.3384 50.0985 37.8562C50.0683 37.8134 50.0331 37.7751 49.9934 37.7416ZM86.554 39.8965C82.3019 35.6444 77.1761 35.5752 75.0097 37.7416C74.9699 37.7751 74.9348 37.8134 74.9045 37.8562C74.5639 38.3384 74.905 39.2811 75.6664 39.9617C77.5466 41.8419 79.2612 40.4251 82.6433 43.8072C86.0197 47.1836 84.6095 48.9048 86.4888 50.7841C86.5491 50.8517 86.6126 50.9169 86.6786 50.9793C87.4225 51.6826 88.3315 51.8893 88.7089 51.4408C90.8753 49.2744 90.8059 44.1483 86.554 39.8965Z" fill="white"/>
</svg>
