<svg width="125" height="125" viewBox="0 0 125 125" fill="none" xmlns="http://www.w3.org/2000/svg">
<g clip-path="url(#clip0_341_1386)">
<g clip-path="url(#clip1_341_1386)">
<path d="M62.5 124.51C96.7417 124.51 124.5 96.7514 124.5 62.5098C124.5 28.2681 96.7417 0.509766 62.5 0.509766C28.2583 0.509766 0.5 28.2681 0.5 62.5098C0.5 96.7514 28.2583 124.51 62.5 124.51Z" fill="#00C732"/>
<path d="M62.5 124.51C96.7417 124.51 124.5 96.7514 124.5 62.5098C124.5 28.2681 96.7417 0.509766 62.5 0.509766C28.2583 0.509766 0.5 28.2681 0.5 62.5098C0.5 96.7514 28.2583 124.51 62.5 124.51Z" fill="url(#paint0_linear_341_1386)"/>
<g filter="url(#filter0_d_341_1386)">
<path d="M38.043 53.2115C41.3536 53.2115 44.1115 55.7491 44.3864 59.0482L46.4255 83.5175C46.7174 87.0209 44.1141 90.0975 40.6108 90.3895C40.4349 90.4041 40.2586 90.4115 40.0822 90.4115H37.8653C34.3499 90.4115 31.5 87.5616 31.5 84.0461V59.4115C31.5 55.9873 34.2758 53.2115 37.7 53.2115H38.043ZM59.4 31.5115C59.4 29.0315 63.43 27.4815 65.6 28.4115C70.25 31.2015 71.8 35.5415 71.8 40.8115V50.1115H87.3C90.71 50.1115 93.5 52.9015 93.5 56.3115L87.3 84.2115C87.3 87.6215 84.51 90.4115 81.1 90.4115H59.057C55.7464 90.4115 52.9885 87.8739 52.7136 84.5747L50.1 53.2115L59.4 40.8115V31.5115Z" fill="black"/>
</g>
<path d="M38.043 53.2115C41.3536 53.2115 44.1115 55.7491 44.3864 59.0482L46.4255 83.5175C46.7174 87.0209 44.1141 90.0975 40.6108 90.3895C40.4349 90.4041 40.2586 90.4115 40.0822 90.4115H37.8653C34.3499 90.4115 31.5 87.5616 31.5 84.0461V59.4115C31.5 55.9873 34.2758 53.2115 37.7 53.2115H38.043ZM59.4 31.5115C59.4 29.0315 63.43 27.4815 65.6 28.4115C70.25 31.2015 71.8 35.5415 71.8 40.8115V50.1115H87.3C90.71 50.1115 93.5 52.9015 93.5 56.3115L87.3 84.2115C87.3 87.6215 84.51 90.4115 81.1 90.4115H59.057C55.7464 90.4115 52.9885 87.8739 52.7136 84.5747L50.1 53.2115L59.4 40.8115V31.5115Z" fill="url(#paint1_linear_341_1386)"/>
</g>
</g>
<defs>
<filter id="filter0_d_341_1386" x="30.5" y="28.1387" width="64" height="64.2725" filterUnits="userSpaceOnUse" color-interpolation-filters="sRGB">
<feFlood flood-opacity="0" result="BackgroundImageFix"/>
<feColorMatrix in="SourceAlpha" type="matrix" values="0 0 0 0 0 0 0 0 0 0 0 0 0 0 0 0 0 0 127 0" result="hardAlpha"/>
<feOffset dy="1"/>
<feGaussianBlur stdDeviation="0.5"/>
<feColorMatrix type="matrix" values="0 0 0 0 0 0 0 0 0 0 0 0 0 0 0 0 0 0 0.05 0"/>
<feBlend mode="normal" in2="BackgroundImageFix" result="effect1_dropShadow_341_1386"/>
<feBlend mode="normal" in="SourceGraphic" in2="effect1_dropShadow_341_1386" result="shape"/>
</filter>
<linearGradient id="paint0_linear_341_1386" x1="62.5" y1="0.509766" x2="62.5" y2="124.51" gradientUnits="userSpaceOnUse">
<stop stop-color="white" stop-opacity="0.2"/>
<stop offset="1" stop-color="white" stop-opacity="0"/>
</linearGradient>
<linearGradient id="paint1_linear_341_1386" x1="62.5" y1="28.1387" x2="62.5" y2="90.4115" gradientUnits="userSpaceOnUse">
<stop stop-color="white"/>
<stop offset="1" stop-color="white" stop-opacity="0.95"/>
</linearGradient>
<clipPath id="clip0_341_1386">
<rect width="124" height="124" fill="white" transform="translate(0.5 0.00976562)"/>
</clipPath>
<clipPath id="clip1_341_1386">
<rect width="124" height="124" fill="white" transform="translate(0.5 0.509766)"/>
</clipPath>
</defs>
</svg>
