<svg width="73" height="73" viewBox="0 0 73 73" fill="none" xmlns="http://www.w3.org/2000/svg">
<g clip-path="url(#clip0_343_1876)">
<path d="M72.3333 25.5098C72.3333 5.30976 67.5333 0.509766 47.3333 0.509766H25.3333C5.13331 0.509766 0.333313 5.30976 0.333313 25.5098V47.5098C0.333313 67.7098 5.13331 72.5098 25.3333 72.5098H47.3333C67.5333 72.5098 72.3333 67.7098 72.3333 47.5098V25.5098Z" fill="white"/>
<g clip-path="url(#clip1_343_1876)">
<path fill-rule="evenodd" clip-rule="evenodd" d="M44.5828 26.0098C45.9578 26.0098 47.1403 27.0548 47.3053 28.4298C47.3053 28.4298 47.4702 29.8598 47.6352 31.1523C47.8002 32.4173 48.6803 33.4623 49.8628 33.8473C50.0278 33.9023 52.8877 33.9298 52.8877 33.9298C54.2352 34.1223 55.2528 35.2773 55.2528 36.6523V42.5098C56.7653 42.5098 58.0027 43.7473 58.0027 45.2598C58.0027 46.7723 56.7653 48.0098 55.2528 48.0098H52.5028C52.5028 51.0348 50.0278 53.5098 47.0028 53.5098C43.9778 53.5098 41.5028 51.0348 41.5028 48.0098H30.5027C30.5027 51.0348 28.0277 53.5098 25.0027 53.5098C21.9777 53.5098 19.5027 51.0348 19.5027 48.0098H16.7528C15.2403 48.0098 14.0028 46.7723 14.0028 45.2598C14.0028 43.7473 15.2403 42.5098 16.7528 42.5098H33.2582C34.713 42.5098 36.11 41.9295 37.1412 40.901C38.1725 39.8698 38.7528 38.47 38.7528 37.0098V28.7598C38.7528 27.2473 39.9903 26.0098 41.5028 26.0098H44.5828V26.0098ZM47.0028 50.7598C45.4903 50.7598 44.2528 49.5223 44.2528 48.0098C44.2528 46.4973 45.4903 45.2598 47.0028 45.2598C48.5153 45.2598 49.7528 46.4973 49.7528 48.0098C49.7528 49.5223 48.5153 50.7598 47.0028 50.7598ZM25.0027 50.7598C23.4902 50.7598 22.2527 49.5223 22.2527 48.0098C22.2527 46.4973 23.4902 45.2598 25.0027 45.2598C26.5152 45.2598 27.7527 46.4973 27.7527 48.0098C27.7527 49.5223 26.5152 50.7598 25.0027 50.7598ZM32.4002 20.5098C33.3572 20.5098 34.273 20.8893 34.9468 21.563C35.6205 22.2395 36 23.1553 36 24.1095V36.1573C36 37.1143 35.6205 38.03 34.9468 38.7065C34.273 39.3803 33.3572 39.7598 32.4002 39.7598H17.6025C16.6455 39.7598 15.7298 39.3803 15.056 38.7065C14.3795 38.03 14 37.1143 14 36.1573V24.1095C14 23.1553 14.3795 22.2395 15.056 21.563C15.7298 20.8893 16.6455 20.5098 17.6025 20.5098H32.4002V20.5098ZM44.3628 34.2598C44.6103 34.2598 44.8853 34.1498 45.0503 33.9573C45.2428 33.74 45.3252 33.4898 45.2977 33.2148C45.1877 32.1698 45.0228 30.5748 44.9403 29.615C44.8853 29.1173 44.4728 28.7598 43.9778 28.7598H42.4652C41.9152 28.7598 41.5028 29.1998 41.5028 29.7223V33.2973C41.5028 33.5723 41.6127 33.7923 41.7777 33.9848C41.9702 34.1498 42.1902 34.2598 42.4652 34.2598H44.3628V34.2598Z" fill="#E81F76"/>
</g>
</g>
<defs>
<clipPath id="clip0_343_1876">
<rect width="72" height="72" fill="white" transform="translate(0.333313 0.509766)"/>
</clipPath>
<clipPath id="clip1_343_1876">
<rect width="44" height="44" fill="white" transform="translate(14 15.0098)"/>
</clipPath>
</defs>
</svg>
