<svg width="73" height="73" viewBox="0 0 73 73" fill="none" xmlns="http://www.w3.org/2000/svg">
<path d="M72.1667 25.5098C72.1667 5.30976 67.3667 0.509766 47.1667 0.509766H25.1667C4.96666 0.509766 0.166656 5.30976 0.166656 25.5098V47.5098C0.166656 67.7098 4.96666 72.5098 25.1667 72.5098H47.1667C67.3667 72.5098 72.1667 67.7098 72.1667 47.5098V25.5098Z" fill="white"/>
<path d="M36.1667 58.5098C48.3169 58.5098 58.1667 48.66 58.1667 36.5098C58.1667 24.3595 48.3169 14.5098 36.1667 14.5098C24.0164 14.5098 14.1667 24.3595 14.1667 36.5098C14.1667 48.66 24.0164 58.5098 36.1667 58.5098Z" fill="#3372FF"/>
<path d="M36.1667 23.1094L36.8667 25.3094H39.1667L37.3667 26.7094L38.0667 28.9094L36.1667 27.5094L34.2667 28.9094L34.9667 26.7094L33.1667 25.3094H35.4667L36.1667 23.1094Z" fill="#FFDA44"/>
<path d="M26.6667 27.0092L28.7667 28.1092L30.3667 26.4092L30.0667 28.7092L32.0667 29.8092L29.7667 30.1092L29.4667 32.4092L28.3667 30.4092L26.0667 30.7092L27.7667 29.1092L26.6667 27.0092Z" fill="#FFDA44"/>
<path d="M22.7667 36.5098L24.9667 35.8098V33.5098L26.3667 35.3098L28.5667 34.6098L27.1667 36.5098L28.5667 38.4098L26.3667 37.7098L24.9667 39.5098V37.2098L22.7667 36.5098Z" fill="#FFDA44"/>
<path d="M26.6667 46.0094L27.7667 43.9094L26.0667 42.3094L28.3667 42.6094L29.4667 40.6094L29.7667 42.9094L32.0667 43.2094L30.0667 44.3094L30.3667 46.6094L28.7667 44.9094L26.6667 46.0094Z" fill="#FFDA44"/>
<path d="M36.1667 49.9094L35.4667 47.7094H33.1667L34.9667 46.3094L34.2667 44.1094L36.1667 45.5094L38.0667 44.1094L37.3667 46.3094L39.1667 47.7094H36.8667L36.1667 49.9094Z" fill="#FFDA44"/>
<path d="M45.6667 46.0094L43.5667 44.9094L41.9667 46.6094L42.2667 44.3094L40.2667 43.2094L42.5667 42.9094L42.8667 40.6094L43.9667 42.6094L46.2667 42.3094L44.5667 43.9094L45.6667 46.0094Z" fill="#FFDA44"/>
<path d="M49.5667 36.5098L47.3667 37.2098V39.5098L45.9667 37.7098L43.7667 38.4098L45.1667 36.5098L43.7667 34.6098L45.9667 35.3098L47.3667 33.5098V35.8098L49.5667 36.5098Z" fill="#FFDA44"/>
<path d="M45.6667 27.0092L44.5667 29.1092L46.2667 30.7092L43.9667 30.4092L42.8667 32.4092L42.5667 30.1092L40.2667 29.8092L42.2667 28.7092L41.9667 26.4092L43.5667 28.1092L45.6667 27.0092Z" fill="#FFDA44"/>
</svg>
