<svg width="290" height="200" viewBox="0 0 290 200" fill="none" xmlns="http://www.w3.org/2000/svg">
<path opacity="0.2" d="M54.2574 169.127C57.5876 141.156 82.9261 152.026 90.4553 156.084C97.9845 160.142 197.167 126.084 197.167 126.084C197.167 126.084 207.592 130.722 205.854 148.983C205.13 156.664 214.252 149.707 224.243 153.62C234.089 157.533 237.274 168.113 238.432 175.359C239.591 182.316 239.591 182.316 239.591 182.316L56.1397 192.171L54.2574 169.127Z" fill="#FF6B82"/>
<path d="M98.9978 59.2701L78.727 64.3426C90.0208 61.1542 117.531 77.8209 118.979 78.5455L139.25 73.473C137.802 72.7484 110.292 56.0817 98.9978 59.2701Z" fill="#D69B00"/>
<path d="M93.3511 74.6343C86.8355 67.3879 89.4417 59.127 96.9709 56.9531C75.6865 62.3154 72.7907 62.3154 70.474 67.0981C68.3021 71.4459 70.0396 76.2285 73.0803 79.7067C80.6094 88.4024 114.78 81.5908 116.807 81.156L137.078 76.0836C135.196 76.6633 101.17 83.3299 93.3511 74.6343Z" fill="url(#paint0_linear_558_2628)"/>
<path d="M96.9709 57.0962C99.4324 56.3716 102.039 56.3716 105.369 57.0962C118.834 59.9948 139.684 73.0382 140.553 73.7629H139.105C137.657 72.7484 110.147 56.0817 98.8532 59.56C98.4188 59.8498 97.6949 59.9948 97.1157 60.2846C86.9803 66.0817 94.2199 76.5165 108.699 77.6759C123.178 78.8353 135.92 76.6614 136.644 76.5165C134.906 76.8064 100.735 83.7629 92.9167 75.0672C87.1251 67.2411 89.5865 59.2701 96.9709 57.0962Z" fill="#FFC01A"/>
<path d="M167.919 54.9239C167.629 54.9239 167.629 54.9239 167.484 55.2137C157.639 57.8224 142.146 76.2282 136.065 84.1992L159.666 91.0108C165.457 83.4746 184.57 60.5761 193.981 61.7355C194.705 61.7355 195.429 62.0253 195.864 62.1703C170.38 54.634 170.815 54.4891 167.919 54.9239Z" fill="#D69B00"/>
<path d="M197.601 58.8362L174 52.3145C181.529 54.4884 181.24 65.6478 174.724 71.155C166.76 77.9666 148.661 83.4739 138.816 85.6478L162.417 92.4594C172.263 90.2855 197.456 83.0391 201.8 73.9087C204.406 68.2565 203.972 60.7203 197.601 58.8362Z" fill="url(#paint1_linear_558_2628)"/>
<path d="M169.946 52.0241C177.475 50.8647 182.253 57.3865 178.344 66.5169C174 77.3865 140.408 85.0676 138.816 85.6473C139.54 85.3575 151.847 82.314 164.878 75.2126C177.909 68.1111 181.24 55.9372 170.235 54.6328C169.801 54.6328 169.222 54.6328 168.498 54.6328C157.204 56.372 136.933 82.6039 135.92 83.9082L134.762 84.343C135.485 83.3285 150.399 63.0386 162.272 54.9227C164.878 53.4734 167.484 52.314 169.946 52.0241Z" fill="#FDB400"/>
<path d="M141.132 79.9961V83.0396V84.7787V85.5033V86.228V91.4454V97.3874L140.843 105.503V106.663V108.982L140.408 144.634L139.974 180.576L139.829 187.242V187.822L139.684 197.242V199.706H84.0844L83.2156 190.866L82.7813 187.242L81.7677 177.532L81.6229 176.083L81.3333 173.619C81.3333 173.474 81.3333 173.474 81.3333 173.329L79.0167 151.59L75.5417 118.837L75.2521 116.663L74.6729 111.156L73.949 105.069L73.3698 100.286V99.7062L72.7906 93.6193L72.6458 89.9961L76.2656 89.4164L82.6365 88.5468L88.2833 87.6773H88.5729L94.799 86.8077L100.301 86.083L106.527 85.2135L107.251 85.0686L112.319 84.3439L118.834 83.4744L124.481 82.6048L130.707 81.7352L136.354 80.8657L137.657 80.7207H138.092H138.526H138.671H139.105L141.132 79.9961Z" fill="#BF253E"/>
<path d="M204.841 88.6917L204.696 89.9961L203.827 96.083L203.393 99.8512L202.379 107.242L200.931 116.953L199.483 127.677L194.271 165.793L193.113 173.474L192.678 176.663L191.809 183.329L191.52 185.069L189.493 199.706H139.829V197.242L139.974 187.822V187.242V180.576L140.408 144.634L140.843 108.982V106.663V105.503L140.988 97.3874V91.4454L141.132 86.228V85.5033V84.9236V83.0396V79.9961L143.304 80.2859L149.385 81.1555L151.268 81.4454L152.716 81.5903H153.005L153.729 81.7352L159.666 82.6048L164.009 83.1845L165.892 83.4744L170.091 83.9091L171.249 84.199L174.434 84.4888L180.516 85.3584L183.701 85.7932L185.004 85.9381L190.941 86.8077H191.375L195.284 87.3874L201.221 88.257L204.841 88.6917Z" fill="#E83350"/>
<path d="M118.979 79.1246C100.88 64.3419 108.844 50.8637 111.45 48.9796C114.635 47.0956 145.186 42.0231 155.611 47.2405C166.036 52.6028 151.992 77.2405 151.992 77.2405L118.979 79.1246Z" fill="url(#paint2_linear_558_2628)"/>
<path d="M138.092 74.7773V78.6904L137.802 85.6469V91.8788L137.512 98.8353V105.067V108.401L134.182 109.125L128.68 110.14L122.165 111.154L116.373 112.169L109.857 113.183L104.066 114.198L97.8396 115.212L92.0479 116.227L85.5323 117.386L79.7406 118.401L73.5146 119.415H72.6458L72.2115 114.632L71.4875 108.545L71.0531 103.038L70.6187 96.8063L70.1844 91.444L69.75 87.2411L73.8042 86.2266L79.5958 85.2121L86.1115 84.0527L91.9031 83.0382L98.7083 81.8788L104.5 80.7194L111.016 79.56L116.807 78.5455L123.612 77.386L129.404 76.3715L135.92 75.2121L138.092 74.7773Z" fill="#FF4563"/>
<path d="M79.5958 85.3574L70.4739 96.5169L70.0395 91.1545L73.9489 86.3719L79.5958 85.3574Z" fill="#BF253E"/>
<path d="M91.9032 83.1836L71.4875 108.256L71.0532 102.749L86.2563 84.1981L91.9032 83.1836Z" fill="#BF253E"/>
<path d="M104.5 80.7207L73.3697 119.127H72.6458L72.2114 114.344L98.7083 82.025L104.5 80.7207Z" fill="#BF253E"/>
<path d="M116.807 78.5449L85.3876 117.241L79.5959 118.255L111.016 79.5594L116.807 78.5449Z" fill="#BF253E"/>
<path d="M129.404 76.3711L97.6949 115.067L91.9032 116.081L123.468 77.3856L129.404 76.3711Z" fill="#BF253E"/>
<path d="M138.092 74.7773V78.6904L109.857 113.183L104.066 114.198L135.92 75.3571L138.092 74.7773Z" fill="#BF253E"/>
<path d="M137.802 85.6484V91.8803L122.165 111.156L116.373 112.17L137.802 85.6484Z" fill="#BF253E"/>
<path d="M137.512 98.8359V105.068L134.182 109.126L128.68 110.14L137.512 98.8359Z" fill="#BF253E"/>
<path d="M208.46 86.8059L207.447 94.7769L206.433 102.023L205.275 111.733L204.261 117.531L200.931 117.096L194.85 116.371L190.217 115.646L184.425 114.922L179.792 114.487L173.71 113.473L169.367 113.038L163.285 112.313L158.942 111.589L152.86 110.864L148.227 110.429L142.435 109.415L137.802 108.98L137.078 108.69V101.733L137.368 95.6465V87.3856L137.657 81.1538V74.9219L142.001 75.6465L146.345 76.3712L152.136 77.3856L156.48 78.1103L162.272 79.1248L166.616 79.8494L172.407 81.0088L176.751 81.4436L182.543 82.603L186.886 83.3277L192.678 84.3422L197.022 85.0668L202.814 86.0813L207.157 86.8059H208.46Z" fill="#E32C4A"/>
<path d="M146.779 76.2285L137.802 87.243L138.092 81.0111L142.435 75.5039L146.779 76.2285Z" fill="#FF4563"/>
<path d="M156.915 77.8203L137.513 101.588L137.802 95.5015L152.571 77.0957L156.915 77.8203Z" fill="#FF4563"/>
<path d="M167.05 79.5606L142.87 109.271L138.237 108.836L162.562 78.8359L167.05 79.5606Z" fill="#FF4563"/>
<path d="M177.185 81.3L153.295 110.72L148.661 110.286L172.842 80.8652L177.185 81.3Z" fill="#FF4563"/>
<path d="M187.321 83.1836L163.72 112.169L159.376 111.444L182.977 82.459L187.321 83.1836Z" fill="#FF4563"/>
<path d="M197.456 84.9239L174 113.33L169.656 112.895L193.112 84.1992L197.456 84.9239Z" fill="#FF4563"/>
<path d="M207.592 86.5176L184.715 114.778L180.081 114.344L203.248 85.793L207.592 86.5176Z" fill="#FF4563"/>
<path d="M207.592 94.7773L206.578 102.024L194.995 116.227L190.362 115.502L207.592 94.7773Z" fill="#FF4563"/>
<path d="M205.42 111.734L204.406 117.531L201.076 117.097L205.42 111.734Z" fill="#FF4563"/>
<path d="M191.809 83.9095L191.52 85.9385L191.375 86.8081L190.651 93.1849L190.072 96.6631L189.203 103.04L188.19 110.286V110.431L187.61 115.214L185.583 130.141L178.344 182.605L178.054 184.054L177.909 185.214V185.794L176.317 197.388L175.882 199.707H161.693L162.272 193.04L162.851 186.518L163.141 181.736L163.43 179.417L167.05 136.228L168.208 121.446L168.932 112.75L169.511 104.779L170.091 98.1124L170.815 90.1414V88.982L171.249 84.1994L171.394 82.4602L171.539 80.5762H171.683H171.828L173.566 80.866L177.041 81.4457L181.964 82.1704L182.108 82.3153L189.203 83.4747L191.809 83.9095Z" fill="url(#paint3_linear_558_2628)"/>
<path d="M113.911 192.169L114.346 199.705H101.749L101.459 196.517V196.372L100.591 189.995L99.577 181.445L99.2874 178.401L98.4187 171.734L96.6812 156.082L91.9031 116.082L91.1791 110.14L90.5999 104.778L89.876 98.8359V98.546L89.2968 93.4736L88.5729 87.6765V87.3866L88.1385 84.1982V83.7634V83.6185L106.961 80.2852L107.106 82.8939V84.1982L107.251 84.9228L107.541 89.9953L107.975 96.517L108.12 99.9953L108.265 102.169L108.699 108.401L108.988 113.184L111.45 152.894L113.043 177.532L113.187 179.126L113.767 189.271L113.911 192.169Z" fill="url(#paint4_linear_558_2628)"/>
<path opacity="0.3" d="M194.56 165.793L193.112 173.619L192.533 176.808L191.665 182.025L190.941 183.33L189.927 185.214L181.963 199.851H107.975L101.459 196.663L89.5864 190.721L83.0708 187.533C82.926 187.677 82.6364 183.909 82.0572 177.822C82.0572 177.388 81.9124 176.808 81.9124 176.373C81.9124 175.648 81.7676 174.779 81.6229 173.909C81.6229 173.764 81.6229 173.764 81.6229 173.619C81.3333 171.011 81.1885 167.967 80.8989 164.924C88.4281 166.373 94.3645 169.272 98.7083 172.17C103.052 175.069 105.948 177.822 107.251 179.272C107.83 179.851 108.12 180.141 108.12 180.141C108.12 180.141 108.699 179.851 109.712 179.417C110.581 178.982 111.884 178.402 113.187 177.967C116.807 176.808 121.73 175.793 126.363 177.098C129.115 177.822 131.431 179.127 133.458 180.721C136.788 183.33 139.105 186.228 140.119 187.677C140.263 187.967 140.408 188.112 140.553 188.257C140.698 188.402 140.698 188.402 140.698 188.402C140.698 188.402 140.698 188.402 140.843 188.112C141.711 187.243 145.186 183.619 150.978 181.446C153.874 180.431 157.204 179.562 161.113 179.562C161.982 179.562 162.851 179.562 163.575 179.706C168.063 179.996 171.538 181.301 174 182.605C175.737 183.475 176.896 184.489 177.475 185.069C177.909 185.359 178.054 185.648 178.054 185.648C178.054 185.648 178.054 185.648 178.054 185.504C178.199 185.214 178.344 184.779 178.633 184.054C178.778 183.764 178.923 183.33 179.068 183.04C180.805 179.417 183.991 173.185 187.466 170.286C191.375 167.098 193.402 166.373 194.126 166.228C194.416 165.793 194.56 165.793 194.56 165.793Z" fill="#CCA3A9"/>
<path d="M96.6812 199.705C98.1291 198.546 99.5771 197.387 101.315 196.517C104.066 194.923 107.106 193.618 110.436 192.894C111.595 192.604 112.753 192.314 113.911 192.169C115.794 191.879 117.821 191.734 119.848 191.734C127.377 191.734 134.182 193.908 139.684 197.387C140.843 198.111 142.001 198.981 143.015 199.85H96.6812V199.705Z" fill="white"/>
<path d="M179.213 199.706H145.476C149.965 195.503 155.901 193.039 162.272 193.039C164.009 193.039 165.747 193.184 167.629 193.619C168.498 193.764 169.367 194.054 170.091 194.343C172.263 195.068 174.434 196.083 176.317 197.387C177.33 197.967 178.344 198.836 179.213 199.706Z" fill="white"/>
<path d="M232.496 199.705H167.919C168.208 198.691 168.643 197.676 169.077 196.662C169.367 195.937 169.801 195.068 170.235 194.343C171.828 191.155 173.855 188.401 176.317 185.937C176.751 185.503 177.041 185.213 177.475 184.778C177.765 184.488 177.909 184.343 178.199 184.053C178.344 183.908 178.489 183.763 178.633 183.618C179.068 183.329 179.502 182.894 179.937 182.604C183.701 179.705 188.045 177.821 192.678 176.662H192.823C199.483 175.068 206.578 175.647 213.383 178.401C216.424 179.705 219.175 181.3 221.637 183.329C221.637 183.329 221.637 183.329 221.781 183.329C226.849 187.821 230.469 193.474 232.496 199.705Z" fill="white"/>
<path d="M48.9 199.707C50.3479 195.069 52.8093 191.012 55.85 187.533C60.3385 182.461 66.4198 178.693 73.0802 177.098C75.8312 176.374 78.727 176.084 81.6229 176.084C83.7948 176.084 85.8218 176.374 87.9937 176.809C89.7312 177.098 91.3239 177.533 92.7718 178.113C95.2333 178.983 97.4052 180.142 99.577 181.446C102.907 183.62 105.948 186.374 108.265 189.562C108.989 190.577 109.857 191.736 110.436 192.751C111.74 194.925 112.753 197.243 113.622 199.707H48.9Z" fill="white"/>
<path d="M23.851 82.8941C23.851 87.5318 19.9416 91.2999 15.4531 91.2999C10.9645 91.2999 7.05515 87.3868 7.05515 82.8941C7.05515 78.2564 10.9645 74.4883 15.4531 74.4883C20.0864 74.7781 23.851 78.4013 23.851 82.8941Z" fill="#E81F76"/>
<path d="M37.1718 21.155C39.4885 21.155 41.226 19.2709 41.226 17.097C41.226 14.9231 39.3437 13.0391 37.1718 13.0391C34.9999 13.0391 33.1176 14.9231 33.1176 17.097C33.1176 19.2709 34.8551 21.155 37.1718 21.155Z" fill="#E81F76" fill-opacity="0.2"/>
<path d="M289.833 66.9531C289.833 74.4893 283.752 80.2864 276.512 80.2864C268.983 80.2864 263.192 74.1994 263.192 66.9531C263.192 59.7067 269.273 53.6197 276.512 53.6197C283.752 53.4748 289.833 59.5618 289.833 66.9531Z" fill="#E81F76"/>
<path d="M278.54 146.662C278.54 149.995 275.644 152.893 272.313 152.893C268.983 152.893 266.087 149.995 266.087 146.662C266.087 143.328 268.983 140.43 272.313 140.43C275.644 140.43 278.54 143.328 278.54 146.662Z" fill="#E81F76" fill-opacity="0.2"/>
<path d="M240.894 23.3289C246.541 23.3289 251.029 18.8362 251.029 13.184C251.029 7.53182 246.541 3.03906 240.894 3.03906C235.247 3.03906 230.758 7.53182 230.758 13.184C230.758 18.8362 235.247 23.3289 240.894 23.3289Z" fill="#E81F76"/>
<path d="M268.839 5.21309C268.839 7.82178 266.667 10.2856 263.771 10.2856C260.875 10.2856 258.703 8.11164 258.703 5.21309C258.703 2.60439 260.875 0.140625 263.771 0.140625C266.667 0.140625 268.839 2.16961 268.839 5.21309Z" fill="#E81F76" fill-opacity="0.2"/>
<path d="M170.091 16.2279C170.091 18.1119 168.643 19.5612 166.76 19.5612C164.878 19.5612 163.43 18.1119 163.43 16.2279C163.43 14.3438 164.878 12.8945 166.76 12.8945C168.643 12.8945 170.091 14.6337 170.091 16.2279Z" fill="#E81F76" fill-opacity="0.2"/>
<path d="M15.1635 137.968C15.1635 142.026 11.8333 145.504 7.63437 145.504C3.43542 145.504 0.25 142.171 0.25 137.968C0.25 133.91 3.58021 130.432 7.77917 130.432C11.9781 130.432 15.1635 133.91 15.1635 137.968Z" fill="#E81F76"/>
<path d="M41.95 113.329C41.95 115.938 39.7782 117.967 37.3167 117.967C34.7105 117.967 32.6834 115.793 32.6834 113.329C32.6834 110.72 34.8552 108.691 37.3167 108.691C40.0677 108.836 41.95 110.72 41.95 113.329Z" fill="#E81F76" fill-opacity="0.2"/>
<path d="M23.127 5.35677C23.127 7.24083 21.6791 8.6901 19.7968 8.6901C17.9145 8.6901 16.4666 7.24083 16.4666 5.35677C16.4666 3.47271 17.9145 2.02344 19.7968 2.02344C21.6791 2.02344 23.127 3.61764 23.127 5.35677Z" fill="#E81F76"/>
<path d="M92.6271 28.4008C95.8125 28.4008 98.4188 25.7922 98.4188 22.6037C98.4188 19.4153 95.8125 16.8066 92.6271 16.8066C89.4417 16.8066 86.8354 19.4153 86.8354 22.6037C86.8354 25.7922 89.4417 28.4008 92.6271 28.4008Z" fill="#E81F76"/>
<defs>
<linearGradient id="paint0_linear_558_2628" x1="95.3243" y1="46.8128" x2="104.789" y2="79.629" gradientUnits="userSpaceOnUse">
<stop stop-color="#FDB400"/>
<stop offset="0.3089" stop-color="#FFFA85"/>
<stop offset="1" stop-color="#C79000"/>
</linearGradient>
<linearGradient id="paint1_linear_558_2628" x1="183.736" y1="43.3937" x2="168.125" y2="85.4306" gradientUnits="userSpaceOnUse">
<stop stop-color="#FDB400"/>
<stop offset="0.2777" stop-color="#FFFA85"/>
<stop offset="0.8859" stop-color="#C79000"/>
</linearGradient>
<linearGradient id="paint2_linear_558_2628" x1="131.733" y1="40.2919" x2="135.747" y2="79.1144" gradientUnits="userSpaceOnUse">
<stop stop-color="#FDB400"/>
<stop offset="0.2777" stop-color="#FFFA85"/>
<stop offset="0.845" stop-color="#C79000"/>
</linearGradient>
<linearGradient id="paint3_linear_558_2628" x1="220.145" y1="237.745" x2="135.478" y2="50.6938" gradientUnits="userSpaceOnUse">
<stop stop-color="#FDB400"/>
<stop offset="0.2777" stop-color="#FFFA85"/>
<stop offset="0.8859" stop-color="#C79000"/>
</linearGradient>
<linearGradient id="paint4_linear_558_2628" x1="114.488" y1="215.88" x2="92.8233" y2="54.0189" gradientUnits="userSpaceOnUse">
<stop stop-color="#FDB400"/>
<stop offset="0.0622507" stop-color="#F5BB19"/>
<stop offset="0.144" stop-color="#ECC333"/>
<stop offset="0.2175" stop-color="#E7C742"/>
<stop offset="0.2753" stop-color="#E5C948"/>
<stop offset="0.8388" stop-color="#C79000"/>
</linearGradient>
</defs>
</svg>
