<?xml version="1.0" encoding="utf-8"?>
<!-- Generator: Adobe Illustrator 23.0.3, SVG Export Plug-In . SVG Version: 6.00 Build 0)  -->
<svg version="1.1" id="Layer_1" xmlns="http://www.w3.org/2000/svg" xmlns:xlink="http://www.w3.org/1999/xlink" x="0px" y="0px"
	 viewBox="0 0 200 138" style="enable-background:new 0 0 200 138;" xml:space="preserve">
<style type="text/css">
	.st0{opacity:0.2;fill:#FF6B82;enable-background:new    ;}
	.st1{fill:#D69B00;}
	.st2{fill:url(#SVGID_1_);}
	.st3{fill:#FFC01A;}
	.st4{fill:url(#SVGID_2_);}
	.st5{fill:#FDB400;}
	.st6{fill:#BF253E;}
	.st7{fill:#E83350;}
	.st8{fill:url(#SVGID_3_);}
	.st9{fill:#FF4563;}
	.st10{fill:#E32C4A;}
	.st11{fill:url(#SVGID_4_);}
	.st12{fill:url(#SVGID_5_);}
	.st13{opacity:0.3;fill:#CCA3A9;enable-background:new    ;}
	.st14{fill:#FFFFFF;}
</style>
<g>
	<path class="st0" d="M37.3,116.9c2.3-19.3,19.8-11.8,25-9c5.2,2.8,73.7-20.7,73.7-20.7s7.2,3.2,6,15.8c-0.5,5.3,5.8,0.5,12.7,3.2
		c6.8,2.7,9,10,9.8,15c0.8,4.8,0.8,4.8,0.8,4.8l-126.7,6.8L37.3,116.9z"/>
	<path class="st1" d="M68.2,41.1l-14,3.5C62,42.4,81,53.9,82,54.4l14-3.5C95,50.4,76,38.9,68.2,41.1z"/>
	
		<linearGradient id="SVGID_1_" gradientUnits="userSpaceOnUse" x1="65.6628" y1="107.4968" x2="72.188" y2="84.8504" gradientTransform="matrix(1 0 0 -1 0 140)">
		<stop  offset="0" style="stop-color:#FDB400"/>
		<stop  offset="0.3089" style="stop-color:#FFFA85"/>
		<stop  offset="1" style="stop-color:#C79000"/>
	</linearGradient>
	<path class="st2" d="M64.3,51.7c-4.5-5-2.7-10.7,2.5-12.2c-14.7,3.7-16.7,3.7-18.3,7c-1.5,3-0.3,6.3,1.8,8.7c5.2,6,28.8,1.3,30.2,1
		l14-3.5C93.2,53.1,69.7,57.7,64.3,51.7z"/>
	<path class="st3" d="M66.8,39.6c1.7-0.5,3.5-0.5,5.8,0c9.3,2,23.7,11,24.3,11.5h-1c-1-0.7-20-12.2-27.8-9.8
		c-0.3,0.2-0.8,0.3-1.2,0.5c-7,4-2,11.2,8,12s18.8-0.7,19.3-0.8c-1.2,0.2-24.8,5-30.2-1C60,46.6,61.7,41.1,66.8,39.6z"/>
	<path class="st1" d="M115.8,38.1c-0.2,0-0.2,0-0.3,0.2c-6.8,1.8-17.5,14.5-21.7,20l16.3,4.7c4-5.2,17.2-21,23.7-20.2
		c0.5,0,1,0.2,1.3,0.3C117.5,37.9,117.8,37.8,115.8,38.1z"/>
	
		<linearGradient id="SVGID_2_" gradientUnits="userSpaceOnUse" x1="126.7241" y1="109.8553" x2="115.9601" y2="80.8433" gradientTransform="matrix(1 0 0 -1 0 140)">
		<stop  offset="0" style="stop-color:#FDB400"/>
		<stop  offset="0.2777" style="stop-color:#FFFA85"/>
		<stop  offset="0.8859" style="stop-color:#C79000"/>
	</linearGradient>
	<path class="st4" d="M136.3,40.8L120,36.3c5.2,1.5,5,9.2,0.5,13c-5.5,4.7-18,8.5-24.8,10l16.3,4.7c6.8-1.5,24.2-6.5,27.2-12.8
		C141,47.3,140.7,42.1,136.3,40.8z"/>
	<path class="st5" d="M117.2,36.1c5.2-0.8,8.5,3.7,5.8,10c-3,7.5-26.2,12.8-27.3,13.2c0.5-0.2,9-2.3,18-7.2s11.3-13.3,3.7-14.2
		c-0.3,0-0.7,0-1.2,0c-7.8,1.2-21.8,19.3-22.5,20.2l-0.8,0.3c0.5-0.7,10.8-14.7,19-20.3C113.7,37.1,115.5,36.3,117.2,36.1z"/>
	<path class="st6" d="M97.3,55.4l0,2.1l0,1.2v0.5l0,0.5l0,3.6l0,4.1L97.1,73l0,0.8l0,1.6L96.8,100l-0.3,24.8l-0.1,4.6l0,0.4
		l-0.1,6.5l0,1.7H57.9l-0.6-6.1l-0.3-2.5l-0.7-6.7l-0.1-1L56,120c0-0.1,0-0.1,0-0.2l-1.6-15l-2.4-22.6l-0.2-1.5l-0.4-3.8v0l-0.5-4.2
		l-0.4-3.3l0-0.4l-0.4-4.2L50,62.3l2.5-0.4l4.4-0.6l3.9-0.6l0.2,0l4.3-0.6l3.8-0.5l4.3-0.6l0.5-0.1l3.5-0.5h0l4.5-0.6l3.9-0.6
		l4.3-0.6l3.9-0.6l0.9-0.1h0l0.3,0l0,0l0.3,0h0l0.1,0l0.3,0L97.3,55.4z"/>
	<polygon class="st7" points="141.3,61.4 141.2,62.3 141.2,62.3 140.6,66.5 140.3,69.1 140.3,69.1 139.6,74.2 138.6,80.9 
		138.6,80.9 137.6,88.3 134,114.6 133.2,119.9 132.9,122.1 132.3,126.7 132.1,127.9 130.7,138 96.4,138 96.4,136.3 96.5,129.8 
		96.5,129.4 96.5,124.8 96.8,100 97.1,75.4 97.1,73.8 97.1,73 97.2,67.4 97.2,63.3 97.3,59.7 97.3,59.2 97.3,58.8 97.3,57.5 
		97.3,55.4 98.8,55.6 103,56.2 104.3,56.4 105.3,56.5 105.3,56.5 105.5,56.5 106,56.6 110.1,57.2 113.1,57.6 114.4,57.8 114.4,57.8 
		117.3,58.1 118.1,58.3 120.3,58.5 124.5,59.1 126.7,59.4 127.6,59.5 131.7,60.1 132,60.1 134.7,60.5 138.8,61.1 	"/>
	
		<linearGradient id="SVGID_3_" gradientUnits="userSpaceOnUse" x1="90.8083" y1="111.9945" x2="93.5756" y2="85.2065" gradientTransform="matrix(1 0 0 -1 0 140)">
		<stop  offset="0" style="stop-color:#FDB400"/>
		<stop  offset="0.2777" style="stop-color:#FFFA85"/>
		<stop  offset="0.845" style="stop-color:#C79000"/>
	</linearGradient>
	<path class="st8" d="M82,54.8c-12.5-10.2-7-19.5-5.2-20.8c2.2-1.3,23.3-4.8,30.5-1.2c7.2,3.7-2.5,20.7-2.5,20.7L82,54.8z"/>
	<path class="st9" d="M95.2,51.8v2.7L95,59.3v4.3l-0.2,4.8v4.3v2.3l-2.3,0.5l-3.8,0.7l-4.5,0.7l-4,0.7l-4.5,0.7l-4,0.7l-4.3,0.7
		l-4,0.7l-4.5,0.8l-4,0.7l-4.3,0.7H50l-0.3-3.3l-0.5-4.2l-0.3-3.8l-0.3-4.3l-0.3-3.7L48,60.4l2.8-0.7l4-0.7l4.5-0.8l4-0.7l4.7-0.8
		l4-0.8l4.5-0.8l4-0.7l4.7-0.8l4-0.7l4.5-0.8L95.2,51.8z"/>
	<path class="st6" d="M54.8,59.1l-6.3,7.7l-0.3-3.7l2.7-3.3L54.8,59.1z"/>
	<path class="st6" d="M63.3,57.6L49.2,74.9l-0.3-3.8l10.5-12.8L63.3,57.6z"/>
	<path class="st6" d="M72,55.9L50.5,82.4H50l-0.3-3.3L68,56.8L72,55.9z"/>
	<path class="st6" d="M80.5,54.4L58.8,81.1l-4,0.7l21.7-26.7L80.5,54.4z"/>
	<path class="st6" d="M89.2,52.9L67.3,79.6l-4,0.7l21.8-26.7L89.2,52.9z"/>
	<path class="st6" d="M95.2,51.8v2.7L75.7,78.3l-4,0.7l22-26.8L95.2,51.8z"/>
	<path class="st6" d="M95,59.3v4.3L84.2,76.9l-4,0.7L95,59.3z"/>
	<path class="st6" d="M94.8,68.4v4.3l-2.3,2.8l-3.8,0.7L94.8,68.4z"/>
	<path class="st10" d="M143.8,60.1l-0.7,5.5l-0.7,5l-0.8,6.7l-0.7,4l-2.3-0.3l-4.2-0.5l-3.2-0.5l-4-0.5l-3.2-0.3l-4.2-0.7l-3-0.3
		l-4.2-0.5l-3-0.5l-4.2-0.5l-3.2-0.3l-4-0.7l-3.2-0.3l-0.5-0.2v-4.8l0.2-4.2v-5.7l0.2-4.3v-4.3l3,0.5l3,0.5l4,0.7l3,0.5l4,0.7l3,0.5
		l4,0.8l3,0.3l4,0.8l3,0.5l4,0.7l3,0.5l4,0.7l3,0.5L143.8,60.1z"/>
	<path class="st9" d="M101.2,52.8L95,60.4l0.2-4.3l3-3.8L101.2,52.8z"/>
	<path class="st9" d="M108.2,53.9L94.8,70.3l0.2-4.2l10.2-12.7L108.2,53.9z"/>
	<path class="st9" d="M115.2,55.1L98.5,75.6l-3.2-0.3l16.8-20.7L115.2,55.1z"/>
	<path class="st9" d="M122.2,56.3l-16.5,20.3l-3.2-0.3l16.7-20.3L122.2,56.3z"/>
	<path class="st9" d="M129.2,57.6l-16.3,20l-3-0.5l16.3-20L129.2,57.6z"/>
	<path class="st9" d="M136.2,58.8L120,78.4l-3-0.3l16.2-19.8L136.2,58.8z"/>
	<path class="st9" d="M143.2,59.9l-15.8,19.5l-3.2-0.3l16-19.7L143.2,59.9z"/>
	<path class="st9" d="M143.2,65.6l-0.7,5l-8,9.8l-3.2-0.5L143.2,65.6z"/>
	<path class="st9" d="M141.7,77.3l-0.7,4l-2.3-0.3L141.7,77.3z"/>
	<linearGradient id="SVGID_4_" gradientUnits="userSpaceOnUse" x1="151.8696" y1="164.2468" x2="93.4858" y2="35.14">
		<stop  offset="0" style="stop-color:#FDB400"/>
		<stop  offset="0.2777" style="stop-color:#FFFA85"/>
		<stop  offset="0.8859" style="stop-color:#C79000"/>
	</linearGradient>
	<polygon class="st11" points="132.3,58.1 132.3,58.1 132.1,59.5 132.1,59.5 132,60.1 131.5,64.5 131.1,66.9 130.5,71.3 130.5,71.3 
		129.8,76.3 129.8,76.4 129.4,79.7 128,90 123,126.2 122.8,127.2 122.7,128 122.7,128.4 121.6,136.4 121.3,138 111.5,138 
		111.9,133.4 112.3,128.9 112.5,125.6 112.7,124 115.2,94.2 116,84 116.5,78 116.9,72.5 117.3,67.9 117.8,62.4 117.8,61.6 
		118.1,58.3 118.2,57.1 118.3,55.8 118.4,55.8 118.5,55.8 119.7,56 119.7,56 122.1,56.4 125.5,56.9 125.6,57 130.5,57.8 130.5,57.8 
			"/>
	<linearGradient id="SVGID_5_" gradientUnits="userSpaceOnUse" x1="78.8979" y1="149.1602" x2="63.9631" y2="37.4726">
		<stop  offset="0" style="stop-color:#FDB400"/>
		<stop  offset="6.225070e-02" style="stop-color:#F5BB19"/>
		<stop  offset="0.144" style="stop-color:#ECC333"/>
		<stop  offset="0.2175" style="stop-color:#E7C742"/>
		<stop  offset="0.2753" style="stop-color:#E5C948"/>
		<stop  offset="0.8388" style="stop-color:#C79000"/>
	</linearGradient>
	<polygon class="st12" points="78.5,132.8 78.8,138 70.1,138 69.9,135.8 69.9,135.7 69.3,131.3 68.6,125.4 68.4,123.3 67.8,118.7 
		66.6,107.9 63.3,80.3 62.8,76.2 62.4,72.5 61.9,68.4 61.9,68.2 61.5,64.7 61,60.7 61,60.5 60.7,58.3 60.7,58 60.7,57.9 73.7,55.6 
		73.7,55.6 73.8,57.4 73.8,58.3 73.9,58.8 74.1,62.3 74.1,62.3 74.4,66.8 74.5,69.2 74.6,70.7 74.9,75 75.1,78.3 76.8,105.7 
		77.9,122.7 78,123.8 78.4,130.8 	"/>
	<path class="st13" d="M134.2,114.6l-1,5.4l-0.4,2.2l-0.6,3.6l-0.5,0.9l-0.7,1.3v0l-5.5,10.1H74.4l-4.5-2.2l0,0l-8.2-4.1h0l-4.5-2.2
		l0,0c-0.1,0.1-0.3-2.5-0.7-6.7c0-0.3-0.1-0.7-0.1-1c0-0.5-0.1-1.1-0.2-1.7c0-0.1,0-0.1,0-0.2c-0.2-1.8-0.3-3.9-0.5-6
		c5.2,1,9.3,3,12.3,5c3,2,5,3.9,5.9,4.9c0.4,0.4,0.6,0.6,0.6,0.6s0.4-0.2,1.1-0.5h0c0.6-0.3,1.5-0.7,2.4-1c2.5-0.8,5.9-1.5,9.1-0.6
		c1.9,0.5,3.5,1.4,4.9,2.5c0,0,0,0,0,0h0c2.3,1.8,3.9,3.8,4.6,4.8c0.1,0.2,0.2,0.3,0.3,0.4c0.1,0.1,0.1,0.1,0.1,0.1s0,0,0.1-0.2
		c0.6-0.6,3-3.1,7-4.6h0c2-0.7,4.3-1.3,7-1.3c0.6,0,1.2,0,1.7,0.1c3.1,0.2,5.5,1.1,7.2,2c0,0,0,0,0,0h0c1.2,0.6,2,1.3,2.4,1.7
		c0.3,0.2,0.4,0.4,0.4,0.4s0,0,0-0.1c0.1-0.2,0.2-0.5,0.4-1c0.1-0.2,0.2-0.5,0.3-0.7c1.2-2.5,3.4-6.8,5.8-8.8
		c2.7-2.2,4.1-2.7,4.6-2.8C134.1,114.6,134.2,114.6,134.2,114.6z"/>
	<path class="st14" d="M66.6,138c1-0.8,2-1.6,3.2-2.2c0,0,0,0,0,0c1.9-1.1,4-2,6.3-2.5c0.8-0.2,1.6-0.4,2.4-0.5
		c1.3-0.2,2.7-0.3,4.1-0.3c5.2,0,9.9,1.5,13.7,3.9c0.8,0.5,1.6,1.1,2.3,1.7H66.6z"/>
	<path class="st14" d="M123.6,138h-23.3c3.1-2.9,7.2-4.6,11.6-4.6c1.2,0,2.4,0.1,3.7,0.4c0.6,0.1,1.2,0.3,1.7,0.5
		c1.5,0.5,3,1.2,4.3,2.1C122.3,136.8,123,137.4,123.6,138z"/>
	<path class="st14" d="M160.4,138h-44.6c0.2-0.7,0.5-1.4,0.8-2.1c0.2-0.5,0.5-1.1,0.8-1.6c1.1-2.2,2.5-4.1,4.2-5.8
		c0.3-0.3,0.5-0.5,0.8-0.8c0.2-0.2,0.3-0.3,0.5-0.5c0.1-0.1,0.2-0.2,0.3-0.3c0.3-0.2,0.6-0.5,0.9-0.7c2.6-2,5.6-3.3,8.8-4.1
		c0,0,0.1,0,0.1,0c4.6-1.1,9.5-0.7,14.2,1.2c2.1,0.9,4,2,5.7,3.4c0,0,0,0,0.1,0C156.5,129.8,159,133.7,160.4,138z"/>
	<path class="st14" d="M33.6,138c1-3.2,2.7-6,4.8-8.4c3.1-3.5,7.3-6.1,11.9-7.2h0c1.9-0.5,3.9-0.7,5.9-0.7c0,0,0,0,0,0
		c1.5,0,2.9,0.2,4.4,0.5c1.2,0.2,2.3,0.5,3.3,0.9h0c1.7,0.6,3.2,1.4,4.7,2.3c2.3,1.5,4.4,3.4,6,5.6c0.5,0.7,1.1,1.5,1.5,2.2
		c0.9,1.5,1.6,3.1,2.2,4.8H33.6z"/>
	<g>
		<path class="st14" d="M16.3,57.4c0,3.2-2.7,5.8-5.8,5.8s-5.8-2.7-5.8-5.8c0-3.2,2.7-5.8,5.8-5.8C13.7,51.8,16.3,54.3,16.3,57.4z"
			/>
		<path class="st14" d="M25.5,14.8c1.6,0,2.8-1.3,2.8-2.8s-1.3-2.8-2.8-2.8s-2.8,1.3-2.8,2.8S23.9,14.8,25.5,14.8z"/>
		<path class="st14" d="M200,46.4c0,5.2-4.2,9.2-9.2,9.2c-5.2,0-9.2-4.2-9.2-9.2s4.2-9.2,9.2-9.2C195.8,37.1,200,41.3,200,46.4z"/>
		<path class="st14" d="M192.2,101.4c0,2.3-2,4.3-4.3,4.3c-2.3,0-4.3-2-4.3-4.3c0-2.3,2-4.3,4.3-4.3
			C190.2,97.1,192.2,99.1,192.2,101.4z"/>
		<path class="st14" d="M166.2,16.3c3.9,0,7-3.1,7-7s-3.1-7-7-7s-7,3.1-7,7S162.3,16.3,166.2,16.3z"/>
		<path class="st14" d="M185.5,3.8c0,1.8-1.5,3.5-3.5,3.5s-3.5-1.5-3.5-3.5c0-1.8,1.5-3.5,3.5-3.5S185.5,1.7,185.5,3.8z"/>
		<path class="st14" d="M117.3,11.4c0,1.3-1,2.3-2.3,2.3s-2.3-1-2.3-2.3s1-2.3,2.3-2.3S117.3,10.3,117.3,11.4z"/>
		<path class="st14" d="M10.3,95.4c0,2.8-2.3,5.2-5.2,5.2S0,98.3,0,95.4c0-2.8,2.3-5.2,5.2-5.2S10.3,92.6,10.3,95.4z"/>
		<path class="st14" d="M28.8,78.4c0,1.8-1.5,3.2-3.2,3.2c-1.8,0-3.2-1.5-3.2-3.2c0-1.8,1.5-3.2,3.2-3.2
			C27.5,75.3,28.8,76.6,28.8,78.4z"/>
		<path class="st14" d="M15.8,3.9c0,1.3-1,2.3-2.3,2.3s-2.3-1-2.3-2.3c0-1.3,1-2.3,2.3-2.3S15.8,2.7,15.8,3.9z"/>
		<path class="st14" d="M63.8,19.8c2.2,0,4-1.8,4-4c0-2.2-1.8-4-4-4c-2.2,0-4,1.8-4,4C59.8,18,61.6,19.8,63.8,19.8z"/>
	</g>
</g>
</svg>
