<svg width="73" height="73" viewBox="0 0 73 73" fill="none" xmlns="http://www.w3.org/2000/svg">
<path d="M72.5 25.5098C72.5 5.30976 67.7 0.509766 47.5 0.509766H25.5C5.3 0.509766 0.5 5.30976 0.5 25.5098V47.5098C0.5 67.7098 5.3 72.5098 25.5 72.5098H47.5C67.7 72.5098 72.5 67.7098 72.5 47.5098V25.5098Z" fill="white"/>
<path d="M53.1 39.8098C53 43.3098 52.2 46.8098 50.6 49.9098C48.5 53.6098 45.4 55.9098 41.5 57.2098C39.1 58.0098 36.7 58.4098 34.2 58.4098C34 58.4098 33.9 58.5098 33.6 58.5098H31.3C30.7 58.4098 30.1 58.4098 29.4 58.3098C28.7 58.2098 28.2 58.2098 27.5 58.1098C27.3 58.1098 27.2 58.0098 27.2 57.7098C27.5 55.6098 27.7 53.4098 28 51.3098C28.8 47.0098 30.3 43.1098 33 39.6098C34.8 37.2098 36.9 35.2098 39.5 33.7098C39.6 33.7098 39.6 33.6098 39.6 33.6098C39.6 33.5098 39.5 33.5098 39.5 33.5098C38.5 33.9098 37.4 34.3098 36.4 34.7098C32.8 36.4098 30 39.0098 27.9 42.5098C25.8 46.1098 24.6 49.8098 23.9 53.7098C23.8 54.6098 23.6 55.5098 23.4 56.5098C23.2 56.1098 22.9 55.7098 22.8 55.4098C21.6 53.2098 20.6 50.9098 20.1 48.4098C18.9 42.3098 20.7 37.4098 25.5 33.5098C27.5 31.9098 29.8 30.9098 32.2 29.9098C35.4 28.6098 38.3 27.0098 40.8 24.6098C42.5 22.9098 43.8 21.0098 44.2 18.6098C44.5 17.3098 44.5 16.0098 44.1 14.5098C44.3 14.7098 44.4 14.8098 44.5 15.0098C47.9 19.9098 50.6 25.2098 52 31.0098C52.9 33.9098 53.2 36.9098 53.1 39.8098Z" fill="#17CF7B"/>
<path d="M27.5 20.0102C27.5 21.2102 26.6 22.1102 25.4 22.1102C24.2 22.1102 23.3 21.2102 23.3 20.0102C23.3 18.8102 24.3 17.9102 25.4 17.9102C26.5 17.9102 27.4 18.8102 27.5 20.0102Z" fill="#17CF7B"/>
<path d="M39.7 21.0094C39.7 22.1094 38.9 22.9094 37.8 22.9094C36.7 22.9094 35.9 22.1094 35.9 21.0094C35.9 20.0094 36.8 19.1094 37.8 19.1094C38.8 19.1094 39.7 19.9094 39.7 21.0094Z" fill="#17CF7B"/>
<path d="M23.5 29.41C23.5 30.01 22.9 30.61 22.3 30.61C21.6 30.61 21.1 30.11 21.1 29.41C21.1 28.81 21.7 28.21 22.3 28.21C22.9 28.31 23.5 28.81 23.5 29.41Z" fill="#17CF7B"/>
<path d="M26.9 28.2102C26.9 28.7102 26.6 29.0102 26.1 29.0102C25.6 29.0102 25.3 28.7102 25.3 28.2102C25.3 27.8102 25.7 27.4102 26.1 27.4102C26.6 27.4102 26.9 27.8102 26.9 28.2102Z" fill="#17CF7B"/>
<path d="M32.6 25.01C32.6 25.31 32.3 25.61 31.9 25.61C31.6 25.61 31.3 25.31 31.3 25.01C31.3 24.71 31.6 24.41 32 24.41C32.4 24.31 32.6 24.61 32.6 25.01Z" fill="#17CF7B"/>
</svg>
