<svg width="73" height="73" viewBox="0 0 73 73" fill="none" xmlns="http://www.w3.org/2000/svg">
<g clip-path="url(#clip0_471_3696)">
<path d="M72.5 25.5098C72.5 5.30976 67.7 0.509766 47.5 0.509766H25.5C5.3 0.509766 0.5 5.30976 0.5 25.5098V47.5098C0.5 67.7098 5.3 72.5098 25.5 72.5098H47.5C67.7 72.5098 72.5 67.7098 72.5 47.5098V25.5098Z" fill="white"/>
<g clip-path="url(#clip1_471_3696)">
<path d="M32.6441 15C33.206 15.5504 33.7679 16.1009 34.3298 16.6513C36.4513 18.7727 38.5727 20.8827 40.6827 23.0042C40.7974 23.1188 40.9121 23.222 40.9923 23.3597C41.1643 23.6349 41.1185 23.9216 40.8891 24.1394C40.6598 24.3573 40.3731 24.3802 40.0979 24.2082C39.9717 24.128 39.8571 24.0018 39.7539 23.8872C37.6553 21.8116 35.5683 19.7245 33.4812 17.6375C33.3666 17.5228 33.2748 17.3967 33.1028 17.2017C33.0799 17.4196 33.057 17.5228 33.057 17.626C33.057 20.2176 33.057 22.8092 33.0455 25.4123C33.0455 25.676 33.1258 25.8251 33.3551 25.9513C34.777 26.754 36.199 27.5567 37.6095 28.3823C37.8732 28.5314 38.0108 28.5085 38.2287 28.3021C40.2355 26.2723 42.2537 24.2656 44.272 22.2473C44.8109 21.7084 45.0632 21.7084 45.6022 22.2473C47.4255 24.0706 49.2488 25.9054 51.0835 27.7172C51.3702 28.0039 51.4849 28.3021 51.4849 28.7034C51.4734 31.9831 51.4849 35.2627 51.4734 38.5538C51.4734 38.8634 51.3932 39.2075 51.2556 39.4941C50.5446 40.9505 49.7992 42.3839 49.0882 43.8402C48.985 44.0581 48.9162 44.3219 48.9162 44.5741C48.9048 46.191 48.8933 47.8079 48.9162 49.4363C48.9162 49.8835 48.7671 50.1816 48.3658 50.411C46.6572 51.3742 44.96 52.3604 43.2743 53.3581C42.8959 53.576 42.5748 53.576 42.1964 53.3466C40.9465 52.6012 39.6621 51.8903 38.4122 51.1449C38.1714 51.0073 37.9994 50.9729 37.7585 51.1334C37.3228 51.4201 36.8756 51.6724 36.4169 51.9132C36.1875 52.0279 36.1302 52.177 36.1302 52.4292C36.1417 53.6218 36.1187 54.8144 36.1417 55.9956C36.1531 56.4543 35.9811 56.7409 35.5798 56.9588C34.4789 57.5666 33.3895 58.1973 32.3116 58.8509C31.9217 59.0803 31.6006 59.1032 31.1993 58.8624C28.3783 57.2226 25.5459 55.5827 22.7135 53.9659C22.335 53.748 22.163 53.4728 22.163 53.037C22.186 52.0623 22.163 51.0876 22.1745 50.1128C22.1745 49.7803 22.3121 49.528 22.6561 49.4363C22.9657 49.356 23.2409 49.4477 23.3786 49.7574C23.4474 49.895 23.4588 50.0555 23.4588 50.2161C23.4703 51.0073 23.4474 51.7985 23.4703 52.5783C23.4703 52.7389 23.585 52.9682 23.7226 53.0485C24.5368 53.553 25.3739 54.0232 26.211 54.4934C26.2798 54.5392 26.3601 54.5622 26.4862 54.608C26.4862 54.4245 26.4862 54.2869 26.4862 54.1379C26.4862 51.6724 26.4862 49.2069 26.4977 46.7415C26.4977 46.4318 26.4174 46.2484 26.1307 46.0993C25.2592 45.6177 24.3991 45.1131 23.4588 44.5741C23.4588 45.4227 23.4588 46.191 23.4588 46.9593C23.4588 47.1199 23.4588 47.2804 23.4588 47.4295C23.4359 47.8423 23.1951 48.1061 22.8281 48.1061C22.4726 48.1175 22.186 47.8538 22.1745 47.4524C22.1516 46.9937 22.163 46.5351 22.163 46.0764C22.163 44.5168 22.1745 42.9573 22.163 41.3862C22.163 41.0308 22.2662 40.767 22.5185 40.5147C24.5368 38.5194 26.5321 36.5012 28.5388 34.4944C29.009 34.0242 29.2957 34.0242 29.7658 34.5059C31.7497 36.4897 33.7335 38.485 35.7288 40.4574C36.004 40.7326 36.1187 41.0193 36.1187 41.4092C36.1073 44.2875 36.1187 47.1658 36.1187 50.0555C36.1187 50.2046 36.1187 50.3651 36.1187 50.5945C36.543 50.3537 36.9214 50.1587 37.254 49.9294C37.3572 49.8606 37.4031 49.6656 37.4031 49.528C37.4145 48.6106 37.3801 47.6932 37.426 46.7759C37.4375 46.5236 37.5865 46.2025 37.7815 46.0649C38.1943 45.7782 38.6874 46.1337 38.6989 46.6956C38.7103 47.613 38.7103 48.5304 38.6989 49.4477C38.6989 49.7459 38.7791 49.9064 39.0429 50.0555C40.0405 50.6059 41.0267 51.1908 42.0702 51.7871C42.0817 51.5921 42.0932 51.4545 42.0932 51.3284C42.0932 46.042 42.0932 40.7555 42.1046 35.4576C42.1046 35.148 42.0129 34.976 41.7377 34.8155C40.8776 34.3453 40.0405 33.8522 39.2034 33.3706C39.0658 33.2903 38.9282 33.2215 38.7103 33.1069C38.7103 33.3362 38.7103 33.5082 38.7103 33.6688C38.7103 37.0057 38.7103 40.3427 38.7103 43.6912C38.7103 44.3563 38.5154 44.6659 38.0796 44.6773C37.6324 44.6888 37.4145 44.3563 37.4145 43.6682C37.4145 39.196 37.4145 34.7237 37.426 30.2515C37.426 29.8845 37.3228 29.6896 37.0017 29.5176C35.5568 28.7149 34.1349 27.8892 32.7129 27.0636C32.5065 26.9375 32.346 26.9375 32.1281 27.0636C31.4515 27.4764 30.775 27.8663 30.0869 28.2447C29.869 28.3709 29.8002 28.5085 29.8002 28.7493C29.8117 29.8501 29.8002 30.951 29.8002 32.0633C29.8002 32.4303 29.6856 32.717 29.3071 32.8202C28.8714 32.9348 28.5159 32.6252 28.5159 32.1207C28.5044 31.0427 28.493 29.9648 28.5274 28.8984C28.5388 28.5314 28.4127 28.3365 28.0916 28.1645C27.4265 27.809 26.7729 27.4191 26.0619 27.0063C26.0504 27.2127 26.039 27.3617 26.039 27.5108C26.039 29.9648 26.039 32.4073 26.039 34.8613C26.039 34.999 26.0504 35.148 26.0275 35.2856C25.9702 35.6067 25.7523 35.8361 25.4427 35.8017C25.2133 35.7673 24.984 35.5723 24.8234 35.3888C24.7317 35.2856 24.7546 35.0563 24.7546 34.8958C24.7546 30.9281 24.7546 26.9604 24.7432 22.9812C24.7432 22.5913 24.8578 22.3047 25.1331 22.0294C27.3348 19.8048 29.548 17.5916 31.7611 15.3899C31.8988 15.2523 32.0593 15.1261 32.2198 15C32.3574 15 32.4951 15 32.6441 15ZM43.3775 51.7527C44.7765 50.95 46.0953 50.1931 47.3911 49.4133C47.5057 49.3445 47.586 49.1152 47.586 48.9547C47.5975 47.418 47.586 45.8929 47.609 44.3563C47.609 44.0466 47.6892 43.7026 47.8268 43.4159C48.5378 41.9481 49.2832 40.5033 50.0171 39.0354C50.0974 38.8634 50.1776 38.657 50.1776 38.4735C50.1891 37.1319 50.1776 35.7787 50.1891 34.4371C50.1891 34.2077 50.1203 34.0816 49.9139 33.9669C49.2029 33.577 48.4919 33.1642 47.7924 32.7399C47.5745 32.6023 47.414 32.6367 47.2076 32.7628C46.0609 33.4394 44.9141 34.1045 43.7445 34.7581C43.4578 34.9187 43.3661 35.1022 43.3661 35.4232C43.3775 40.6982 43.3775 45.9732 43.3775 51.2481C43.3775 51.3972 43.3775 51.5348 43.3775 51.7527ZM34.8229 42.2692C34.7197 42.3036 34.6738 42.3151 34.6394 42.3266C32.4263 43.5994 30.2016 44.8838 27.9884 46.1681C27.8623 46.2369 27.7705 46.4548 27.7705 46.6153C27.7591 49.4248 27.7591 52.2343 27.7705 55.0323C27.7705 55.1929 27.8967 55.4107 28.0343 55.491C29.1581 56.1676 30.3163 56.8097 31.4401 57.4748C31.6579 57.601 31.8185 57.5895 32.0249 57.4634C32.8161 56.9932 33.5959 56.5231 34.4101 56.0873C34.7312 55.9153 34.8459 55.7204 34.8459 55.3534C34.8344 51.1564 34.8344 46.9593 34.8344 42.7623C34.8229 42.6247 34.8229 42.4756 34.8229 42.2692ZM29.1122 35.7099C29.009 35.8131 28.9058 35.9049 28.8026 36.0081C27.3233 37.4874 25.8899 39.0125 24.3418 40.423C23.6194 41.0881 23.2754 41.7876 23.4474 42.7394C23.4818 42.9114 23.585 43.1178 23.7226 43.1981C24.7432 43.8058 25.7752 44.3907 26.7958 44.9984C27.0481 45.1475 27.2201 45.1246 27.4494 44.987C29.6397 43.7141 31.83 42.4527 34.0317 41.1798C34.1463 41.111 34.261 41.0422 34.3757 40.9734C32.6097 39.2075 30.8782 37.4759 29.1122 35.7099ZM44.96 23.3826C44.8109 23.5202 44.7077 23.6234 44.6045 23.7151C42.9991 25.3206 41.4281 26.9833 39.7539 28.5314C38.9167 29.2997 38.5039 30.1024 38.6874 31.2147C38.6874 31.2262 38.6874 31.2492 38.6874 31.2606C38.7791 31.4212 38.8365 31.639 38.9741 31.7193C40.1323 32.4073 41.3019 33.0725 42.4716 33.7261C42.5977 33.7949 42.8386 33.7949 42.9647 33.7261C44.1802 33.0495 45.3728 32.35 46.5654 31.639C46.703 31.5588 46.8406 31.3409 46.8406 31.1803C46.8636 29.3226 46.8521 27.4535 46.8406 25.5958C46.8406 25.4582 46.7833 25.2747 46.6916 25.183C46.1411 24.5752 45.5678 24.0018 44.96 23.3826ZM31.7611 17.2705C31.6579 17.3279 31.6121 17.3508 31.5891 17.3737C29.7888 19.1741 27.9769 20.9745 26.188 22.7863C26.0848 22.8895 26.0275 23.0844 26.0275 23.245C26.0046 23.8757 26.0275 24.5064 26.016 25.1371C26.0046 25.3779 26.0734 25.527 26.2912 25.6531C27.1513 26.1347 27.9999 26.6508 28.8599 27.1209C28.9975 27.2012 29.2498 27.2012 29.3874 27.1209C30.064 26.754 30.7291 26.3412 31.4057 25.9742C31.6694 25.8366 31.7611 25.676 31.7611 25.3779C31.7611 23.956 31.7611 22.5569 31.7611 21.1579C31.7611 19.8851 31.7611 18.6122 31.7611 17.2705ZM48.2397 26.6966C48.2053 26.7769 48.1708 26.8113 48.1708 26.8457C48.1708 28.3135 48.1594 29.7928 48.1708 31.2606C48.1708 31.3524 48.2053 31.4785 48.2741 31.5244C48.8933 31.9028 49.5125 32.2583 50.1891 32.6482C50.1891 31.318 50.1891 30.068 50.1891 28.8296C50.1891 28.7378 50.1662 28.6231 50.0974 28.5543C49.4781 27.9351 48.8704 27.3159 48.2397 26.6966Z" fill="#FF93C1"/>
<path d="M50.9575 15.0005C51.3932 15.2069 51.6341 15.5624 51.7258 16.0096C51.8978 16.7894 52.0813 17.5691 52.2304 18.3604C52.2877 18.6241 52.4024 18.7617 52.6546 18.8191C53.0216 18.8994 53.3656 19.014 53.7211 19.1287C53.939 19.1975 54.1569 19.2663 54.3633 19.3695C54.7188 19.5301 55.0054 19.7594 55.0054 20.1952C55.0054 20.6424 54.7302 20.8832 54.3747 21.0208C53.8587 21.2157 53.3197 21.3878 52.7808 21.5368C52.4368 21.6286 52.2533 21.7776 52.196 22.1561C52.1042 22.7868 51.9437 23.4175 51.8061 24.0482C51.7717 24.2202 51.7258 24.3807 51.6685 24.5413C51.4735 25.1032 51.1983 25.3669 50.7969 25.3554C50.4071 25.3554 50.086 25.0802 49.9369 24.5183C49.7305 23.7271 49.5585 22.9358 49.4094 22.1331C49.3406 21.7891 49.1801 21.6286 48.8475 21.5368C48.32 21.3992 47.804 21.2387 47.2994 21.0437C46.921 20.9061 46.6114 20.6653 46.5999 20.2066C46.5884 19.7365 46.9095 19.4727 47.2994 19.3351C47.804 19.1516 48.3315 18.9796 48.8475 18.842C49.1801 18.7503 49.3406 18.6012 49.4094 18.2457C49.547 17.4774 49.7305 16.7091 49.914 15.9408C50.0172 15.505 50.258 15.161 50.6823 14.9775C50.7855 15.0005 50.8772 15.0005 50.9575 15.0005ZM50.7969 22.3854C51.3015 20.4704 51.1868 20.7456 52.7464 20.1608C51.3932 20.069 50.9575 19.1746 50.8199 17.982C50.6823 19.1631 50.2694 20.069 48.8819 20.2066C50.2809 20.3213 50.6823 21.2157 50.7969 22.3854Z" fill="#FF93C1"/>
<path d="M23.4465 27.5454C23.4465 28.6233 22.5979 29.4833 21.52 29.4833C20.4535 29.4833 19.582 28.6004 19.582 27.5454C19.5935 26.5018 20.4421 25.6418 21.4971 25.6303C22.5635 25.6074 23.435 26.4674 23.4465 27.5454ZM22.1507 27.5683C22.1622 27.2014 21.8755 26.9147 21.5085 26.9147C21.176 26.9147 20.8778 27.2014 20.8664 27.5339C20.8549 27.8665 21.1301 28.1646 21.4741 28.1761C21.8411 28.199 22.1392 27.9353 22.1507 27.5683Z" fill="#FF93C1"/>
<path d="M47.6084 53.4038C47.6084 52.3259 48.4684 51.4658 49.5464 51.4658C50.6128 51.4658 51.4843 52.3488 51.4843 53.4038C51.4729 54.4473 50.6128 55.3188 49.5693 55.3303C48.4914 55.3418 47.6084 54.4588 47.6084 53.4038ZM49.5464 52.7502C49.2024 52.7387 48.9157 53.0139 48.8927 53.3579C48.8698 53.7134 49.1565 54.0345 49.512 54.0345C49.8675 54.046 50.1771 53.7363 50.1656 53.3809C50.1771 53.0483 49.8904 52.7616 49.5464 52.7502Z" fill="#FF93C1"/>
<path d="M19.5137 33.577C19.5137 33.1641 19.5022 32.7857 19.5137 32.4188C19.5251 31.9257 19.7774 31.6275 20.1788 31.639C20.5572 31.6505 20.798 31.9257 20.798 32.4073C20.8095 32.7513 20.8095 33.0953 20.8095 33.4394C20.8095 33.4623 20.8324 33.4967 20.8668 33.577C21.1076 33.577 21.3714 33.5655 21.6351 33.577C22.048 33.5884 22.3117 33.8292 22.3232 34.1847C22.3346 34.5631 22.0709 34.8384 21.6466 34.8613C21.3829 34.8728 21.1076 34.8613 20.798 34.8613C20.798 35.2971 20.8095 35.6755 20.798 36.0654C20.7866 36.5241 20.5687 36.7763 20.1788 36.7878C19.7774 36.7993 19.5251 36.5355 19.5137 36.0654C19.5022 35.6869 19.5137 35.2971 19.5137 34.8728C19.2041 34.8728 18.9289 34.8842 18.6651 34.8728C18.2523 34.8384 18 34.5746 18 34.2191C18 33.8522 18.2523 33.5999 18.6536 33.577C18.9289 33.5655 19.1926 33.577 19.5137 33.577Z" fill="#FF93C1"/>
<path d="M54.1912 26.5245C53.8128 26.5245 53.5146 26.2264 53.5146 25.8365C53.5146 25.4581 53.8243 25.1484 54.1912 25.1484C54.5582 25.1484 54.8678 25.4695 54.8678 25.8365C54.8678 26.2264 54.5696 26.5245 54.1912 26.5245Z" fill="#FF93C1"/>
<path d="M21.6925 37.7852C22.0595 37.7852 22.3691 38.1062 22.3691 38.4732C22.3691 38.8402 22.048 39.1612 21.681 39.1498C21.3141 39.1498 21.0045 38.8402 21.0159 38.4617C21.0159 38.0833 21.3141 37.7852 21.6925 37.7852Z" fill="#FF93C1"/>
<path d="M46.6568 55.0557C47.0352 55.0557 47.3448 55.3538 47.3448 55.7322C47.3448 56.0992 47.0352 56.4203 46.6568 56.4203C46.2898 56.4203 45.9688 56.1107 45.9688 55.7437C45.9688 55.3538 46.2669 55.0671 46.6568 55.0557Z" fill="#FF93C1"/>
</g>
</g>
<defs>
<clipPath id="clip0_471_3696">
<rect width="72" height="72" fill="white" transform="translate(0.5 0.509766)"/>
</clipPath>
<clipPath id="clip1_471_3696">
<rect width="37.0279" height="44" fill="white" transform="translate(18 15)"/>
</clipPath>
</defs>
</svg>
