<svg width="113" height="113" viewBox="0 0 113 113" fill="none" xmlns="http://www.w3.org/2000/svg">
<path d="M20.5781 68.1607C21.2876 68.1607 22.1746 68.3381 23.0615 68.3381C23.9484 68.3381 24.8353 68.3381 25.7222 68.3381C27.4961 68.3381 29.2699 68.1607 31.2211 67.9833C34.7688 67.4511 38.4939 66.919 42.0415 65.8547C49.1369 64.0809 56.0548 61.2427 62.618 57.6951C64.2145 56.8081 65.8109 55.7438 67.4074 54.8569L69.8908 53.4378L72.1967 51.8414C73.7932 50.7771 75.2123 49.7128 76.8087 48.4711L81.0659 44.746L83.1945 42.9722L85.1457 41.021L89.2256 36.9412C91.7089 34.2804 94.0149 31.2649 96.4983 28.4268C94.1923 31.4423 92.0637 34.6352 89.7577 37.6507L86.0327 41.9079L84.0814 44.0365L82.1302 46.1651L78.0504 50.2449C76.6313 51.4866 75.2123 52.7283 73.6158 53.97L71.4872 55.7438L69.1812 57.3403C67.5848 58.4046 66.1657 59.6463 64.3919 60.7106C57.8287 64.9678 50.9107 68.3381 43.4606 70.8214C39.7355 72.0631 36.0105 73.1274 32.108 73.837C30.1568 74.1917 28.2056 74.5465 26.2544 74.7239C25.1901 74.9013 24.3032 74.9013 23.2389 75.0786C22.1746 75.0786 21.2876 75.256 20.046 75.256C18.0947 75.256 16.4983 73.6596 16.4983 71.7084C16.4983 69.7571 18.0947 68.1607 20.046 68.1607C20.4007 68.1607 20.4007 68.1607 20.5781 68.1607Z" fill="#ABB2BA"/>
<path d="M79.292 63.0159V62.8385C79.292 62.8385 79.292 62.6611 79.1147 62.6611C79.1147 62.6611 79.1147 62.6611 78.9373 62.6611C78.7599 62.6611 78.7599 62.6611 78.5825 62.6611C78.4051 62.6611 78.4051 62.6611 78.4051 62.6611C78.4051 62.6611 78.4051 62.6611 78.2277 62.6611C78.2277 62.6611 73.0836 65.854 66.1657 67.9826C65.8109 68.16 65.4561 68.5148 65.6335 69.0469C65.8109 69.4017 66.1657 69.7565 66.6978 69.5791C70.4229 68.3374 73.6158 67.0957 75.9218 65.854C72.1967 69.9339 62.9728 77.384 42.2189 81.9959C41.8641 82.1733 41.5093 82.5281 41.5093 82.8829C41.5093 83.2376 41.8641 83.5924 42.2189 83.5924H42.3963C60.4894 79.69 70.0681 73.4815 74.8575 69.2243C74.1479 70.2886 73.4384 71.3529 72.7289 72.2399C72.3741 72.5946 72.5515 73.1268 72.9062 73.3041C73.0836 73.4815 73.261 73.4815 73.4384 73.4815C73.6158 73.4815 73.9705 73.3042 74.1479 73.1268C76.9861 69.5791 79.292 63.9028 79.4694 63.5481C79.292 63.3707 79.292 63.1933 79.292 63.0159C79.292 63.1933 79.292 63.1933 79.292 63.0159Z" fill="#E81F76"/>
<path d="M28.2056 48.2932C26.4317 45.9872 24.8353 44.3908 24.4805 41.5527C24.4805 41.1979 24.1258 41.0205 23.9484 41.0205C23.771 41.0205 23.5936 41.0205 23.5936 41.1979C23.5936 41.1979 23.5936 41.1979 23.4162 41.3753C19.8686 45.2777 14.7244 53.7921 18.9816 57.872C19.5138 58.4041 20.4007 58.9363 21.465 59.291C25.1901 60.7101 29.6247 58.7589 30.3342 54.679C30.689 52.3731 29.6247 49.8897 28.2056 48.2932ZM22.5293 57.5172C17.5626 56.2755 20.2233 51.3088 20.2233 51.3088C21.1102 55.2112 23.4162 53.9695 24.4805 54.679C25.3674 55.566 25.3674 58.0493 22.5293 57.5172Z" fill="#E81F76"/>
</svg>
