<svg width="113" height="113" viewBox="0 0 113 113" fill="none" xmlns="http://www.w3.org/2000/svg">
<g clip-path="url(#clip0_328_589)">
<path d="M20.8966 79.2742C22.6853 79.5994 24.7991 79.9246 26.7503 79.9246C28.8641 80.0872 30.8153 80.0872 32.9292 79.9246C36.9942 79.762 41.2218 79.1116 45.1243 78.2986C53.2544 76.3474 60.8966 72.9328 67.7259 68.0547C74.5552 63.1767 80.4088 56.9978 85.1243 49.8433C90.0023 42.8515 93.7422 35.0466 96.8316 27.0791C94.3926 35.3718 90.9779 43.3393 86.5877 50.8189C82.1975 58.2986 76.5064 65.1279 69.6771 70.6563C62.8479 76.1848 54.8804 80.4124 46.4251 83.0141C42.1975 84.3149 37.8072 85.1279 33.2544 85.6157C30.9779 85.7783 28.8641 85.9409 26.5877 85.9409C24.3113 85.9409 22.1975 85.9409 19.5958 85.6157C17.8072 85.4531 16.5064 83.6645 16.8316 82.0384C16.9942 80.2498 18.7828 78.949 20.4088 79.2742C20.734 79.1116 20.734 79.1116 20.8966 79.2742Z" fill="black"/>
<path d="M20.734 67.404C23.3357 67.8918 26.4251 68.0544 29.3519 68.0544C32.2788 68.0544 35.2056 67.8918 38.1324 67.5666C43.9861 66.9162 49.6771 65.6154 55.2056 63.5015C60.734 61.3877 65.9373 58.2983 70.3275 54.3958C74.8804 50.4934 78.6202 45.6154 81.547 40.4121C79.108 45.9406 75.6934 51.1438 71.4657 55.5341C67.2381 59.9243 62.0349 63.6641 56.5064 66.4284C50.9779 69.1926 44.9617 71.1438 38.7828 72.282C35.6934 72.9324 32.604 73.2576 29.5145 73.5828C26.4251 73.7454 23.3357 73.908 19.921 73.7454C18.1324 73.5828 16.8316 72.1194 16.8316 70.3308C16.9942 68.5422 18.4576 67.2414 20.2462 67.2414C20.4088 67.404 20.5714 67.404 20.734 67.404Z" fill="black"/>
<path d="M20.5714 56.6727C24.6365 57.1605 29.0267 57.3231 33.417 57.3231C37.8072 57.1605 42.0349 56.8353 46.2625 55.8597C50.4901 55.0467 54.7178 53.7458 58.6202 51.7946C60.5714 50.819 62.3601 49.6808 64.1487 48.38C65.9373 47.0792 67.5633 45.4532 68.8641 43.8271C67.5633 45.6158 66.2625 47.4044 64.6365 49.0304C63.0105 50.6564 61.2218 51.9572 59.4332 53.258C55.6934 55.6971 51.4657 57.6483 47.2381 59.1117C42.8479 60.5751 38.4576 61.5507 33.9048 62.2011C29.3519 62.8515 24.7991 63.1767 20.0836 63.1767C18.295 63.1767 16.8316 61.7133 16.8316 59.9247C16.8316 58.1361 18.295 56.6727 20.0836 56.6727C20.2462 56.6727 20.4088 56.6727 20.5714 56.6727Z" fill="black"/>
<path fill-rule="evenodd" clip-rule="evenodd" d="M41.0913 40.8456C41.2314 40.8988 41.4117 41.0474 41.4519 41.1427L44.1595 45.6148C44.5004 46.1447 45.2807 46.0405 45.48 45.3954L47.074 40.2341C47.1339 40.0967 47.2937 39.9171 47.3937 39.875L52.2128 37.0597C52.7727 36.7116 52.6916 35.96 52.031 35.7893L46.7862 34.5185C46.646 34.4653 46.4657 34.3167 46.4255 34.2214L43.7179 29.7493C43.377 29.2194 42.5967 29.3236 42.3974 29.9687L40.8034 35.1299C40.7436 35.2674 40.5837 35.447 40.4837 35.4891L35.6646 38.3044C35.1048 38.6524 35.1858 39.404 35.8464 39.5748L41.0913 40.8456Z" fill="#E81F76"/>
<path fill-rule="evenodd" clip-rule="evenodd" d="M63.0967 31.7508C63.0825 31.8282 63.0228 31.9354 62.9773 31.9652L60.9228 33.7866C60.6812 34.0128 60.8088 34.4061 61.1609 34.4481L63.978 34.7839C64.0546 34.8018 64.1625 34.8674 64.1937 34.9151L66.1036 37.1387C66.3363 37.3951 66.7169 37.2822 66.7427 36.9247L66.9036 34.095C66.9179 34.0176 66.9776 33.9104 67.023 33.8807L69.0776 32.0592C69.3191 31.833 69.1916 31.4397 68.8394 31.3978L66.0224 31.062C65.9457 31.044 65.8378 30.9784 65.8066 30.9307L63.8968 28.7071C63.664 28.4507 63.2834 28.5636 63.2576 28.9211L63.0967 31.7508Z" fill="#E81F76"/>
</g>
<defs>
<clipPath id="clip0_328_589">
<rect width="80" height="58.8618" fill="white" transform="translate(16.8316 27.0791)"/>
</clipPath>
</defs>
</svg>
