<svg width="113" height="113" viewBox="0 0 113 113" fill="none" xmlns="http://www.w3.org/2000/svg">
<path d="M20.2448 68.2437C20.9543 68.2437 21.8412 68.4211 22.7282 68.4211C23.6151 68.4211 24.502 68.4211 25.3889 68.4211C27.1627 68.4211 28.9366 68.2437 30.8878 68.0663C34.4355 67.5342 38.1605 67.002 41.7082 65.9377C48.8035 64.1639 55.7215 61.3257 62.2847 57.7781C63.8812 56.8911 65.4776 55.8268 67.0741 54.9399L69.5574 53.5209L71.8634 51.9244C73.4599 50.8601 74.8789 49.7958 76.4754 48.5541L80.7326 44.8291L82.8612 43.0552L84.8124 41.104L88.8922 37.0242C91.3756 34.3634 93.6816 31.3479 96.165 28.5098C93.859 31.5253 91.7304 34.7182 89.4244 37.7337L85.6993 41.9909L83.7481 44.1195L81.7969 46.2481L77.7171 50.3279C76.298 51.5696 74.8789 52.8113 73.2825 54.053L71.1539 55.8268L68.8479 57.4233C67.2514 58.4876 65.8324 59.7293 64.0585 60.7936C57.4953 65.0508 50.5774 68.4211 43.1273 70.9044C39.4022 72.1461 35.6772 73.2104 31.7747 73.92C29.8235 74.2747 27.8723 74.6295 25.9211 74.8069C24.8568 74.9843 23.9698 74.9843 22.9055 75.1616C21.8412 75.1616 20.9543 75.339 19.7126 75.339C17.7614 75.339 16.165 73.7426 16.165 71.7914C16.165 69.8401 17.7614 68.2437 19.7126 68.2437C20.0674 68.2437 20.0674 68.2437 20.2448 68.2437Z" fill="black"/>
<path d="M35.4998 73.2105C34.4355 73.5653 33.1938 73.7427 32.1295 74.0974C32.4843 76.5808 32.3069 78.532 32.1295 79.5963C31.42 78.7094 30.533 77.113 29.6461 74.6296C29.2914 73.5653 28.9366 72.3236 28.5818 70.9045C28.4044 70.0176 28.2271 69.1307 28.0497 68.2438C27.5175 65.0509 27.5175 62.7449 27.6949 61.5032C28.4044 62.5675 29.6461 64.6961 30.533 68.0664H30.7104C31.7747 67.889 32.839 67.7116 34.0807 67.5343C33.3712 65.0509 32.4843 62.9223 31.5973 61.1484C30.0009 58.3103 28.4044 57.0686 26.6306 57.4234C24.8568 57.7782 23.9698 59.7294 23.7925 62.9223C23.7925 63.0997 23.7925 63.4544 23.7925 63.6318C23.7925 65.0509 23.9698 66.6473 24.1472 68.2438C24.3246 69.3081 24.502 70.3724 24.8568 71.4367C25.2115 72.6784 25.3889 73.7427 25.7437 74.807C26.2758 76.5808 26.9854 78.3547 27.6949 79.5963C29.4687 82.2571 30.8878 83.4988 32.3069 83.4988C32.4843 83.4988 32.6616 83.4988 33.0164 83.4988C34.7902 83.144 35.6772 81.1928 35.6772 77.9999C35.8545 76.5808 35.6772 74.9844 35.4998 73.2105Z" fill="#E81F76"/>
<path d="M43.4825 70.9058C43.3051 70.9058 43.3051 70.9058 43.1277 71.0832C42.5955 71.2606 41.8859 71.438 41.1764 71.6154C41.3538 72.8571 41.1764 73.7441 41.1764 74.0989C40.8216 73.7441 40.4668 73.0345 40.112 71.9702C39.9346 71.6154 39.9346 71.438 39.7572 71.0832C39.5798 70.3736 39.225 69.664 39.0476 68.7771C38.8702 68.2449 38.8702 67.7127 38.6928 67.1805C38.6928 67.0031 38.6928 66.8257 38.6928 66.6483C38.5154 64.8744 38.5154 63.6326 38.5154 63.1004C38.8702 63.6326 39.5798 64.697 40.112 66.2935C40.6442 66.1161 41.1764 66.1161 41.5312 65.9387C41.7085 65.9387 42.0633 65.7614 42.2407 65.7614C41.8859 64.697 41.5312 63.6326 40.999 62.7456C40.112 60.9717 39.0476 60.2621 37.9833 60.4395C36.9189 60.6169 36.3867 61.8587 36.2093 63.81C36.2093 63.9874 36.2093 64.1648 36.2093 64.3422C36.2093 65.2292 36.2093 66.1161 36.3867 67.0031V67.1805C36.5641 67.8901 36.5641 68.4223 36.7415 69.1318C36.9189 69.8414 37.0963 70.551 37.2737 71.2606C37.4511 71.6154 37.6285 72.1475 37.8059 72.5023C37.9833 73.2119 38.3381 73.7441 38.6928 74.2763C39.5798 75.8728 40.4668 76.5824 41.3538 76.5824C41.5312 76.5824 41.7085 76.5824 41.7085 76.5824C42.7729 76.405 43.3051 75.1633 43.4825 73.2119C43.6599 72.5023 43.6599 71.7928 43.4825 70.9058Z" fill="#E81F76"/>
<path d="M31.9523 74.0985C31.0654 74.2758 30.3558 74.4532 29.6462 74.4532C29.2914 73.3889 28.9366 72.1471 28.5818 70.728C28.4044 69.841 28.227 68.954 28.0497 68.067C28.9366 68.067 29.8236 67.8896 30.7106 67.8896C30.888 68.5992 31.0654 69.3088 31.2427 70.1958C31.5975 71.6149 31.7749 72.8567 31.9523 74.0985Z" fill="black"/>
</svg>
