<svg width="24" height="25" viewBox="0 0 24 25" xmlns="http://www.w3.org/2000/svg">
<g clip-path="url(#clip0_45_228)">
<path d="M20 12.5904C20 12.4761 20 12.4761 20 12.5904C20 12.4761 20 12.4761 20 12.4761C20 12.3618 20 12.2476 20 12.2476C19.8857 12.019 19.7714 11.7904 19.6571 11.7904L14.2857 6.41898C13.8286 5.96184 13.1429 5.96184 12.6857 6.41898C12.2286 6.87612 12.2286 7.56184 12.6857 8.01898L16.1143 11.4476H5.14286C4.45714 11.4476 4 11.9047 4 12.5904C4 13.2761 4.45714 13.7333 5.14286 13.7333H16.1143L12.6857 17.1618C12.2286 17.619 12.2286 18.3047 12.6857 18.7618C12.9143 18.9904 13.2571 19.1047 13.4857 19.1047C13.8286 19.1047 14.0571 18.9904 14.2857 18.7618L19.6571 13.3904C19.7714 13.2761 19.7714 13.2761 19.7714 13.1618C19.7714 13.1618 19.7714 13.0476 19.8857 13.0476C19.8857 12.9333 19.8857 12.9333 19.8857 12.819C20 12.7047 20 12.5904 20 12.5904Z"/>
</g>
<defs>
<clipPath id="clip0_45_228">
<rect width="16" height="12.9143" fill="white" transform="translate(4 6.07612)"/>
</clipPath>
</defs>
</svg>
