<svg width="25" height="25" viewBox="0 0 25 25" fill="none" xmlns="http://www.w3.org/2000/svg">
<path d="M8.03133 22.0405C5.95811 21.8321 4.18654 20.1592 3.81358 17.9873C3.67098 17.1646 3.6271 12.3764 3.6984 10.8078C3.78067 8.92652 5.01474 7.58276 6.76436 7.47855C7.96003 7.40725 7.70773 7.57179 7.87228 6.37612C8.14651 4.37968 9.53963 2.69039 11.5196 2.25161C14.2126 1.65378 16.5107 3.55698 17.0318 5.89895C17.125 6.29385 17.1085 6.69424 17.1963 7.08914C17.2457 7.33046 17.3389 7.3908 17.5528 7.43467C18.008 7.52243 18.4688 7.4621 18.9295 7.59373C20.2239 7.96121 21.1947 9.15139 21.2769 10.5664C21.3537 12.8207 21.3592 15.0639 21.266 17.2907C21.1398 19.9618 19.0721 21.8814 16.8617 22.0515C15.4083 22.1611 9.52318 22.1831 8.03133 22.0405ZM6.98375 9.23915C5.98553 9.24463 5.36576 9.89183 5.36027 10.9449C5.33834 12.7603 5.34931 14.5703 5.34931 16.3857C5.34931 16.7861 5.41512 17.1865 5.44803 17.5869C5.56321 18.8813 6.84663 20.2031 8.32202 20.2909C10.5104 20.428 12.6933 20.3676 14.8817 20.3841C15.5783 20.3896 16.2749 20.3347 16.9605 20.258C17.3554 20.2141 17.7393 20.0824 18.0848 19.8521C19.1434 19.15 19.6205 18.1134 19.6315 16.8135C19.648 14.872 19.648 12.9194 19.6315 10.9778C19.626 9.88634 19.0117 9.24463 17.9751 9.23915C16.1652 9.23366 8.83759 9.22818 6.98375 9.23915ZM15.1395 7.40177C15.3918 7.40725 15.5289 7.34143 15.518 7.02332C15.4412 5.26272 14.2016 3.86412 12.452 3.89703C10.7408 3.92994 9.57254 5.27918 9.46284 6.98493C9.44091 7.31401 9.53963 7.41273 9.84678 7.40177C10.7079 7.38531 14.2346 7.40177 15.1395 7.40177Z" fill="#E81F76"/>
<path d="M9 14.4062L11.7 17.1063" stroke="#E81F76" stroke-width="2" stroke-miterlimit="10" stroke-linecap="round" stroke-linejoin="round"/>
<path d="M16.2 12.6055L11.7 17.1055" stroke="#E81F76" stroke-width="2" stroke-miterlimit="10" stroke-linecap="round" stroke-linejoin="round"/>
</svg>
