<svg width="24" height="25" viewBox="0 0 24 25" xmlns="http://www.w3.org/2000/svg">
<path d="M7.53132 22.4331C5.45809 22.2247 3.68653 20.5519 3.31357 18.3799C3.17097 17.5572 3.12709 12.769 3.19839 11.2004C3.28066 9.31916 4.51472 7.9754 6.26435 7.87119C7.46002 7.79989 7.20772 7.96443 7.37226 6.76876C7.6465 4.77232 9.03962 3.08303 11.0196 2.64425C13.7126 2.04642 16.0107 3.94961 16.5317 6.29159C16.625 6.68649 16.6085 7.08688 16.6963 7.48178C16.7456 7.7231 16.8389 7.78343 17.0528 7.82731C17.508 7.91507 17.9687 7.85474 18.4295 7.98637C19.7239 8.35385 20.6946 9.54403 20.7769 10.9591C20.8537 13.2133 20.8592 15.4566 20.7659 17.6834C20.6398 20.3544 18.5721 22.2741 16.3617 22.4441C14.9083 22.5538 9.02316 22.5757 7.53132 22.4331ZM6.48374 9.63179C5.48552 9.63727 4.86574 10.2845 4.86026 11.3375C4.83832 13.153 4.84929 14.9629 4.84929 16.7784C4.84929 17.1788 4.91511 17.5791 4.94801 17.9795C5.06319 19.2739 6.34662 20.5957 7.82201 20.6835C10.0104 20.8206 12.1933 20.7603 14.3817 20.7767C15.0783 20.7822 15.7749 20.7274 16.4604 20.6506C16.8553 20.6067 17.2393 20.4751 17.5848 20.2447C18.6434 19.5427 19.1205 18.5061 19.1315 17.2062C19.148 15.2646 19.148 13.312 19.1315 11.3704C19.126 10.279 18.5117 9.63727 17.4751 9.63179C15.6652 9.6263 8.33757 9.62082 6.48374 9.63179ZM14.6395 7.7944C14.8918 7.79989 15.0289 7.73407 15.018 7.41596C14.9412 5.65536 13.7016 4.25676 11.952 4.28967C10.2408 4.32258 9.07252 5.67182 8.96283 7.37757C8.94089 7.70665 9.03962 7.80537 9.34676 7.7944C10.2079 7.77795 13.7345 7.7944 14.6395 7.7944Z"/>
<path d="M16.603 12.3687C16.5976 12.961 16.1533 13.4108 15.5774 13.3998C15.0838 13.3888 14.6834 12.9391 14.6834 12.3961C14.6834 11.7928 15.0673 11.3705 15.6158 11.3759C16.1643 11.3814 16.603 11.8202 16.603 12.3687Z"/>
<path d="M9.23159 12.3686C9.23159 12.8897 8.75442 13.3998 8.26628 13.3943C7.77814 13.3943 7.29549 12.8842 7.29549 12.3741C7.30097 11.8202 7.72878 11.3869 8.26628 11.3759C8.85863 11.3649 9.16578 11.7873 9.23159 12.3686Z"/>
</svg>
