<svg width="24" height="25" viewBox="0 0 24 25" xmlns="http://www.w3.org/2000/svg">
<path d="M18.2 2.53326H6.3C3.9 2.53326 2 4.43326 2 6.83326V18.6333C2 21.0333 3.9 22.9333 6.3 22.9333H18.1C20.5 22.9333 22.4 20.9333 22.4 18.6333V6.83326C22.5 4.43326 20.6 2.53326 18.2 2.53326ZM17.5 10.3333L11.1 16.7333C10.7 17.1333 10.1 17.1333 9.7 16.7333L6.9 13.9333C6.5 13.5333 6.5 12.9333 6.9 12.5333C7.3 12.1333 7.9 12.1333 8.3 12.5333L10.5 14.5333L16.2 8.83326C16.6 8.43326 17.2 8.43326 17.6 8.83326C17.9 9.33326 17.9 9.93326 17.5 10.3333Z"/>
</svg>
