<svg width="25" height="25" viewBox="0 0 25 25" xmlns="http://www.w3.org/2000/svg">
<path d="M9.70002 7.05391C9.30002 7.45391 9.30002 8.05391 9.70002 8.45391L13.2 12.0539L9.70002 15.5539C9.30002 15.9539 9.30002 16.5539 9.70002 16.9539C10.1 17.3539 10.7 17.3539 11.1 16.9539L15.4 12.7539C15.4 12.6539 15.5 12.5539 15.5 12.4539C15.5 12.4539 15.5 12.4539 15.5 12.3539C15.5 12.2539 15.6 12.1539 15.6 11.9539C15.6 11.7539 15.6 11.6539 15.5 11.5539C15.5 11.5539 15.5 11.5539 15.5 11.4539L15.4 11.3539L11.1 7.15391C10.7 6.65391 10.1 6.65391 9.70002 7.05391Z"/>
</svg>
