<svg width="24" height="25" viewBox="0 0 24 25" xmlns="http://www.w3.org/2000/svg">
<path d="M13.9333 12.4666L18.6 7.79993C19.1333 7.2666 19.1333 6.4666 18.6 5.93326C18.0667 5.39993 17.2667 5.39993 16.7333 5.93326L11.9333 10.5999L7.26667 5.93326C6.73333 5.39993 5.93333 5.39993 5.4 5.93326C4.86667 6.4666 4.86667 7.2666 5.4 7.79993L10.0667 12.4666L5.4 17.2666C4.86667 17.7999 4.86667 18.5999 5.4 19.1333C5.66667 19.3999 6.06667 19.5333 6.33333 19.5333C6.6 19.5333 7 19.3999 7.26667 19.1333L11.9333 14.4666L16.6 19.1333C16.8667 19.3999 17.2667 19.5333 17.5333 19.5333C17.8 19.5333 18.2 19.3999 18.4667 19.1333C19 18.5999 19 17.7999 18.4667 17.2666L13.9333 12.4666Z"/>
</svg>
