<svg width="33" height="33" viewBox="0 0 33 33" xmlns="http://www.w3.org/2000/svg">
<path fill-rule="evenodd" clip-rule="evenodd" d="M21.78 28.0098H11.22C7.5105 28.0098 4.5 24.9993 4.5 21.2898V10.7298C4.5 7.02027 7.5105 4.00977 11.22 4.00977H21.78C25.4895 4.00977 28.5 7.02027 28.5 10.7298V21.2898C28.5 24.9993 25.4895 28.0098 21.78 28.0098ZM21.72 7.00977H11.28C9.1935 7.00977 7.5 8.70327 7.5 10.7898V21.2298C7.5 23.3163 9.1935 25.0098 11.28 25.0098H21.72C23.8065 25.0098 25.5 23.3163 25.5 21.2298V10.7898C25.5 8.70327 23.8065 7.00977 21.72 7.00977ZM22.5 8.50977C23.328 8.50977 24 9.18177 24 10.0098C24 10.8378 23.328 11.5098 22.5 11.5098C21.672 11.5098 21 10.8378 21 10.0098C21 9.18177 21.672 8.50977 22.5 8.50977ZM16.5 10.0098C19.812 10.0098 22.5 12.6978 22.5 16.0098C22.5 19.3218 19.812 22.0098 16.5 22.0098C13.188 22.0098 10.5 19.3218 10.5 16.0098C10.5 12.6978 13.188 10.0098 16.5 10.0098ZM16.5 13.0098C18.156 13.0098 19.5 14.3538 19.5 16.0098C19.5 17.6658 18.156 19.0098 16.5 19.0098C14.844 19.0098 13.5 17.6658 13.5 16.0098C13.5 14.3538 14.844 13.0098 16.5 13.0098Z"/>
</svg>
