<svg width="34" height="34" viewBox="0 0 34 34" xmlns="http://www.w3.org/2000/svg">
<path fill-rule="evenodd" clip-rule="evenodd" d="M9.41023 21.0054C9.62182 21.217 9.83341 21.6402 9.83341 21.8518L11.3145 32.4313C11.5261 33.7009 13.0073 34.1241 13.8536 33.0661L20.6245 24.6025C20.8361 24.3909 21.2593 24.1793 21.4709 24.1793L32.262 22.6982C33.5316 22.4866 33.9548 21.0054 32.8968 20.1591L24.4332 13.5998C24.2216 13.3882 24.01 12.965 24.01 12.7534L22.5289 2.17384C22.3173 0.904299 20.8361 0.481117 19.9898 1.53907L13.2189 10.0027C13.0073 10.2143 12.5841 10.4259 12.3725 10.4259L1.58137 11.907C0.31182 12.1186 -0.111363 13.5998 0.946592 14.4461L9.41023 21.0054Z"/>
</svg>
