<svg width="19" height="19" viewBox="0 0 19 19" xmlns="http://www.w3.org/2000/svg">
<path opacity="0.5" d="M11.3544 18.6307C10.9406 18.6307 10.5268 18.3549 10.2509 18.079L7.21643 13.941L2.11291 13.1134C1.56118 12.9755 1.00945 12.5617 0.871513 12.01C0.73358 11.4582 1.00945 10.9065 1.42325 10.4927L5.56123 7.32024L6.38883 2.21673C6.52676 1.665 6.94056 1.11327 7.49229 0.975334C8.04402 0.837401 8.59576 1.11327 9.00955 1.52706L12.0441 5.66505L17.1476 6.49265C17.6993 6.63058 18.2511 7.04438 18.389 7.59611C18.6649 8.28577 18.389 8.83751 17.9752 9.2513L13.8372 12.4238L12.8717 17.3893C12.7337 17.9411 12.3199 18.4928 11.7682 18.6307C11.6303 18.6307 11.4923 18.6307 11.3544 18.6307ZM7.49229 12.2858C7.90609 12.2858 8.18195 12.5617 8.45782 12.8376L11.3544 16.8376L12.182 12.01C12.182 11.5962 12.4579 11.3203 12.7337 11.0444L16.7338 8.14784L11.9061 7.32024C11.4923 7.32024 11.2165 7.04438 10.9406 6.76851L8.04402 2.76846L7.21643 7.59611C7.21643 8.00991 6.94056 8.28577 6.66469 8.56164L2.66464 11.4582L7.49229 12.2858Z"/>
</svg>
