<svg width="25" height="25" viewBox="0 0 25 25" xmlns="http://www.w3.org/2000/svg">
<g clip-path="url(#clip0_328_843)">
<path d="M13.013 0.509766C6.29303 0.509766 0.944458 5.85834 0.944458 12.5783C0.944458 19.2983 6.29303 24.6469 13.013 24.6469C19.733 24.6469 25.0816 19.2983 25.0816 12.5783C25.0816 5.85834 19.5959 0.509766 13.013 0.509766ZM13.013 22.4526C7.52732 22.4526 3.0016 17.9269 3.0016 12.4412C3.0016 6.95548 7.52732 2.42977 13.013 2.42977C18.4987 2.42977 22.8873 7.09262 22.8873 12.5783C22.8873 18.0641 18.3616 22.4526 13.013 22.4526Z"/>
<path d="M18.0873 7.36717C17.6759 6.95574 16.9902 6.95574 16.5787 7.36717L13.013 11.07L9.17301 7.36717C8.76158 6.95574 8.21301 6.95574 7.80158 7.36717C7.39015 7.77859 7.39015 8.32717 7.80158 8.73859L11.5044 12.4415L7.80158 16.2815C7.39015 16.6929 7.39015 17.3786 7.80158 17.79C7.93873 17.9272 8.21301 18.0643 8.4873 18.0643C8.76158 18.0643 9.03587 17.9272 9.17301 17.79L12.8759 14.0872L16.5787 17.79C16.7159 17.9272 16.9902 18.0643 17.2644 18.0643C17.5387 18.0643 17.813 17.9272 17.9502 17.79C18.3616 17.3786 18.3616 16.6929 17.9502 16.2815L14.3844 12.5786L18.0873 8.73859C18.4987 8.32717 18.4987 7.77859 18.0873 7.36717Z"/>
</g>
<defs>
<clipPath id="clip0_328_843">
<rect width="24" height="24" fill="white" transform="translate(0.944458 0.509766)"/>
</clipPath>
</defs>
</svg>
