<svg width="25" height="25" viewBox="0 0 25 25" xmlns="http://www.w3.org/2000/svg">
<g clip-path="url(#clip0_328_729)">
<path d="M12.8949 24.5098C6.24871 24.5098 0.833328 19.0944 0.833328 12.5713C0.833328 6.04823 6.24871 0.509766 12.8949 0.509766C19.541 0.509766 24.9564 5.92515 24.9564 12.5713C24.9564 19.2175 19.4179 24.5098 12.8949 24.5098ZM12.8949 2.35592C7.35641 2.35592 2.67948 6.90977 2.67948 12.5713C2.67948 18.2328 7.23333 22.6636 12.8949 22.6636C18.5564 22.6636 22.9872 18.1098 22.9872 12.5713C22.9872 7.03284 18.4333 2.35592 12.8949 2.35592Z"/>
<path d="M11.418 16.3862C11.1719 16.3862 10.9257 16.2631 10.8026 16.14L7.84878 13.1862C7.47955 12.8169 7.47955 12.2016 7.84878 11.8323C8.21801 11.4631 8.83339 11.4631 9.20262 11.8323L11.418 14.0477L16.5872 8.87849C16.9565 8.50925 17.5719 8.50925 17.9411 8.87849C18.3103 9.24772 18.3103 9.8631 17.9411 10.2323L12.1565 16.0169C11.7872 16.2631 11.6642 16.3862 11.418 16.3862Z"/>
</g>
<defs>
<clipPath id="clip0_328_729">
<rect width="24" height="24" fill="white" transform="translate(0.833328 0.509766)"/>
</clipPath>
</defs>
</svg>
