<svg width="24" height="25" viewBox="0 0 24 25" xmlns="http://www.w3.org/2000/svg">
<path d="M13.4142 13.8532L20.0139 13.8532C20.7681 13.8532 21.3338 13.2875 21.3338 12.5333C21.3338 11.779 20.7681 11.2133 20.0139 11.2133L13.3199 11.1191L13.3199 4.51939C13.3199 3.76514 12.7542 3.19946 12 3.19946C11.2458 3.19946 10.6801 3.76514 10.6801 4.51939L10.6801 11.1191L3.98612 11.2133C3.23188 11.2133 2.66619 11.779 2.66619 12.5333C2.66619 12.9104 2.85475 13.2875 3.04331 13.4761C3.23188 13.6646 3.609 13.8532 3.98612 13.8532L10.5858 13.8532V20.4529C10.5858 20.83 10.7743 21.2071 10.9629 21.3957C11.1515 21.5842 11.5286 21.7728 11.9057 21.7728C12.66 21.7728 13.2257 21.2071 13.2257 20.4529L13.4142 13.8532Z"/>
</svg>
