<svg width="24" height="25" viewBox="0 0 24 25" xmlns="http://www.w3.org/2000/svg">
<path fill-rule="evenodd" clip-rule="evenodd" d="M15.949 7.41651L17.527 5.83851C17.933 5.43151 18.593 5.43151 19 5.83851C19.407 6.24551 19.407 6.90551 19 7.31151L6.473 19.8385C6.067 20.2455 5.407 20.2455 5 19.8385C4.593 19.4315 4.593 18.7715 5 18.3655L6.409 16.9565C4.823 15.4045 4 13.5455 4 12.8385C4 11.5365 6.698 6.32651 12 6.32651C13.536 6.32651 14.853 6.76351 15.949 7.41651ZM18.522 9.73052C19.505 11.0055 20 12.2805 20 12.8385C20 14.1405 17.209 19.3505 12 19.3505C11.042 19.3505 10.166 19.1745 9.374 18.8785L11.705 16.5475C11.802 16.5555 11.901 16.5595 12 16.5595C14.047 16.5595 15.721 14.8855 15.721 12.8385C15.721 12.7395 15.717 12.6405 15.709 12.5435L18.522 9.73052ZM13.787 9.57751C13.256 9.28451 12.647 9.11751 12 9.11751C9.953 9.11751 8.279 10.7915 8.279 12.8385C8.279 13.4855 8.446 14.0945 8.739 14.6255L10.058 13.3075C10.02 13.1555 10 12.9985 10 12.8385C10 11.6955 10.857 10.8385 12 10.8385C12.163 10.8385 12.321 10.8575 12.471 10.8945L13.787 9.57751Z"/>
</svg>
