<svg width="24" height="25" viewBox="0 0 24 25" xmlns="http://www.w3.org/2000/svg">
<path fill-rule="evenodd" clip-rule="evenodd" d="M12 5.53326C6.698 5.53326 4 10.7433 4 12.0453C4 13.3473 6.791 18.5573 12 18.5573C17.209 18.5573 20 13.3473 20 12.0453C20 10.7433 17.302 5.53326 12 5.53326ZM12 15.7663C9.953 15.7663 8.279 14.0923 8.279 12.0453C8.279 9.99826 9.953 8.32426 12 8.32426C14.047 8.32426 15.721 9.99826 15.721 12.0453C15.721 14.0923 14.047 15.7663 12 15.7663ZM12 10.0453C13.143 10.0453 14 10.9983 14 12.0453C14 13.1883 13.048 14.0453 12 14.0453C10.857 14.0453 10 13.0933 10 12.0453C10 10.9033 10.857 10.0453 12 10.0453Z"/>
</svg>
