<svg width="13" height="13" viewBox="0 0 13 13" xmlns="http://www.w3.org/2000/svg">
<g clip-path="url(#clip0_346_2271)">
<path d="M6.16666 2.07969L7.36666 4.07969L7.56666 4.47969L7.96666 4.57969L10.3667 5.17969L8.76666 6.97969L8.56666 7.27969V7.67969L8.76666 10.0797L6.56666 9.17969L6.16666 8.97969L5.76666 9.17969L3.56666 10.0797L3.76666 7.67969V7.27969L3.56666 6.97969L1.96666 5.17969L4.26666 4.57969L4.66666 4.47969L4.86666 4.07969L6.16666 2.07969ZM6.16666 0.179688L4.06666 3.57969L0.166656 4.57969L2.76666 7.67969L2.46666 11.6797L6.16666 10.0797L9.86666 11.5797L9.56666 7.57969L12.1667 4.57969L8.26666 3.57969L6.16666 0.179688Z"/>
</g>
<defs>
<clipPath id="clip0_346_2271">
<rect width="12" height="12" fill="white" transform="translate(0.166656 0.179688)"/>
</clipPath>
</defs>
</svg>
