<svg width="33" height="33" viewBox="0 0 33 33" xmlns="http://www.w3.org/2000/svg">
<g clip-path="url(#clip0_1505_2832)">
<path fill-rule="evenodd" clip-rule="evenodd" d="M6.09277 14.5944C12.6958 11.777 17.0988 9.91961 19.3019 9.02221C25.5921 6.45995 26.8992 6.01485 27.7511 6.00016C27.9385 5.99692 28.3574 6.0424 28.6288 6.25806C28.858 6.44015 28.921 6.68613 28.9512 6.85878C28.9814 7.03142 29.0189 7.42471 28.9891 7.73202C28.6482 11.2396 27.1733 19.7514 26.4229 23.6799C26.1054 25.3422 25.4756 25.698 24.8704 25.7526C23.555 25.8711 22.5608 25.1028 21.2868 24.285C19.2933 23.0052 18.5605 22.6605 16.6255 21.4117C14.3892 19.9685 15.6093 19.213 16.8837 17.9167C17.2172 17.5774 23.0539 12.2925 23.1661 11.8241C23.1801 11.7656 22.9881 11.18 22.8556 11.0647C22.7232 10.9494 22.5277 10.9888 22.3867 11.0202C22.1867 11.0646 19.0021 13.1261 12.8326 17.2045C11.9287 17.8124 11.1099 18.1086 10.3763 18.0931C9.56757 18.076 8.0119 17.6453 6.85541 17.2771C5.43693 16.8256 4.91332 16.6129 5.01149 15.846C5.06263 15.4466 5.42305 15.0294 6.09277 14.5944Z"/>
</g>
<defs>
<clipPath id="clip0_1505_2832">
<rect width="24" height="24" fill="white" transform="translate(4.5 4.00977)"/>
</clipPath>
</defs>
</svg>
