<svg width="33" height="33" viewBox="0 0 33 33" xmlns="http://www.w3.org/2000/svg">
<path d="M22.9547 8.3762C21.8867 7.24352 21.4013 5.91667 21.4013 4.36328C19.9773 4.36328 18.5858 4.36328 17.1618 4.36328C17.1618 4.49273 17.1618 4.58982 17.1618 4.6869C17.1618 7.56715 17.1618 10.4474 17.1618 13.2953C17.1618 14.6868 17.1618 16.0461 17.1618 17.4376C17.1618 18.4732 17.1295 19.5088 17.1618 20.5121C17.2265 22.9069 14.9612 24.6544 12.6635 23.8777C11.1424 23.3599 10.1716 21.8065 10.3981 20.2532C10.6246 18.635 11.9191 17.3729 13.5372 17.3082C13.9256 17.2758 14.3463 17.3405 14.767 17.3729C14.767 17.4053 14.767 17.3729 14.767 17.3405C14.767 15.9813 14.767 14.6221 14.767 13.2305C14.767 13.1011 14.7023 13.0687 14.6052 13.0687C13.7314 12.9716 12.8253 13.0364 11.9839 13.2305C7.45314 14.3632 4.99361 19.0234 6.57936 23.3599C7.84149 26.7903 11.4984 28.8939 15.0583 28.2466C18.7799 27.567 21.3689 24.4602 21.4013 20.6739C21.4013 19.5412 21.4013 18.4085 21.4013 17.3082C21.4013 15.6901 21.4013 14.0396 21.4013 12.4215C21.4013 12.3568 21.4013 12.292 21.4013 12.1626C23.0194 13.4571 24.864 14.072 26.9029 14.1043C26.9029 12.7451 26.9029 11.3859 26.9029 10.059C25.3495 10.0267 24.0226 9.47652 22.9547 8.3762Z"/>
</svg>
