<svg width="54" height="17" viewBox="0 0 54 17" xmlns="http://www.w3.org/2000/svg">
<path d="M53.1848 1.19793C48.5681 1.50628 44.0877 2.09438 39.5453 3.08211C37.2687 3.52745 35.1073 4.05842 32.9564 4.68644L29.6779 5.63419C28.5503 5.95392 27.5377 6.35928 26.4101 6.679C22.1296 8.12916 18.111 10.0418 13.9562 11.6746C11.816 12.3997 9.80143 13.3075 7.66119 14.0325C5.52095 14.7576 3.40194 15.6768 1.14664 16.3162C0.927148 16.242 0.812093 16.1564 0.801482 16.0593C0.79087 15.9623 0.79087 15.9623 0.884701 15.8538C4.13862 12.748 8.07226 10.059 12.1846 8.03795C13.1866 7.53554 14.293 7.02171 15.4101 6.60493C16.5271 6.18816 17.6441 5.77138 18.7718 5.45166C19.8888 5.03488 21.0271 4.81221 22.1547 4.49249C23.2824 4.17276 24.41 3.85304 25.5483 3.63037C30.0695 2.44853 34.7375 1.64349 39.333 1.14103C43.9391 0.73562 48.6603 0.415847 53.2468 0.79829C53.3512 0.786871 53.4663 0.872505 53.4769 0.969559C53.3937 1.17509 53.2892 1.18651 53.1848 1.19793Z"/>
</svg>
