<svg width="33" height="33" viewBox="0 0 33 33" xmlns="http://www.w3.org/2000/svg">
<path fill-rule="evenodd" clip-rule="evenodd" d="M28.5 8.50977C28.5 6.02577 26.484 4.00977 24 4.00977H9C6.516 4.00977 4.5 6.02577 4.5 8.50977V23.5098C4.5 25.9938 6.516 28.0098 9 28.0098H24C26.484 28.0098 28.5 25.9938 28.5 23.5098V8.50977ZM8.1675 10.7808H10.1505C10.6455 10.7808 10.836 10.9893 11.0265 11.5428C11.9985 14.3448 13.62 16.8048 14.286 16.8048C14.535 16.8048 14.649 16.6893 14.649 16.0608V13.1628C14.6018 12.3395 14.315 11.9805 14.1025 11.7144C13.9707 11.5495 13.8675 11.4202 13.8675 11.2383C13.8675 11.0088 14.058 10.7808 14.3625 10.7808H17.451C17.871 10.7808 18.0225 11.0088 18.0225 11.5053V15.4128C18.0225 15.8313 18.195 15.9843 18.3285 15.9843C18.576 15.9843 18.786 15.8313 19.2435 15.3738C20.6535 13.7928 21.6645 11.3523 21.6645 11.3523C21.798 11.0658 22.026 10.7988 22.5225 10.7988H24.486C25.077 10.7988 25.2105 11.1048 25.077 11.5233C24.8682 12.4831 23.1454 15.0245 22.6064 15.8195C22.5027 15.9725 22.4429 16.0608 22.446 16.0608C22.236 16.4043 22.1595 16.5558 22.446 16.9383C22.5491 17.0781 22.7666 17.2917 23.0156 17.536C23.2739 17.7896 23.566 18.0763 23.799 18.3483C24.6375 19.3008 25.2855 20.1018 25.458 20.6553C25.6095 21.2073 25.344 21.4938 24.771 21.4938H22.8075C22.2881 21.4938 22.0197 21.1951 21.4484 20.5591C21.203 20.2859 20.9017 19.9505 20.5005 19.5498C19.338 18.4248 18.8235 18.2718 18.537 18.2718C18.138 18.2718 18.0225 18.3678 18.0225 18.9393V20.7123C18.0225 21.1893 17.871 21.4743 16.6125 21.4743C14.535 21.4743 12.228 20.2158 10.608 17.8713C8.1675 14.4408 7.5 11.8473 7.5 11.3328C7.5 11.0478 7.596 10.7808 8.1675 10.7808Z"/>
</svg>
