<svg width="24" height="24" viewBox="0 0 24 24" xmlns="http://www.w3.org/2000/svg">
<path fill-rule="evenodd" clip-rule="evenodd" d="M10.937 5.291C11.118 5.111 11.367 5 11.642 5C12.194 5 12.642 5.448 12.642 6V18C12.642 18.552 12.194 19 11.642 19C11.371 19 11.125 18.892 10.945 18.717L7 15H5.25C4.56 15 4 14.44 4 13.75V10.25C4 9.56 4.56 9 5.25 9H7L10.937 5.291V5.291V5.291ZM18.287 12.0001C18.272 9.53607 16.506 7.48507 14.172 7.02707C14.172 7.02707 14.165 7.02507 14.151 7.02007C13.716 6.86507 13.48 6.39507 13.616 5.95407C13.752 5.51207 14.211 5.25707 14.658 5.37407C14.855 5.42507 14.961 5.45307 14.961 5.45307C17.852 6.23207 19.985 8.86807 20 12.0001C19.985 15.1321 17.852 17.7681 14.961 18.5471C14.961 18.5471 14.855 18.5751 14.658 18.6261C14.211 18.7431 13.752 18.4881 13.616 18.0461C13.48 17.6051 13.716 17.1351 14.151 16.9801C14.165 16.9751 14.172 16.9731 14.172 16.9731C16.506 16.5151 18.272 14.4641 18.287 12.0001ZM15 12.0001C14.988 11.3241 14.606 10.7381 14.048 10.4371C14.048 10.4371 14.044 10.4341 14.038 10.4291C13.697 10.1571 13.624 9.66705 13.871 9.30705C14.117 8.94805 14.6 8.84005 14.977 9.06005C15.098 9.13105 15.163 9.16905 15.163 9.16905C16.063 9.79205 16.655 10.8271 16.666 12.0001C16.655 13.1731 16.063 14.2081 15.163 14.8311C15.163 14.8311 15.098 14.8691 14.977 14.9401C14.6 15.1601 14.117 15.0521 13.871 14.6931C13.624 14.3331 13.697 13.8431 14.038 13.5711C14.044 13.5661 14.048 13.5631 14.048 13.5631C14.606 13.2621 14.988 12.6761 15 12.0001Z"/>
</svg>
