<svg width="24" height="24" viewBox="0 0 24 24" xmlns="http://www.w3.org/2000/svg">
<path fill-rule="evenodd" clip-rule="evenodd" d="M10.937 5.291C11.118 5.111 11.367 5 11.642 5C12.194 5 12.642 5.448 12.642 6V18C12.642 18.552 12.194 19 11.642 19C11.371 19 11.125 18.892 10.945 18.717L7 15H5.25C4.56 15 4 14.44 4 13.75V10.25C4 9.56 4.56 9 5.25 9H7L10.937 5.291ZM16.993 11.381L18.547 9.828C18.867 9.508 19.387 9.508 19.707 9.828C20.027 10.148 20.027 10.668 19.707 10.989L18.154 12.542L19.707 14.095C20.024 14.412 20.024 14.926 19.707 15.242C19.39 15.559 18.876 15.559 18.56 15.242L17.006 13.689L15.453 15.242C15.133 15.563 14.613 15.563 14.293 15.242C13.972 14.922 13.972 14.402 14.293 14.082L15.846 12.529L14.293 10.976C13.976 10.659 13.976 10.145 14.293 9.828C14.609 9.511 15.124 9.511 15.44 9.828L16.993 11.381Z"/>
</svg>
