<?xml version="1.0" encoding="utf-8"?><svg viewBox="0 0 290 200" xmlns="http://www.w3.org/2000/svg" xmlns:xlink="http://www.w3.org/1999/xlink"><style>:root>svg{display:none}:root>svg:target{display:block}</style><svg fill="none" viewBox="0 0 73 73" id="big-ok" xmlns="http://www.w3.org/2000/svg"><path d="M72.833 25.51c0-20.2-4.8-25-25-25h-22c-20.2 0-25 4.8-25 25v22c0 20.2 4.8 25 25 25h22c20.2 0 25-4.8 25-25v-22z" fill="#fff"/><path fill-rule="evenodd" clip-rule="evenodd" d="M37 15c12.141 0 22 9.859 22 22s-9.859 22-22 22-22-9.859-22-22 9.859-22 22-22zm0 5.5c9.105 0 16.5 7.395 16.5 16.5S46.105 53.5 37 53.5 20.5 46.105 20.5 37 27.895 20.5 37 20.5zm7.178 9.889c.387.03.761.124 1.108.305.23.121.442.273.627.448a2.777 2.777 0 01.753 2.723 2.87 2.87 0 01-.616 1.12c-3.957 3.954-5.161 5.161-8.97 8.97a2.952 2.952 0 01-.743.484 2.787 2.787 0 01-2.222 0 3 3 0 01-.742-.484 152.899 152.899 0 01-5.258-5.258 2.89 2.89 0 01-.616-1.12 2.77 2.77 0 01-.1-.764 2.771 2.771 0 011.596-2.464 2.81 2.81 0 01.992-.25c.344-.02.69.025 1.018.132.415.137.776.368 1.089.668l3.132 3.135c3.05-3.047 3.88-3.88 6.938-6.935.1-.086.097-.083.198-.163.14-.102.284-.195.44-.27.311-.153.644-.236.988-.274a4.55 4.55 0 01.388-.003z" fill="#735CE6"/></svg><svg fill="none" viewBox="0 0 143 48" id="bl-1" xmlns="http://www.w3.org/2000/svg"><path d="M13.913 35.245L10.25 21.742h2.403l2.814 10.37 3.016-10.37h2.24l3.026 10.426 2.827-10.423 2.402-.004-3.664 13.501-2.785-.003-2.925-10.083-2.929 10.086-2.762.003zM30.636 21.749h2.287v13.487h-2.288V21.749zM37.812 33.12h5.568v2.116h-7.808V21.749h2.24V33.12zM50.415 21.765c1.877 0 3.438.653 4.669 1.944C56.33 25 56.96 26.602 56.96 28.5c0 1.882-.631 3.485-1.877 4.791-1.23 1.291-2.792 1.945-4.669 1.945h-5.379V21.749h5.379v.016zm0 11.37c1.293 0 2.35-.435 3.139-1.306.82-.871 1.23-1.991 1.23-3.313 0-1.354-.41-2.442-1.23-3.314-.805-.87-1.861-1.306-3.139-1.306h-3.123v9.24h3.123zM69.027 31.383c0 1.105-.394 2.023-1.198 2.755-.805.731-1.751 1.105-2.918 1.105h-5.852V21.749h5.425c1.12 0 2.067.374 2.84 1.074.788.716 1.167 1.603 1.167 2.661 0 1.183-.474 2.086-1.388 2.755 1.199.623 1.924 1.743 1.924 3.144zm-7.713-7.548v3.548H64.5c.994 0 1.751-.778 1.751-1.774s-.757-1.774-1.751-1.774h-3.186zm3.612 9.322c1.041 0 1.861-.825 1.861-1.883s-.82-1.883-1.861-1.883h-3.612v3.782h3.612v-.016zM73.396 33.126h6.057v2.117h-8.297V21.749h8.203v2.117h-5.963v3.502h5.474v2.1h-5.474v3.658zM89.264 35.243l-2.903-4.918h-2.65v4.918h-2.24V21.749h5.474c1.23 0 2.271.42 3.107 1.276.852.825 1.294 1.852 1.294 3.066 0 1.712-1.089 3.284-2.713 3.907l3.107 5.245h-2.476zM83.71 23.834v4.514h3.218c1.199 0 2.145-.996 2.145-2.257 0-1.245-.962-2.257-2.145-2.257h-3.218zM101.235 35.243l-2.886-4.92h-2.65v4.92h-2.24v-13.5h5.474c1.23 0 2.271.42 3.107 1.276.851.825 1.293 1.853 1.293 3.068 0 1.713-1.088 3.285-2.713 3.908l3.107 5.248h-2.492zm-5.536-11.414v4.516h3.218c1.198 0 2.145-.997 2.145-2.258 0-1.246-.962-2.258-2.145-2.258h-3.218zM105.368 21.743h2.24v13.5h-2.24v-13.5zM112.498 33.126h6.057v2.117h-8.297V21.749h8.202v2.117h-5.962v3.502h5.473v2.1h-5.473v3.658zM120.116 32.171l1.94-1.12c.552 1.525 1.672 2.271 3.391 2.271 1.703 0 2.539-.715 2.539-1.773 0-.56-.236-.965-.678-1.245-.442-.295-1.262-.622-2.429-.964-1.309-.389-1.956-.638-2.871-1.229-.883-.622-1.325-1.509-1.325-2.722 0-1.198.426-2.131 1.294-2.831.852-.716 1.893-1.058 3.107-1.058 2.193 0 3.88 1.12 4.764 2.971l-1.893 1.073c-.568-1.244-1.53-1.882-2.871-1.882-1.309 0-2.145.654-2.145 1.68 0 .996.662 1.462 2.76 2.1.521.171.899.296 1.136.39.252.077.583.217 1.009.388.442.171.789.373.994.545.726.56 1.498 1.477 1.404 2.768 0 1.214-.442 2.194-1.341 2.91-.883.715-2.05 1.057-3.501 1.057-2.65-.016-4.575-1.26-5.284-3.329z" fill="#CB11AB"/><path fill-rule="evenodd" clip-rule="evenodd" d="M41.93 6.253h-1.92v-2.24h3.733V3.16H39.05v7.573h2.88c.747 0 1.387-.213 1.813-.64.427-.426.64-.96.64-1.6 0-.64-.213-1.173-.64-1.6-.426-.426-1.066-.64-1.813-.64zm1.067 3.307c-.32.213-.64.427-1.174.427H40.01v-2.88h1.92c.533 0 .853.106 1.173.426.32.32.427.534.427.96-.107.427-.213.747-.533 1.067zm4.053-2.347h3.2V6.36h-3.2V4.013h3.733V3.16h-4.8v7.573h4.8V9.88h-3.84l.107-2.667zm6.507-2.666c.32-.427.853-.747 1.493-.747.533 0 .96.107 1.173.427.32.32.427.746.534 1.28h.96c-.107-.747-.32-1.387-.854-1.92-.32-.32-.96-.534-1.813-.534-.64 0-1.173.107-1.6.427-.427.32-.853.747-1.067 1.28-.213.533-.426 1.173-.426 1.813v.747c0 1.067.32 1.92.853 2.56.533.64 1.28.96 2.133.96.854 0 1.494-.213 2.027-.64.533-.427.747-1.067.853-1.813h-.96c-.106.64-.32 1.066-.64 1.28-.32.213-.746.426-1.28.426-.64 0-1.066-.213-1.493-.746a3.684 3.684 0 01-.533-1.92v-.854c.106-.853.32-1.493.64-2.026zm5.12-.534h2.453v6.72h.96v-6.72h2.453V3.16h-5.866v.853zm8.32.534c.32-.427.853-.747 1.493-.747.533 0 .96.107 1.173.427.32.32.427.746.534 1.28h.96c-.107-.747-.32-1.387-.854-1.92-.32-.32-.96-.534-1.813-.534-.64 0-1.173.107-1.6.427-.427.32-.853.747-1.067 1.28-.213.533-.426 1.173-.426 1.813v.747c0 1.067.32 1.92.853 2.56.533.64 1.28.96 2.133.96.854 0 1.494-.213 2.027-.64.533-.427.747-1.067.853-1.813h-.96c-.106.64-.32 1.066-.64 1.28-.32.213-.746.426-1.28.426-.64 0-1.066-.213-1.493-.746-.32-.534-.64-1.174-.64-1.92v-.854c.213-.853.427-1.493.747-2.026zm6.933 2.666h3.307V6.36H73.93V4.013h3.733V3.16h-4.8v7.573h4.8V9.88h-3.84l.107-2.667zm6.08-.426a7.95 7.95 0 01-.213 1.92c-.107.426-.214.746-.427.853-.213.213-.427.32-.747.32h-.213v.853h.32c.533 0 .853-.106 1.173-.32.32-.213.534-.64.64-1.066.107-.534.214-1.28.32-2.24l.107-2.987h2.667v6.613h.96V3.16h-4.694l.107 3.627zm7.893 0c0 .853-.106 1.493-.213 1.92-.107.426-.213.746-.427.853-.213.213-.426.32-.746.32h-.214v.853h.32c.534 0 .854-.106 1.174-.32.32-.213.533-.64.64-1.066.106-.534.213-1.28.32-2.24l.106-2.987h2.88v6.613h.96V3.16H88.01l-.107 3.627zm7.894.426h3.306V6.36h-3.306V4.013h3.733V3.16h-4.8v7.573h4.8V9.88h-3.84l.107-2.667zm9.92-3.413c-.427-.427-1.174-.64-1.92-.64h-2.774v7.573h.96V7.747h1.814c.853 0 1.493-.214 2.026-.64.427-.427.64-.96.64-1.707 0-.64-.32-1.173-.746-1.6zm-.747 2.773c-.32.214-.747.427-1.28.427h-1.813V4.013h1.813c.533 0 .853.107 1.173.427.32.32.427.64.427 1.067.213.426.107.853-.32 1.066z" fill="#CB11AB"/></svg><svg fill="none" viewBox="0 0 143 48" id="bl-2" xmlns="http://www.w3.org/2000/svg"><path fill-rule="evenodd" clip-rule="evenodd" d="M41.03 4.16h-1.173l-1.814 2.88-1.813-2.88h-1.28l2.453 3.733-2.453 3.84h1.173l1.92-2.986 1.814 2.986h1.173l-2.453-3.84L41.03 4.16zm2.453 5.867V4.16h-1.066v7.573h1.066l3.734-5.866v5.866h.96V4.16h-.96l-3.734 5.867zm5.974-5.014h2.453v6.72h.96v-6.72h2.453V4.16h-5.866v.853zm9.813 6.72h.96v-6.72h3.733v6.72h.96V4.16h-5.76v7.573h.107zM69.83 4.16h-2.773v7.573h.96V8.747h1.813c.853 0 1.493-.214 2.027-.64.426-.427.64-.96.64-1.707 0-.747-.214-1.28-.747-1.707-.427-.32-1.067-.533-1.92-.533zm1.28 3.413c-.32.214-.747.427-1.28.427h-1.813V5.013h1.813c.533 0 .853.107 1.173.427.32.32.427.64.427 1.067.107.426-.107.853-.32 1.066zm7.253-3.093c-.426-.32-.96-.427-1.6-.427-.64 0-1.173.107-1.6.427-.426.32-.853.747-1.066 1.28-.214.533-.427 1.173-.427 1.92v.533c0 .747.107 1.387.427 1.92.213.534.64.96 1.066 1.28.427.32.96.427 1.6.427.64 0 1.174-.107 1.6-.427.427-.32.854-.746 1.067-1.28.32-.533.427-1.173.427-1.92V7.68c0-.747-.107-1.387-.427-1.92-.32-.533-.64-.96-1.067-1.28zm.427 3.733c0 .854-.213 1.6-.533 2.027-.32.427-.854.747-1.494.747s-1.173-.214-1.493-.747c-.32-.533-.533-1.173-.533-2.027V7.68c0-.853.213-1.493.533-2.027.32-.533.853-.746 1.493-.746.64 0 1.174.213 1.494.746.32.534.533 1.174.533 2.027v.533zm8.427-4.053H82.63l-.213 3.2c0 .747-.214 1.387-.32 2.027-.107.64-.427 1.066-.747 1.493h-.64v2.667h.96v-1.814h5.547v1.814h.96V10.88h-.96V4.16zm-1.067 6.72h-3.733c.213-.427.533-.853.64-1.493.213-.64.32-1.387.32-2.24l.106-2.24h2.667v5.973zm5.653-6.72l-2.88 7.573h1.067l.747-2.026h3.2l.746 2.026h1.067L92.87 4.16h-1.067zm-.853 4.8l1.28-3.627 1.387 3.627H90.95zm12.053-1.28l2.347-3.52h-1.173l-2.027 3.307h-.853V4.16h-.96v3.307h-.854L97.457 4.16h-1.174l2.347 3.627-2.56 3.946h1.28l2.133-3.413h.854v3.413h.96V8.32h.853l2.133 3.413h1.28l-2.56-4.053z" fill="#005AFF"/><path d="M42.31 21.973c-1.6-.96-3.733-1.386-5.44-1.173-3.84.533-6.827 3.307-7.467 7.147-.106.853-.106 2.56.107 3.413a8.602 8.602 0 0011.947 5.653c.96-.426 1.6-.853 2.346-1.6 2.88-2.88 3.307-7.146 1.174-10.666-.427-.854-1.814-2.24-2.667-2.774zm-1.067 10.454c-1.813 1.92-4.693 2.026-6.613.106-.96-.96-1.28-1.92-1.28-3.2 0-1.92 1.067-3.52 2.88-4.266.853-.427 2.133-.427 3.093-.107.747.32 1.387.64 1.92 1.28 1.6 1.707 1.6 4.373 0 6.187zM78.363 20.8c-1.173-.107-1.6-.107-2.666 0-2.454.213-4.907 1.067-6.827 2.347-.853.533-2.24 1.92-2.667 2.773-1.493 2.56-1.28 5.333.64 7.68 1.707 2.133 4.8 3.733 8.32 4.16.96.107 3.2.107 4.267 0 5.013-.747 8.747-3.52 9.493-7.04.107-.747.107-1.92 0-2.56-.853-3.947-5.226-6.933-10.56-7.36zm6.4 9.6c-.853 1.813-3.626 3.2-6.72 3.413-3.733.32-7.573-1.173-8.746-3.413a2.49 2.49 0 010-2.133c.853-1.707 3.413-3.094 6.293-3.414.853-.106 2.667 0 3.52.107 1.6.32 3.2.96 4.267 1.813 1.6 1.067 2.026 2.454 1.386 3.627zm-22.186 3.2c-.214 0-1.6-.107-3.84-.107-2.347 0-3.52 0-3.52-.106 0 0 1.92-2.667 4.373-5.76 4.587-6.08 4.587-5.974 4.16-6.294-.213-.106-.533-.106-6.613-.106-3.52 0-6.507 0-6.72.106-.427.107-.747.32-.96.64-.854.96-.534 2.454.746 3.094.214.106.747.106 3.307.213h3.093l-4.373 5.653c-3.2 4.267-4.373 5.867-4.373 5.974 0 .213.213.426.426.533h14.294l.32-.213c.746-.427 1.066-.96 1.066-1.814 0-.746-.533-1.6-1.386-1.813zm44.906-10.88c-.106-.533-.426-.96-.96-1.28-.32-.213-.426-.213-.96-.213-.853 0-1.386.32-1.813 1.066-.107.214-.107.534-.213 3.947 0 2.133-.107 3.627-.107 3.627s-2.453-1.92-5.333-4.16c-2.88-2.24-5.334-4.267-5.44-4.267-.32-.213-.427-.213-.747.107l-.213.213v7.04c0 8 0 7.573.64 8.213.32.32.96.64 1.386.64.427 0 1.067-.213 1.387-.64.64-.64.64-.64.64-4.586 0-2.027 0-3.414.107-3.414 0 0 2.453 1.92 5.333 4.16 2.88 2.347 5.333 4.267 5.44 4.374.32.213.64 0 .747-.32.213-.427.213-13.974.106-14.507z" fill="#0059FF"/></svg><svg fill="none" viewBox="0 0 143 48" id="bl-3" xmlns="http://www.w3.org/2000/svg"><path d="M72.673 37.44h2.347l3.413-12.267V37.44H81.1V21.227h-3.733L74.06 33.173l-3.307-11.946H67.02V37.44h2.24V25.173l3.413 12.267zm19.52-8c0-2.88-1.493-3.947-4.373-3.947-1.813 0-3.307.534-4.16 1.067v2.24c.747-.533 2.347-1.173 3.733-1.173 1.387 0 1.92.426 1.92 1.706v.64h-.426c-4.267 0-6.187 1.494-6.187 3.734 0 2.346 1.493 3.733 3.627 3.733 1.6 0 2.346-.427 2.88-1.067h.213c0 .32.213.747.213.96H92.3c-.107-.96-.213-1.92-.213-2.88.106.107.106-5.013.106-5.013zm-2.88 5.227c-.32.426-.96.96-2.026.96-1.174 0-1.707-.747-1.707-1.707 0-1.387.96-1.813 3.413-1.813h.427l-.107 2.56zm7.574-8.96h-2.56v15.146H97.1v-4.8c.747 1.067 1.707 1.6 2.987 1.6 2.773 0 4.586-2.133 4.586-6.08 0-3.946-1.813-6.08-4.373-6.08-1.28 0-2.347.534-3.093 1.707-.107 0-.32-1.493-.32-1.493zm2.453 9.813c-1.493 0-2.24-1.173-2.24-3.84 0-2.773.853-3.947 2.347-3.947 1.493 0 2.24 1.174 2.24 3.84.106 2.667-.747 3.947-2.347 3.947zm13.973 1.92h3.094l-4.374-6.293 3.947-5.44h-2.773l-3.947 5.44v-5.44h-2.773V37.44h2.773v-5.76l4.053 5.76zm12.48-.853v-2.24c-.853.533-2.24 1.066-3.626 1.066-2.027 0-2.774-.96-2.987-2.986h6.72v-1.494c0-4.16-1.813-5.546-4.587-5.546-3.413 0-5.013 2.56-5.013 6.186 0 4.16 2.027 6.08 5.547 6.08 1.92 0 3.2-.426 3.946-1.066zm-4.48-8.96c1.387 0 1.814 1.173 1.814 2.56v.213h-3.84c0-1.707.746-2.773 2.026-2.773zm14.614.32v-2.24h-9.387v2.24h3.307v9.493h2.773v-9.493h3.307z" fill="#000"/><path d="M22.753 42.773c6.893 0 12.48-5.587 12.48-12.48 0-6.892-5.587-12.48-12.48-12.48-6.892 0-12.48 5.588-12.48 12.48 0 6.893 5.588 12.48 12.48 12.48z" fill="#FC3F1D"/><path d="M24.567 24.747h-1.28c-2.134 0-3.2 1.066-3.2 2.773 0 1.813.746 2.773 2.346 3.84l1.28.96-3.626 5.547H17.1l3.413-5.12c-2.026-1.387-3.093-2.774-3.093-5.12 0-2.88 2.027-4.907 5.867-4.907h3.84v15.04h-2.454l-.106-13.013z" fill="#fff"/><g clip-path="url(#dclip0_200_638)"><path d="M49.527 42.773c6.933 0 12.48-5.546 12.48-12.48 0-6.933-5.654-12.48-12.48-12.48-6.827 0-12.48 5.547-12.48 12.48-.107 6.934 5.546 12.48 12.48 12.48z" fill="#FED42B"/><path d="M43.34 24.64l-10.987 14.4 2.88 3.307 8.214-10.88-.854 5.973 4.587 1.6 5.547-8.96c-.214 1.707-.64 5.547 2.986 6.72 5.76 1.707 10.774-8.64 13.12-13.867l-3.306-1.706c-2.56 5.44-6.614 11.413-8.214 10.986-1.6-.426-.213-5.546.747-8.746v-.107l-5.12-1.707-6.08 9.92.853-5.44-4.373-1.493z" fill="#000"/></g><path fill-rule="evenodd" clip-rule="evenodd" d="M39.18 7.253h-1.92v-2.24h3.733V4.16H36.3v7.573h2.88c.747 0 1.387-.213 1.813-.64.427-.426.64-.96.64-1.6 0-.64-.213-1.173-.64-1.6-.426-.426-1.066-.64-1.813-.64zm1.067 3.307c-.32.213-.64.427-1.174.427H37.26v-2.88h1.92c.533 0 .853.106 1.173.426.32.32.427.534.427.96-.107.427-.213.747-.533 1.067zM44.3 8.213h3.2V7.36h-3.2V5.013h3.733V4.16h-4.8v7.573h4.8v-.853h-3.84l.107-2.667zm6.507-2.666c.32-.427.853-.747 1.493-.747.533 0 .96.107 1.173.427.32.32.427.746.534 1.28h.96c-.107-.747-.32-1.387-.854-1.92-.32-.32-.96-.534-1.813-.534-.64 0-1.173.107-1.6.427-.427.32-.853.747-1.067 1.28-.213.533-.426 1.173-.426 1.813v.747c0 1.067.32 1.92.853 2.56.533.64 1.28.96 2.133.96.854 0 1.494-.213 2.027-.64.533-.427.747-1.067.853-1.813h-.96c-.106.64-.32 1.066-.64 1.28-.32.213-.746.426-1.28.426-.64 0-1.066-.213-1.493-.746a3.684 3.684 0 01-.533-1.92v-.854c.106-.853.32-1.493.64-2.026zm5.12-.534h2.453v6.72h.96v-6.72h2.453V4.16h-5.866v.853zm8.32.534c.32-.427.853-.747 1.493-.747.533 0 .96.107 1.173.427.32.32.427.746.534 1.28h.96c-.107-.747-.32-1.387-.854-1.92-.32-.32-.96-.534-1.813-.534-.64 0-1.173.107-1.6.427-.427.32-.853.747-1.067 1.28-.213.533-.426 1.173-.426 1.813v.747c0 1.067.32 1.92.853 2.56.533.64 1.28.96 2.133.96.854 0 1.494-.213 2.027-.64.533-.427.747-1.067.853-1.813h-.96c-.106.64-.32 1.066-.64 1.28-.32.213-.746.426-1.28.426-.64 0-1.066-.213-1.493-.746-.32-.534-.64-1.174-.64-1.92v-.854c.213-.853.427-1.493.747-2.026zm6.933 2.666h3.307V7.36H71.18V5.013h3.733V4.16h-4.8v7.573h4.8v-.853h-3.84l.107-2.667zm6.08-.426a7.95 7.95 0 01-.213 1.92c-.107.426-.214.746-.427.853-.213.213-.427.32-.747.32h-.213v.853h.32c.533 0 .853-.106 1.173-.32.32-.213.534-.64.64-1.066.107-.534.214-1.28.32-2.24l.107-2.987h2.667v6.613h.96V4.16h-4.694l.107 3.627zm7.893 0c0 .853-.106 1.493-.213 1.92-.107.426-.213.746-.427.853-.213.213-.426.32-.746.32h-.214v.853h.32c.534 0 .854-.106 1.174-.32.32-.213.533-.64.64-1.066.106-.534.213-1.28.32-2.24l.106-2.987h2.88v6.613h.96V4.16H85.26l-.107 3.627zm7.894.426h3.306V7.36h-3.306V5.013h3.733V4.16h-4.8v7.573h4.8v-.853h-3.84l.107-2.667zm9.92-3.413c-.427-.427-1.174-.64-1.92-.64h-2.774v7.573h.96V8.747h1.814c.853 0 1.493-.214 2.026-.64.427-.427.64-.96.64-1.707 0-.64-.32-1.173-.746-1.6zm-.747 2.773c-.32.214-.747.427-1.28.427h-1.813V5.013h1.813c.533 0 .853.107 1.173.427.32.32.427.64.427 1.067.213.426.107.853-.32 1.066z" fill="#FC3F1D"/><defs><clipPath id="dclip0_200_638"><rect x="37.045" y="17.813" width="24.962" height="24.96" rx="12.48" fill="#fff"/></clipPath></defs></svg><svg fill="none" viewBox="0 0 143 48" id="bl-4" xmlns="http://www.w3.org/2000/svg"><path fill-rule="evenodd" clip-rule="evenodd" d="M40.78 6.72c.32-.107.64-.32.853-.64.214-.32.32-.533.32-.96 0-.64-.213-1.173-.64-1.493-.426-.32-1.066-.534-1.813-.534h-2.453v7.574h2.666c.854 0 1.387-.214 1.92-.534.214-.426.534-.96.534-1.706 0-.427-.107-.854-.32-1.174-.32-.213-.64-.426-1.067-.533zm-2.773-2.773H39.5c.533 0 .853.106 1.067.32.213.213.32.533.32.96 0 .426-.107.64-.427.853-.213.213-.64.32-1.067.32H37.9V3.947h.107zm2.666 5.546c-.32.214-.64.32-1.066.32h-1.6V7.147h1.706c.854 0 1.387.426 1.387 1.386 0 .427-.107.747-.427.96zm4.16-2.346h3.307v-.854h-3.307V3.947h3.734v-.854h-4.8v7.574h4.8v-.854h-3.84V7.147h.106zm9.28-.107c-.32-.213-.853-.427-1.493-.533-.64-.214-1.067-.32-1.387-.64-.213-.214-.426-.427-.426-.747 0-.427.106-.64.426-.853.32-.214.64-.32 1.174-.32.533 0 .96.106 1.28.426.32.214.426.64.426 1.067h.96c0-.427-.106-.853-.32-1.173a2.518 2.518 0 00-.96-.854 2.953 2.953 0 00-1.386-.32c-.747 0-1.387.214-1.814.534-.426.32-.746.853-.746 1.493 0 .533.213.96.533 1.28.427.32 1.067.64 1.92.96.64.213 1.173.427 1.387.64.213.213.426.533.426.853 0 .32-.106.64-.426.854-.32.213-.64.32-1.174.32-.533 0-1.066-.107-1.386-.427-.32-.213-.534-.64-.534-1.067h-.96c0 .427.107.854.32 1.174.214.32.64.64 1.067.853.427.213.96.32 1.493.32.854 0 1.494-.213 1.92-.533.427-.32.747-.854.747-1.494a2.13 2.13 0 00-.213-.96c-.214-.426-.534-.64-.854-.853zm1.92-3.093h2.454v6.72h.96v-6.72H61.9v-.854h-5.867v.854zm10.987.533c.32-.427.853-.747 1.493-.747.534 0 .96.107 1.174.427.32.32.426.747.533 1.28h.96c-.107-.747-.32-1.387-.853-1.92-.534-.427-1.174-.64-1.92-.64-.64 0-1.174.107-1.6.427-.427.32-.854.746-1.067 1.28-.213.533-.427 1.173-.427 1.813v.747c0 1.066.32 1.92.854 2.56.533.64 1.28.96 2.133.96s1.493-.214 2.027-.64c.533-.427.746-1.067.853-1.814h-.96c-.107.64-.32 1.067-.64 1.28-.32.214-.747.427-1.28.427-.64 0-1.067-.213-1.493-.747a3.684 3.684 0 01-.534-1.92v-.746c.214-.854.427-1.494.747-2.027zm10.667 1.813h-3.84v-3.2h-.96v7.574h.96v-3.52h3.84v3.52h.96V3.093h-.96v3.2zm7.466-2.88c-.426-.32-.96-.426-1.6-.426-.64 0-1.173.106-1.6.426-.426.32-.853.747-1.066 1.28-.214.534-.427 1.174-.427 1.92v.534c0 .746.107 1.386.427 1.92.213.533.64.96 1.066 1.28.427.32.96.426 1.6.426.64 0 1.174-.106 1.6-.426.427-.32.854-.747 1.067-1.28.213-.534.427-1.174.427-1.92v-.534c0-.746-.107-1.386-.427-1.92-.32-.533-.64-.96-1.067-1.28zm.427 3.734c0 .853-.213 1.6-.533 2.026-.32.427-.854.747-1.494.747s-1.173-.213-1.493-.747c-.32-.533-.533-1.173-.533-2.026v-.534c0-.853.213-1.493.533-2.026.32-.534.853-.747 1.493-.747.64 0 1.174.213 1.494.747.32.533.533 1.173.533 2.026v.534zm2.773 3.52h.96V3.093h-.96v7.574zm4.374-6.187c.32-.427.853-.747 1.493-.747.533 0 .96.107 1.173.427.32.32.427.747.534 1.28h.96c-.107-.747-.32-1.387-.854-1.92-.533-.427-1.173-.64-1.92-.64-.64 0-1.173.107-1.6.427-.426.32-.853.746-1.066 1.28-.214.533-.427 1.173-.427 1.813v.747c0 1.066.32 1.92.853 2.56.534.64 1.28.96 2.134.96.853 0 1.493-.214 2.026-.64.534-.427.747-1.067.854-1.814h-.96c-.107.64-.32 1.067-.64 1.28-.32.214-.747.427-1.28.427-.64 0-1.067-.213-1.494-.747a3.684 3.684 0 01-.533-1.92v-.746c.107-.854.32-1.494.747-2.027zm6.826 5.333V7.147h3.307v-.854h-3.307V3.947h3.734v-.854h-4.8v7.574h4.8v-.854h-3.734z" fill="#F47D0A"/><path d="M84.407 33.28c-1.494-.853-3.2-1.067-4.8-1.067l4.373-6.08c.427-.533.64-.853.64-1.173v-1.493c0-.32-.213-.427-.533-.427H75.66a.459.459 0 00-.427.427v1.813c0 .32.214.427.534.427h4.373l-5.12 7.146c-.32.427-.32.96-.32 1.28v1.92c0 .32.32.534.64.427 2.88-1.493 6.293-1.387 8.96 0 .32.213.64-.107.64-.427v-1.92c-.107-.213-.213-.533-.533-.853zM55.073 22.72c-1.493 0-2.88.747-3.52 2.347-.746-1.6-1.706-2.347-3.306-2.347s-2.774.747-3.414 2.347v-1.6a.459.459 0 00-.426-.427H42.06c-.32 0-.533.213-.533.427v12.906c0 .214.213.427.426.427h2.56c.32 0 .534-.213.534-.427v-6.826c0-1.494-.107-3.52 1.813-3.52 1.813 0 1.6 2.133 1.6 3.52v6.826c0 .214.213.427.427.427h2.56c.32 0 .533-.213.533-.427v-6.826c0-.747 0-1.814.213-2.454.214-.64.96-1.066 1.494-1.066.746 0 1.28.213 1.493 1.066.107.534.107 1.92.107 2.454v6.826c0 .214.213.427.426.427h2.454c.32 0 .533-.213.533-.427V28.16c0-1.387.213-2.987-.64-4.053-.747-.854-1.92-1.387-2.987-1.387zm36.8 0c-3.733 0-5.76 3.093-5.76 7.147 0 4.053 2.027 7.253 5.76 7.253 3.627 0 5.867-3.093 5.867-7.04 0-4.16-2.027-7.36-5.867-7.36zm0 11.733c-2.026 0-2.026-3.413-2.026-4.906 0-1.6.106-4.16 2.026-4.16.854 0 1.387.32 1.707 1.28.32 1.066.427 2.346.427 3.413 0 1.707-.107 4.373-2.134 4.373zM109.58 24.32c-.747-1.067-1.813-1.493-2.987-1.493-1.813 0-2.773.853-3.52 2.56V23.36c0-.213-.213-.32-.426-.32H100.3c-.213 0-.427.213-.533.427v12.906c0 .214.213.427.426.427h2.56c.32 0 .534-.213.534-.427V29.44c0-.853 0-1.707.426-2.453.32-.64.854-1.067 1.494-1.067 1.813 0 1.6 2.027 1.6 3.52v7.04c0 .213.213.427.426.427h2.56c.214 0 .427-.214.534-.427v-8.107c-.107-1.386-.107-2.986-.747-4.053zm-37.44 7.893v-3.946c0-1.707.107-3.2-1.173-4.374-.96-.96-2.667-1.28-3.84-1.28-2.454 0-5.12.854-5.76 3.84-.107.32.213.534.426.534l2.454.213a.459.459 0 00.426-.427c.214-1.066 1.067-1.493 2.027-1.493.533 0 1.173.213 1.493.64.32.533.32 1.28.32 1.813v.32c-1.493.214-3.413.32-4.8.854-1.6.64-2.773 2.026-2.773 4.16 0 2.666 1.707 3.946 3.84 3.946 1.813 0 2.773-.426 4.267-1.813.426.64.64.96 1.493 1.707.213.106.427.106.64-.107a31.057 31.057 0 001.92-1.707c.213-.213.213-.426 0-.64-.533-.533-.96-1.173-.96-2.24zm-3.627-1.493c0 .96 0 1.813-.533 2.667-.427.746-1.067 1.173-1.813 1.173-.96 0-1.6-.747-1.6-1.813 0-2.134 1.92-2.56 3.84-2.56v.533h.106zm-30.08 1.493v-3.946c0-1.707.107-3.2-1.173-4.374-.96-.853-2.56-1.173-3.84-1.173-2.453 0-5.12.853-5.76 3.84-.107.32.213.533.427.533l2.453.214a.459.459 0 00.427-.427c.213-1.067 1.066-1.493 2.026-1.493.534 0 1.174.213 1.494.64.32.533.32 1.28.32 1.813v.32c-1.494.213-3.414.32-4.8.853-1.6.534-2.774 1.92-2.774 4.054 0 2.666 1.707 3.946 3.84 3.946 1.814 0 2.774-.426 4.267-1.813.427.64.64.96 1.493 1.707.214.106.427.106.64-.107a30.998 30.998 0 001.92-1.707c.214-.213.214-.426 0-.64-.533-.533-.96-1.173-.96-2.24zm-3.626-1.493c0 .96 0 1.813-.534 2.667-.426.746-1.066 1.173-1.813 1.173-.96 0-1.6-.747-1.6-1.813 0-2.134 1.92-2.56 3.84-2.56l.107.533z" fill="#000"/><path d="M78.007 40.747c-5.334 2.24-11.307 3.306-16.64 3.306-7.894 0-15.574-2.133-21.76-5.653-.534-.32-.96.213-.534.64 5.76 5.12 13.334 8.107 21.76 8.107 5.974 0 13.014-1.814 17.814-5.334.853-.533.213-1.493-.64-1.066zm4.8-2.667c-.534-.64-5.014-1.173-7.787.747-.427.32-.32.746.107.64 1.6-.214 5.013-.64 5.653.213.64.747-.64 3.947-1.28 5.44-.213.427.213.64.64.32 2.56-2.24 3.2-6.827 2.667-7.36z" fill="#F90"/></svg><svg fill="none" viewBox="0 0 73 73" id="brow" xmlns="http://www.w3.org/2000/svg"><path d="M72.833 25.51c0-20.2-4.8-25-25-25h-22c-20.2 0-25 4.8-25 25v22c0 20.2 4.8 25 25 25h22c20.2 0 25-4.8 25-25v-22z" fill="#fff"/><path d="M58.833 35.91c-4.2 1.1-6.4.6-7.3-1.4 3 1 6.1 1.1 7.3-2.2-1.9 1.3-4.4 2-5.3-.7 1.8-2.6 2.7-5.4 3-8.3-1.5 7.3-13.7 18.8-29.4 13.1-10.7-3.9-12.2 0-12.2 0 1.8-1.3 3.4-1 5.2-.2-.2.4-.4 1.2-.3 2.9.5-1.6.7-2 1.3-2.4.2.1.3.2.5.2-.4 1.3-1.1 4.3 0 6.2.3-2 1.1-4.2 2.3-5 .1 0 .2.1.3.1-.2 1.7-.3 5.7 1 8 0-1.6 0-5.2 1.1-7 .2.1.5.2.7.3-.3 1.5-.9 5.5.7 7.2 0-1.2 0-4.9 1.5-6.6.1 0 .2 0 .3.1-.2 2.1-.2 6.3 2.1 8.7-.6-2.3-.8-5.8-.1-8.3.3 2.5 1.3 7.1 5 9.3-1.4-2.4-2.3-4.3-2.2-9.2.7 2.7 2.6 8.2 6.3 8.4-2-2.4-3.2-3.8-3.7-7.5 2.4 4.8 4.9 7.3 8.7 8.3-3.2-2.7-5.6-4.9-5.8-8.8 1.8 2.8 4.6 7 8.9 7.3-3-2-5.7-4.8-6.1-7.3 1.7 2 4.4 6.3 9.4 6.2-2.9-1.9-5.3-3.1-7.1-7.5 2.5 2.7 3 5.8 9.7 4.8-2.3-.7-5.6-2.4-7.1-5.7 2.6 2.3 6.7 4 9.6 1.2-5.1-.5-4.9 0-7.3-3.1 2.9 1.2 5.7 2.7 9-1.1z" fill="#735CE6"/></svg><svg fill="none" viewBox="0 0 65 22" id="bs" xmlns="http://www.w3.org/2000/svg"><path d="M63.109 8.089C53.679 7.16 42.857 6.079 34.2.978c-.773-.464-1.7-.155-2.164.618-.463.773-.154 1.7.619 2.164 4.483 2.628 9.43 4.329 14.531 5.41-14.995 0-29.99-.772-44.986-2.627-.772 0-1.545.618-1.7 1.391-.155.773.464 1.546 1.391 1.7a364.573 364.573 0 0041.121 2.32c3.246 0 6.493 0 9.894-.155-2.628 1.082-5.102 2.01-7.73 3.092-2.164.927-4.637 2.01-6.647 4.019-.618.618-.618 1.546.155 2.164.309.31.618.464 1.082.464.464 0 .773-.154 1.082-.464 1.391-1.546 3.555-2.473 5.565-3.246 5.72-2.319 11.44-4.638 17.16-6.802.618-.31 1.082-.928.927-1.7-.155-.773-.618-1.237-1.391-1.237z" fill="#ABB2BA"/></svg><svg fill="none" viewBox="0 0 125 125" id="cost_no" xmlns="http://www.w3.org/2000/svg"><path d="M62.5 124.01c34.242 0 62-27.759 62-62 0-34.242-27.758-62-62-62-34.242 0-62 27.758-62 62 0 34.241 27.758 62 62 62z" fill="#FF9500"/><path d="M62.5 24.811c20.545 0 37.2 16.656 37.2 37.2 0 20.545-16.655 37.2-37.2 37.2s-37.2-16.654-37.2-37.2c0-20.544 16.655-37.2 37.2-37.2zm0 41.076c-4.28 0-7.75 5.204-7.75 11.624 0 6.42 3.47 11.626 7.75 11.626 4.28 0 7.75-5.205 7.75-11.626 0-6.42-3.47-11.624-7.75-11.624zM50.487 48.061a5.813 5.813 0 100 11.625 5.813 5.813 0 000-11.625zm24.026 0a5.813 5.813 0 100 11.625 5.813 5.813 0 000-11.625zm-24.52-10.32c-2.166-2.167-7.292-2.098-11.544 2.155-4.252 4.251-4.321 9.377-2.155 11.544.378.448 1.287.242 2.03-.462.066-.062.13-.127.19-.195 1.88-1.88.47-3.6 3.846-6.977 3.382-3.382 5.096-1.965 6.977-3.845.761-.68 1.102-1.624.761-2.106a.61.61 0 00-.105-.114zm36.561 2.155c-4.252-4.253-9.378-4.322-11.544-2.155a.61.61 0 00-.106.114c-.34.482.001 1.425.762 2.106 1.88 1.88 3.595.463 6.977 3.845 3.377 3.377 1.966 5.098 3.846 6.977.06.068.124.133.19.195.743.704 1.653.91 2.03.462 2.166-2.167 2.097-7.293-2.155-11.544z" fill="#fff"/></svg><svg fill="none" viewBox="0 0 125 125" id="cost_ok" xmlns="http://www.w3.org/2000/svg"><path d="M62.5 124.51c34.242 0 62-27.759 62-62 0-34.242-27.758-62-62-62-34.242 0-62 27.758-62 62 0 34.241 27.758 62 62 62z" fill="#00C732"/><path d="M38.043 53.212a6.365 6.365 0 016.343 5.836l2.04 24.47a6.365 6.365 0 01-6.344 6.894h-2.217a6.365 6.365 0 01-6.365-6.366V59.411a6.2 6.2 0 016.2-6.2h.343zm21.357-21.7c0-2.48 4.03-4.03 6.2-3.1 4.65 2.79 6.2 7.13 6.2 12.4v9.3h15.5c3.41 0 6.2 2.79 6.2 6.2l-6.2 27.9c0 3.41-2.79 6.2-6.2 6.2H59.057a6.365 6.365 0 01-6.343-5.837L50.1 53.21l9.3-12.4v-9.3z" fill="#fff"/></svg><svg fill="none" viewBox="0 0 73 73" id="delivery" xmlns="http://www.w3.org/2000/svg"><g clip-path="url(#jclip0_343_1876)"><path d="M72.333 25.51c0-20.2-4.8-25-25-25h-22c-20.2 0-25 4.8-25 25v22c0 20.2 4.8 25 25 25h22c20.2 0 25-4.8 25-25v-22z" fill="#fff"/><g clip-path="url(#jclip1_343_1876)"><path fill-rule="evenodd" clip-rule="evenodd" d="M44.583 26.01a2.758 2.758 0 012.722 2.42s.165 1.43.33 2.722a3.282 3.282 0 002.228 2.695c.165.055 3.025.083 3.025.083a2.754 2.754 0 012.365 2.722v5.858a2.758 2.758 0 012.75 2.75 2.758 2.758 0 01-2.75 2.75h-2.75c0 3.025-2.475 5.5-5.5 5.5s-5.5-2.475-5.5-5.5h-11c0 3.025-2.475 5.5-5.5 5.5s-5.5-2.475-5.5-5.5h-2.75a2.758 2.758 0 01-2.75-2.75 2.758 2.758 0 012.75-2.75h16.505c1.455 0 2.852-.58 3.883-1.609a5.503 5.503 0 001.612-3.891v-8.25a2.758 2.758 0 012.75-2.75h3.08zm2.42 24.75a2.758 2.758 0 01-2.75-2.75 2.758 2.758 0 012.75-2.75 2.758 2.758 0 012.75 2.75 2.758 2.758 0 01-2.75 2.75zm-22 0a2.758 2.758 0 01-2.75-2.75 2.758 2.758 0 012.75-2.75 2.758 2.758 0 012.75 2.75 2.758 2.758 0 01-2.75 2.75zM32.4 20.51c.957 0 1.873.38 2.547 1.053A3.61 3.61 0 0136 24.11v12.047c0 .957-.38 1.873-1.053 2.55A3.6 3.6 0 0132.4 39.76H17.603A3.6 3.6 0 0114 36.157V24.11a3.601 3.601 0 013.602-3.6H32.4zm11.963 13.75c.247 0 .522-.11.687-.303a.942.942 0 00.248-.742c-.11-1.045-.275-2.64-.358-3.6a.956.956 0 00-.962-.855h-1.513c-.55 0-.962.44-.962.962v3.575c0 .275.11.495.275.688.192.165.412.275.687.275h1.898z" fill="#E81F76"/></g></g><defs><clipPath id="jclip0_343_1876"><path fill="#fff" transform="translate(.333 .51)" d="M0 0h72v72H0z"/></clipPath><clipPath id="jclip1_343_1876"><path fill="#fff" transform="translate(14 15.01)" d="M0 0h44v44H0z"/></clipPath></defs></svg><svg fill="none" viewBox="0 0 73 73" id="euro" xmlns="http://www.w3.org/2000/svg"><path d="M72.167 25.51c0-20.2-4.8-25-25-25h-22c-20.2 0-25 4.8-25 25v22c0 20.2 4.8 25 25 25h22c20.2 0 25-4.8 25-25v-22z" fill="#fff"/><path d="M36.167 58.51c12.15 0 22-9.85 22-22s-9.85-22-22-22-22 9.85-22 22 9.85 22 22 22z" fill="#3372FF"/><path d="M36.167 23.11l.7 2.2h2.3l-1.8 1.4.7 2.2-1.9-1.4-1.9 1.4.7-2.2-1.8-1.4h2.3l.7-2.2zM26.667 27.01l2.1 1.1 1.6-1.7-.3 2.3 2 1.1-2.3.3-.3 2.3-1.1-2-2.3.3 1.7-1.6-1.1-2.1zM22.767 36.51l2.2-.7v-2.3l1.4 1.8 2.2-.7-1.4 1.9 1.4 1.9-2.2-.7-1.4 1.8v-2.3l-2.2-.7zM26.667 46.01l1.1-2.1-1.7-1.6 2.3.3 1.1-2 .3 2.3 2.3.3-2 1.1.3 2.3-1.6-1.7-2.1 1.1zM36.167 49.91l-.7-2.2h-2.3l1.8-1.4-.7-2.2 1.9 1.4 1.9-1.4-.7 2.2 1.8 1.4h-2.3l-.7 2.2zM45.667 46.01l-2.1-1.1-1.6 1.7.3-2.3-2-1.1 2.3-.3.3-2.3 1.1 2 2.3-.3-1.7 1.6 1.1 2.1zM49.567 36.51l-2.2.7v2.3l-1.4-1.8-2.2.7 1.4-1.9-1.4-1.9 2.2.7 1.4-1.8v2.3l2.2.7zM45.667 27.01l-1.1 2.1 1.7 1.6-2.3-.3-1.1 2-.3-2.3-2.3-.3 2-1.1-.3-2.3 1.6 1.7 2.1-1.1z" fill="#FFDA44"/></svg><svg fill="none" viewBox="0 0 290 200" id="gift" xmlns="http://www.w3.org/2000/svg"><path opacity=".2" d="M54.257 169.127c3.33-27.971 28.67-17.101 36.198-13.043 7.53 4.058 106.712-30 106.712-30s10.425 4.638 8.687 22.899c-.724 7.681 8.398.724 18.389 4.637 9.846 3.913 13.031 14.493 14.189 21.739l1.159 6.957-183.451 9.855-1.883-23.044z" fill="#FF6B82"/><path d="M98.998 59.27l-20.271 5.073c11.294-3.189 38.804 13.478 40.252 14.203l20.271-5.073c-1.448-.725-28.958-17.391-40.252-14.203z" fill="#D69B00"/><path d="M93.351 74.634c-6.516-7.246-3.91-15.507 3.62-17.68-21.285 5.361-24.18 5.361-26.497 10.144-2.172 4.348-.434 9.13 2.606 12.609 7.53 8.695 41.7 1.884 43.727 1.449l20.271-5.072c-1.882.58-35.908 7.246-43.727-1.45z" fill="url(#lpaint0_linear_558_2628)"/><path d="M96.97 57.096c2.462-.724 5.069-.724 8.399 0 13.465 2.899 34.315 15.942 35.184 16.667h-1.448c-1.448-1.015-28.958-17.681-40.252-14.203-.434.29-1.158.435-1.737.725-10.136 5.797-2.896 16.231 11.583 17.39 14.479 1.16 27.221-1.014 27.945-1.159-1.738.29-35.909 7.247-43.727-1.449-5.792-7.826-3.33-15.797 4.054-17.97z" fill="#FFC01A"/><path d="M167.919 54.924c-.29 0-.29 0-.435.29-9.845 2.608-25.338 21.014-31.419 28.985l23.601 6.812c5.791-7.536 24.904-30.435 34.315-29.275.724 0 1.448.29 1.883.434-25.484-7.536-25.049-7.68-27.945-7.246z" fill="#D69B00"/><path d="M197.601 58.836L174 52.315c7.529 2.173 7.24 13.333.724 18.84-7.964 6.812-26.063 12.319-35.908 14.493l23.601 6.811c9.846-2.174 35.039-9.42 39.383-18.55 2.606-5.653 2.172-13.189-4.199-15.073z" fill="url(#lpaint1_linear_558_2628)"/><path d="M169.946 52.024c7.529-1.16 12.307 5.362 8.398 14.493-4.344 10.87-37.936 18.55-39.528 19.13.724-.29 13.031-3.333 26.062-10.434 13.031-7.102 16.362-19.276 5.357-20.58h-1.737c-11.294 1.739-31.565 27.97-32.578 29.275l-1.158.435c.723-1.014 15.637-21.304 27.51-29.42 2.606-1.45 5.212-2.609 7.674-2.899z" fill="#FDB400"/><path d="M141.132 79.996v17.391l-.289 8.116v3.479l-.435 35.652-.434 35.942-.145 6.666v.58l-.145 9.42v2.464h-55.6l-.868-8.84-.435-3.624-1.013-9.71-.145-1.449-.29-2.464v-.29l-2.316-21.739-3.475-32.753-.29-2.174-.58-5.507-.723-6.087-.58-4.783v-.58l-.578-6.087-.145-3.623 3.62-.58 6.37-.87 5.647-.869h.29l6.226-.87 5.502-.724 6.226-.87.724-.144 5.068-.725 6.515-.87 5.647-.87 6.226-.869 5.647-.87 1.303-.144h1.448l2.027-.725z" fill="#BF253E"/><path d="M204.841 88.692l-.145 1.304-.869 6.087-.434 3.768-1.014 7.391-1.448 9.711-1.448 10.724-5.212 38.116-1.158 7.681-.435 3.189-.869 6.666-.289 1.74-2.027 14.637h-49.664v-2.464l.145-9.42v-7.246l.434-35.942.435-35.652v-3.479l.145-8.116v-5.942l.144-5.217V79.996l2.172.29 6.081.87 1.883.29 1.448.144h.289l.724.145 5.937.87 4.343.58 1.883.29 4.199.434 1.158.29 3.185.29 6.082.87 3.185.434 1.303.145 5.937.87h.434l3.909.58 5.937.869 3.62.435z" fill="#E83350"/><path d="M118.979 79.125c-18.099-14.783-10.135-28.261-7.529-30.145 3.185-1.884 33.736-6.957 44.161-1.74 10.425 5.363-3.619 30-3.619 30l-33.013 1.885z" fill="url(#lpaint2_linear_558_2628)"/><path d="M138.092 74.777v3.913l-.29 6.957v6.232l-.29 6.956v9.566l-3.33.724-5.502 1.015-6.515 1.014-5.792 1.015-6.516 1.014-5.791 1.015-6.226 1.014-5.792 1.015-6.516 1.159-5.791 1.015-6.226 1.014h-.87l-.433-4.783-.725-6.087-.434-5.507-.434-6.232-.435-5.362-.434-4.203 4.054-1.014 5.792-1.015 6.516-1.16 5.791-1.014 6.805-1.16 5.792-1.159 6.516-1.159 5.791-1.014 6.805-1.16 5.792-1.014 6.516-1.16 2.172-.435z" fill="#FF4563"/><path d="M79.596 85.357l-9.122 11.16-.434-5.362 3.909-4.783 5.647-1.015zM91.903 83.184l-20.416 25.072-.434-5.507 15.203-18.55 5.647-1.015zM104.5 80.72l-31.13 38.407h-.724l-.435-4.783 26.497-32.319 5.792-1.304zM116.807 78.545l-31.42 38.696-5.791 1.014 31.42-38.696 5.791-1.014zM129.404 76.371l-31.71 38.696-5.79 1.014 31.564-38.695 5.936-1.015zM138.092 74.777v3.913l-28.235 34.493-5.791 1.015 31.854-38.84 2.172-.58zM137.802 85.648v6.232l-15.637 19.276-5.792 1.014 21.429-26.522zM137.512 98.836v6.232l-3.33 4.058-5.502 1.014 8.832-11.304z" fill="#BF253E"/><path d="M208.46 86.806l-1.013 7.97-1.014 7.247-1.158 9.71-1.014 5.798-3.33-.435-6.081-.725-4.633-.725-5.792-.724-4.633-.435-6.082-1.014-4.343-.435-6.082-.725-4.343-.724-6.082-.725-4.633-.435-5.792-1.014-4.633-.435-.724-.29v-6.957l.29-6.087v-8.26l.289-6.232v-6.232l4.344.725 4.344.724 5.791 1.015 4.344.724 5.792 1.015 4.344.724 5.791 1.16 4.344.435 5.792 1.159 4.343.725 5.792 1.014 4.344.725 5.792 1.014 4.343.725h1.303z" fill="#E32C4A"/><path d="M146.779 76.228l-8.977 11.015.29-6.232 4.343-5.507 4.344.724zM156.915 77.82l-19.402 23.768.289-6.087 14.769-18.405 4.344.724zM167.05 79.56l-24.18 29.711-4.633-.435 24.325-30 4.488.725zM177.185 81.3l-23.89 29.42-4.634-.434 24.181-29.42 4.343.434zM187.321 83.184l-23.601 28.985-4.344-.725 23.601-28.985 4.344.725zM197.456 84.924L174 113.33l-4.344-.435 23.456-28.696 4.344.725zM207.592 86.518l-22.877 28.26-4.634-.434 23.167-28.551 4.344.725zM207.592 94.777l-1.014 7.247-11.583 14.203-4.633-.725 17.23-20.725zM205.42 111.734l-1.014 5.797-3.33-.434 4.344-5.363z" fill="#FF4563"/><path d="M191.809 83.91l-.289 2.029-.145.87-.724 6.376-.579 3.478-.869 6.377-1.013 7.246v.145l-.58 4.783-2.027 14.927-7.239 52.464-.29 1.449-.145 1.16v.58l-1.592 11.594-.435 2.319h-14.189l.579-6.667.579-6.522.29-4.782.289-2.319 3.62-43.189 1.158-14.782.724-8.696.579-7.971.58-6.667.724-7.97v-1.16l.434-4.783.145-1.739.145-1.884h.289l1.738.29 3.475.58 4.923.724.144.145 7.095 1.16 2.606.434z" fill="url(#lpaint3_linear_558_2628)"/><path d="M113.911 192.169l.435 7.536h-12.597l-.29-3.188v-.145l-.868-6.377-1.014-8.55-.29-3.044-.868-6.667-1.738-15.652-4.778-40-.724-5.942-.58-5.362-.723-5.942v-.29l-.58-5.072-.723-5.797v-.29l-.434-3.189v-.58l18.822-3.333.145 2.609v1.304l.145.725.29 5.072.434 6.522.145 3.478.145 2.174.434 6.232.289 4.783 2.462 39.71 1.593 24.638.144 1.594.58 10.145.144 2.898z" fill="url(#lpaint4_linear_558_2628)"/><path opacity=".3" d="M194.56 165.793l-1.448 7.826-.579 3.189-.868 5.217-.724 1.305-1.014 1.884-7.964 14.637h-73.988l-6.516-3.188-11.873-5.942-6.515-3.188c-.145.144-.435-3.624-1.014-9.711 0-.434-.145-1.014-.145-1.449 0-.725-.144-1.594-.29-2.464v-.29c-.289-2.608-.433-5.652-.723-8.695 7.53 1.449 13.466 4.348 17.81 7.246 4.343 2.899 7.239 5.652 8.542 7.102l.869.869s.579-.29 1.592-.724a28.13 28.13 0 013.475-1.45c3.62-1.159 8.543-2.174 13.176-.869 2.752.724 5.068 2.029 7.095 3.623 3.33 2.609 5.647 5.507 6.661 6.956.144.29.289.435.434.58l.145.145.145-.29c.868-.869 4.343-4.493 10.135-6.666 2.896-1.015 6.226-1.884 10.135-1.884.869 0 1.738 0 2.462.144 4.488.29 7.963 1.595 10.425 2.899 1.737.87 2.896 1.884 3.475 2.464.434.29.579.579.579.579v-.144c.145-.29.29-.725.579-1.45.145-.29.29-.724.435-1.014 1.737-3.623 4.923-9.855 8.398-12.754 3.909-3.188 5.936-3.913 6.66-4.058.29-.435.434-.435.434-.435z" fill="#CCA3A9"/><path d="M96.681 199.705c1.448-1.159 2.896-2.318 4.634-3.188 2.751-1.594 5.791-2.899 9.121-3.623 1.159-.29 2.317-.58 3.475-.725 1.883-.29 3.91-.435 5.937-.435 7.529 0 14.334 2.174 19.836 5.653a28.246 28.246 0 013.331 2.463H96.681v-.145zM179.213 199.706h-33.737c4.489-4.203 10.425-6.667 16.796-6.667 1.737 0 3.475.145 5.357.58.869.145 1.738.435 2.462.724 2.172.725 4.343 1.74 6.226 3.044 1.013.58 2.027 1.449 2.896 2.319z" fill="#fff"/><path d="M232.496 199.705h-64.577c.289-1.014.724-2.029 1.158-3.043.29-.725.724-1.594 1.158-2.319 1.593-3.188 3.62-5.942 6.082-8.406l1.158-1.159.724-.725.434-.435c.435-.289.869-.724 1.304-1.014 3.764-2.899 8.108-4.783 12.741-5.942h.145c6.66-1.594 13.755-1.015 20.56 1.739 3.041 1.304 5.792 2.899 8.254 4.928h.144a37.161 37.161 0 0110.715 16.376zM48.9 199.707c1.448-4.638 3.91-8.695 6.95-12.174 4.489-5.072 10.57-8.84 17.23-10.435 2.751-.724 5.647-1.014 8.543-1.014 2.172 0 4.199.29 6.37.725 1.738.289 3.33.724 4.779 1.304 2.461.87 4.633 2.029 6.805 3.333 3.33 2.174 6.371 4.928 8.688 8.116.724 1.015 1.592 2.174 2.171 3.189 1.304 2.174 2.317 4.492 3.186 6.956H48.9z" fill="#fff"/><path d="M23.851 82.894c0 4.638-3.91 8.406-8.398 8.406-4.489 0-8.398-3.913-8.398-8.406 0-4.638 3.91-8.406 8.398-8.406 4.633.29 8.398 3.913 8.398 8.406z" fill="#E81F76"/><path d="M37.172 21.155c2.317 0 4.054-1.884 4.054-4.058s-1.882-4.058-4.054-4.058c-2.172 0-4.054 1.884-4.054 4.058s1.737 4.058 4.054 4.058z" fill="#E81F76" fill-opacity=".2"/><path d="M289.833 66.953c0 7.536-6.081 13.333-13.321 13.333-7.529 0-13.32-6.087-13.32-13.333s6.081-13.333 13.32-13.333c7.24-.145 13.321 5.942 13.321 13.333z" fill="#E81F76"/><path d="M278.54 146.662c0 3.333-2.896 6.231-6.227 6.231-3.33 0-6.226-2.898-6.226-6.231 0-3.334 2.896-6.232 6.226-6.232 3.331 0 6.227 2.898 6.227 6.232z" fill="#E81F76" fill-opacity=".2"/><path d="M240.894 23.329c5.647 0 10.135-4.493 10.135-10.145 0-5.652-4.488-10.145-10.135-10.145-5.647 0-10.136 4.493-10.136 10.145 0 5.652 4.489 10.145 10.136 10.145z" fill="#E81F76"/><path d="M268.839 5.213c0 2.609-2.172 5.073-5.068 5.073-2.896 0-5.068-2.174-5.068-5.073 0-2.609 2.172-5.072 5.068-5.072 2.896 0 5.068 2.029 5.068 5.072zM170.091 16.228c0 1.884-1.448 3.333-3.331 3.333-1.882 0-3.33-1.45-3.33-3.333 0-1.884 1.448-3.334 3.33-3.334 1.883 0 3.331 1.74 3.331 3.334z" fill="#E81F76" fill-opacity=".2"/><path d="M15.164 137.968c0 4.058-3.33 7.536-7.53 7.536-4.199 0-7.384-3.333-7.384-7.536 0-4.058 3.33-7.536 7.53-7.536 4.198 0 7.384 3.478 7.384 7.536z" fill="#E81F76"/><path d="M41.95 113.329c0 2.609-2.172 4.638-4.633 4.638-2.606 0-4.634-2.174-4.634-4.638 0-2.609 2.172-4.638 4.634-4.638 2.75.145 4.633 2.029 4.633 4.638z" fill="#E81F76" fill-opacity=".2"/><path d="M23.127 5.357c0 1.884-1.448 3.333-3.33 3.333-1.883 0-3.33-1.45-3.33-3.333 0-1.884 1.448-3.334 3.33-3.334 1.882 0 3.33 1.595 3.33 3.334zM92.627 28.4c3.186 0 5.792-2.608 5.792-5.796 0-3.189-2.606-5.797-5.792-5.797-3.185 0-5.792 2.608-5.792 5.797 0 3.188 2.607 5.797 5.792 5.797z" fill="#E81F76"/><defs><linearGradient id="lpaint0_linear_558_2628" x1="95.324" y1="46.813" x2="104.789" y2="79.629" gradientUnits="userSpaceOnUse"><stop stop-color="#FDB400"/><stop offset=".309" stop-color="#FFFA85"/><stop offset="1" stop-color="#C79000"/></linearGradient><linearGradient id="lpaint1_linear_558_2628" x1="183.736" y1="43.394" x2="168.125" y2="85.431" gradientUnits="userSpaceOnUse"><stop stop-color="#FDB400"/><stop offset=".278" stop-color="#FFFA85"/><stop offset=".886" stop-color="#C79000"/></linearGradient><linearGradient id="lpaint2_linear_558_2628" x1="131.733" y1="40.292" x2="135.747" y2="79.114" gradientUnits="userSpaceOnUse"><stop stop-color="#FDB400"/><stop offset=".278" stop-color="#FFFA85"/><stop offset=".845" stop-color="#C79000"/></linearGradient><linearGradient id="lpaint3_linear_558_2628" x1="220.145" y1="237.745" x2="135.478" y2="50.694" gradientUnits="userSpaceOnUse"><stop stop-color="#FDB400"/><stop offset=".278" stop-color="#FFFA85"/><stop offset=".886" stop-color="#C79000"/></linearGradient><linearGradient id="lpaint4_linear_558_2628" x1="114.488" y1="215.88" x2="92.823" y2="54.019" gradientUnits="userSpaceOnUse"><stop stop-color="#FDB400"/><stop offset=".062" stop-color="#F5BB19"/><stop offset=".144" stop-color="#ECC333"/><stop offset=".217" stop-color="#E7C742"/><stop offset=".275" stop-color="#E5C948"/><stop offset=".839" stop-color="#C79000"/></linearGradient></defs></svg><svg fill="none" viewBox="0 0 73 73" id="green-fire" xmlns="http://www.w3.org/2000/svg"><path d="M72.5 25.51c0-20.2-4.8-25-25-25h-22c-20.2 0-25 4.8-25 25v22c0 20.2 4.8 25 25 25h22c20.2 0 25-4.8 25-25v-22z" fill="#fff"/><path d="M53.1 39.81c-.1 3.5-.9 7-2.5 10.1-2.1 3.7-5.2 6-9.1 7.3-2.4.8-4.8 1.2-7.3 1.2-.2 0-.3.1-.6.1h-2.3c-.6-.1-1.2-.1-1.9-.2s-1.2-.1-1.9-.2c-.2 0-.3-.1-.3-.4.3-2.1.5-4.3.8-6.4.8-4.3 2.3-8.2 5-11.7 1.8-2.4 3.9-4.4 6.5-5.9.1 0 .1-.1.1-.1 0-.1-.1-.1-.1-.1-1 .4-2.1.8-3.1 1.2-3.6 1.7-6.4 4.3-8.5 7.8-2.1 3.6-3.3 7.3-4 11.2-.1.9-.3 1.8-.5 2.8-.2-.4-.5-.8-.6-1.1-1.2-2.2-2.2-4.5-2.7-7-1.2-6.1.6-11 5.4-14.9 2-1.6 4.3-2.6 6.7-3.6 3.2-1.3 6.1-2.9 8.6-5.3 1.7-1.7 3-3.6 3.4-6 .3-1.3.3-2.6-.1-4.1.2.2.3.3.4.5 3.4 4.9 6.1 10.2 7.5 16 .9 2.9 1.2 5.9 1.1 8.8zM27.5 20.01c0 1.2-.9 2.1-2.1 2.1-1.2 0-2.1-.9-2.1-2.1 0-1.2 1-2.1 2.1-2.1s2 .9 2.1 2.1z" fill="#17CF7B"/><path d="M39.7 21.01c0 1.1-.8 1.9-1.9 1.9-1.1 0-1.9-.8-1.9-1.9 0-1 .9-1.9 1.9-1.9 1 0 1.9.8 1.9 1.9zM23.5 29.41c0 .6-.6 1.2-1.2 1.2-.7 0-1.2-.5-1.2-1.2 0-.6.6-1.2 1.2-1.2.6.1 1.2.6 1.2 1.2zM26.9 28.21c0 .5-.3.8-.8.8s-.8-.3-.8-.8c0-.4.4-.8.8-.8.5 0 .8.4.8.8zM32.6 25.01c0 .3-.3.6-.7.6-.3 0-.6-.3-.6-.6s.3-.6.7-.6c.4-.1.6.2.6.6z" fill="#17CF7B"/></svg><svg fill="none" viewBox="0 0 93 110" id="left-triangle" xmlns="http://www.w3.org/2000/svg"><g filter="url(#nfilter0_d_716_1577)"><path fill-rule="evenodd" clip-rule="evenodd" d="M40.5 55c0-4.5 12-9 12-15v30c0-5.962-12-10.5-12-15z" fill="#fff"/></g><defs><filter id="nfilter0_d_716_1577" x=".5" y="0" width="92" height="110" filterUnits="userSpaceOnUse" color-interpolation-filters="sRGB"><feFlood flood-opacity="0" result="BackgroundImageFix"/><feColorMatrix in="SourceAlpha" values="0 0 0 0 0 0 0 0 0 0 0 0 0 0 0 0 0 0 127 0" result="hardAlpha"/><feOffset/><feGaussianBlur stdDeviation="20"/><feComposite in2="hardAlpha" operator="out"/><feColorMatrix values="0 0 0 0 0.270588 0 0 0 0 0.298039 0 0 0 0 0.329412 0 0 0 0.08 0"/><feBlend in2="BackgroundImageFix" result="effect1_dropShadow_716_1577"/><feBlend in="SourceGraphic" in2="effect1_dropShadow_716_1577" result="shape"/></filter></defs></svg><svg fill="none" viewBox="0 0 73 73" id="quartz" xmlns="http://www.w3.org/2000/svg"><g clip-path="url(#oclip0_471_3696)"><path d="M72.5 25.51c0-20.2-4.8-25-25-25h-22c-20.2 0-25 4.8-25 25v22c0 20.2 4.8 25 25 25h22c20.2 0 25-4.8 25-25v-22z" fill="#fff"/><g clip-path="url(#oclip1_471_3696)" fill="#FF93C1"><path d="M32.644 15l1.686 1.651c2.121 2.122 4.243 4.232 6.353 6.353.114.115.23.218.31.356.171.275.125.562-.104.78-.23.217-.516.24-.791.068a1.814 1.814 0 01-.344-.32c-2.099-2.076-4.186-4.164-6.273-6.25-.114-.115-.206-.241-.378-.436-.023.218-.046.32-.046.424 0 2.592 0 5.183-.012 7.786 0 .264.08.413.31.54 1.422.802 2.844 1.605 4.255 2.43.263.15.4.127.619-.08 2.007-2.03 4.025-4.036 6.043-6.055.539-.539.791-.539 1.33 0 1.824 1.824 3.647 3.658 5.482 5.47.286.287.4.585.4.986-.01 3.28 0 6.56-.01 9.85 0 .31-.08.655-.218.941-.711 1.456-1.457 2.89-2.168 4.346a1.769 1.769 0 00-.172.734c-.011 1.617-.023 3.234 0 4.862 0 .447-.149.746-.55.975-1.709.963-3.406 1.95-5.092 2.947-.378.218-.7.218-1.078-.011-1.25-.746-2.534-1.457-3.784-2.202-.24-.138-.413-.172-.654-.012-.435.287-.882.54-1.341.78-.23.115-.287.264-.287.516.012 1.193-.011 2.385.012 3.567.011.458-.16.745-.562.963-1.101.608-2.19 1.238-3.268 1.892-.39.23-.711.252-1.113.011-2.82-1.64-5.653-3.28-8.486-4.896-.378-.218-.55-.493-.55-.929.023-.975 0-1.95.011-2.924 0-.333.138-.585.482-.677.31-.08.585.012.723.321.068.138.08.299.08.46.011.79-.012 1.581.011 2.361 0 .16.115.39.253.47a67.06 67.06 0 002.488 1.445c.069.046.15.07.275.115v-.47c0-2.466 0-4.931.012-7.396 0-.31-.08-.494-.367-.643-.872-.481-1.732-.986-2.672-1.525V47.43c-.023.413-.264.677-.63.677-.356.011-.643-.252-.655-.654-.022-.458-.011-.917-.011-1.376 0-1.56.011-3.119 0-4.69 0-.355.103-.619.355-.871 2.019-1.996 4.014-4.014 6.02-6.02.471-.47.758-.47 1.228.01 1.984 1.985 3.968 3.98 5.963 5.952.275.276.39.562.39.952-.012 2.879 0 5.757 0 8.647v.538c.424-.24.802-.435 1.135-.665.103-.068.15-.263.15-.401.01-.917-.024-1.835.022-2.752.011-.252.16-.574.355-.711.413-.287.906.069.918.63.011.918.011 1.835 0 2.753 0 .298.08.458.344.608.998.55 1.984 1.135 3.027 1.731.012-.195.023-.332.023-.459 0-5.286 0-10.573.012-15.87 0-.31-.092-.482-.367-.642-.86-.47-1.697-.964-2.535-1.445-.137-.08-.275-.15-.493-.264V43.69c0 .665-.195.975-.63.986-.448.012-.666-.32-.666-1.009 0-4.472 0-8.944.012-13.416 0-.367-.103-.562-.424-.734-1.445-.803-2.867-1.629-4.29-2.454-.206-.127-.366-.127-.584 0-.677.412-1.353.802-2.041 1.18-.218.127-.287.265-.287.505.012 1.101 0 2.202 0 3.314 0 .367-.114.654-.493.757-.436.115-.791-.195-.791-.7a75.346 75.346 0 01.011-3.222c.012-.367-.114-.561-.435-.733-.665-.356-1.32-.746-2.03-1.159-.012.207-.023.356-.023.505v7.35c0 .138.011.287-.012.425-.057.32-.275.55-.584.516-.23-.035-.459-.23-.62-.413-.091-.103-.068-.333-.068-.493 0-3.968 0-7.936-.012-11.915 0-.39.115-.676.39-.952 2.202-2.224 4.415-4.437 6.628-6.64.138-.137.298-.263.459-.389h.424zm10.733 36.753c1.4-.803 2.718-1.56 4.014-2.34.115-.069.195-.298.195-.458.011-1.537 0-3.062.023-4.599 0-.31.08-.653.218-.94.71-1.468 1.456-2.913 2.19-4.38.08-.173.16-.379.16-.563.012-1.341 0-2.694.012-4.036 0-.23-.069-.355-.275-.47a56.347 56.347 0 01-2.122-1.227c-.218-.138-.378-.103-.584.023a169.794 169.794 0 01-3.463 1.995c-.287.16-.379.344-.379.665.011 5.275.011 10.55.011 15.825v.505zm-8.554-9.484c-.103.035-.15.046-.184.058a1984.636 1984.636 0 00-6.65 3.841c-.127.069-.219.287-.219.447-.01 2.81-.01 5.62 0 8.417 0 .16.127.379.264.459 1.124.677 2.282 1.319 3.406 1.984.218.126.378.114.585-.012.791-.47 1.57-.94 2.385-1.376.321-.172.436-.367.436-.734-.012-4.197-.012-8.394-.012-12.59-.011-.138-.011-.287-.011-.494zm-5.71-6.56c-.104.104-.207.196-.31.3-1.48 1.478-2.913 3.004-4.461 4.414-.723.665-1.067 1.365-.895 2.316.035.172.138.379.276.46 1.02.607 2.052 1.192 3.073 1.8.252.148.424.126.653-.012 2.19-1.273 4.381-2.534 6.583-3.807l.344-.207-5.264-5.263zM44.96 23.384c-.15.137-.252.24-.355.332-1.606 1.606-3.177 3.268-4.851 4.816-.837.769-1.25 1.571-1.067 2.684v.046c.092.16.15.378.287.458a152.42 152.42 0 003.498 2.007.615.615 0 00.493 0 139.99 139.99 0 003.6-2.087c.138-.08.276-.298.276-.459.023-1.857.011-3.727 0-5.584 0-.138-.058-.321-.15-.413-.55-.608-1.123-1.181-1.731-1.8zM31.761 17.27c-.103.058-.149.08-.172.104-1.8 1.8-3.612 3.6-5.401 5.412-.103.104-.16.298-.16.459-.023.63 0 1.261-.012 1.892-.011.24.057.39.275.516.86.482 1.709.998 2.569 1.468.137.08.39.08.527 0 .677-.367 1.342-.78 2.019-1.147.263-.137.355-.298.355-.596v-4.22-3.888zm16.479 9.427c-.035.08-.07.114-.07.149 0 1.468-.01 2.947 0 4.415 0 .091.035.218.104.263.62.379 1.239.734 1.915 1.124V28.83c0-.092-.023-.207-.092-.276-.619-.619-1.227-1.238-1.857-1.857zM50.958 15c.435.207.676.562.768 1.01.172.78.355 1.56.504 2.35.058.264.172.402.425.46.367.08.71.194 1.066.309.218.069.436.137.642.24.356.161.642.39.642.826 0 .447-.275.688-.63.826-.516.195-1.055.367-1.594.516-.344.092-.528.24-.585.62-.092.63-.252 1.26-.39 1.891-.034.172-.08.333-.137.493-.195.562-.47.826-.872.814-.39 0-.711-.275-.86-.837a34.053 34.053 0 01-.528-2.385c-.068-.344-.229-.504-.562-.596a14.286 14.286 0 01-1.548-.493c-.378-.138-.688-.379-.7-.837-.01-.47.31-.734.7-.872a18.653 18.653 0 011.548-.493c.333-.092.494-.24.562-.596.138-.769.322-1.537.505-2.305.103-.436.344-.78.768-.964.103.024.195.024.276.024zm-.161 7.385c.505-1.915.39-1.64 1.95-2.224-1.354-.092-1.79-.986-1.927-2.179-.138 1.181-.55 2.087-1.938 2.225 1.399.114 1.8 1.009 1.915 2.178zM23.447 27.545a1.919 1.919 0 01-1.927 1.938 1.95 1.95 0 01-1.938-1.938 1.941 1.941 0 011.915-1.915c1.067-.023 1.938.837 1.95 1.915zm-1.296.023a.63.63 0 00-.642-.653.66.66 0 00-.643.619.634.634 0 00.608.642.622.622 0 00.677-.608zM47.608 53.404c0-1.078.86-1.938 1.938-1.938a1.95 1.95 0 011.938 1.938c-.011 1.043-.871 1.915-1.915 1.926a1.946 1.946 0 01-1.96-1.926zm1.938-.654a.644.644 0 00-.653.608.638.638 0 00.619.677.646.646 0 00.654-.654c.011-.333-.276-.62-.62-.63zM19.514 33.577c0-.413-.012-.791 0-1.158.011-.493.263-.791.665-.78.378.012.619.287.619.768.012.344.012.688.012 1.032 0 .023.022.058.057.138.24 0 .504-.011.768 0 .413.011.677.252.688.608.012.378-.252.653-.676.676-.264.012-.54 0-.849 0 0 .436.012.815 0 1.204-.011.46-.23.711-.62.723-.4.011-.653-.252-.664-.723-.012-.378 0-.768 0-1.192-.31 0-.585.011-.849 0-.413-.035-.665-.298-.665-.654 0-.367.252-.62.654-.642.275-.011.539 0 .86 0zM54.191 26.524a.673.673 0 01-.676-.688c0-.378.31-.688.676-.688.367 0 .677.322.677.689 0 .39-.298.688-.677.688zM21.692 37.785c.367 0 .677.321.677.688a.688.688 0 01-.688.677.67.67 0 01-.665-.688.67.67 0 01.677-.677zM46.657 55.056a.68.68 0 01.688.676c0 .367-.31.688-.688.688a.695.695 0 01-.688-.676c0-.39.298-.677.688-.688z"/></g></g><defs><clipPath id="oclip0_471_3696"><path fill="#fff" transform="translate(.5 .51)" d="M0 0h72v72H0z"/></clipPath><clipPath id="oclip1_471_3696"><path fill="#fff" transform="translate(18 15)" d="M0 0h37.028v44H0z"/></clipPath></defs></svg><svg fill="none" viewBox="0 0 72 73" id="revers" xmlns="http://www.w3.org/2000/svg"><g clip-path="url(#pclip0_344_1914)"><path d="M72 25.51c0-20.2-4.8-25-25-25H25c-20.2 0-25 4.8-25 25v22c0 20.2 4.8 25 25 25h22c20.2 0 25-4.8 25-25v-22z" fill="#fff"/><path fill-rule="evenodd" clip-rule="evenodd" d="M33.234 53.54c-1.838 0-3.676-.03-5.512-.03a15.136 15.136 0 01-1.728-.11 13.633 13.633 0 01-3.603-.974 13.766 13.766 0 01-4.597-3.182 13.812 13.812 0 01-3.072-5.077 13.67 13.67 0 01-.717-4.053 13.79 13.79 0 01.486-4.01 13.824 13.824 0 014.94-7.295c.33-.25.666-.515 1.04-.688.269-.126.55-.198.84-.242.149-.01.292-.016.44-.016.442.03.866.14 1.253.363.253.146.484.332.679.55a2.78 2.78 0 01.55 2.739 2.766 2.766 0 01-.82 1.193c-.236.201-.505.363-.752.556a9.33 9.33 0 00-.476.401 8.61 8.61 0 00-1.5 1.824 8.294 8.294 0 00-1.022 5.934c.134.66.351 1.3.643 1.908a8.364 8.364 0 001.467 2.118c.684.72 1.5 1.315 2.396 1.746a8.395 8.395 0 003.355.812c1.905.024 3.806.016 5.71.01v-5.852c0-1.328.957-2.406 2.138-2.406.52 0 .995.21 1.366.556l8.436 7.122c.536.438.885 1.147.885 1.947s-.349 1.51-.885 1.947l-8.436 7.123a1.993 1.993 0 01-1.366.555c-1.181 0-2.138-1.078-2.138-2.406v-3.064zm5.496-27.538v5.851c0 1.329-.956 2.407-2.137 2.407-.52 0-.995-.21-1.366-.556l-8.436-7.122c-.536-.438-.885-1.147-.885-1.947s.349-1.51.885-1.947l8.436-7.123a1.993 1.993 0 011.366-.555c1.181 0 2.137 1.078 2.137 2.406v3.055c1.949-.008 3.9.02 5.848.044.582.022 1.16.063 1.737.154 1.45.22 2.86.677 4.165 1.348a13.822 13.822 0 016.405 6.892c.484 1.149.814 2.364.97 3.604.201 1.59.127 3.212-.225 4.777a13.811 13.811 0 01-5.265 8.044c-.236.176-.478.36-.742.498a2.705 2.705 0 01-1.26.324 2.774 2.774 0 01-2.608-1.785 2.784 2.784 0 01-.023-1.867c.163-.462.446-.877.82-1.193.236-.201.505-.363.752-.556a9.48 9.48 0 00.476-.401 8.613 8.613 0 001.5-1.824 8.293 8.293 0 001.022-5.934 8.214 8.214 0 00-.643-1.908 8.36 8.36 0 00-1.467-2.118 8.255 8.255 0 00-2.396-1.746 8.396 8.396 0 00-3.355-.812c-1.905-.024-3.806-.016-5.71-.01z" fill="#FCC201"/></g><defs><clipPath id="pclip0_344_1914"><path fill="#fff" transform="translate(0 .51)" d="M0 0h72v72H0z"/></clipPath></defs></svg><svg fill="none" viewBox="0 0 73 73" id="security" xmlns="http://www.w3.org/2000/svg"><g clip-path="url(#qclip0_344_1926)"><path d="M72.667 25.51c0-20.2-4.8-25-25-25h-22c-20.2 0-25 4.8-25 25v22c0 20.2 4.8 25 25 25h22c20.2 0 25-4.8 25-25v-22z" fill="#fff"/><path d="M30.077 35.07c-.772-.772-2.231-.772-3.003 0-.43.43-.6.944-.6 1.545 0 .6.256 1.115.6 1.545l5.577 5.577c.43.43.944.601 1.545.601.6 0 1.116-.257 1.545-.6L46.038 33.44c.43-.43.6-.944.6-1.545 0-.6-.257-1.115-.6-1.544-.772-.773-2.231-.773-3.003 0l-8.925 8.838-4.033-4.119z" fill="#FF8000"/><path d="M51.273 19.366l-11.67-3.861c-1.202-.43-1.717-.515-2.318-.6a6.955 6.955 0 00-1.887 0c-.601.085-1.116.257-2.317.6l-11.67 3.861a3.893 3.893 0 00-2.661 3.69v15.961c0 4.29 1.373 8.152 4.033 11.413 2.575 3.175 6.436 5.836 11.413 7.98.687.258 1.459.43 2.145.43.773 0 1.46-.172 2.146-.43 4.977-2.144 8.838-4.805 11.413-7.98 2.66-3.26 4.033-7.122 4.033-11.413V22.97c0-1.63-1.03-3.089-2.66-3.604zm-1.63 3.948V38.93c0 3.347-1.03 6.179-3.09 8.753-2.145 2.66-5.406 4.892-9.782 6.78a1.094 1.094 0 01-1.03 0c-4.377-1.888-7.637-4.12-9.783-6.78-2.06-2.574-3.089-5.406-3.089-8.752V23.313l11.585-3.776c1.03-.343 1.287-.429 1.544-.429h.687c.257 0 .514.086 1.544.429l11.413 3.776z" fill="#FF8000"/></g><defs><clipPath id="qclip0_344_1926"><path fill="#fff" transform="translate(.667 .51)" d="M0 0h72v72H0z"/></clipPath></defs></svg><svg fill="none" viewBox="0 0 113 113" id="serum10" xmlns="http://www.w3.org/2000/svg"><path d="M20.578 68.16c.71 0 1.597.178 2.483.178h2.661c1.774 0 3.548-.177 5.5-.355 3.547-.532 7.272-1.064 10.82-2.128 7.095-1.774 14.013-4.612 20.576-8.16 1.596-.887 3.193-1.951 4.79-2.838l2.483-1.42 2.306-1.596c1.596-1.064 3.015-2.128 4.612-3.37l4.257-3.725 2.129-1.774 1.95-1.951 4.08-4.08c2.484-2.66 4.79-5.676 7.273-8.514-2.306 3.015-4.434 6.208-6.74 9.224l-3.725 4.257-1.952 2.128-1.95 2.13-4.08 4.079c-1.42 1.242-2.839 2.483-4.435 3.725l-2.129 1.774-2.306 1.596c-1.596 1.065-3.015 2.306-4.79 3.37-6.562 4.258-13.48 7.628-20.93 10.111-3.725 1.242-7.45 2.306-11.353 3.016-1.951.355-3.902.71-5.854.887-1.064.177-1.95.177-3.015.355-1.064 0-1.951.177-3.193.177a3.558 3.558 0 01-3.548-3.548 3.558 3.558 0 013.548-3.547h.532z" fill="#ABB2BA"/><path d="M79.292 63.016v-.177s0-.178-.177-.178h-.71-.177s-5.144 3.193-12.062 5.322c-.355.177-.71.532-.532 1.064.177.355.532.71 1.064.532 3.725-1.242 6.918-2.483 9.224-3.725-3.725 4.08-12.95 11.53-33.703 16.142-.355.177-.71.532-.71.887s.355.71.71.71h.177C60.49 79.69 70.068 73.48 74.858 69.223c-.71 1.065-1.42 2.129-2.13 3.016-.354.355-.176.887.178 1.064.178.177.355.177.532.177.178 0 .532-.177.71-.354 2.838-3.548 5.144-9.224 5.321-9.579-.177-.177-.177-.355-.177-.532 0 .177 0 .177 0 0zM28.206 48.293c-1.774-2.306-3.37-3.902-3.726-6.74 0-.355-.354-.532-.532-.532-.177 0-.354 0-.354.177l-.178.177c-3.547 3.903-8.692 12.417-4.434 16.497.532.532 1.419 1.064 2.483 1.419 3.725 1.42 8.16-.532 8.87-4.612.354-2.306-.71-4.79-2.13-6.386zm-5.677 9.224c-4.966-1.242-2.306-6.208-2.306-6.208.887 3.902 3.193 2.66 4.258 3.37.886.887.886 3.37-1.952 2.838z" fill="#E81F76"/></svg><svg fill="none" viewBox="0 0 113 113" id="serum25" xmlns="http://www.w3.org/2000/svg"><path d="M20.245 68.244c.71 0 1.596.177 2.483.177h2.66c1.775 0 3.549-.177 5.5-.355 3.547-.532 7.272-1.064 10.82-2.128 7.096-1.774 14.014-4.612 20.577-8.16 1.596-.887 3.193-1.951 4.79-2.838l2.482-1.42 2.306-1.596c1.597-1.064 3.016-2.128 4.612-3.37l4.258-3.725 2.128-1.774 1.951-1.951 4.08-4.08c2.484-2.66 4.79-5.676 7.273-8.514-2.306 3.015-4.435 6.208-6.74 9.224l-3.726 4.257-1.95 2.129-1.952 2.128-4.08 4.08c-1.419 1.242-2.838 2.483-4.434 3.725l-2.13 1.774-2.305 1.596c-1.597 1.065-3.016 2.306-4.79 3.37-6.563 4.258-13.48 7.628-20.93 10.111-3.726 1.242-7.45 2.306-11.353 3.016-1.951.355-3.903.71-5.854.887-1.064.177-1.951.177-3.015.355-1.065 0-1.952.177-3.193.177a3.558 3.558 0 01-3.548-3.548 3.558 3.558 0 013.548-3.547h.532z" fill="#000"/><path d="M35.5 73.21c-1.065.355-2.306.533-3.37.887.354 2.484.177 4.435 0 5.5-.71-.888-1.597-2.484-2.484-4.967a51.174 51.174 0 01-1.064-3.725l-.532-2.661c-.533-3.193-.533-5.5-.355-6.74.71 1.064 1.951 3.192 2.838 6.562h.177c1.065-.177 2.129-.354 3.37-.532a36.953 36.953 0 00-2.483-6.386c-1.596-2.838-3.193-4.08-4.966-3.725-1.774.355-2.661 2.306-2.838 5.5v.709c0 1.419.177 3.015.354 4.612.178 1.064.355 2.128.71 3.193.355 1.241.532 2.306.887 3.37.532 1.774 1.241 3.548 1.95 4.79 1.775 2.66 3.194 3.902 4.613 3.902h.71c1.773-.355 2.66-2.306 2.66-5.5.178-1.418 0-3.015-.177-4.788zM43.483 70.906c-.178 0-.178 0-.355.177-.532.178-1.242.355-1.952.532.178 1.242 0 2.13 0 2.484-.354-.355-.71-1.065-1.064-2.129-.177-.355-.177-.532-.355-.887-.177-.71-.532-1.419-.71-2.306-.177-.532-.177-1.064-.354-1.597v-.532c-.178-1.774-.178-3.015-.178-3.548a12.825 12.825 0 011.597 3.193c.532-.177 1.064-.177 1.42-.354.177 0 .531-.178.709-.178-.355-1.064-.71-2.128-1.242-3.015-.887-1.774-1.951-2.484-3.016-2.306-1.064.177-1.596 1.419-1.774 3.37v.532c0 .887 0 1.774.178 2.661v.177c.177.71.177 1.242.355 1.952l.532 2.129c.177.354.355.886.532 1.241.177.71.532 1.242.887 1.774.887 1.597 1.774 2.306 2.66 2.306h.355c1.065-.177 1.597-1.419 1.775-3.37.177-.71.177-1.42 0-2.306z" fill="#E81F76"/><path d="M31.952 74.099c-.887.177-1.596.354-2.306.354a51.124 51.124 0 01-1.064-3.725l-.532-2.661c.887 0 1.774-.177 2.66-.177.178.71.355 1.419.533 2.306.355 1.419.532 2.66.71 3.903z" fill="#000"/></svg><svg fill="none" viewBox="0 0 113 113" id="serum60" xmlns="http://www.w3.org/2000/svg"><g clip-path="url(#tclip0_328_589)"><path d="M20.897 79.274c1.788.325 3.902.65 5.853.65 2.114.163 4.065.163 6.18 0 4.064-.162 8.292-.812 12.194-1.625 8.13-1.952 15.773-5.366 22.602-10.244 6.83-4.878 12.683-11.057 17.398-18.212 4.878-6.992 8.618-14.796 11.708-22.764-2.44 8.293-5.854 16.26-10.244 23.74-4.39 7.48-10.082 14.309-16.91 19.837-6.83 5.529-14.798 9.756-23.253 12.358-4.227 1.3-8.618 2.114-13.17 2.602-2.277.162-4.39.325-6.667.325s-4.39 0-6.992-.325c-1.789-.163-3.09-1.951-2.764-3.578.162-1.788 1.95-3.089 3.577-2.764.325-.162.325-.162.488 0z" fill="#000"/><path d="M20.734 67.404c2.602.488 5.691.65 8.618.65a79.45 79.45 0 008.78-.487c5.854-.65 11.545-1.952 17.074-4.065 5.528-2.114 10.731-5.204 15.121-9.106 4.553-3.903 8.293-8.78 11.22-13.984-2.439 5.529-5.854 10.732-10.081 15.122-4.228 4.39-9.431 8.13-14.96 10.894-5.528 2.765-11.544 4.716-17.723 5.854-3.09.65-6.179.976-9.268 1.3-3.09.163-6.18.326-9.594.163-1.789-.162-3.09-1.626-3.09-3.414.163-1.789 1.627-3.09 3.415-3.09.163.163.325.163.488.163z" fill="#000"/><path d="M20.571 56.673c4.066.487 8.456.65 12.846.65 4.39-.163 8.618-.488 12.846-1.463 4.227-.813 8.455-2.114 12.357-4.065 1.951-.976 3.74-2.114 5.529-3.415 1.788-1.3 3.414-2.927 4.715-4.553-1.3 1.789-2.602 3.577-4.228 5.203-1.625 1.626-3.414 2.927-5.203 4.228-3.74 2.44-7.967 4.39-12.195 5.854-4.39 1.463-8.78 2.439-13.333 3.09-4.553.65-9.106.975-13.821.975a3.262 3.262 0 01-3.252-3.252 3.262 3.262 0 013.252-3.252h.487z" fill="#000"/><path fill-rule="evenodd" clip-rule="evenodd" d="M41.091 40.846c.14.053.32.201.36.297l2.709 4.472c.34.53 1.12.425 1.32-.22l1.594-5.16c.06-.138.22-.318.32-.36l4.819-2.815c.56-.348.479-1.1-.182-1.27l-5.245-1.271c-.14-.054-.32-.202-.36-.298l-2.708-4.472c-.341-.53-1.121-.425-1.32.22l-1.595 5.16c-.06.138-.22.318-.32.36l-4.818 2.815c-.56.348-.48 1.1.181 1.27l5.245 1.272zM63.097 31.75c-.014.078-.074.185-.12.215l-2.054 1.822c-.242.226-.114.62.238.661l2.817.336a.44.44 0 01.216.131l1.91 2.224c.232.256.613.143.639-.214l.16-2.83c.015-.077.075-.185.12-.214l2.055-1.822c.241-.226.114-.62-.239-.661l-2.817-.336a.441.441 0 01-.215-.131l-1.91-2.224c-.233-.256-.614-.143-.64.214l-.16 2.83z" fill="#E81F76"/></g><defs><clipPath id="tclip0_328_589"><path fill="#fff" transform="translate(16.832 27.08)" d="M0 0h80v58.862H0z"/></clipPath></defs></svg></svg>