<?xml version="1.0" encoding="utf-8"?><svg viewBox="0 0 86 45" xmlns="http://www.w3.org/2000/svg" xmlns:xlink="http://www.w3.org/1999/xlink"><style>:root>svg{display:none}:root>svg:target{display:block}</style><svg viewBox="0 0 33 33" id="VK" xmlns="http://www.w3.org/2000/svg"><path fill-rule="evenodd" clip-rule="evenodd" d="M28.5 8.51c0-2.484-2.016-4.5-4.5-4.5H9a4.502 4.502 0 00-4.5 4.5v15c0 2.484 2.016 4.5 4.5 4.5h15c2.484 0 4.5-2.016 4.5-4.5v-15zM8.168 10.78h1.982c.495 0 .686.21.877.763.972 2.802 2.593 5.262 3.259 5.262.249 0 .363-.116.363-.744v-2.898c-.047-.824-.334-1.183-.546-1.449-.132-.165-.236-.294-.236-.476 0-.23.191-.457.495-.457h3.089c.42 0 .572.228.572.724v3.908c0 .418.172.571.305.571.248 0 .458-.153.916-.61 1.41-1.581 2.42-4.022 2.42-4.022.134-.286.362-.553.858-.553h1.964c.591 0 .724.306.591.724-.209.96-1.932 3.502-2.47 4.296a5.058 5.058 0 00-.161.242c-.21.343-.287.495 0 .877.103.14.32.354.57.598.258.254.55.54.783.812.838.953 1.486 1.754 1.659 2.307.152.552-.114.839-.687.839h-1.963c-.52 0-.788-.299-1.36-.935a24.036 24.036 0 00-.948-1.01c-1.162-1.124-1.677-1.277-1.963-1.277-.399 0-.514.096-.514.667v1.773c0 .477-.152.762-1.41.762-2.078 0-4.385-1.258-6.005-3.603-2.44-3.43-3.108-6.024-3.108-6.538 0-.285.096-.552.668-.552z"/></svg><svg viewBox="0 0 24 25" id="arrow" xmlns="http://www.w3.org/2000/svg"><g clip-path="url(#abclip0_45_228)"><path d="M20 12.59c0-.114 0-.114 0 0v-.114-.228c-.114-.229-.229-.458-.343-.458L14.286 6.42a1.105 1.105 0 00-1.6 0 1.105 1.105 0 000 1.6l3.428 3.429H5.143c-.686 0-1.143.457-1.143 1.142 0 .686.457 1.143 1.143 1.143h10.971l-3.428 3.429a1.105 1.105 0 000 1.6c.228.228.571.343.8.343.343 0 .571-.115.8-.343l5.371-5.372c.114-.114.114-.114.114-.228 0 0 0-.114.115-.114v-.229c.114-.114.114-.229.114-.229z"/></g><defs><clipPath id="abclip0_45_228"><path fill="#fff" transform="translate(4 6.076)" d="M0 0h16v12.914H0z"/></clipPath></defs></svg><svg viewBox="0 0 24 25" id="bag" xmlns="http://www.w3.org/2000/svg"><path d="M7.531 22.433c-2.073-.208-3.844-1.881-4.217-4.053-.143-.823-.187-5.611-.116-7.18.083-1.88 1.317-3.225 3.066-3.329 1.196-.071.944.093 1.108-1.102.274-1.997 1.668-3.686 3.648-4.125 2.693-.598 4.99 1.306 5.512 3.648.093.394.076.795.164 1.19.05.241.143.301.357.345.455.088.916.028 1.377.16 1.294.367 2.265 1.557 2.347 2.972a88.615 88.615 0 01-.011 6.724c-.126 2.671-2.194 4.591-4.404 4.761-1.454.11-7.339.132-8.83-.01zM6.484 9.632c-.998.005-1.618.652-1.624 1.706-.022 1.815-.01 3.625-.01 5.44 0 .4.065.801.098 1.202.115 1.294 1.399 2.616 2.874 2.703 2.188.138 4.371.077 6.56.094a17.47 17.47 0 002.078-.126 2.514 2.514 0 001.125-.406c1.058-.702 1.535-1.739 1.546-3.039.017-1.941.017-3.894 0-5.836-.005-1.091-.62-1.733-1.656-1.738-1.81-.006-9.137-.011-10.991 0zm8.155-1.838c.253.006.39-.06.379-.378-.077-1.76-1.316-3.16-3.066-3.126-1.711.033-2.88 1.382-2.99 3.088-.021.329.078.427.385.416.86-.016 4.388 0 5.293 0z"/><path d="M16.603 12.369c-.005.592-.45 1.042-1.026 1.03-.493-.01-.894-.46-.894-1.003 0-.603.384-1.026.933-1.02a.991.991 0 01.987.993zM9.232 12.369c0 .52-.478 1.03-.966 1.025-.488 0-.97-.51-.97-1.02a.993.993 0 01.97-.998c.593-.011.9.411.966.993z"/></svg><svg viewBox="0 0 24 24" id="burger-show" xmlns="http://www.w3.org/2000/svg"><path d="M5.8 6.8h16M5.8 12.8h14M5.8 18.8h12" stroke="#E81F76" stroke-width="2.5" stroke-miterlimit="10" stroke-linecap="round" stroke-linejoin="round"/></svg><svg viewBox="0 0 24 25" id="checkbox" xmlns="http://www.w3.org/2000/svg"><path d="M18.2 2.533H6.3c-2.3 0-4.3 1.9-4.3 4.3v11.8c0 2.4 2 4.3 4.3 4.3h11.8c2.4 0 4.3-2 4.3-4.3v-11.8c.1-2.4-1.8-4.3-4.2-4.3zm2.3 16.2c0 1.3-1 2.3-2.3 2.3H6.3c-1.3 0-2.3-1-2.3-2.3v-11.9c0-1.3 1-2.3 2.3-2.3h11.8c1.3 0 2.3 1 2.3 2.3v11.9h.1z"/></svg><svg viewBox="0 0 24 25" id="checkbox-active" xmlns="http://www.w3.org/2000/svg"><path d="M18.2 2.533H6.3c-2.4 0-4.3 1.9-4.3 4.3v11.8c0 2.4 1.9 4.3 4.3 4.3h11.8c2.4 0 4.3-2 4.3-4.3v-11.8c.1-2.4-1.8-4.3-4.2-4.3zm-.7 7.8l-6.4 6.4c-.4.4-1 .4-1.4 0l-2.8-2.8c-.4-.4-.4-1 0-1.4.4-.4 1-.4 1.4 0l2.2 2 5.7-5.7c.4-.4 1-.4 1.4 0 .3.5.3 1.1-.1 1.5z"/></svg><svg viewBox="0 0 25 25" id="chevrone" xmlns="http://www.w3.org/2000/svg"><path d="M9.7 7.054c-.4.4-.4 1 0 1.4l3.5 3.6-3.5 3.5c-.4.4-.4 1 0 1.4.4.4 1 .4 1.4 0l4.3-4.2c0-.1.1-.2.1-.3v-.1c0-.1.1-.2.1-.4s0-.3-.1-.4v-.1l-.1-.1-4.3-4.2c-.4-.5-1-.5-1.4-.1z"/></svg><svg viewBox="0 0 24 25" id="close" xmlns="http://www.w3.org/2000/svg"><path d="M13.933 12.467L18.6 7.8a1.289 1.289 0 000-1.867 1.289 1.289 0 00-1.867 0l-4.8 4.667-4.666-4.667a1.289 1.289 0 00-1.867 0 1.289 1.289 0 000 1.867l4.667 4.667-4.667 4.8a1.289 1.289 0 000 1.866c.267.267.667.4.933.4.267 0 .667-.133.934-.4l4.666-4.666 4.667 4.666c.267.267.667.4.933.4.267 0 .667-.133.934-.4a1.289 1.289 0 000-1.866l-4.534-4.8z"/></svg><svg viewBox="0 0 24 24" id="equals" xmlns="http://www.w3.org/2000/svg"><path d="M18 10H6c-.6 0-1-.4-1-1s.4-1 1-1h12c.6 0 1 .4 1 1s-.4 1-1 1zM18 16H6c-.6 0-1-.4-1-1s.4-1 1-1h12c.6 0 1 .4 1 1s-.4 1-1 1z"/></svg><svg viewBox="0 0 33 33" id="facebook" xmlns="http://www.w3.org/2000/svg"><path fill-rule="evenodd" clip-rule="evenodd" d="M18.375 28.01V17.185h3.71l.555-4.307h-4.265v-2.75c0-1.246.347-2.095 2.135-2.095l2.28-.002V4.18c-.395-.053-1.748-.17-3.323-.17-3.287 0-5.539 2.007-5.539 5.694v3.175H10.21v4.308h3.718V28.01h4.447z"/></svg><svg viewBox="0 0 33 33" id="instagram" xmlns="http://www.w3.org/2000/svg"><path fill-rule="evenodd" clip-rule="evenodd" d="M21.78 28.01H11.22c-3.71 0-6.72-3.01-6.72-6.72V10.73c0-3.71 3.01-6.72 6.72-6.72h10.56c3.71 0 6.72 3.01 6.72 6.72v10.56c0 3.71-3.01 6.72-6.72 6.72zm-.06-21H11.28a3.781 3.781 0 00-3.78 3.78v10.44a3.781 3.781 0 003.78 3.78h10.44a3.781 3.781 0 003.78-3.78V10.79a3.781 3.781 0 00-3.78-3.78zm.78 1.5a1.5 1.5 0 11-.001 3 1.5 1.5 0 01.001-3zm-6 1.5c3.312 0 6 2.688 6 6s-2.688 6-6 6-6-2.688-6-6 2.688-6 6-6zm0 3a3.001 3.001 0 010 6 3.001 3.001 0 010-6z"/></svg><svg viewBox="0 0 34 34" id="lil-1" xmlns="http://www.w3.org/2000/svg"><path fill-rule="evenodd" clip-rule="evenodd" d="M9.41 21.005c.212.212.423.635.423.847l1.482 10.58c.211 1.269 1.692 1.692 2.539.634l6.77-8.464c.212-.211.635-.423.847-.423l10.791-1.48c1.27-.212 1.693-1.694.635-2.54l-8.464-6.56c-.211-.21-.423-.634-.423-.846l-1.481-10.58c-.212-1.269-1.693-1.692-2.54-.634l-6.77 8.464c-.212.211-.635.423-.846.423L1.58 11.907c-1.27.212-1.692 1.693-.634 2.54l8.463 6.558z"/></svg><svg viewBox="0 0 19 19" id="lil-2" xmlns="http://www.w3.org/2000/svg"><path opacity=".5" d="M11.354 18.63c-.413 0-.827-.275-1.103-.551l-3.035-4.138-5.103-.828c-.552-.137-1.104-.551-1.241-1.103-.138-.552.137-1.104.551-1.517L5.561 7.32l.828-5.103c.138-.552.552-1.104 1.103-1.242.552-.138 1.104.138 1.518.552l3.034 4.138 5.104.828c.551.138 1.103.551 1.241 1.103.276.69 0 1.242-.414 1.655l-4.138 3.173-.965 4.965c-.138.552-.552 1.104-1.104 1.242h-.414zm-3.862-6.344c.414 0 .69.276.966.552l2.896 4 .828-4.828c0-.414.276-.69.552-.966l4-2.896-4.828-.828c-.414 0-.69-.276-.965-.551l-2.897-4-.828 4.827c0 .414-.275.69-.551.966l-4 2.896 4.827.828z"/></svg><svg viewBox="0 0 11 12" id="lil-3" xmlns="http://www.w3.org/2000/svg"><path opacity=".5" d="M5.38 11.08C2.344 11.08 0 8.597 0 5.7 0 2.667 2.483.322 5.38.322c2.896 0 5.379 2.483 5.379 5.38 0 3.034-2.345 5.38-5.38 5.38zm0-9.104c-2.07 0-3.863 1.656-3.863 3.863C1.517 7.908 3.172 9.7 5.38 9.7s3.863-1.655 3.863-3.862-1.794-3.863-3.863-3.863z"/></svg><svg viewBox="0 0 24 24" id="minus" xmlns="http://www.w3.org/2000/svg"><path d="M18 13H6c-.6 0-1-.4-1-1s.4-1 1-1h12c.6 0 1 .4 1 1s-.4 1-1 1z"/></svg><svg viewBox="0 0 25 25" id="no" xmlns="http://www.w3.org/2000/svg"><g clip-path="url(#apclip0_328_843)"><path d="M13.013.51C6.293.51.944 5.858.944 12.578s5.349 12.069 12.069 12.069c6.72 0 12.069-5.349 12.069-12.069C25.082 5.858 19.596.51 13.013.51zm0 21.943c-5.486 0-10.011-4.526-10.011-10.012 0-5.486 4.525-10.011 10.011-10.011 5.486 0 9.874 4.663 9.874 10.148 0 5.486-4.525 9.875-9.874 9.875z"/><path d="M18.087 7.367a1.076 1.076 0 00-1.508 0l-3.566 3.703-3.84-3.703c-.411-.411-.96-.411-1.371 0-.412.412-.412.96 0 1.372l3.702 3.702-3.702 3.84a1.076 1.076 0 000 1.509c.137.137.411.274.685.274.275 0 .549-.137.686-.274l3.703-3.703 3.703 3.703c.137.137.411.274.685.274.275 0 .549-.137.686-.274a1.076 1.076 0 000-1.508l-3.566-3.703 3.703-3.84c.412-.412.412-.96 0-1.372z"/></g><defs><clipPath id="apclip0_328_843"><path fill="#fff" transform="translate(.944 .51)" d="M0 0h24v24H0z"/></clipPath></defs></svg><svg viewBox="0 0 25 25" id="ok" xmlns="http://www.w3.org/2000/svg"><g clip-path="url(#aqclip0_328_729)"><path d="M12.895 24.51C6.249 24.51.833 19.094.833 12.57S6.25.51 12.895.51c6.646 0 12.061 5.415 12.061 12.061 0 6.647-5.538 11.939-12.061 11.939zm0-22.154C7.356 2.356 2.679 6.91 2.679 12.57c0 5.662 4.554 10.093 10.216 10.093A10.059 10.059 0 0022.987 12.57c0-5.538-4.554-10.215-10.092-10.215z"/><path d="M11.418 16.386a.94.94 0 01-.615-.246l-2.954-2.954a.966.966 0 010-1.354.966.966 0 011.354 0l2.215 2.216 5.17-5.17a.966.966 0 011.353 0c.37.37.37.985 0 1.354l-5.784 5.785c-.37.246-.493.37-.739.37z"/></g><defs><clipPath id="aqclip0_328_729"><path fill="#fff" transform="translate(.833 .51)" d="M0 0h24v24H0z"/></clipPath></defs></svg><svg viewBox="0 0 24 25" id="pause" xmlns="http://www.w3.org/2000/svg"><path fill-rule="evenodd" clip-rule="evenodd" d="M9 5.533a1 1 0 011 1v12a1 1 0 01-1 1H7a1 1 0 01-1-1v-12a1 1 0 011-1h2zm8 0a1 1 0 011 1v12a1 1 0 01-1 1h-2a1 1 0 01-1-1v-12a1 1 0 011-1h2z"/></svg><svg viewBox="0 0 16 17" id="play" xmlns="http://www.w3.org/2000/svg"><path fill-rule="evenodd" clip-rule="evenodd" d="M3.891 14.834A1.253 1.253 0 012 13.758V2.262a1.253 1.253 0 011.913-1.063l9.421 5.692a1.273 1.273 0 010 2.238l-9.43 5.698-.013.007z"/></svg><svg viewBox="0 0 24 24" id="play-2" xmlns="http://www.w3.org/2000/svg"><path fill-rule="evenodd" clip-rule="evenodd" d="M3.891 14.834A1.253 1.253 0 012 13.758V2.262a1.253 1.253 0 011.913-1.063l9.421 5.692a1.273 1.273 0 010 2.238l-9.43 5.698-.013.007z"/></svg><svg viewBox="0 0 24 24" id="play_w16in24" xmlns="http://www.w3.org/2000/svg"><path fill-rule="evenodd" clip-rule="evenodd" d="M6.161 19.799A1.432 1.432 0 014 18.569V5.431a1.432 1.432 0 012.186-1.215l10.767 6.505a1.454 1.454 0 010 2.558L6.176 19.79l-.015.008z"/></svg><svg viewBox="0 0 24 25" id="plus" xmlns="http://www.w3.org/2000/svg"><path d="M13.414 13.853h6.6c.754 0 1.32-.566 1.32-1.32 0-.754-.566-1.32-1.32-1.32l-6.694-.094v-6.6c0-.754-.566-1.32-1.32-1.32-.754 0-1.32.566-1.32 1.32v6.6l-6.694.094c-.754 0-1.32.566-1.32 1.32 0 .377.189.755.377.943.189.189.566.377.943.377h6.6v6.6c0 .377.188.754.377.943.189.188.566.377.943.377.754 0 1.32-.566 1.32-1.32l.188-6.6z"/></svg><svg viewBox="0 0 24 24" id="remove" xmlns="http://www.w3.org/2000/svg"><path d="M9 4.5h6c.6 0 1-.4 1-1s-.4-1-1-1H9c-.6 0-1 .4-1 1s.4 1 1 1zM20 5.5H4c-.6 0-1 .4-1 1s.4 1 1 1h1v10c0 2.2 1.8 4 4 4h6c2.2 0 4-1.8 4-4v-10h1c.6 0 1-.4 1-1s-.4-1-1-1zm-3 12c0 1.1-.9 2-2 2H9c-1.1 0-2-.9-2-2v-10h10v10z"/></svg><svg viewBox="0 0 24 25" id="show-off" xmlns="http://www.w3.org/2000/svg"><path fill-rule="evenodd" clip-rule="evenodd" d="M15.949 7.417l1.578-1.578A1.041 1.041 0 1119 7.312L6.473 19.838A1.041 1.041 0 115 18.366l1.409-1.409C4.823 15.405 4 13.546 4 12.84c0-1.303 2.698-6.512 8-6.512 1.536 0 2.853.437 3.949 1.09zm2.573 2.314C19.505 11.005 20 12.28 20 12.838c0 1.303-2.791 6.513-8 6.513a7.452 7.452 0 01-2.626-.473l2.331-2.33a3.731 3.731 0 004.004-4.004l2.813-2.813zm-4.735-.153A3.688 3.688 0 0012 9.118a3.731 3.731 0 00-3.721 3.72c0 .648.167 1.257.46 1.788l1.319-1.319a1.931 1.931 0 01-.058-.469c0-1.143.857-2 2-2 .163 0 .321.02.471.057l1.316-1.317z"/></svg><svg viewBox="0 0 24 25" id="show-on" xmlns="http://www.w3.org/2000/svg"><path fill-rule="evenodd" clip-rule="evenodd" d="M12 5.533c-5.302 0-8 5.21-8 6.512 0 1.302 2.791 6.512 8 6.512s8-5.21 8-6.512c0-1.302-2.698-6.512-8-6.512zm0 10.233a3.731 3.731 0 01-3.721-3.72A3.731 3.731 0 0112 8.323a3.731 3.731 0 013.721 3.721A3.731 3.731 0 0112 15.766zm0-5.72c1.143 0 2 .952 2 2 0 1.142-.952 2-2 2-1.143 0-2-.953-2-2 0-1.143.857-2 2-2z"/></svg><svg viewBox="0 0 13 13" id="star" xmlns="http://www.w3.org/2000/svg"><g clip-path="url(#azclip0_346_2271)"><path d="M6.167 2.08l1.2 2 .2.4.4.1 2.4.6-1.6 1.8-.2.3v.4l.2 2.4-2.2-.9-.4-.2-.4.2-2.2.9.2-2.4v-.4l-.2-.3-1.6-1.8 2.3-.6.4-.1.2-.4 1.3-2zm0-1.9l-2.1 3.4-3.9 1 2.6 3.1-.3 4 3.7-1.6 3.7 1.5-.3-4 2.6-3-3.9-1-2.1-3.4z"/></g><defs><clipPath id="azclip0_346_2271"><path fill="#fff" transform="translate(.167 .18)" d="M0 0h12v12H0z"/></clipPath></defs></svg><svg viewBox="0 0 13 13" id="star-fill" xmlns="http://www.w3.org/2000/svg"><g clip-path="url(#baclip0_346_2267)"><path d="M12.167 4.58l-3.9-1-2.1-3.4-2.1 3.4-3.9 1 2.6 3-.3 4 3.7-1.5 3.7 1.5-.3-4 2.6-3z"/></g><defs><clipPath id="baclip0_346_2267"><path fill="#fff" transform="translate(.167 .18)" d="M0 0h12v12H0z"/></clipPath></defs></svg><svg viewBox="0 0 86 45" id="tail" xmlns="http://www.w3.org/2000/svg"><path d="M26.357 1.632C22.473 19.72 12.389 31.258 1.714 38.012c-2.02 1.277-.902 6.497 1.48 6.31 51.297-4.034 67.018-25.223 81.5-40.855C85.903 2.164 84.997 0 83.22 0H28.34c-.96 0-1.78.692-1.982 1.632z"/></svg><svg viewBox="0 0 54 17" id="vector" xmlns="http://www.w3.org/2000/svg"><path d="M53.185 1.198c-4.617.308-9.097.896-13.64 1.884a74.004 74.004 0 00-6.589 1.604l-3.278.948c-1.128.32-2.14.725-3.268 1.045-4.28 1.45-8.299 3.363-12.454 4.996-2.14.725-4.155 1.632-6.295 2.357-2.14.726-4.26 1.645-6.514 2.284-.22-.074-.335-.16-.346-.257-.01-.097-.01-.097.084-.205 3.254-3.106 7.187-5.795 11.3-7.816a33.24 33.24 0 013.225-1.433c1.117-.417 2.234-.834 3.362-1.153 1.117-.417 2.255-.64 3.383-.96 1.127-.32 2.255-.639 3.393-.862 4.522-1.181 9.19-1.987 13.785-2.489C43.939.736 48.66.416 53.247.798c.104-.011.22.075.23.172-.083.205-.188.217-.292.228z"/></svg><svg viewBox="0 0 24 24" id="volumn-off" xmlns="http://www.w3.org/2000/svg"><path fill-rule="evenodd" clip-rule="evenodd" d="M10.937 5.291A1 1 0 0112.642 6v12a1 1 0 01-1.697.717L7 15H5.25C4.56 15 4 14.44 4 13.75v-3.5C4 9.56 4.56 9 5.25 9H7l3.937-3.709zm6.056 6.09l1.554-1.553a.82.82 0 011.16 1.161l-1.553 1.553 1.553 1.553a.81.81 0 11-1.147 1.147l-1.554-1.553-1.553 1.553a.819.819 0 11-1.16-1.16l1.553-1.553-1.553-1.553a.812.812 0 011.147-1.148l1.553 1.553z"/></svg><svg viewBox="0 0 24 24" id="volumn-on" xmlns="http://www.w3.org/2000/svg"><path fill-rule="evenodd" clip-rule="evenodd" d="M10.937 5.291A1 1 0 0112.642 6v12a1 1 0 01-1.697.717L7 15H5.25C4.56 15 4 14.44 4 13.75v-3.5C4 9.56 4.56 9 5.25 9H7l3.937-3.709zm7.35 6.71a5.105 5.105 0 00-4.115-4.974l-.021-.007a.862.862 0 01.507-1.646l.303.08A6.821 6.821 0 0120 12a6.821 6.821 0 01-5.039 6.547l-.303.08a.861.861 0 01-.507-1.647l.021-.007A5.105 5.105 0 0018.287 12zM15 12a1.812 1.812 0 00-.952-1.564l-.01-.008a.833.833 0 01.939-1.369l.186.109A3.478 3.478 0 0116.666 12a3.478 3.478 0 01-1.503 2.831l-.186.11a.832.832 0 01-.939-1.37l.01-.008c.558-.3.94-.887.952-1.563z"/></svg></svg>