<?xml version="1.0" encoding="utf-8"?><svg viewBox="0 0 54 33" xmlns="http://www.w3.org/2000/svg" xmlns:xlink="http://www.w3.org/1999/xlink"><style>:root>svg{display:none}:root>svg:target{display:block}</style><svg viewBox="0 0 33 33" id="VK" xmlns="http://www.w3.org/2000/svg"><path fill-rule="evenodd" clip-rule="evenodd" d="M28.5 8.51c0-2.484-2.016-4.5-4.5-4.5H9a4.502 4.502 0 00-4.5 4.5v15c0 2.484 2.016 4.5 4.5 4.5h15c2.484 0 4.5-2.016 4.5-4.5v-15zM8.168 10.78h1.982c.495 0 .686.21.877.763.972 2.802 2.593 5.262 3.259 5.262.249 0 .363-.116.363-.744v-2.898c-.047-.824-.334-1.183-.546-1.449-.132-.165-.236-.294-.236-.476 0-.23.191-.457.495-.457h3.089c.42 0 .572.228.572.724v3.908c0 .418.172.571.305.571.248 0 .458-.153.916-.61 1.41-1.581 2.42-4.022 2.42-4.022.134-.286.362-.553.858-.553h1.964c.591 0 .724.306.591.724-.209.96-1.932 3.502-2.47 4.296a5.058 5.058 0 00-.161.242c-.21.343-.287.495 0 .877.103.14.32.354.57.598.258.254.55.54.783.812.838.953 1.486 1.754 1.659 2.307.152.552-.114.839-.687.839h-1.963c-.52 0-.788-.299-1.36-.935a24.036 24.036 0 00-.948-1.01c-1.162-1.124-1.677-1.277-1.963-1.277-.399 0-.514.096-.514.667v1.773c0 .477-.152.762-1.41.762-2.078 0-4.385-1.258-6.005-3.603-2.44-3.43-3.108-6.024-3.108-6.538 0-.285.096-.552.668-.552z"/></svg><svg viewBox="0 0 24 25" id="arrow" xmlns="http://www.w3.org/2000/svg"><g clip-path="url(#bclip0_45_228)"><path d="M20 12.59c0-.114 0-.114 0 0v-.114-.228c-.114-.229-.229-.458-.343-.458L14.286 6.42a1.105 1.105 0 00-1.6 0 1.105 1.105 0 000 1.6l3.428 3.429H5.143c-.686 0-1.143.457-1.143 1.142 0 .686.457 1.143 1.143 1.143h10.971l-3.428 3.429a1.105 1.105 0 000 1.6c.228.228.571.343.8.343.343 0 .571-.115.8-.343l5.371-5.372c.114-.114.114-.114.114-.228 0 0 0-.114.115-.114v-.229c.114-.114.114-.229.114-.229z"/></g><defs><clipPath id="bclip0_45_228"><path fill="#fff" transform="translate(4 6.076)" d="M0 0h16v12.914H0z"/></clipPath></defs></svg><svg viewBox="0 0 24 25" id="bag" xmlns="http://www.w3.org/2000/svg"><path d="M7.531 22.433c-2.073-.208-3.844-1.881-4.217-4.053-.143-.823-.187-5.611-.116-7.18.083-1.88 1.317-3.225 3.066-3.329 1.196-.071.944.093 1.108-1.102.274-1.997 1.668-3.686 3.648-4.125 2.693-.598 4.99 1.306 5.512 3.648.093.394.076.795.164 1.19.05.241.143.301.357.345.455.088.916.028 1.377.16 1.294.367 2.265 1.557 2.347 2.972a88.615 88.615 0 01-.011 6.724c-.126 2.671-2.194 4.591-4.404 4.761-1.454.11-7.339.132-8.83-.01zM6.484 9.632c-.998.005-1.618.652-1.624 1.706-.022 1.815-.01 3.625-.01 5.44 0 .4.065.801.098 1.202.115 1.294 1.399 2.616 2.874 2.703 2.188.138 4.371.077 6.56.094a17.47 17.47 0 002.078-.126 2.514 2.514 0 001.125-.406c1.058-.702 1.535-1.739 1.546-3.039.017-1.941.017-3.894 0-5.836-.005-1.091-.62-1.733-1.656-1.738-1.81-.006-9.137-.011-10.991 0zm8.155-1.838c.253.006.39-.06.379-.378-.077-1.76-1.316-3.16-3.066-3.126-1.711.033-2.88 1.382-2.99 3.088-.021.329.078.427.385.416.86-.016 4.388 0 5.293 0z"/><path d="M16.603 12.369c-.005.592-.45 1.042-1.026 1.03-.493-.01-.894-.46-.894-1.003 0-.603.384-1.026.933-1.02a.991.991 0 01.987.993zM9.232 12.369c0 .52-.478 1.03-.966 1.025-.488 0-.97-.51-.97-1.02a.993.993 0 01.97-.998c.593-.011.9.411.966.993z"/></svg><svg viewBox="0 0 25 25" id="chevrone" xmlns="http://www.w3.org/2000/svg"><path d="M9.7 7.054c-.4.4-.4 1 0 1.4l3.5 3.6-3.5 3.5c-.4.4-.4 1 0 1.4.4.4 1 .4 1.4 0l4.3-4.2c0-.1.1-.2.1-.3v-.1c0-.1.1-.2.1-.4s0-.3-.1-.4v-.1l-.1-.1-4.3-4.2c-.4-.5-1-.5-1.4-.1z"/></svg><svg viewBox="0 0 24 25" id="close" xmlns="http://www.w3.org/2000/svg"><path d="M13.933 12.467L18.6 7.8a1.289 1.289 0 000-1.867 1.289 1.289 0 00-1.867 0l-4.8 4.667-4.666-4.667a1.289 1.289 0 00-1.867 0 1.289 1.289 0 000 1.867l4.667 4.667-4.667 4.8a1.289 1.289 0 000 1.866c.267.267.667.4.933.4.267 0 .667-.133.934-.4l4.666-4.666 4.667 4.666c.267.267.667.4.933.4.267 0 .667-.133.934-.4a1.289 1.289 0 000-1.866l-4.534-4.8z"/></svg><svg viewBox="0 0 33 33" id="facebook" xmlns="http://www.w3.org/2000/svg"><path fill-rule="evenodd" clip-rule="evenodd" d="M18.375 28.01V17.185h3.71l.555-4.307h-4.265v-2.75c0-1.246.347-2.095 2.135-2.095l2.28-.002V4.18c-.395-.053-1.748-.17-3.323-.17-3.287 0-5.539 2.007-5.539 5.694v3.175H10.21v4.308h3.718V28.01h4.447z"/></svg><svg viewBox="0 0 33 33" id="instagram" xmlns="http://www.w3.org/2000/svg"><path fill-rule="evenodd" clip-rule="evenodd" d="M21.78 28.01H11.22c-3.71 0-6.72-3.01-6.72-6.72V10.73c0-3.71 3.01-6.72 6.72-6.72h10.56c3.71 0 6.72 3.01 6.72 6.72v10.56c0 3.71-3.01 6.72-6.72 6.72zm-.06-21H11.28a3.781 3.781 0 00-3.78 3.78v10.44a3.781 3.781 0 003.78 3.78h10.44a3.781 3.781 0 003.78-3.78V10.79a3.781 3.781 0 00-3.78-3.78zm.78 1.5a1.5 1.5 0 11-.001 3 1.5 1.5 0 01.001-3zm-6 1.5c3.312 0 6 2.688 6 6s-2.688 6-6 6-6-2.688-6-6 2.688-6 6-6zm0 3a3.001 3.001 0 010 6 3.001 3.001 0 010-6z"/></svg><svg viewBox="0 0 24 25" id="pause" xmlns="http://www.w3.org/2000/svg"><path fill-rule="evenodd" clip-rule="evenodd" d="M9 5.533a1 1 0 011 1v12a1 1 0 01-1 1H7a1 1 0 01-1-1v-12a1 1 0 011-1h2zm8 0a1 1 0 011 1v12a1 1 0 01-1 1h-2a1 1 0 01-1-1v-12a1 1 0 011-1h2z"/></svg><svg viewBox="0 0 16 17" id="play" xmlns="http://www.w3.org/2000/svg"><path fill-rule="evenodd" clip-rule="evenodd" d="M3.891 14.834A1.253 1.253 0 012 13.758V2.262a1.253 1.253 0 011.913-1.063l9.421 5.692a1.273 1.273 0 010 2.238l-9.43 5.698-.013.007z"/></svg><svg viewBox="0 0 24 25" id="plus" xmlns="http://www.w3.org/2000/svg"><path d="M13.414 13.853h6.6c.754 0 1.32-.566 1.32-1.32 0-.754-.566-1.32-1.32-1.32l-6.694-.094v-6.6c0-.754-.566-1.32-1.32-1.32-.754 0-1.32.566-1.32 1.32v6.6l-6.694.094c-.754 0-1.32.566-1.32 1.32 0 .377.189.755.377.943.189.189.566.377.943.377h6.6v6.6c0 .377.188.754.377.943.189.188.566.377.943.377.754 0 1.32-.566 1.32-1.32l.188-6.6z"/></svg><svg viewBox="0 0 13 13" id="star" xmlns="http://www.w3.org/2000/svg"><g clip-path="url(#kclip0_346_2271)"><path d="M6.167 2.08l1.2 2 .2.4.4.1 2.4.6-1.6 1.8-.2.3v.4l.2 2.4-2.2-.9-.4-.2-.4.2-2.2.9.2-2.4v-.4l-.2-.3-1.6-1.8 2.3-.6.4-.1.2-.4 1.3-2zm0-1.9l-2.1 3.4-3.9 1 2.6 3.1-.3 4 3.7-1.6 3.7 1.5-.3-4 2.6-3-3.9-1-2.1-3.4z"/></g><defs><clipPath id="kclip0_346_2271"><path fill="#fff" transform="translate(.167 .18)" d="M0 0h12v12H0z"/></clipPath></defs></svg><svg viewBox="0 0 13 13" id="star-fill" xmlns="http://www.w3.org/2000/svg"><g clip-path="url(#lclip0_346_2267)"><path d="M12.167 4.58l-3.9-1-2.1-3.4-2.1 3.4-3.9 1 2.6 3-.3 4 3.7-1.5 3.7 1.5-.3-4 2.6-3z"/></g><defs><clipPath id="lclip0_346_2267"><path fill="#fff" transform="translate(.167 .18)" d="M0 0h12v12H0z"/></clipPath></defs></svg><svg viewBox="0 0 54 17" id="vector" xmlns="http://www.w3.org/2000/svg"><path d="M53.185 1.198c-4.617.308-9.097.896-13.64 1.884a74.004 74.004 0 00-6.589 1.604l-3.278.948c-1.128.32-2.14.725-3.268 1.045-4.28 1.45-8.299 3.363-12.454 4.996-2.14.725-4.155 1.632-6.295 2.357-2.14.726-4.26 1.645-6.514 2.284-.22-.074-.335-.16-.346-.257-.01-.097-.01-.097.084-.205 3.254-3.106 7.187-5.795 11.3-7.816a33.24 33.24 0 013.225-1.433c1.117-.417 2.234-.834 3.362-1.153 1.117-.417 2.255-.64 3.383-.96 1.127-.32 2.255-.639 3.393-.862 4.522-1.181 9.19-1.987 13.785-2.489C43.939.736 48.66.416 53.247.798c.104-.011.22.075.23.172-.083.205-.188.217-.292.228z"/></svg></svg>