<svg width="76" height="17" viewBox="0 0 76 17" fill="none" xmlns="http://www.w3.org/2000/svg">
<g clip-path="url(#clip0)">
<path fill-rule="evenodd" clip-rule="evenodd" d="M9.51608 0.545161C7.82997 0.367552 6.13023 0.716531 4.65051 1.54413C3.17078 2.37173 1.98371 3.63732 1.25244 5.16695C0.52118 6.69658 0.281628 8.41515 0.566715 10.0864C0.851802 11.7577 1.64753 13.2997 2.84453 14.5004C4.04153 15.7011 5.58104 16.5016 7.25145 16.7919C8.92185 17.0821 10.6412 16.8479 12.173 16.1214C13.7049 15.3948 14.9742 14.2117 15.8064 12.7345C16.6385 11.2574 16.9928 9.55873 16.8204 7.87208C16.6307 5.99726 15.8007 4.24506 14.4703 2.91054C13.1399 1.57601 11.3903 0.740666 9.51608 0.545161ZM9.25015 13.0494C8.34331 13.1711 7.42115 13.0055 6.61326 12.576C5.80537 12.1465 5.15238 11.4746 4.74605 10.6549C4.33972 9.83507 4.20049 8.90856 4.34792 8.00556C4.49535 7.10255 4.92203 6.26844 5.56799 5.62045C6.21396 4.97246 7.04673 4.54317 7.94927 4.39292C8.85181 4.24267 9.77875 4.379 10.5998 4.78276C11.4209 5.18652 12.0948 5.83741 12.5268 6.64395C12.9588 7.45049 13.1273 8.37213 13.0084 9.27935C12.8838 10.2336 12.448 11.1201 11.7686 11.8016C11.0891 12.4832 10.204 12.9218 9.25015 13.0494ZM21.2097 0.869821C20.9251 0.870502 20.6442 0.934629 20.3874 1.05754C20.1307 1.18044 19.9046 1.35904 19.7256 1.58033C19.5466 1.80162 19.4192 2.06003 19.3526 2.33677C19.286 2.6135 19.282 2.9016 19.3408 3.18009C19.5208 4.08232 20.3636 4.69878 21.2816 4.69878H26.6091L18.3183 15.6706C18.257 15.7516 18.2194 15.848 18.2099 15.9492C18.2003 16.0503 18.2191 16.1521 18.2642 16.2432C18.3092 16.3342 18.3787 16.4109 18.4649 16.4647C18.5511 16.5184 18.6506 16.5471 18.7522 16.5475H31.7572C32.6746 16.5475 33.5179 15.9312 33.698 15.0288C33.7568 14.7504 33.7528 14.4623 33.6863 14.1856C33.6198 13.9089 33.4924 13.6505 33.3135 13.4292C33.1346 13.2079 32.9085 13.0293 32.6519 12.9063C32.3953 12.7833 32.1144 12.7191 31.8298 12.7183H25.3387L33.6231 1.755C33.6851 1.67322 33.723 1.57579 33.7326 1.47367C33.7422 1.37154 33.7232 1.26875 33.6777 1.17683C33.6322 1.0849 33.5619 1.00749 33.4749 0.953257C33.3878 0.899028 33.2873 0.870136 33.1847 0.869821H21.2097ZM73.1767 0.913987C72.7461 1.01637 72.3634 1.26262 72.0918 1.61203C71.8202 1.96145 71.676 2.39309 71.683 2.8356V9.2107L61.3529 0.990231C61.2719 0.925927 61.1744 0.885798 61.0716 0.87446C60.9688 0.863122 60.8649 0.881036 60.7718 0.92614C60.6787 0.971245 60.6003 1.04171 60.5455 1.12942C60.4907 1.21714 60.4617 1.31855 60.462 1.42197V14.5852C60.455 15.0277 60.5992 15.4593 60.8708 15.8088C61.1424 16.1582 61.5252 16.4044 61.9557 16.5068C62.2353 16.5683 62.5252 16.5663 62.8039 16.5008C63.0826 16.4354 63.343 16.3082 63.566 16.1287C63.789 15.9492 63.9688 15.7219 64.0923 15.4636C64.2157 15.2053 64.2796 14.9226 64.2792 14.6363V8.20603L74.6094 16.4267C74.6904 16.4909 74.7879 16.531 74.8906 16.5423C74.9934 16.5537 75.0973 16.5358 75.1903 16.4907C75.2833 16.4456 75.3618 16.3752 75.4165 16.2875C75.4713 16.1998 75.5003 16.0985 75.5 15.9951V2.78384C75.5003 2.49763 75.4364 2.215 75.3129 1.9568C75.1894 1.69859 75.0096 1.47139 74.7866 1.29194C74.5637 1.11249 74.3033 0.985373 74.0246 0.91996C73.746 0.854547 73.4562 0.852505 73.1767 0.913987ZM46.2801 4.33228C50.6494 4.33228 53.9141 6.64132 53.9141 8.70674C53.9141 10.7722 50.6494 13.0812 46.2801 13.0812C41.9107 13.0812 38.646 10.7722 38.646 8.70674C38.646 6.64132 41.9107 4.33228 46.2801 4.33228ZM46.2801 0.503475C39.9556 0.503475 34.8288 4.17623 34.8288 8.70674C34.8288 13.2372 39.9556 16.91 46.2801 16.91C52.6045 16.91 57.7311 13.2372 57.7311 8.70674C57.7311 4.17623 52.6043 0.503475 46.2801 0.503475Z" fill="#0069FF"/>
</g>
<defs>
<clipPath id="clip0">
<rect width="75" height="16.4171" fill="white" transform="translate(0.5 0.5)"/>
</clipPath>
</defs>
</svg>
